<?xml version="1.0" encoding="utf-8" standalone="no"?>
<!DOCTYPE svg PUBLIC "-//W3C//DTD SVG 1.1//EN"
  "http://www.w3.org/Graphics/SVG/1.1/DTD/svg11.dtd">
<svg xmlns:xlink="http://www.w3.org/1999/xlink" width="504pt" height="288pt" viewBox="0 0 504 288" xmlns="http://www.w3.org/2000/svg" version="1.1">
 <metadata>
  <rdf:RDF xmlns:dc="http://purl.org/dc/elements/1.1/" xmlns:cc="http://creativecommons.org/ns#" xmlns:rdf="http://www.w3.org/1999/02/22-rdf-syntax-ns#">
   <cc:Work>
    <dc:type rdf:resource="http://purl.org/dc/dcmitype/StillImage"/>
    <dc:date>2023-06-26T13:40:01.163866</dc:date>
    <dc:format>image/svg+xml</dc:format>
    <dc:creator>
     <cc:Agent>
      <dc:title>Matplotlib v3.6.2, https://matplotlib.org/</dc:title>
     </cc:Agent>
    </dc:creator>
   </cc:Work>
  </rdf:RDF>
 </metadata>
 <defs>
  <style type="text/css">*{stroke-linejoin: round; stroke-linecap: butt}</style>
 </defs>
 <g id="figure_1">
  <g id="patch_1">
   <path d="M 0 288 
L 504 288 
L 504 0 
L 0 0 
z
" style="fill: #ffffff"/>
  </g>
  <g id="axes_1">
   <g id="patch_2">
    <path d="M 50.4 105.6 
L 453.6 105.6 
L 453.6 43.2 
L 50.4 43.2 
z
" style="fill: #ffffff"/>
   </g>
   <g id="matplotlib.axis_1">
    <g id="xtick_1"/>
    <g id="xtick_2"/>
    <g id="xtick_3"/>
    <g id="xtick_4"/>
    <g id="xtick_5"/>
    <g id="xtick_6"/>
    <g id="text_1">
     <!-- 2015-Sep-16 -->
     <g transform="translate(387.376563 116.251563) scale(0.1 -0.1)">
      <defs>
       <path id="DejaVuSansMono-32" d="M 1166 531 
L 3309 531 
L 3309 0 
L 475 0 
L 475 531 
Q 1059 1147 1496 1619 
Q 1934 2091 2100 2284 
Q 2413 2666 2522 2902 
Q 2631 3138 2631 3384 
Q 2631 3775 2401 3997 
Q 2172 4219 1772 4219 
Q 1488 4219 1175 4116 
Q 863 4013 513 3803 
L 513 4441 
Q 834 4594 1145 4672 
Q 1456 4750 1759 4750 
Q 2444 4750 2861 4386 
Q 3278 4022 3278 3431 
Q 3278 3131 3139 2831 
Q 3000 2531 2688 2169 
Q 2513 1966 2180 1606 
Q 1847 1247 1166 531 
z
" transform="scale(0.015625)"/>
       <path id="DejaVuSansMono-30" d="M 1509 2344 
Q 1509 2516 1629 2641 
Q 1750 2766 1919 2766 
Q 2094 2766 2219 2641 
Q 2344 2516 2344 2344 
Q 2344 2169 2220 2047 
Q 2097 1925 1919 1925 
Q 1744 1925 1626 2044 
Q 1509 2163 1509 2344 
z
M 1925 4250 
Q 1484 4250 1267 3775 
Q 1050 3300 1050 2328 
Q 1050 1359 1267 884 
Q 1484 409 1925 409 
Q 2369 409 2586 884 
Q 2803 1359 2803 2328 
Q 2803 3300 2586 3775 
Q 2369 4250 1925 4250 
z
M 1925 4750 
Q 2672 4750 3055 4137 
Q 3438 3525 3438 2328 
Q 3438 1134 3055 521 
Q 2672 -91 1925 -91 
Q 1178 -91 797 521 
Q 416 1134 416 2328 
Q 416 3525 797 4137 
Q 1178 4750 1925 4750 
z
" transform="scale(0.015625)"/>
       <path id="DejaVuSansMono-31" d="M 844 531 
L 1825 531 
L 1825 4097 
L 769 3859 
L 769 4434 
L 1819 4666 
L 2450 4666 
L 2450 531 
L 3419 531 
L 3419 0 
L 844 0 
L 844 531 
z
" transform="scale(0.015625)"/>
       <path id="DejaVuSansMono-35" d="M 647 4666 
L 3009 4666 
L 3009 4134 
L 1222 4134 
L 1222 2988 
Q 1356 3038 1492 3061 
Q 1628 3084 1766 3084 
Q 2491 3084 2916 2656 
Q 3341 2228 3341 1497 
Q 3341 759 2895 334 
Q 2450 -91 1678 -91 
Q 1306 -91 998 -41 
Q 691 9 447 109 
L 447 750 
Q 734 594 1025 517 
Q 1316 441 1619 441 
Q 2141 441 2423 716 
Q 2706 991 2706 1497 
Q 2706 1997 2414 2275 
Q 2122 2553 1600 2553 
Q 1347 2553 1106 2495 
Q 866 2438 647 2322 
L 647 4666 
z
" transform="scale(0.015625)"/>
       <path id="DejaVuSansMono-2d" d="M 1113 2009 
L 2741 2009 
L 2741 1497 
L 1113 1497 
L 1113 2009 
z
" transform="scale(0.015625)"/>
       <path id="DejaVuSansMono-53" d="M 3163 4506 
L 3163 3866 
Q 2875 4050 2586 4144 
Q 2297 4238 2003 4238 
Q 1556 4238 1297 4030 
Q 1038 3822 1038 3469 
Q 1038 3159 1208 2996 
Q 1378 2834 1844 2725 
L 2175 2650 
Q 2831 2497 3131 2169 
Q 3431 1841 3431 1275 
Q 3431 609 3018 259 
Q 2606 -91 1819 -91 
Q 1491 -91 1159 -20 
Q 828 50 494 191 
L 494 863 
Q 853 634 1173 528 
Q 1494 422 1819 422 
Q 2297 422 2562 636 
Q 2828 850 2828 1234 
Q 2828 1584 2645 1768 
Q 2463 1953 2009 2053 
L 1672 2131 
Q 1022 2278 728 2575 
Q 434 2872 434 3372 
Q 434 3997 854 4373 
Q 1275 4750 1972 4750 
Q 2241 4750 2537 4689 
Q 2834 4628 3163 4506 
z
" transform="scale(0.015625)"/>
       <path id="DejaVuSansMono-65" d="M 3475 1894 
L 3475 1613 
L 984 1613 
L 984 1594 
Q 984 1022 1282 709 
Q 1581 397 2125 397 
Q 2400 397 2700 484 
Q 3000 572 3341 750 
L 3341 178 
Q 3013 44 2708 -23 
Q 2403 -91 2119 -91 
Q 1303 -91 843 398 
Q 384 888 384 1747 
Q 384 2584 834 3084 
Q 1284 3584 2034 3584 
Q 2703 3584 3089 3131 
Q 3475 2678 3475 1894 
z
M 2900 2063 
Q 2888 2569 2661 2833 
Q 2434 3097 2009 3097 
Q 1594 3097 1325 2822 
Q 1056 2547 1006 2059 
L 2900 2063 
z
" transform="scale(0.015625)"/>
       <path id="DejaVuSansMono-70" d="M 1172 441 
L 1172 -1331 
L 594 -1331 
L 594 3500 
L 1172 3500 
L 1172 3053 
Q 1316 3313 1555 3448 
Q 1794 3584 2106 3584 
Q 2741 3584 3102 3093 
Q 3463 2603 3463 1734 
Q 3463 881 3100 395 
Q 2738 -91 2106 -91 
Q 1788 -91 1548 45 
Q 1309 181 1172 441 
z
M 2859 1747 
Q 2859 2416 2648 2756 
Q 2438 3097 2022 3097 
Q 1603 3097 1387 2755 
Q 1172 2413 1172 1747 
Q 1172 1084 1387 740 
Q 1603 397 2022 397 
Q 2438 397 2648 737 
Q 2859 1078 2859 1747 
z
" transform="scale(0.015625)"/>
       <path id="DejaVuSansMono-36" d="M 3097 4563 
L 3097 3981 
Q 2900 4097 2678 4158 
Q 2456 4219 2216 4219 
Q 1616 4219 1306 3767 
Q 997 3316 997 2438 
Q 1147 2750 1412 2917 
Q 1678 3084 2022 3084 
Q 2697 3084 3067 2670 
Q 3438 2256 3438 1497 
Q 3438 741 3056 325 
Q 2675 -91 1984 -91 
Q 1172 -91 794 492 
Q 416 1075 416 2328 
Q 416 3509 870 4129 
Q 1325 4750 2188 4750 
Q 2419 4750 2650 4701 
Q 2881 4653 3097 4563 
z
M 1972 2591 
Q 1569 2591 1337 2300 
Q 1106 2009 1106 1497 
Q 1106 984 1337 693 
Q 1569 403 1972 403 
Q 2391 403 2603 679 
Q 2816 956 2816 1497 
Q 2816 2041 2603 2316 
Q 2391 2591 1972 2591 
z
" transform="scale(0.015625)"/>
      </defs>
      <use xlink:href="#DejaVuSansMono-32"/>
      <use xlink:href="#DejaVuSansMono-30" x="60.205078"/>
      <use xlink:href="#DejaVuSansMono-31" x="120.410156"/>
      <use xlink:href="#DejaVuSansMono-35" x="180.615234"/>
      <use xlink:href="#DejaVuSansMono-2d" x="240.820312"/>
      <use xlink:href="#DejaVuSansMono-53" x="301.025391"/>
      <use xlink:href="#DejaVuSansMono-65" x="361.230469"/>
      <use xlink:href="#DejaVuSansMono-70" x="421.435547"/>
      <use xlink:href="#DejaVuSansMono-2d" x="481.640625"/>
      <use xlink:href="#DejaVuSansMono-31" x="541.845703"/>
      <use xlink:href="#DejaVuSansMono-36" x="602.050781"/>
     </g>
    </g>
   </g>
   <g id="matplotlib.axis_2">
    <g id="ytick_1"/>
    <g id="ytick_2"/>
    <g id="ytick_3"/>
   </g>
   <g id="line2d_1">
    <path d="M 50.4 74.397465 
L 84.784 74.40139 
L 122.304 74.387366 
L 152.88 74.455828 
L 155.568 74.4044 
L 160.832 74.401608 
L 174.832 74.444245 
L 177.856 74.432175 
L 180.88 74.21611 
L 182.56 74.507089 
L 183.904 74.629679 
L 185.472 74.500394 
L 187.376 74.396586 
L 194.432 74.306223 
L 197.232 73.933796 
L 198.464 74.125336 
L 200.704 74.515268 
L 206.304 74.803649 
L 212.8 74.385176 
L 215.152 74.207938 
L 217.056 74.015108 
L 220.304 73.534475 
L 221.984 73.558173 
L 222.88 73.808672 
L 223.776 74.308741 
L 225.456 75.321996 
L 226.128 75.473903 
L 226.912 75.404096 
L 229.152 74.966185 
L 230.272 75.149871 
L 231.28 75.26227 
L 231.952 75.110521 
L 232.736 74.658615 
L 234.416 73.520353 
L 234.976 73.423428 
L 235.536 73.551285 
L 236.208 73.952718 
L 237.776 75.016738 
L 238.448 75.170525 
L 239.12 75.104298 
L 240.016 74.761373 
L 240.912 74.177816 
L 243.04 72.581316 
L 243.488 72.548876 
L 243.936 72.714809 
L 244.496 73.180383 
L 246.624 75.335672 
L 247.072 75.374993 
L 247.632 75.153296 
L 249.76 73.910469 
L 250.432 73.974729 
L 251.888 74.460671 
L 253.568 74.868604 
L 256.368 75.393899 
L 257.152 75.137309 
L 259.056 74.330189 
L 259.728 74.330251 
L 260.512 74.557748 
L 262.416 75.260046 
L 263.088 75.196595 
L 263.76 74.874565 
L 264.544 74.218402 
L 266.448 72.460921 
L 267.12 72.213432 
L 267.792 72.247565 
L 268.576 72.541714 
L 273.616 75.087364 
L 274.96 76.204622 
L 276.192 77.548022 
L 277.2 78.583411 
L 277.76 78.853416 
L 278.208 78.787905 
L 278.656 78.418082 
L 279.104 77.723177 
L 279.664 76.421623 
L 280.56 73.614491 
L 281.904 69.358924 
L 282.464 68.188364 
L 282.912 67.666143 
L 283.248 67.545333 
L 283.584 67.66399 
L 283.92 68.023466 
L 284.368 68.857787 
L 285.04 70.742199 
L 287.168 77.367336 
L 287.616 78.0334 
L 288.064 78.310683 
L 288.4 78.277258 
L 288.848 77.969203 
L 289.52 77.159226 
L 290.528 75.973219 
L 291.088 75.627295 
L 291.76 75.510421 
L 293.44 75.427942 
L 294.448 75.041781 
L 296.016 74.444347 
L 297.136 74.299701 
L 299.6 74.110055 
L 303.072 73.272108 
L 303.856 72.84182 
L 304.752 72.077494 
L 306.208 70.784287 
L 306.768 70.602088 
L 307.216 70.686729 
L 307.664 70.999038 
L 308.224 71.701944 
L 309.008 73.150234 
L 311.584 78.405641 
L 312.144 79.033403 
L 312.592 79.28321 
L 313.04 79.288577 
L 313.488 79.056426 
L 314.048 78.482414 
L 316.176 75.855909 
L 316.624 75.733155 
L 317.072 75.819221 
L 317.856 76.262765 
L 318.528 76.584139 
L 318.976 76.600229 
L 319.424 76.398691 
L 319.984 75.842335 
L 320.768 74.653548 
L 322.448 71.978506 
L 323.232 71.193352 
L 323.904 70.818917 
L 324.688 70.652544 
L 327.488 70.371154 
L 328.384 70.21428 
L 328.944 70.325125 
L 329.504 70.712385 
L 330.064 71.426347 
L 330.736 72.694498 
L 333.2 77.9128 
L 333.648 78.252718 
L 334.096 78.29356 
L 334.544 78.07185 
L 335.216 77.398989 
L 337.568 74.691633 
L 338.464 74.048475 
L 339.024 73.902505 
L 339.472 74.001164 
L 339.92 74.321868 
L 340.48 75.021581 
L 341.376 76.610711 
L 344.96 83.373228 
L 345.632 84.204468 
L 345.968 84.379017 
L 346.304 84.325694 
L 346.64 84.003773 
L 346.976 83.376032 
L 347.424 82.02401 
L 347.984 79.493432 
L 348.656 75.351525 
L 349.776 66.762877 
L 351.344 54.934212 
L 352.128 50.718522 
L 352.688 48.92013 
L 353.024 48.444719 
L 353.248 48.41613 
L 353.472 48.626093 
L 353.808 49.426211 
L 354.256 51.435504 
L 354.816 55.468654 
L 355.488 62.310507 
L 356.608 76.622153 
L 357.728 90.248978 
L 358.4 96.095464 
L 358.848 98.586729 
L 359.184 99.653047 
L 359.52 100.03392 
L 359.744 99.923859 
L 359.968 99.54368 
L 360.304 98.516233 
L 360.864 95.826537 
L 361.76 90.094906 
L 363.552 78.646448 
L 364.672 72.812753 
L 365.456 69.756552 
L 366.016 68.372615 
L 366.464 67.812154 
L 366.8 67.695904 
L 367.136 67.79684 
L 367.696 68.291355 
L 368.816 69.37209 
L 369.264 69.514179 
L 369.824 69.417781 
L 370.944 69.058367 
L 371.392 69.200337 
L 371.84 69.617106 
L 372.512 70.653501 
L 373.408 72.034806 
L 373.856 72.331088 
L 374.192 72.279638 
L 374.528 71.988826 
L 374.976 71.284532 
L 376.32 68.813854 
L 376.656 68.627068 
L 376.88 68.685132 
L 377.216 69.072819 
L 377.664 70.149643 
L 378.224 72.220464 
L 379.568 77.477593 
L 380.016 78.336037 
L 380.352 78.531782 
L 380.688 78.372547 
L 381.136 77.739616 
L 382.256 75.816882 
L 382.592 75.618959 
L 382.928 75.718798 
L 383.264 76.105558 
L 383.824 77.220996 
L 384.72 79.101378 
L 385.168 79.523398 
L 385.504 79.480249 
L 385.84 79.130118 
L 386.288 78.266464 
L 388.192 73.921685 
L 388.64 73.507417 
L 389.088 73.383986 
L 389.536 73.50394 
L 390.096 73.916633 
L 392.112 75.776558 
L 392.56 75.806427 
L 393.12 75.600278 
L 394.24 75.119808 
L 394.688 75.182712 
L 395.36 75.57102 
L 396.144 75.992732 
L 396.592 75.947557 
L 397.04 75.611174 
L 397.6 74.848008 
L 398.944 72.875378 
L 399.392 72.594511 
L 399.84 72.597172 
L 400.288 72.861754 
L 400.96 73.582953 
L 401.744 74.392007 
L 402.192 74.549419 
L 402.528 74.439376 
L 402.976 73.964383 
L 403.536 72.937919 
L 404.88 70.247047 
L 405.328 69.777518 
L 405.776 69.578431 
L 406.336 69.579624 
L 407.568 69.655571 
L 408.8 69.59197 
L 409.36 69.847762 
L 409.92 70.413053 
L 410.592 71.497522 
L 411.376 73.277243 
L 412.16 75.623855 
L 413.952 81.427099 
L 414.4 82.165147 
L 414.736 82.393404 
L 415.072 82.358258 
L 415.52 82.005999 
L 416.64 80.926178 
L 416.976 80.877209 
L 417.424 81.071804 
L 418.544 81.772661 
L 418.88 81.619478 
L 419.216 81.164104 
L 419.664 80.094427 
L 420.448 77.425012 
L 421.344 74.575212 
L 422.016 73.208049 
L 424.144 69.747631 
L 425.264 67.596929 
L 425.712 67.101187 
L 426.16 66.927576 
L 426.608 67.063974 
L 427.168 67.549457 
L 428.624 68.982085 
L 430.528 70.379656 
L 431.312 71.489322 
L 432.768 74.065752 
L 434.112 76.321414 
L 435.232 77.705468 
L 436.688 79.234027 
L 437.248 79.498172 
L 437.696 79.484501 
L 438.256 79.237731 
L 440.608 77.876003 
L 442.176 77.35153 
L 442.848 76.796045 
L 445.536 74.205735 
L 447.664 72.111764 
L 449.344 70.526887 
L 450.016 70.184211 
L 450.576 70.117881 
L 451.136 70.263577 
L 451.808 70.694712 
L 453.264 72.048556 
L 453.488 72.249502 
L 453.488 72.249502 
" clip-path="url(#p906ae4afde)" style="fill: none; stroke: #000000; stroke-width: 0.25; stroke-linecap: square"/>
   </g>
   <g id="line2d_2">
    <path d="M 50.4 74.4 
L 453.488 74.4 
" clip-path="url(#p906ae4afde)" style="fill: none; stroke-dasharray: 0.925,0.4; stroke-dashoffset: 0; stroke: #000000; stroke-width: 0.25"/>
   </g>
   <g id="line2d_3">
    <path d="M 50.4 74.399906 
L 149.184 74.287092 
L 151.088 74.22884 
L 153.328 74.465117 
L 154.896 74.477203 
L 158.48 74.406966 
L 162.848 74.455339 
L 173.04 74.391571 
L 176.96 74.463029 
L 178.416 74.381271 
L 179.984 74.021125 
L 180.992 73.914045 
L 181.776 74.000859 
L 183.344 74.468839 
L 184.464 74.617866 
L 185.808 74.513197 
L 187.488 74.430213 
L 192.08 74.639931 
L 193.984 74.767326 
L 195.104 74.572842 
L 197.568 73.963908 
L 198.576 74.036493 
L 201.936 74.54709 
L 208.096 74.582207 
L 213.584 74.073061 
L 216.272 74.02669 
L 219.968 73.620329 
L 221.088 72.977544 
L 221.76 72.6745 
L 222.432 72.733668 
L 222.768 72.964423 
L 223.328 73.630414 
L 224.112 74.994333 
L 225.12 76.670137 
L 225.68 77.131374 
L 226.352 77.10737 
L 226.912 76.6289 
L 228.368 75.190333 
L 229.04 75.137363 
L 229.488 75.402142 
L 230.16 76.028137 
L 230.944 76.689403 
L 231.28 76.754246 
L 231.84 76.595415 
L 232.288 76.088437 
L 232.96 74.952308 
L 233.968 73.179318 
L 234.416 72.676419 
L 234.976 72.471633 
L 235.312 72.5558 
L 235.872 72.939911 
L 237.776 74.693507 
L 238.672 75.079053 
L 239.568 75.213245 
L 240.24 75.091557 
L 240.8 74.662193 
L 241.36 73.835021 
L 242.032 72.325466 
L 243.376 69.210897 
L 243.712 68.844363 
L 244.048 68.905555 
L 244.384 69.167148 
L 244.72 69.871563 
L 245.28 71.622564 
L 246.624 76.221428 
L 247.072 77.000415 
L 247.632 77.088001 
L 247.856 76.914164 
L 248.528 75.677271 
L 249.536 73.662443 
L 249.984 73.203974 
L 250.432 73.055515 
L 250.88 73.233857 
L 251.328 73.591912 
L 252.56 74.621835 
L 253.68 75.116115 
L 254.464 75.600335 
L 255.472 76.600425 
L 256.256 77.279754 
L 256.704 77.328121 
L 257.152 77.261985 
L 257.712 76.742533 
L 259.504 74.673331 
L 259.84 74.63007 
L 260.4 74.850844 
L 260.96 75.502808 
L 262.416 77.483411 
L 262.976 77.70358 
L 263.312 77.586909 
L 263.76 77.184771 
L 264.432 76.015525 
L 266.784 71.145511 
L 267.344 70.604541 
L 267.904 70.392727 
L 268.576 70.477024 
L 269.36 70.866071 
L 271.6 72.080901 
L 272.608 72.692916 
L 273.392 73.418501 
L 274.176 74.449169 
L 275.184 76.18195 
L 277.088 79.579546 
L 277.76 80.327005 
L 278.32 80.57627 
L 278.656 80.500543 
L 279.104 80.15713 
L 279.552 79.357382 
L 280 78.061031 
L 280.56 75.697338 
L 281.232 71.840374 
L 282.8 62.220789 
L 283.248 60.757981 
L 283.584 60.774759 
L 283.92 60.968702 
L 284.144 61.735188 
L 284.704 64.972279 
L 285.6 72.535969 
L 286.496 79.640454 
L 287.056 82.22803 
L 287.392 82.699846 
L 287.728 82.849069 
L 287.952 82.548971 
L 288.512 81.034558 
L 289.744 76.927515 
L 290.304 75.892302 
L 290.752 75.590823 
L 291.088 75.547632 
L 291.76 75.780288 
L 292.656 76.133726 
L 293.664 76.241897 
L 295.008 76.163631 
L 295.68 75.905017 
L 296.352 75.389601 
L 298.032 73.923225 
L 298.704 73.889585 
L 299.152 74.096705 
L 300.048 74.739871 
L 300.72 75.106919 
L 301.28 75.118903 
L 301.728 75.001435 
L 302.736 74.32243 
L 303.968 73.50797 
L 304.976 72.810078 
L 305.536 72.15685 
L 306.208 70.9872 
L 307.664 68.250395 
L 308 68.026438 
L 308.336 68.194834 
L 308.672 68.605997 
L 309.12 69.902896 
L 309.68 72.348206 
L 311.36 80.476133 
L 311.696 81.308197 
L 311.92 81.42047 
L 312.368 81.254396 
L 312.592 80.914908 
L 313.152 79.141125 
L 314.496 74.212254 
L 315.056 73.253584 
L 315.392 73.254324 
L 315.84 73.449024 
L 316.512 74.500315 
L 317.184 75.467138 
L 317.632 75.717714 
L 317.968 75.749872 
L 318.416 75.478726 
L 318.976 74.890184 
L 320.096 73.757863 
L 320.88 73.359109 
L 322 72.848097 
L 322.784 72.179141 
L 324.576 70.49931 
L 325.136 70.290714 
L 325.808 70.259992 
L 327.488 70.57975 
L 328.608 70.887163 
L 329.168 71.300343 
L 329.728 72.085578 
L 330.288 73.351525 
L 330.96 75.498616 
L 332.864 82.055998 
L 333.2 82.662359 
L 333.648 82.96251 
L 333.872 82.973806 
L 334.208 82.699876 
L 334.656 82.046769 
L 335.552 80.021533 
L 336.784 77.211363 
L 337.568 75.906217 
L 338.352 75.050387 
L 338.912 74.715725 
L 339.36 74.622751 
L 340.032 74.741261 
L 340.704 75.199263 
L 341.488 76.054097 
L 342.496 77.520206 
L 344.176 80.010927 
L 344.848 80.578914 
L 345.296 80.744594 
L 346.08 80.631085 
L 346.976 80.092312 
L 347.648 79.484839 
L 348.096 78.850917 
L 348.544 77.819106 
L 348.992 76.163644 
L 349.44 73.664338 
L 350 69.084874 
L 350.672 61.486411 
L 352.688 36.616812 
L 353.024 34.544025 
L 353.472 33.330585 
L 353.584 33.304065 
L 353.808 33.755579 
L 354.144 35.121909 
L 354.48 37.676804 
L 355.04 43.8383 
L 355.824 55.620453 
L 357.056 78.394184 
L 358.624 107.215906 
L 359.296 116.138937 
L 359.744 119.64567 
L 360.08 121.006565 
L 360.192 121.020673 
L 360.416 120.615998 
L 360.752 119.367177 
L 361.088 116.303829 
L 361.648 108.680297 
L 362.544 92.094415 
L 363.552 74.11403 
L 364.112 67.636451 
L 364.448 65.336493 
L 364.672 65.161845 
L 365.12 65.14623 
L 365.344 66.071936 
L 366.016 71.06126 
L 366.912 77.960615 
L 367.248 79.424931 
L 367.808 79.547193 
L 367.92 79.398182 
L 368.144 78.325327 
L 368.704 74.158386 
L 370.048 62.369334 
L 370.496 60.466275 
L 370.72 60.471144 
L 371.056 60.845105 
L 371.28 61.461448 
L 371.84 64.74637 
L 372.736 70.287414 
L 373.184 71.688212 
L 373.408 71.758451 
L 373.744 71.310692 
L 373.968 70.789158 
L 374.528 68.111141 
L 375.312 64.212899 
L 375.536 63.664727 
L 375.984 63.277308 
L 376.096 63.286805 
L 376.32 63.752648 
L 376.768 65.479273 
L 378.448 73.847832 
L 378.784 74.430651 
L 379.344 74.369483 
L 379.568 74.150244 
L 380.352 73.035519 
L 380.8 73.035227 
L 381.136 73.18808 
L 381.584 74.070449 
L 382.368 76.21378 
L 383.04 77.771124 
L 383.488 78.344776 
L 383.824 78.474939 
L 384.496 78.412004 
L 386.288 77.309071 
L 387.072 76.542191 
L 388.08 75.477684 
L 388.752 75.39793 
L 389.088 75.731019 
L 389.536 76.502311 
L 390.208 78.317597 
L 391.44 81.772021 
L 391.888 82.455118 
L 392.224 82.440632 
L 392.56 82.295064 
L 392.784 81.907226 
L 393.344 80.178458 
L 394.016 76.981515 
L 395.472 69.58143 
L 395.808 68.636754 
L 396.256 68.181867 
L 396.48 68.232494 
L 396.816 68.878828 
L 397.152 69.881068 
L 398.048 73.949453 
L 398.832 77.17001 
L 399.168 77.931006 
L 399.616 78.364835 
L 399.84 78.272439 
L 400.288 77.657243 
L 400.848 76.229224 
L 401.968 73.337034 
L 402.528 72.457358 
L 404.208 70.438103 
L 404.88 68.830774 
L 406.336 64.99076 
L 406.672 64.480081 
L 407.008 64.436127 
L 407.456 64.517069 
L 407.792 65.056934 
L 408.24 66.063374 
L 409.024 68.489994 
L 411.824 77.752509 
L 412.72 79.907201 
L 413.504 81.288496 
L 414.288 82.235265 
L 415.072 82.841832 
L 415.968 83.250404 
L 416.752 83.368015 
L 417.424 83.24786 
L 418.096 82.812486 
L 418.768 82.020507 
L 419.44 80.869741 
L 420.336 78.854797 
L 421.568 75.44822 
L 423.92 68.694574 
L 424.704 67.198167 
L 425.376 66.376939 
L 426.048 65.919852 
L 426.608 65.758137 
L 427.392 65.793297 
L 428.064 66.096007 
L 428.736 66.672467 
L 429.408 67.560956 
L 430.192 68.987273 
L 431.536 72.03357 
L 433.104 75.447319 
L 434.336 77.585966 
L 435.456 79.10967 
L 436.24 79.840558 
L 436.912 80.150667 
L 437.696 80.099364 
L 438.368 79.714965 
L 439.264 78.884353 
L 441.392 76.416368 
L 442.736 75.069446 
L 443.632 74.476326 
L 444.528 74.172355 
L 446.32 73.702686 
L 446.992 73.235416 
L 449.12 71.485672 
L 449.792 71.489003 
L 450.464 71.869754 
L 451.696 72.659101 
L 452.48 72.772807 
L 453.376 72.862572 
L 453.488 72.901259 
L 453.488 72.901259 
" clip-path="url(#p906ae4afde)" style="fill: none; stroke: #ff0000; stroke-width: 0.25; stroke-linecap: square"/>
   </g>
   <g id="text_2">
    <g id="patch_3">
     <path d="M 30.299688 84.305469 
L 44.32 84.305469 
L 44.32 66.574219 
L 30.299688 66.574219 
L 30.299688 84.305469 
z
" style="fill: none"/>
    </g>
    <!-- N -->
    <g transform="translate(34.299688 78.225781) scale(0.1 -0.1)">
     <defs>
      <path id="DejaVuSansMono-4e" d="M 434 4666 
L 1234 4666 
L 2809 825 
L 2809 4666 
L 3419 4666 
L 3419 0 
L 2619 0 
L 1044 3841 
L 1044 0 
L 434 0 
L 434 4666 
z
" transform="scale(0.015625)"/>
     </defs>
     <use xlink:href="#DejaVuSansMono-4e"/>
    </g>
   </g>
   <g id="text_3">
    <g id="patch_4">
     <path d="M 46.4049 52.829494 
L 103.195753 52.829494 
L 103.195753 39.2049 
L 46.4049 39.2049 
L 46.4049 52.829494 
z
" style="fill: none"/>
    </g>
    <!-- A: 0.0018918 m -->
    <g transform="translate(50.4 47.630255) scale(0.0579 -0.0579)">
     <defs>
      <path id="DejaVuSansMono-41" d="M 1925 4109 
L 1259 1722 
L 2591 1722 
L 1925 4109 
z
M 1544 4666 
L 2309 4666 
L 3738 0 
L 3084 0 
L 2741 1216 
L 1106 1216 
L 769 0 
L 116 0 
L 1544 4666 
z
" transform="scale(0.015625)"/>
      <path id="DejaVuSansMono-3a" d="M 1528 3322 
L 2316 3322 
L 2316 2375 
L 1528 2375 
L 1528 3322 
z
M 1528 953 
L 2316 953 
L 2316 0 
L 1528 0 
L 1528 953 
z
" transform="scale(0.015625)"/>
      <path id="DejaVuSansMono-20" transform="scale(0.015625)"/>
      <path id="DejaVuSansMono-2e" d="M 1528 953 
L 2316 953 
L 2316 0 
L 1528 0 
L 1528 953 
z
" transform="scale(0.015625)"/>
      <path id="DejaVuSansMono-38" d="M 1925 2216 
Q 1503 2216 1273 1980 
Q 1044 1744 1044 1313 
Q 1044 881 1276 642 
Q 1509 403 1925 403 
Q 2350 403 2579 639 
Q 2809 875 2809 1313 
Q 2809 1741 2576 1978 
Q 2344 2216 1925 2216 
z
M 1375 2478 
Q 972 2581 745 2862 
Q 519 3144 519 3541 
Q 519 4097 897 4423 
Q 1275 4750 1925 4750 
Q 2578 4750 2956 4423 
Q 3334 4097 3334 3541 
Q 3334 3144 3107 2862 
Q 2881 2581 2478 2478 
Q 2947 2375 3195 2062 
Q 3444 1750 3444 1253 
Q 3444 622 3041 265 
Q 2638 -91 1925 -91 
Q 1213 -91 811 264 
Q 409 619 409 1247 
Q 409 1747 657 2061 
Q 906 2375 1375 2478 
z
M 1147 3481 
Q 1147 3106 1347 2909 
Q 1547 2713 1925 2713 
Q 2306 2713 2506 2909 
Q 2706 3106 2706 3481 
Q 2706 3863 2507 4063 
Q 2309 4263 1925 4263 
Q 1547 4263 1347 4061 
Q 1147 3859 1147 3481 
z
" transform="scale(0.015625)"/>
      <path id="DejaVuSansMono-39" d="M 1863 2069 
Q 2266 2069 2495 2359 
Q 2725 2650 2725 3163 
Q 2725 3675 2495 3965 
Q 2266 4256 1863 4256 
Q 1444 4256 1231 3979 
Q 1019 3703 1019 3163 
Q 1019 2619 1230 2344 
Q 1441 2069 1863 2069 
z
M 738 97 
L 738 678 
Q 934 563 1156 502 
Q 1378 441 1619 441 
Q 2219 441 2526 892 
Q 2834 1344 2834 2222 
Q 2688 1909 2422 1742 
Q 2156 1575 1813 1575 
Q 1138 1575 767 1990 
Q 397 2406 397 3169 
Q 397 3922 776 4336 
Q 1156 4750 1850 4750 
Q 2663 4750 3041 4165 
Q 3419 3581 3419 2328 
Q 3419 1150 2964 529 
Q 2509 -91 1644 -91 
Q 1416 -91 1184 -42 
Q 953 6 738 97 
z
" transform="scale(0.015625)"/>
      <path id="DejaVuSansMono-6d" d="M 2113 3144 
Q 2219 3369 2383 3476 
Q 2547 3584 2778 3584 
Q 3200 3584 3373 3257 
Q 3547 2931 3547 2028 
L 3547 0 
L 3022 0 
L 3022 2003 
Q 3022 2744 2939 2923 
Q 2856 3103 2638 3103 
Q 2388 3103 2295 2911 
Q 2203 2719 2203 2003 
L 2203 0 
L 1678 0 
L 1678 2003 
Q 1678 2753 1589 2928 
Q 1500 3103 1269 3103 
Q 1041 3103 952 2911 
Q 863 2719 863 2003 
L 863 0 
L 341 0 
L 341 3500 
L 863 3500 
L 863 3200 
Q 966 3388 1120 3486 
Q 1275 3584 1472 3584 
Q 1709 3584 1867 3475 
Q 2025 3366 2113 3144 
z
" transform="scale(0.015625)"/>
     </defs>
     <use xlink:href="#DejaVuSansMono-41"/>
     <use xlink:href="#DejaVuSansMono-3a" x="60.205078"/>
     <use xlink:href="#DejaVuSansMono-20" x="120.410156"/>
     <use xlink:href="#DejaVuSansMono-30" x="180.615234"/>
     <use xlink:href="#DejaVuSansMono-2e" x="240.820312"/>
     <use xlink:href="#DejaVuSansMono-30" x="301.025391"/>
     <use xlink:href="#DejaVuSansMono-30" x="361.230469"/>
     <use xlink:href="#DejaVuSansMono-31" x="421.435547"/>
     <use xlink:href="#DejaVuSansMono-38" x="481.640625"/>
     <use xlink:href="#DejaVuSansMono-39" x="541.845703"/>
     <use xlink:href="#DejaVuSansMono-31" x="602.050781"/>
     <use xlink:href="#DejaVuSansMono-38" x="662.255859"/>
     <use xlink:href="#DejaVuSansMono-20" x="722.460938"/>
     <use xlink:href="#DejaVuSansMono-6d" x="782.666016"/>
    </g>
   </g>
   <g id="text_4">
    <g id="patch_5">
     <path d="M 46.4 37.857727 
L 373.476562 37.857727 
L 373.476562 8.78054 
L 46.4 8.78054 
L 46.4 37.857727 
z
" style="fill: none"/>
    </g>
    <!-- 2015-09-16 22:55:22  Loc: -31.13dg, -72.09dg, 17.35km -->
    <g transform="translate(50.4 20.447727) scale(0.1 -0.1)">
     <defs>
      <path id="DejaVuSansMono-4c" d="M 672 4666 
L 1306 4666 
L 1306 531 
L 3559 531 
L 3559 0 
L 672 0 
L 672 4666 
z
" transform="scale(0.015625)"/>
      <path id="DejaVuSansMono-6f" d="M 1925 3097 
Q 1488 3097 1263 2756 
Q 1038 2416 1038 1747 
Q 1038 1081 1263 739 
Q 1488 397 1925 397 
Q 2366 397 2591 739 
Q 2816 1081 2816 1747 
Q 2816 2416 2591 2756 
Q 2366 3097 1925 3097 
z
M 1925 3584 
Q 2653 3584 3039 3112 
Q 3425 2641 3425 1747 
Q 3425 850 3040 379 
Q 2656 -91 1925 -91 
Q 1197 -91 812 379 
Q 428 850 428 1747 
Q 428 2641 812 3112 
Q 1197 3584 1925 3584 
z
" transform="scale(0.015625)"/>
      <path id="DejaVuSansMono-63" d="M 3316 178 
Q 3084 44 2839 -23 
Q 2594 -91 2338 -91 
Q 1525 -91 1067 396 
Q 609 884 609 1747 
Q 609 2609 1067 3096 
Q 1525 3584 2338 3584 
Q 2591 3584 2831 3518 
Q 3072 3453 3316 3316 
L 3316 2713 
Q 3088 2916 2858 3006 
Q 2628 3097 2338 3097 
Q 1797 3097 1506 2747 
Q 1216 2397 1216 1747 
Q 1216 1100 1508 748 
Q 1800 397 2338 397 
Q 2638 397 2875 489 
Q 3113 581 3316 775 
L 3316 178 
z
" transform="scale(0.015625)"/>
      <path id="DejaVuSansMono-33" d="M 2425 2497 
Q 2884 2375 3128 2064 
Q 3372 1753 3372 1288 
Q 3372 644 2939 276 
Q 2506 -91 1741 -91 
Q 1419 -91 1084 -31 
Q 750 28 428 141 
L 428 769 
Q 747 603 1056 522 
Q 1366 441 1672 441 
Q 2191 441 2469 675 
Q 2747 909 2747 1350 
Q 2747 1756 2469 1995 
Q 2191 2234 1716 2234 
L 1234 2234 
L 1234 2753 
L 1716 2753 
Q 2150 2753 2394 2943 
Q 2638 3134 2638 3475 
Q 2638 3834 2411 4026 
Q 2184 4219 1766 4219 
Q 1488 4219 1191 4156 
Q 894 4094 569 3969 
L 569 4550 
Q 947 4650 1242 4700 
Q 1538 4750 1766 4750 
Q 2447 4750 2855 4408 
Q 3263 4066 3263 3500 
Q 3263 3116 3048 2859 
Q 2834 2603 2425 2497 
z
" transform="scale(0.015625)"/>
      <path id="DejaVuSansMono-64" d="M 2681 3053 
L 2681 4863 
L 3256 4863 
L 3256 0 
L 2681 0 
L 2681 441 
Q 2538 181 2298 45 
Q 2059 -91 1747 -91 
Q 1113 -91 748 401 
Q 384 894 384 1759 
Q 384 2613 750 3098 
Q 1116 3584 1747 3584 
Q 2063 3584 2303 3448 
Q 2544 3313 2681 3053 
z
M 991 1747 
Q 991 1078 1203 737 
Q 1416 397 1831 397 
Q 2247 397 2464 740 
Q 2681 1084 2681 1747 
Q 2681 2413 2464 2755 
Q 2247 3097 1831 3097 
Q 1416 3097 1203 2756 
Q 991 2416 991 1747 
z
" transform="scale(0.015625)"/>
      <path id="DejaVuSansMono-67" d="M 2681 1778 
Q 2681 2425 2470 2761 
Q 2259 3097 1856 3097 
Q 1434 3097 1212 2761 
Q 991 2425 991 1778 
Q 991 1131 1214 792 
Q 1438 453 1863 453 
Q 2259 453 2470 793 
Q 2681 1134 2681 1778 
z
M 3256 225 
Q 3256 -563 2884 -969 
Q 2513 -1375 1791 -1375 
Q 1553 -1375 1293 -1331 
Q 1034 -1288 775 -1203 
L 775 -634 
Q 1081 -778 1331 -847 
Q 1581 -916 1791 -916 
Q 2256 -916 2468 -662 
Q 2681 -409 2681 141 
L 2681 166 
L 2681 556 
Q 2544 263 2306 119 
Q 2069 -25 1728 -25 
Q 1116 -25 750 465 
Q 384 956 384 1778 
Q 384 2603 750 3093 
Q 1116 3584 1728 3584 
Q 2066 3584 2300 3450 
Q 2534 3316 2681 3034 
L 2681 3488 
L 3256 3488 
L 3256 225 
z
" transform="scale(0.015625)"/>
      <path id="DejaVuSansMono-2c" d="M 1569 947 
L 2356 947 
L 2356 300 
L 1741 -897 
L 1259 -897 
L 1569 300 
L 1569 947 
z
" transform="scale(0.015625)"/>
      <path id="DejaVuSansMono-37" d="M 434 4666 
L 3372 4666 
L 3372 4397 
L 1703 0 
L 1044 0 
L 2669 4134 
L 434 4134 
L 434 4666 
z
" transform="scale(0.015625)"/>
      <path id="DejaVuSansMono-6b" d="M 738 4863 
L 1331 4863 
L 1331 2047 
L 2841 3500 
L 3541 3500 
L 2163 2181 
L 3756 0 
L 3053 0 
L 1759 1806 
L 1331 1403 
L 1331 0 
L 738 0 
L 738 4863 
z
" transform="scale(0.015625)"/>
     </defs>
     <use xlink:href="#DejaVuSansMono-32"/>
     <use xlink:href="#DejaVuSansMono-30" x="60.205078"/>
     <use xlink:href="#DejaVuSansMono-31" x="120.410156"/>
     <use xlink:href="#DejaVuSansMono-35" x="180.615234"/>
     <use xlink:href="#DejaVuSansMono-2d" x="240.820312"/>
     <use xlink:href="#DejaVuSansMono-30" x="301.025391"/>
     <use xlink:href="#DejaVuSansMono-39" x="361.230469"/>
     <use xlink:href="#DejaVuSansMono-2d" x="421.435547"/>
     <use xlink:href="#DejaVuSansMono-31" x="481.640625"/>
     <use xlink:href="#DejaVuSansMono-36" x="541.845703"/>
     <use xlink:href="#DejaVuSansMono-20" x="602.050781"/>
     <use xlink:href="#DejaVuSansMono-32" x="662.255859"/>
     <use xlink:href="#DejaVuSansMono-32" x="722.460938"/>
     <use xlink:href="#DejaVuSansMono-3a" x="782.666016"/>
     <use xlink:href="#DejaVuSansMono-35" x="842.871094"/>
     <use xlink:href="#DejaVuSansMono-35" x="903.076172"/>
     <use xlink:href="#DejaVuSansMono-3a" x="963.28125"/>
     <use xlink:href="#DejaVuSansMono-32" x="1023.486328"/>
     <use xlink:href="#DejaVuSansMono-32" x="1083.691406"/>
     <use xlink:href="#DejaVuSansMono-20" x="1143.896484"/>
     <use xlink:href="#DejaVuSansMono-20" x="1204.101562"/>
     <use xlink:href="#DejaVuSansMono-4c" x="1264.306641"/>
     <use xlink:href="#DejaVuSansMono-6f" x="1324.511719"/>
     <use xlink:href="#DejaVuSansMono-63" x="1384.716797"/>
     <use xlink:href="#DejaVuSansMono-3a" x="1444.921875"/>
     <use xlink:href="#DejaVuSansMono-20" x="1505.126953"/>
     <use xlink:href="#DejaVuSansMono-2d" x="1565.332031"/>
     <use xlink:href="#DejaVuSansMono-33" x="1625.537109"/>
     <use xlink:href="#DejaVuSansMono-31" x="1685.742188"/>
     <use xlink:href="#DejaVuSansMono-2e" x="1745.947266"/>
     <use xlink:href="#DejaVuSansMono-31" x="1806.152344"/>
     <use xlink:href="#DejaVuSansMono-33" x="1866.357422"/>
     <use xlink:href="#DejaVuSansMono-64" x="1926.5625"/>
     <use xlink:href="#DejaVuSansMono-67" x="1986.767578"/>
     <use xlink:href="#DejaVuSansMono-2c" x="2046.972656"/>
     <use xlink:href="#DejaVuSansMono-20" x="2107.177734"/>
     <use xlink:href="#DejaVuSansMono-2d" x="2167.382812"/>
     <use xlink:href="#DejaVuSansMono-37" x="2227.587891"/>
     <use xlink:href="#DejaVuSansMono-32" x="2287.792969"/>
     <use xlink:href="#DejaVuSansMono-2e" x="2347.998047"/>
     <use xlink:href="#DejaVuSansMono-30" x="2408.203125"/>
     <use xlink:href="#DejaVuSansMono-39" x="2468.408203"/>
     <use xlink:href="#DejaVuSansMono-64" x="2528.613281"/>
     <use xlink:href="#DejaVuSansMono-67" x="2588.818359"/>
     <use xlink:href="#DejaVuSansMono-2c" x="2649.023438"/>
     <use xlink:href="#DejaVuSansMono-20" x="2709.228516"/>
     <use xlink:href="#DejaVuSansMono-31" x="2769.433594"/>
     <use xlink:href="#DejaVuSansMono-37" x="2829.638672"/>
     <use xlink:href="#DejaVuSansMono-2e" x="2889.84375"/>
     <use xlink:href="#DejaVuSansMono-33" x="2950.048828"/>
     <use xlink:href="#DejaVuSansMono-35" x="3010.253906"/>
     <use xlink:href="#DejaVuSansMono-6b" x="3070.458984"/>
     <use xlink:href="#DejaVuSansMono-6d" x="3130.664062"/>
    </g>
    <!-- II.BFO  -->
    <g transform="translate(50.4 31.77804) scale(0.1 -0.1)">
     <defs>
      <path id="DejaVuSansMono-49" d="M 628 4666 
L 3219 4666 
L 3219 4134 
L 2241 4134 
L 2241 531 
L 3219 531 
L 3219 0 
L 628 0 
L 628 531 
L 1606 531 
L 1606 4134 
L 628 4134 
L 628 4666 
z
" transform="scale(0.015625)"/>
      <path id="DejaVuSansMono-42" d="M 1153 2228 
L 1153 519 
L 1900 519 
Q 2450 519 2684 711 
Q 2919 903 2919 1344 
Q 2919 1800 2672 2014 
Q 2425 2228 1900 2228 
L 1153 2228 
z
M 1153 4147 
L 1153 2741 
L 1888 2741 
Q 2344 2741 2548 2916 
Q 2753 3091 2753 3481 
Q 2753 3834 2551 3990 
Q 2350 4147 1888 4147 
L 1153 4147 
z
M 519 4666 
L 1900 4666 
Q 2616 4666 3003 4356 
Q 3391 4047 3391 3481 
Q 3391 3053 3186 2806 
Q 2981 2559 2572 2497 
Q 3031 2428 3292 2104 
Q 3553 1781 3553 1281 
Q 3553 647 3137 323 
Q 2722 0 1900 0 
L 519 0 
L 519 4666 
z
" transform="scale(0.015625)"/>
      <path id="DejaVuSansMono-46" d="M 728 4666 
L 3475 4666 
L 3475 4134 
L 1363 4134 
L 1363 2759 
L 3278 2759 
L 3278 2228 
L 1363 2228 
L 1363 0 
L 728 0 
L 728 4666 
z
" transform="scale(0.015625)"/>
      <path id="DejaVuSansMono-4f" d="M 2828 2328 
Q 2828 3356 2617 3797 
Q 2406 4238 1925 4238 
Q 1447 4238 1236 3797 
Q 1025 3356 1025 2328 
Q 1025 1303 1236 862 
Q 1447 422 1925 422 
Q 2406 422 2617 861 
Q 2828 1300 2828 2328 
z
M 3488 2328 
Q 3488 1109 3102 509 
Q 2716 -91 1925 -91 
Q 1134 -91 750 506 
Q 366 1103 366 2328 
Q 366 3550 752 4150 
Q 1138 4750 1925 4750 
Q 2716 4750 3102 4150 
Q 3488 3550 3488 2328 
z
" transform="scale(0.015625)"/>
     </defs>
     <use xlink:href="#DejaVuSansMono-49"/>
     <use xlink:href="#DejaVuSansMono-49" x="60.205078"/>
     <use xlink:href="#DejaVuSansMono-2e" x="120.410156"/>
     <use xlink:href="#DejaVuSansMono-42" x="180.615234"/>
     <use xlink:href="#DejaVuSansMono-46" x="240.820312"/>
     <use xlink:href="#DejaVuSansMono-4f" x="301.025391"/>
     <use xlink:href="#DejaVuSansMono-20" x="361.230469"/>
    </g>
   </g>
   <g id="legend_1">
    <g id="line2d_4">
     <path d="M 323.582353 52.327184 
L 330.522353 52.327184 
L 337.462353 52.327184 
" style="fill: none; stroke: #000000; stroke-width: 0.25; stroke-linecap: square"/>
    </g>
    <g id="text_5">
     <!-- Observed -->
     <g transform="translate(343.014353 54.756184) scale(0.0694 -0.0694)">
      <defs>
       <path id="DejaVuSansMono-62" d="M 2869 1747 
Q 2869 2416 2656 2756 
Q 2444 3097 2028 3097 
Q 1609 3097 1393 2755 
Q 1178 2413 1178 1747 
Q 1178 1084 1393 740 
Q 1609 397 2028 397 
Q 2444 397 2656 737 
Q 2869 1078 2869 1747 
z
M 1178 3053 
Q 1316 3309 1558 3446 
Q 1800 3584 2119 3584 
Q 2750 3584 3112 3098 
Q 3475 2613 3475 1759 
Q 3475 894 3111 401 
Q 2747 -91 2113 -91 
Q 1800 -91 1561 45 
Q 1322 181 1178 441 
L 1178 0 
L 603 0 
L 603 4863 
L 1178 4863 
L 1178 3053 
z
" transform="scale(0.015625)"/>
       <path id="DejaVuSansMono-73" d="M 3041 3378 
L 3041 2816 
Q 2794 2959 2544 3031 
Q 2294 3103 2034 3103 
Q 1644 3103 1451 2976 
Q 1259 2850 1259 2591 
Q 1259 2356 1403 2240 
Q 1547 2125 2119 2016 
L 2350 1972 
Q 2778 1891 2998 1647 
Q 3219 1403 3219 1013 
Q 3219 494 2850 201 
Q 2481 -91 1825 -91 
Q 1566 -91 1281 -36 
Q 997 19 666 128 
L 666 722 
Q 988 556 1281 473 
Q 1575 391 1838 391 
Q 2219 391 2428 545 
Q 2638 700 2638 978 
Q 2638 1378 1872 1531 
L 1847 1538 
L 1631 1581 
Q 1134 1678 906 1908 
Q 678 2138 678 2534 
Q 678 3038 1018 3311 
Q 1359 3584 1991 3584 
Q 2272 3584 2531 3532 
Q 2791 3481 3041 3378 
z
" transform="scale(0.015625)"/>
       <path id="DejaVuSansMono-72" d="M 3609 2778 
Q 3425 2922 3234 2987 
Q 3044 3053 2816 3053 
Q 2278 3053 1993 2715 
Q 1709 2378 1709 1741 
L 1709 0 
L 1131 0 
L 1131 3500 
L 1709 3500 
L 1709 2816 
Q 1853 3188 2151 3386 
Q 2450 3584 2859 3584 
Q 3072 3584 3256 3531 
Q 3441 3478 3609 3366 
L 3609 2778 
z
" transform="scale(0.015625)"/>
       <path id="DejaVuSansMono-76" d="M 313 3500 
L 909 3500 
L 1925 563 
L 2944 3500 
L 3541 3500 
L 2297 0 
L 1556 0 
L 313 3500 
z
" transform="scale(0.015625)"/>
      </defs>
      <use xlink:href="#DejaVuSansMono-4f"/>
      <use xlink:href="#DejaVuSansMono-62" x="60.205078"/>
      <use xlink:href="#DejaVuSansMono-73" x="120.410156"/>
      <use xlink:href="#DejaVuSansMono-65" x="180.615234"/>
      <use xlink:href="#DejaVuSansMono-72" x="240.820312"/>
      <use xlink:href="#DejaVuSansMono-76" x="301.025391"/>
      <use xlink:href="#DejaVuSansMono-65" x="361.230469"/>
      <use xlink:href="#DejaVuSansMono-64" x="421.435547"/>
     </g>
    </g>
    <g id="line2d_5">
     <path d="M 390.319128 52.327184 
L 397.259128 52.327184 
L 404.199128 52.327184 
" style="fill: none; stroke: #ff0000; stroke-width: 0.25; stroke-linecap: square"/>
    </g>
    <g id="text_6">
     <!-- Synthetic -->
     <g transform="translate(409.751128 54.756184) scale(0.0694 -0.0694)">
      <defs>
       <path id="DejaVuSansMono-79" d="M 2681 1125 
Q 2538 759 2316 163 
Q 2006 -663 1900 -844 
Q 1756 -1088 1540 -1209 
Q 1325 -1331 1038 -1331 
L 575 -1331 
L 575 -850 
L 916 -850 
Q 1169 -850 1312 -703 
Q 1456 -556 1678 56 
L 325 3500 
L 934 3500 
L 1972 763 
L 2994 3500 
L 3603 3500 
L 2681 1125 
z
" transform="scale(0.015625)"/>
       <path id="DejaVuSansMono-6e" d="M 3284 2169 
L 3284 0 
L 2706 0 
L 2706 2169 
Q 2706 2641 2540 2862 
Q 2375 3084 2022 3084 
Q 1619 3084 1401 2798 
Q 1184 2513 1184 1978 
L 1184 0 
L 609 0 
L 609 3500 
L 1184 3500 
L 1184 2975 
Q 1338 3275 1600 3429 
Q 1863 3584 2222 3584 
Q 2756 3584 3020 3232 
Q 3284 2881 3284 2169 
z
" transform="scale(0.015625)"/>
       <path id="DejaVuSansMono-74" d="M 1919 4494 
L 1919 3500 
L 3225 3500 
L 3225 3053 
L 1919 3053 
L 1919 1153 
Q 1919 766 2066 612 
Q 2213 459 2578 459 
L 3225 459 
L 3225 0 
L 2522 0 
Q 1875 0 1609 259 
Q 1344 519 1344 1153 
L 1344 3053 
L 409 3053 
L 409 3500 
L 1344 3500 
L 1344 4494 
L 1919 4494 
z
" transform="scale(0.015625)"/>
       <path id="DejaVuSansMono-68" d="M 3284 2169 
L 3284 0 
L 2706 0 
L 2706 2169 
Q 2706 2641 2540 2862 
Q 2375 3084 2022 3084 
Q 1619 3084 1401 2798 
Q 1184 2513 1184 1978 
L 1184 0 
L 609 0 
L 609 4863 
L 1184 4863 
L 1184 2975 
Q 1338 3275 1600 3429 
Q 1863 3584 2222 3584 
Q 2756 3584 3020 3232 
Q 3284 2881 3284 2169 
z
" transform="scale(0.015625)"/>
       <path id="DejaVuSansMono-69" d="M 800 3500 
L 2272 3500 
L 2272 447 
L 3413 447 
L 3413 0 
L 556 0 
L 556 447 
L 1697 447 
L 1697 3053 
L 800 3053 
L 800 3500 
z
M 1697 4863 
L 2272 4863 
L 2272 4134 
L 1697 4134 
L 1697 4863 
z
" transform="scale(0.015625)"/>
      </defs>
      <use xlink:href="#DejaVuSansMono-53"/>
      <use xlink:href="#DejaVuSansMono-79" x="60.205078"/>
      <use xlink:href="#DejaVuSansMono-6e" x="120.410156"/>
      <use xlink:href="#DejaVuSansMono-74" x="180.615234"/>
      <use xlink:href="#DejaVuSansMono-68" x="240.820312"/>
      <use xlink:href="#DejaVuSansMono-65" x="301.025391"/>
      <use xlink:href="#DejaVuSansMono-74" x="361.230469"/>
      <use xlink:href="#DejaVuSansMono-69" x="421.435547"/>
      <use xlink:href="#DejaVuSansMono-63" x="481.640625"/>
     </g>
    </g>
   </g>
  </g>
  <g id="axes_2">
   <g id="patch_6">
    <path d="M 50.4 168 
L 453.6 168 
L 453.6 105.6 
L 50.4 105.6 
z
" style="fill: #ffffff"/>
   </g>
   <g id="matplotlib.axis_3">
    <g id="xtick_7"/>
    <g id="xtick_8"/>
    <g id="xtick_9"/>
    <g id="xtick_10"/>
    <g id="xtick_11"/>
    <g id="xtick_12"/>
    <g id="text_7">
     <!-- 2015-Sep-16 -->
     <g transform="translate(387.376563 178.651563) scale(0.1 -0.1)">
      <use xlink:href="#DejaVuSansMono-32"/>
      <use xlink:href="#DejaVuSansMono-30" x="60.205078"/>
      <use xlink:href="#DejaVuSansMono-31" x="120.410156"/>
      <use xlink:href="#DejaVuSansMono-35" x="180.615234"/>
      <use xlink:href="#DejaVuSansMono-2d" x="240.820312"/>
      <use xlink:href="#DejaVuSansMono-53" x="301.025391"/>
      <use xlink:href="#DejaVuSansMono-65" x="361.230469"/>
      <use xlink:href="#DejaVuSansMono-70" x="421.435547"/>
      <use xlink:href="#DejaVuSansMono-2d" x="481.640625"/>
      <use xlink:href="#DejaVuSansMono-31" x="541.845703"/>
      <use xlink:href="#DejaVuSansMono-36" x="602.050781"/>
     </g>
    </g>
   </g>
   <g id="matplotlib.axis_4">
    <g id="ytick_4"/>
    <g id="ytick_5"/>
    <g id="ytick_6"/>
   </g>
   <g id="line2d_6">
    <path d="M 50.4 136.812906 
L 147.616 136.716225 
L 150.192 136.540728 
L 151.648 136.732468 
L 153.44 136.940501 
L 155.12 136.864517 
L 157.472 136.788406 
L 163.408 136.834286 
L 169.344 136.797214 
L 175.504 136.887853 
L 176.96 136.926444 
L 177.968 136.742639 
L 180.32 136.157602 
L 180.992 136.283545 
L 181.888 136.694741 
L 183.344 137.38313 
L 184.128 137.48518 
L 185.024 137.356805 
L 187.04 136.974488 
L 189.168 136.988334 
L 193.648 136.825925 
L 194.544 136.466576 
L 196.672 135.482428 
L 197.344 135.467939 
L 198.128 135.694859 
L 201.04 136.85759 
L 203.952 137.367043 
L 205.744 137.835248 
L 206.864 137.860334 
L 208.544 137.602818 
L 210.672 137.350598 
L 213.248 137.035448 
L 216.496 136.40407 
L 217.728 135.81783 
L 219.408 135.013048 
L 220.976 134.582093 
L 221.76 134.508104 
L 222.32 134.668876 
L 222.88 135.113187 
L 223.552 136.032007 
L 225.232 138.67315 
L 225.68 138.939247 
L 226.016 138.918968 
L 226.352 138.708677 
L 226.8 138.167299 
L 227.696 136.598321 
L 228.48 135.405931 
L 228.928 135.040122 
L 229.376 134.959818 
L 229.824 135.150659 
L 230.384 135.702584 
L 231.168 136.849383 
L 233.408 140.323187 
L 234.192 141.052743 
L 234.752 141.31758 
L 235.312 141.361757 
L 235.984 141.163209 
L 236.88 140.622892 
L 238.112 139.603272 
L 238.896 138.648114 
L 239.568 137.431012 
L 240.24 135.719719 
L 241.136 132.717672 
L 242.48 128.199551 
L 242.928 127.376173 
L 243.264 127.179046 
L 243.488 127.273235 
L 243.824 127.770478 
L 244.272 129.062634 
L 244.944 132.018583 
L 246.176 137.73465 
L 246.624 138.93817 
L 246.96 139.35356 
L 247.184 139.392593 
L 247.408 139.263872 
L 247.744 138.797509 
L 248.416 137.318348 
L 249.088 135.969561 
L 249.536 135.536216 
L 249.872 135.523058 
L 250.208 135.755547 
L 250.768 136.533633 
L 252.112 138.595115 
L 252.672 139.042054 
L 253.456 139.351108 
L 254.352 139.750852 
L 255.92 140.646611 
L 256.368 140.545393 
L 256.816 140.174962 
L 257.488 139.224345 
L 258.496 137.768802 
L 258.944 137.472188 
L 259.28 137.469134 
L 259.616 137.656837 
L 260.064 138.166699 
L 260.96 139.659162 
L 261.632 140.632963 
L 262.08 140.964928 
L 262.416 140.981694 
L 262.752 140.779637 
L 263.2 140.16567 
L 263.76 138.894596 
L 264.544 136.426273 
L 266.336 130.454108 
L 266.896 129.270135 
L 267.344 128.718121 
L 267.792 128.527504 
L 268.128 128.604777 
L 268.576 128.956316 
L 269.248 129.8645 
L 273.056 136.170447 
L 274.064 138.292062 
L 277.2 145.386139 
L 277.76 146.04291 
L 278.096 146.186417 
L 278.432 146.083388 
L 278.768 145.69334 
L 279.216 144.678233 
L 279.776 142.614704 
L 280.56 138.600354 
L 281.904 131.617137 
L 282.464 129.782795 
L 282.912 129.019515 
L 283.248 128.883516 
L 283.472 128.992234 
L 283.808 129.451698 
L 284.256 130.569045 
L 284.816 132.648376 
L 285.824 137.507863 
L 286.72 141.532592 
L 287.168 142.815327 
L 287.504 143.270306 
L 287.728 143.290417 
L 287.952 143.081202 
L 288.288 142.333801 
L 288.736 140.627483 
L 289.744 135.352589 
L 290.416 132.485449 
L 290.864 131.44704 
L 291.2 131.174207 
L 291.536 131.286317 
L 291.984 131.864288 
L 293.664 134.628965 
L 294.448 135.281618 
L 295.568 136.21887 
L 296.688 137.209303 
L 297.248 137.401659 
L 297.808 137.324462 
L 299.264 136.930506 
L 299.712 137.097467 
L 300.272 137.571578 
L 301.28 138.839301 
L 302.176 139.826775 
L 302.736 140.180041 
L 303.296 140.284557 
L 303.856 140.151674 
L 304.528 139.747047 
L 306.432 138.428536 
L 308 137.63933 
L 308.56 137.025291 
L 309.232 135.929186 
L 310.8 133.177397 
L 311.248 132.805659 
L 311.696 132.728696 
L 312.144 132.926209 
L 312.704 133.464049 
L 314.72 135.719435 
L 317.296 137.626777 
L 317.744 137.652791 
L 318.192 137.395069 
L 318.64 136.848103 
L 319.424 135.426493 
L 320.432 133.676406 
L 320.992 133.149785 
L 321.44 133.043901 
L 321.888 133.223878 
L 322.336 133.685616 
L 322.896 134.641838 
L 323.568 136.305726 
L 324.464 139.207535 
L 325.92 143.998388 
L 326.48 145.129029 
L 326.816 145.467122 
L 327.152 145.516254 
L 327.488 145.275354 
L 327.936 144.531507 
L 328.496 143.062432 
L 331.072 135.45797 
L 331.744 134.365228 
L 332.416 133.664316 
L 333.2 133.181859 
L 333.984 132.951214 
L 334.544 132.983402 
L 335.104 133.264203 
L 335.664 133.849285 
L 336.336 134.928816 
L 337.792 137.489936 
L 338.24 137.861487 
L 338.576 137.907981 
L 338.912 137.752142 
L 339.36 137.265658 
L 340.144 135.971339 
L 341.04 134.583596 
L 341.6 134.04852 
L 342.272 133.728527 
L 343.392 133.295502 
L 343.952 132.810169 
L 344.848 131.647678 
L 345.632 130.701615 
L 346.08 130.414875 
L 346.528 130.403671 
L 346.976 130.69418 
L 347.424 131.2827 
L 347.984 132.41003 
L 348.656 134.316964 
L 349.328 136.874804 
L 350.112 140.743061 
L 352.464 153.207568 
L 352.912 154.290182 
L 353.248 154.636939 
L 353.472 154.643567 
L 353.808 154.343397 
L 354.144 153.700425 
L 354.704 152.000034 
L 355.376 149.173985 
L 356.272 144.383653 
L 357.28 137.709339 
L 359.408 122.925782 
L 359.968 120.646925 
L 360.416 119.711237 
L 360.752 119.534449 
L 360.976 119.641056 
L 361.312 120.102153 
L 361.76 121.155673 
L 362.544 123.69779 
L 366.464 137.299961 
L 367.024 138.377477 
L 367.584 139.037685 
L 368.704 140.120613 
L 369.264 141.122155 
L 370.048 143.165696 
L 370.832 145.150164 
L 371.28 145.787133 
L 371.616 145.9055 
L 371.952 145.715543 
L 372.4 145.055641 
L 373.856 142.371684 
L 374.304 142.100157 
L 374.752 142.133849 
L 375.648 142.376104 
L 375.984 142.235049 
L 376.32 141.848107 
L 376.768 140.902859 
L 377.328 139.098015 
L 379.344 131.802775 
L 379.792 131.01374 
L 380.24 130.668121 
L 380.576 130.669941 
L 381.024 130.939508 
L 381.808 131.802915 
L 382.816 132.863292 
L 383.936 133.628426 
L 384.72 134.274825 
L 386.512 135.976981 
L 386.96 136.029899 
L 387.52 135.824785 
L 388.416 135.399566 
L 388.864 135.464263 
L 389.2 135.723735 
L 389.648 136.361077 
L 390.432 138.00282 
L 391.216 139.467644 
L 391.664 139.827875 
L 392 139.782943 
L 392.336 139.473807 
L 392.784 138.727806 
L 394.128 136.14812 
L 394.576 135.838733 
L 394.912 135.873724 
L 395.36 136.176829 
L 396.032 136.665647 
L 396.368 136.646085 
L 396.704 136.318774 
L 397.152 135.374094 
L 398.272 132.522471 
L 398.496 132.495833 
L 398.72 132.846761 
L 398.944 133.651076 
L 399.28 135.787303 
L 399.728 140.33447 
L 400.624 152.828741 
L 401.296 160.604721 
L 401.632 162.515186 
L 401.856 162.8 
L 401.968 162.652112 
L 402.192 161.716925 
L 402.528 158.844923 
L 402.976 152.75549 
L 404.768 124.75284 
L 405.216 121.257037 
L 405.664 119.390395 
L 406.112 118.56981 
L 407.12 117.387847 
L 407.792 115.901137 
L 408.352 114.737903 
L 408.688 114.440648 
L 408.912 114.514385 
L 409.136 114.841557 
L 409.472 115.849783 
L 409.92 118.150728 
L 410.48 122.316413 
L 411.6 132.815178 
L 413.168 147.088832 
L 414.064 153.376315 
L 414.624 156.005473 
L 415.072 157.237894 
L 415.408 157.672516 
L 415.744 157.747442 
L 416.08 157.550355 
L 416.64 156.86578 
L 418.432 154.111443 
L 418.88 152.951095 
L 419.44 150.737385 
L 420 147.528033 
L 420.784 141.605443 
L 422.352 129.253889 
L 422.912 126.383302 
L 423.472 124.667854 
L 424.032 123.766616 
L 425.152 122.329461 
L 426.272 120.603462 
L 426.608 120.423444 
L 426.944 120.522279 
L 427.28 120.888233 
L 427.84 121.924404 
L 429.184 125.084778 
L 429.856 127.282388 
L 430.528 130.375807 
L 432.432 139.943994 
L 433.216 142.608563 
L 433.888 144.267167 
L 434.56 145.372172 
L 435.792 146.751651 
L 436.912 147.883751 
L 437.36 148.010248 
L 437.808 147.849232 
L 438.256 147.415086 
L 438.816 146.528807 
L 439.376 145.244529 
L 440.16 142.804352 
L 441.168 139.638633 
L 441.728 138.546766 
L 442.176 138.076735 
L 442.848 137.749473 
L 443.632 137.372066 
L 444.192 136.875675 
L 444.864 135.955234 
L 445.872 134.062755 
L 446.88 132.256938 
L 447.664 131.319199 
L 448.336 130.846343 
L 449.232 130.52539 
L 450.912 130.183296 
L 451.36 130.321958 
L 451.92 130.76689 
L 452.592 131.640895 
L 453.488 133.107821 
L 453.488 133.107821 
" clip-path="url(#p1314d4d528)" style="fill: none; stroke: #000000; stroke-width: 0.25; stroke-linecap: square"/>
   </g>
   <g id="line2d_7">
    <path d="M 50.4 136.8 
L 453.488 136.8 
" clip-path="url(#p1314d4d528)" style="fill: none; stroke-dasharray: 0.925,0.4; stroke-dashoffset: 0; stroke: #000000; stroke-width: 0.25"/>
   </g>
   <g id="line2d_8">
    <path d="M 50.4 136.799798 
L 148.288 136.699612 
L 150.864 136.350845 
L 151.76 136.534953 
L 153.776 137.070618 
L 155.12 136.975548 
L 157.024 136.732975 
L 158.928 136.827723 
L 161.616 136.953855 
L 173.376 136.785267 
L 175.504 136.887162 
L 177.632 137.039243 
L 178.416 136.812521 
L 179.2 136.362739 
L 180.432 135.635227 
L 180.88 135.586791 
L 181.44 135.678087 
L 182.112 136.132833 
L 183.792 137.460507 
L 184.352 137.577861 
L 184.912 137.523207 
L 186.032 137.132702 
L 187.04 136.886475 
L 188.048 136.873417 
L 191.856 137.244736 
L 193.424 137.56962 
L 194.208 137.455105 
L 194.88 137.087534 
L 195.776 136.327697 
L 196.784 135.525272 
L 197.344 135.310305 
L 197.904 135.292279 
L 198.576 135.529132 
L 201.264 136.895738 
L 202.496 137.053414 
L 204.4 137.318637 
L 206.752 137.76062 
L 207.76 137.698351 
L 209.216 137.321338 
L 211.792 136.633131 
L 213.024 136.561471 
L 216.048 136.514212 
L 217.84 136.182957 
L 218.848 136.004433 
L 219.408 135.662609 
L 219.968 135.009045 
L 220.864 133.440652 
L 221.536 132.364921 
L 221.872 132.138425 
L 222.32 132.295994 
L 222.544 132.533487 
L 222.992 133.680295 
L 223.552 135.898557 
L 225.008 142.350239 
L 225.456 143.242118 
L 225.68 143.409385 
L 225.904 143.30485 
L 226.24 142.911262 
L 226.576 142.068784 
L 227.36 139.175789 
L 228.368 135.501629 
L 228.928 134.269638 
L 229.376 133.846713 
L 229.712 133.849878 
L 230.16 134.14846 
L 230.608 134.83759 
L 231.28 136.268263 
L 233.296 140.966385 
L 233.856 141.702982 
L 234.416 142.004261 
L 234.864 141.923501 
L 235.312 141.656995 
L 236.208 140.645137 
L 237.44 139.236077 
L 238.112 138.816093 
L 238.896 138.634791 
L 239.568 138.411509 
L 240.016 137.932656 
L 240.352 137.219324 
L 240.8 135.708002 
L 241.36 132.710531 
L 242.144 126.803467 
L 243.152 119.341506 
L 243.6 117.855152 
L 243.824 117.650092 
L 244.048 118.064518 
L 244.384 119.342109 
L 244.72 121.879699 
L 245.392 129.187881 
L 246.624 142.740404 
L 246.96 144.910894 
L 247.184 145.341127 
L 247.52 145.554878 
L 247.632 145.570279 
L 247.744 145.427213 
L 248.08 143.996396 
L 248.64 140.744801 
L 249.536 135.801866 
L 249.872 134.852745 
L 250.32 134.432008 
L 250.544 134.548804 
L 250.992 135.440527 
L 252.784 139.942827 
L 253.68 140.931008 
L 254.352 141.895433 
L 255.136 143.651772 
L 255.92 145.310982 
L 256.368 145.756642 
L 256.592 145.700072 
L 257.04 145.209947 
L 257.376 144.328281 
L 257.936 142.306625 
L 259.056 138.080743 
L 259.504 137.208725 
L 259.728 137.064251 
L 260.064 137.240355 
L 260.4 137.662743 
L 260.96 139.301166 
L 262.304 143.763247 
L 262.64 144.103001 
L 262.976 144.222312 
L 263.2 144.029098 
L 263.648 142.914695 
L 264.096 141.001949 
L 264.768 137.121276 
L 266.448 126.783205 
L 267.008 124.519204 
L 267.456 123.361071 
L 267.904 122.738576 
L 268.576 122.739386 
L 268.912 123.103118 
L 269.472 123.985761 
L 270.368 125.859733 
L 272.608 131.23517 
L 273.504 133.888177 
L 274.288 136.873057 
L 275.184 141.210202 
L 276.864 149.760716 
L 277.424 151.538747 
L 277.76 152.178616 
L 278.208 152.355092 
L 278.432 152.351576 
L 278.656 152.106504 
L 279.104 151.251026 
L 279.664 149.482039 
L 280.224 146.879405 
L 280.784 143.195987 
L 281.456 136.982809 
L 282.464 124.738108 
L 283.248 116.210447 
L 283.696 113.897219 
L 283.808 113.667682 
L 283.92 113.697407 
L 284.144 114.419712 
L 284.48 116.453448 
L 284.816 120.687498 
L 285.376 130.533084 
L 286.72 155.471359 
L 287.056 158.971256 
L 287.28 159.307384 
L 287.728 159.377831 
L 287.952 158.000838 
L 288.624 149.981016 
L 289.744 135.30489 
L 290.192 131.847529 
L 290.416 130.891306 
L 290.864 130.391222 
L 291.088 130.438489 
L 291.424 131.333966 
L 293.104 136.192648 
L 293.552 136.552364 
L 293.888 136.588567 
L 294.56 136.413183 
L 295.68 135.718348 
L 296.464 134.91716 
L 297.92 133.256409 
L 298.256 133.187368 
L 298.816 133.29806 
L 299.376 133.903063 
L 300.944 135.942844 
L 301.392 136.151604 
L 301.952 136.061909 
L 302.4 135.805559 
L 303.52 135.190822 
L 303.968 135.23662 
L 304.416 135.443451 
L 305.424 136.424599 
L 305.984 136.852049 
L 306.432 136.96717 
L 306.992 136.780424 
L 308.224 136.027023 
L 308.672 136.083826 
L 309.008 136.554473 
L 309.344 137.230698 
L 310.912 141.046275 
L 311.248 141.149472 
L 311.36 141.118139 
L 311.584 140.663524 
L 312.032 139.053962 
L 312.704 135.17954 
L 313.488 130.790192 
L 313.936 129.517134 
L 314.16 129.514237 
L 314.496 130.12577 
L 314.72 130.832538 
L 315.28 134.331032 
L 316.4 142.279835 
L 316.736 143.683106 
L 317.184 144.044841 
L 317.408 144.015223 
L 317.632 143.425749 
L 318.304 140.524442 
L 319.088 137.184104 
L 319.424 136.300037 
L 319.648 136.236756 
L 320.096 136.316802 
L 320.32 136.676527 
L 321.776 140.264475 
L 322.224 140.585201 
L 322.448 140.520045 
L 322.896 140.049528 
L 324.464 137.761856 
L 325.136 137.866633 
L 325.584 138.397949 
L 326.48 139.824386 
L 327.264 140.861941 
L 327.824 141.254549 
L 328.384 141.326537 
L 328.832 141.080565 
L 329.168 140.719897 
L 329.728 139.697187 
L 330.288 138.099851 
L 330.96 135.448738 
L 332.976 126.982097 
L 333.312 126.413065 
L 333.76 126.152526 
L 333.984 126.266739 
L 334.432 126.991266 
L 334.992 128.565334 
L 336.448 133.073826 
L 337.008 134.022899 
L 337.568 134.41798 
L 338.464 134.413682 
L 339.136 134.432129 
L 339.696 134.626991 
L 341.152 135.239005 
L 341.712 135.197051 
L 342.608 134.700759 
L 343.616 134.150494 
L 344.4 134.038482 
L 345.408 134.188874 
L 347.424 134.76447 
L 347.872 135.098517 
L 348.32 135.697026 
L 348.768 136.717892 
L 349.216 138.341494 
L 349.776 141.433881 
L 350.448 146.845927 
L 351.456 157.482378 
L 352.464 167.526753 
L 353.024 170.941418 
L 353.472 172.009723 
L 353.584 172.034117 
L 353.808 171.667397 
L 354.144 170.547484 
L 354.48 168.39461 
L 355.04 163.178361 
L 355.824 153.278679 
L 357.504 127.965372 
L 358.736 110.994758 
L 359.408 104.17722 
L 359.968 100.609283 
L 360.192 100.086042 
L 360.64 99.815414 
L 360.752 99.866543 
L 360.976 100.605609 
L 361.424 103.172787 
L 361.984 108.23816 
L 364.224 131.328566 
L 364.672 133.283362 
L 365.008 134.027154 
L 365.232 134.026321 
L 365.68 133.74789 
L 366.352 132.541298 
L 366.688 132.139113 
L 366.912 132.193185 
L 367.248 132.499889 
L 367.472 133.008679 
L 367.92 134.977982 
L 368.48 138.692076 
L 369.824 148.399874 
L 370.272 149.957464 
L 370.496 150.346579 
L 370.72 150.284467 
L 371.056 149.722105 
L 371.28 149.097406 
L 371.952 145.877783 
L 372.736 142.246321 
L 373.184 141.1189 
L 373.408 141.050943 
L 373.744 141.283363 
L 373.968 141.590567 
L 374.416 143.046099 
L 375.648 147.258812 
L 375.984 147.74197 
L 376.208 147.704036 
L 376.544 147.338492 
L 376.768 146.906177 
L 377.328 144.952022 
L 378.784 139.297133 
L 379.344 138.02267 
L 379.904 137.261339 
L 380.8 136.487239 
L 382.144 135.543137 
L 382.704 135.484415 
L 383.152 135.718949 
L 383.6 136.128295 
L 384.832 137.281834 
L 385.504 137.373668 
L 386.064 137.107809 
L 387.968 135.87804 
L 388.64 135.871129 
L 388.976 135.990281 
L 389.536 136.496458 
L 390.096 137.41971 
L 391.552 140.262656 
L 392 140.312042 
L 392.224 139.856144 
L 392.672 137.928894 
L 393.12 134.530097 
L 393.792 127.17648 
L 394.912 114.384112 
L 395.248 112.307713 
L 395.696 112.055324 
L 395.808 112.044308 
L 395.92 112.321999 
L 396.144 114.041218 
L 396.592 119.261132 
L 397.264 131.189682 
L 398.496 154.056632 
L 399.056 160.049087 
L 399.504 161.679116 
L 399.616 161.81247 
L 399.728 161.757293 
L 399.952 161.077813 
L 400.4 158.663801 
L 401.296 150.676634 
L 404.544 121.15072 
L 405.328 115.318094 
L 405.664 113.74355 
L 406.112 112.798399 
L 406.336 112.776589 
L 406.672 113.329764 
L 407.008 114.300552 
L 407.68 117.57555 
L 408.912 125.170671 
L 409.92 132.684142 
L 411.264 144.779213 
L 412.272 153.046495 
L 413.056 157.690439 
L 413.728 160.432782 
L 414.288 161.978467 
L 414.848 162.873834 
L 415.072 162.958206 
L 415.632 162.788944 
L 415.968 162.180809 
L 416.416 160.898089 
L 417.088 157.933784 
L 417.984 152.632762 
L 419.888 139.417042 
L 422.016 124.950272 
L 422.912 120.180708 
L 423.584 117.582249 
L 424.144 116.173382 
L 424.592 115.56539 
L 424.928 115.389255 
L 425.488 115.542439 
L 425.824 115.92067 
L 426.384 116.914791 
L 427.056 118.637224 
L 427.84 121.239167 
L 428.96 125.782105 
L 430.416 132.681878 
L 432.544 142.819698 
L 433.328 145.469855 
L 434 146.997272 
L 434.56 147.758219 
L 435.12 148.126222 
L 435.568 148.160002 
L 436.128 148.044363 
L 436.912 147.504677 
L 437.696 146.667261 
L 438.704 145.210507 
L 440.048 142.794995 
L 443.632 136.056739 
L 444.416 135.131342 
L 445.312 134.410075 
L 446.544 133.434299 
L 447.328 132.484263 
L 448.784 130.627383 
L 449.12 130.49959 
L 449.792 130.597003 
L 450.352 131.267929 
L 451.136 132.729958 
L 453.04 136.407454 
L 453.488 137.200613 
L 453.488 137.200613 
" clip-path="url(#p1314d4d528)" style="fill: none; stroke: #ff0000; stroke-width: 0.25; stroke-linecap: square"/>
   </g>
   <g id="text_8">
    <g id="patch_7">
     <path d="M 30.299688 146.705469 
L 44.32 146.705469 
L 44.32 128.974219 
L 30.299688 128.974219 
L 30.299688 146.705469 
z
" style="fill: none"/>
    </g>
    <!-- E -->
    <g transform="translate(34.299688 140.625781) scale(0.1 -0.1)">
     <defs>
      <path id="DejaVuSansMono-45" d="M 616 4666 
L 3384 4666 
L 3384 4134 
L 1247 4134 
L 1247 2753 
L 3291 2753 
L 3291 2222 
L 1247 2222 
L 1247 531 
L 3444 531 
L 3444 0 
L 616 0 
L 616 4666 
z
" transform="scale(0.015625)"/>
     </defs>
     <use xlink:href="#DejaVuSansMono-45"/>
    </g>
   </g>
   <g id="text_9">
    <g id="patch_8">
     <path d="M 46.4049 115.229494 
L 103.195753 115.229494 
L 103.195753 101.6049 
L 46.4049 101.6049 
L 46.4049 115.229494 
z
" style="fill: none"/>
    </g>
    <!-- A: 0.0012334 m -->
    <g transform="translate(50.4 110.030255) scale(0.0579 -0.0579)">
     <defs>
      <path id="DejaVuSansMono-34" d="M 2297 4091 
L 825 1625 
L 2297 1625 
L 2297 4091 
z
M 2194 4666 
L 2925 4666 
L 2925 1625 
L 3547 1625 
L 3547 1113 
L 2925 1113 
L 2925 0 
L 2297 0 
L 2297 1113 
L 319 1113 
L 319 1709 
L 2194 4666 
z
" transform="scale(0.015625)"/>
     </defs>
     <use xlink:href="#DejaVuSansMono-41"/>
     <use xlink:href="#DejaVuSansMono-3a" x="60.205078"/>
     <use xlink:href="#DejaVuSansMono-20" x="120.410156"/>
     <use xlink:href="#DejaVuSansMono-30" x="180.615234"/>
     <use xlink:href="#DejaVuSansMono-2e" x="240.820312"/>
     <use xlink:href="#DejaVuSansMono-30" x="301.025391"/>
     <use xlink:href="#DejaVuSansMono-30" x="361.230469"/>
     <use xlink:href="#DejaVuSansMono-31" x="421.435547"/>
     <use xlink:href="#DejaVuSansMono-32" x="481.640625"/>
     <use xlink:href="#DejaVuSansMono-33" x="541.845703"/>
     <use xlink:href="#DejaVuSansMono-33" x="602.050781"/>
     <use xlink:href="#DejaVuSansMono-34" x="662.255859"/>
     <use xlink:href="#DejaVuSansMono-20" x="722.460938"/>
     <use xlink:href="#DejaVuSansMono-6d" x="782.666016"/>
    </g>
   </g>
  </g>
  <g id="axes_3">
   <g id="patch_9">
    <path d="M 50.4 230.4 
L 453.6 230.4 
L 453.6 168 
L 50.4 168 
z
" style="fill: #ffffff"/>
   </g>
   <g id="matplotlib.axis_5">
    <g id="xtick_13">
     <g id="line2d_9">
      <defs>
       <path id="me598a110e3" d="M 0 0 
L 0 3.5 
" style="stroke: #000000; stroke-width: 0.8"/>
      </defs>
      <g>
       <use xlink:href="#me598a110e3" x="87.0352" y="230.4" style="stroke: #000000; stroke-width: 0.8"/>
      </g>
     </g>
     <g id="text_10">
      <!-- 23:00 -->
      <g transform="translate(59.926638 259.077229) rotate(-30) scale(0.1 -0.1)">
       <use xlink:href="#DejaVuSansMono-32"/>
       <use xlink:href="#DejaVuSansMono-33" x="60.205078"/>
       <use xlink:href="#DejaVuSansMono-3a" x="120.410156"/>
       <use xlink:href="#DejaVuSansMono-30" x="180.615234"/>
       <use xlink:href="#DejaVuSansMono-30" x="240.820312"/>
      </g>
     </g>
    </g>
    <g id="xtick_14">
     <g id="line2d_10">
      <g>
       <use xlink:href="#me598a110e3" x="154.2352" y="230.4" style="stroke: #000000; stroke-width: 0.8"/>
      </g>
     </g>
     <g id="text_11">
      <!-- 23:10 -->
      <g transform="translate(127.126638 259.077229) rotate(-30) scale(0.1 -0.1)">
       <use xlink:href="#DejaVuSansMono-32"/>
       <use xlink:href="#DejaVuSansMono-33" x="60.205078"/>
       <use xlink:href="#DejaVuSansMono-3a" x="120.410156"/>
       <use xlink:href="#DejaVuSansMono-31" x="180.615234"/>
       <use xlink:href="#DejaVuSansMono-30" x="240.820312"/>
      </g>
     </g>
    </g>
    <g id="xtick_15">
     <g id="line2d_11">
      <g>
       <use xlink:href="#me598a110e3" x="221.4352" y="230.4" style="stroke: #000000; stroke-width: 0.8"/>
      </g>
     </g>
     <g id="text_12">
      <!-- 23:20 -->
      <g transform="translate(194.326638 259.077229) rotate(-30) scale(0.1 -0.1)">
       <use xlink:href="#DejaVuSansMono-32"/>
       <use xlink:href="#DejaVuSansMono-33" x="60.205078"/>
       <use xlink:href="#DejaVuSansMono-3a" x="120.410156"/>
       <use xlink:href="#DejaVuSansMono-32" x="180.615234"/>
       <use xlink:href="#DejaVuSansMono-30" x="240.820312"/>
      </g>
     </g>
    </g>
    <g id="xtick_16">
     <g id="line2d_12">
      <g>
       <use xlink:href="#me598a110e3" x="288.6352" y="230.4" style="stroke: #000000; stroke-width: 0.8"/>
      </g>
     </g>
     <g id="text_13">
      <!-- 23:30 -->
      <g transform="translate(261.526638 259.077229) rotate(-30) scale(0.1 -0.1)">
       <use xlink:href="#DejaVuSansMono-32"/>
       <use xlink:href="#DejaVuSansMono-33" x="60.205078"/>
       <use xlink:href="#DejaVuSansMono-3a" x="120.410156"/>
       <use xlink:href="#DejaVuSansMono-33" x="180.615234"/>
       <use xlink:href="#DejaVuSansMono-30" x="240.820312"/>
      </g>
     </g>
    </g>
    <g id="xtick_17">
     <g id="line2d_13">
      <g>
       <use xlink:href="#me598a110e3" x="355.8352" y="230.4" style="stroke: #000000; stroke-width: 0.8"/>
      </g>
     </g>
     <g id="text_14">
      <!-- 23:40 -->
      <g transform="translate(328.726638 259.077229) rotate(-30) scale(0.1 -0.1)">
       <use xlink:href="#DejaVuSansMono-32"/>
       <use xlink:href="#DejaVuSansMono-33" x="60.205078"/>
       <use xlink:href="#DejaVuSansMono-3a" x="120.410156"/>
       <use xlink:href="#DejaVuSansMono-34" x="180.615234"/>
       <use xlink:href="#DejaVuSansMono-30" x="240.820312"/>
      </g>
     </g>
    </g>
    <g id="xtick_18">
     <g id="line2d_14">
      <g>
       <use xlink:href="#me598a110e3" x="423.0352" y="230.4" style="stroke: #000000; stroke-width: 0.8"/>
      </g>
     </g>
     <g id="text_15">
      <!-- 23:50 -->
      <g transform="translate(395.926638 259.077229) rotate(-30) scale(0.1 -0.1)">
       <use xlink:href="#DejaVuSansMono-32"/>
       <use xlink:href="#DejaVuSansMono-33" x="60.205078"/>
       <use xlink:href="#DejaVuSansMono-3a" x="120.410156"/>
       <use xlink:href="#DejaVuSansMono-35" x="180.615234"/>
       <use xlink:href="#DejaVuSansMono-30" x="240.820312"/>
      </g>
     </g>
    </g>
    <g id="text_16">
     <!-- Time -->
     <g transform="translate(239.959375 272.529853) scale(0.1 -0.1)">
      <defs>
       <path id="DejaVuSansMono-54" d="M 147 4666 
L 3706 4666 
L 3706 4134 
L 2247 4134 
L 2247 0 
L 1613 0 
L 1613 4134 
L 147 4134 
L 147 4666 
z
" transform="scale(0.015625)"/>
      </defs>
      <use xlink:href="#DejaVuSansMono-54"/>
      <use xlink:href="#DejaVuSansMono-69" x="60.205078"/>
      <use xlink:href="#DejaVuSansMono-6d" x="120.410156"/>
      <use xlink:href="#DejaVuSansMono-65" x="180.615234"/>
     </g>
    </g>
    <g id="text_17">
     <!-- 2015-Sep-16 -->
     <g transform="translate(387.376563 271.529853) scale(0.1 -0.1)">
      <use xlink:href="#DejaVuSansMono-32"/>
      <use xlink:href="#DejaVuSansMono-30" x="60.205078"/>
      <use xlink:href="#DejaVuSansMono-31" x="120.410156"/>
      <use xlink:href="#DejaVuSansMono-35" x="180.615234"/>
      <use xlink:href="#DejaVuSansMono-2d" x="240.820312"/>
      <use xlink:href="#DejaVuSansMono-53" x="301.025391"/>
      <use xlink:href="#DejaVuSansMono-65" x="361.230469"/>
      <use xlink:href="#DejaVuSansMono-70" x="421.435547"/>
      <use xlink:href="#DejaVuSansMono-2d" x="481.640625"/>
      <use xlink:href="#DejaVuSansMono-31" x="541.845703"/>
      <use xlink:href="#DejaVuSansMono-36" x="602.050781"/>
     </g>
    </g>
   </g>
   <g id="matplotlib.axis_6">
    <g id="ytick_7"/>
    <g id="ytick_8"/>
    <g id="ytick_9"/>
   </g>
   <g id="line2d_15">
    <path d="M 50.4 199.19912 
L 146.72 199.103232 
L 148.624 198.72143 
L 149.744 198.625362 
L 150.64 198.791261 
L 153.664 199.661467 
L 154.784 199.534995 
L 156.912 199.247395 
L 159.376 199.288603 
L 162.4 199.167937 
L 168.224 199.129841 
L 173.824 199.253834 
L 175.616 199.363241 
L 176.96 199.390214 
L 177.856 199.166392 
L 178.976 198.600104 
L 179.984 198.160201 
L 180.656 198.128688 
L 181.328 198.36486 
L 182.224 198.969595 
L 183.456 199.758064 
L 184.128 199.943784 
L 184.912 199.92902 
L 187.488 199.668863 
L 189.168 199.638084 
L 192.752 199.241735 
L 193.872 199.197196 
L 194.768 198.913975 
L 197.12 197.897464 
L 197.792 197.959258 
L 198.576 198.285849 
L 201.04 199.547094 
L 202.16 199.738167 
L 205.632 199.985665 
L 206.864 199.797236 
L 210.224 199.11196 
L 215.824 198.816366 
L 218.512 199.081393 
L 222.544 199.047509 
L 223.888 198.660585 
L 224.896 198.462856 
L 225.68 198.559283 
L 226.464 198.895453 
L 228.704 200.040397 
L 229.6 200.166009 
L 234.864 200.208769 
L 236.208 199.837643 
L 237.104 199.396907 
L 238 198.713507 
L 239.568 197.459748 
L 240.128 197.291056 
L 240.688 197.350293 
L 241.472 197.718987 
L 242.592 198.261903 
L 243.152 198.304531 
L 243.824 198.095451 
L 245.616 197.310783 
L 246.176 197.422418 
L 246.736 197.791391 
L 247.408 198.539734 
L 248.528 200.237883 
L 249.424 201.488253 
L 249.984 201.956037 
L 250.432 202.092019 
L 250.88 202.021071 
L 251.44 201.707607 
L 254.128 199.821947 
L 256.48 198.967013 
L 257.264 198.893275 
L 258.16 199.059724 
L 259.616 199.358071 
L 260.512 199.28557 
L 261.632 198.945504 
L 263.424 198.106495 
L 264.88 197.511546 
L 265.776 197.362391 
L 266.56 197.470842 
L 267.344 197.834077 
L 268.352 198.605092 
L 271.152 200.96923 
L 272.048 201.325206 
L 272.832 201.411638 
L 273.616 201.297735 
L 274.4 200.964388 
L 275.184 200.37607 
L 276.08 199.380126 
L 277.2 197.760852 
L 278.88 195.291719 
L 279.44 194.797564 
L 279.888 194.65465 
L 280.224 194.72985 
L 280.672 195.104973 
L 281.12 195.810252 
L 281.68 197.135636 
L 282.576 200.006632 
L 283.92 204.324428 
L 284.48 205.443328 
L 284.928 205.86982 
L 285.264 205.889758 
L 285.6 205.655371 
L 286.048 204.976284 
L 286.608 203.65484 
L 288.96 197.384733 
L 289.632 196.452187 
L 290.192 196.051013 
L 290.64 195.966664 
L 291.088 196.075528 
L 291.648 196.440884 
L 293.664 198.078929 
L 294.224 198.161366 
L 295.008 198.011951 
L 296.016 197.828904 
L 296.576 197.929506 
L 297.248 198.277038 
L 299.04 199.353185 
L 299.712 199.435223 
L 300.72 199.289631 
L 303.072 198.905586 
L 303.856 198.991725 
L 304.416 199.270757 
L 304.976 199.786228 
L 305.76 200.851774 
L 306.992 202.590848 
L 307.552 203.015157 
L 308 203.078728 
L 308.448 202.8875 
L 309.008 202.334737 
L 309.792 201.180414 
L 311.808 198.079762 
L 312.592 197.269507 
L 313.264 196.857358 
L 313.936 196.721365 
L 314.608 196.827363 
L 315.504 197.220096 
L 317.744 198.313889 
L 319.088 198.614636 
L 320.88 198.790172 
L 322.448 198.969079 
L 323.456 199.340268 
L 324.688 200.083782 
L 325.696 200.636974 
L 326.256 200.738759 
L 326.816 200.614001 
L 327.376 200.253948 
L 328.272 199.334539 
L 329.28 198.335072 
L 329.84 198.085554 
L 330.288 198.130807 
L 330.736 198.401421 
L 331.296 199.004288 
L 333.2 201.315845 
L 333.76 201.543972 
L 334.208 201.517512 
L 334.768 201.254451 
L 335.44 200.67743 
L 336.448 199.465833 
L 338.352 197.013434 
L 338.8 196.767014 
L 339.248 196.772617 
L 339.696 197.023964 
L 340.368 197.726491 
L 341.712 199.208331 
L 342.384 199.621061 
L 343.056 199.784094 
L 343.728 199.713776 
L 344.4 199.414215 
L 346.528 198.210203 
L 346.976 198.345244 
L 347.424 198.704323 
L 348.208 199.701903 
L 348.992 200.617219 
L 349.44 200.81945 
L 349.776 200.745696 
L 350.224 200.343251 
L 350.784 199.46452 
L 351.792 197.792618 
L 352.24 197.433378 
L 352.576 197.41025 
L 352.912 197.593309 
L 353.472 198.251151 
L 354.704 199.90273 
L 355.152 200.163956 
L 355.6 200.185787 
L 356.272 199.942194 
L 356.944 199.733616 
L 357.392 199.784082 
L 357.952 200.091509 
L 359.072 200.84115 
L 359.52 200.832456 
L 359.968 200.528191 
L 360.528 199.777725 
L 361.984 197.529673 
L 362.432 197.216989 
L 362.88 197.163994 
L 363.328 197.332713 
L 364.112 197.94102 
L 365.232 198.786797 
L 366.016 199.077233 
L 370.832 199.990689 
L 371.84 199.948061 
L 373.968 199.735855 
L 376.992 199.792861 
L 377.888 199.369153 
L 378.896 198.910589 
L 379.568 198.838003 
L 381.472 198.85794 
L 382.144 198.439529 
L 383.376 197.572803 
L 383.824 197.518677 
L 384.272 197.691873 
L 384.832 198.211066 
L 386.736 200.384967 
L 387.072 200.414942 
L 387.408 200.258525 
L 387.856 199.763493 
L 388.528 198.557812 
L 389.536 196.679429 
L 389.984 196.252063 
L 390.32 196.207108 
L 390.656 196.413112 
L 391.104 197.046925 
L 391.888 198.745271 
L 392.56 200.084293 
L 393.008 200.56838 
L 393.344 200.639839 
L 393.68 200.472954 
L 394.24 199.821686 
L 395.024 198.931627 
L 395.36 198.8503 
L 395.696 199.024433 
L 396.144 199.604724 
L 396.928 200.736282 
L 397.152 200.816811 
L 397.376 200.691381 
L 397.6 200.309964 
L 397.936 199.205522 
L 398.384 196.764006 
L 399.84 187.361082 
L 400.064 186.975994 
L 400.176 187.003527 
L 400.4 187.49515 
L 400.736 189.446358 
L 401.184 194.221764 
L 401.856 204.715779 
L 402.864 220.237729 
L 403.312 224.063803 
L 403.648 225.119758 
L 403.76 225.106332 
L 403.984 224.625814 
L 404.32 222.820927 
L 404.88 217.89811 
L 406 207.73593 
L 406.56 204.771295 
L 407.12 202.983612 
L 407.792 200.832371 
L 408.24 198.550634 
L 408.8 194.343812 
L 409.92 183.300794 
L 410.704 176.841733 
L 411.152 174.546553 
L 411.488 173.571384 
L 411.824 173.2 
L 412.048 173.261808 
L 412.384 173.758391 
L 412.832 175.081128 
L 413.392 177.62194 
L 414.176 182.472058 
L 417.088 202.071515 
L 418.88 212.569925 
L 420 218.82805 
L 420.56 220.855461 
L 421.008 221.684865 
L 421.232 221.817681 
L 421.456 221.762637 
L 421.792 221.353206 
L 422.24 220.273242 
L 422.912 217.881063 
L 425.824 205.887365 
L 426.832 199.384679 
L 427.952 192.511923 
L 428.848 188.418924 
L 429.968 184.344089 
L 430.528 182.971943 
L 430.976 182.427025 
L 431.312 182.368758 
L 431.648 182.577197 
L 432.096 183.182263 
L 432.768 184.540173 
L 433.888 187.430538 
L 436.688 195.353682 
L 439.04 204.218054 
L 439.712 205.801343 
L 440.272 206.573217 
L 440.72 206.810983 
L 441.28 206.784025 
L 442.064 206.702836 
L 442.624 206.887027 
L 444.64 207.915463 
L 445.088 207.844688 
L 445.536 207.519138 
L 445.984 206.879383 
L 446.544 205.668849 
L 448.448 201.132358 
L 449.232 199.934246 
L 450.464 198.534033 
L 451.36 197.344367 
L 453.264 194.534238 
L 453.488 194.342432 
L 453.488 194.342432 
" clip-path="url(#pd8360d5f8c)" style="fill: none; stroke: #000000; stroke-width: 0.25; stroke-linecap: square"/>
   </g>
   <g id="line2d_16">
    <path d="M 50.4 199.2 
L 453.488 199.2 
" clip-path="url(#pd8360d5f8c)" style="fill: none; stroke-dasharray: 0.925,0.4; stroke-dashoffset: 0; stroke: #000000; stroke-width: 0.25"/>
   </g>
   <g id="line2d_17">
    <path d="M 50.4 199.199622 
L 147.392 199.108608 
L 148.4 198.82087 
L 150.08 198.246957 
L 150.864 198.309738 
L 151.536 198.638062 
L 153.888 200.007211 
L 154.672 199.987112 
L 157.92 199.357365 
L 162.736 199.221866 
L 166.096 199.083036 
L 169.792 199.032885 
L 178.08 199.432015 
L 178.752 199.057774 
L 180.768 197.573747 
L 181.44 197.621285 
L 182.112 198.154576 
L 184.016 200.108109 
L 184.576 200.301899 
L 185.472 200.239645 
L 187.152 199.910151 
L 190.064 199.747213 
L 191.52 199.54728 
L 192.528 199.633298 
L 193.648 199.711879 
L 194.32 199.560491 
L 194.992 199.171796 
L 196.112 198.181493 
L 197.008 197.500614 
L 197.68 197.29738 
L 198.352 197.388362 
L 199.136 197.808383 
L 201.264 199.143784 
L 202.272 199.433757 
L 206.528 200.09159 
L 207.536 199.940492 
L 208.88 199.463617 
L 210.336 199.021267 
L 211.68 198.874529 
L 213.808 198.906464 
L 217.616 199.163506 
L 219.296 199.496808 
L 221.424 200.006205 
L 222.208 199.873551 
L 222.992 199.414822 
L 224.896 198.044649 
L 225.344 198.016485 
L 225.904 198.172718 
L 226.688 198.781415 
L 228.144 199.996091 
L 228.704 200.174529 
L 229.264 200.165176 
L 230.16 199.870547 
L 231.168 199.571009 
L 232.064 199.678699 
L 233.408 200.323645 
L 234.08 200.517733 
L 234.752 200.486373 
L 235.536 200.11854 
L 239.792 197.390988 
L 240.688 196.226496 
L 241.808 194.756128 
L 242.144 194.517094 
L 242.816 194.490419 
L 243.264 194.917602 
L 243.712 195.64358 
L 244.496 197.354146 
L 245.392 199.244017 
L 245.952 199.970343 
L 246.512 200.250408 
L 247.296 200.139597 
L 247.856 200.068106 
L 248.416 200.209814 
L 248.976 200.79342 
L 249.76 202.142838 
L 250.768 203.781176 
L 251.216 204.055595 
L 251.552 204.099189 
L 252 203.828041 
L 252.448 203.318094 
L 254.352 200.87294 
L 255.136 200.363686 
L 257.376 199.334738 
L 258.16 199.170574 
L 259.168 199.246954 
L 260.512 199.425241 
L 261.184 199.293678 
L 261.856 198.910694 
L 262.64 198.187161 
L 265.328 195.386203 
L 265.888 195.153045 
L 266.448 195.107234 
L 267.12 195.321775 
L 267.792 195.826299 
L 268.576 196.706017 
L 271.152 199.93417 
L 271.936 200.442916 
L 273.28 200.95963 
L 275.632 201.764205 
L 276.192 201.624397 
L 276.64 201.282545 
L 277.088 200.714391 
L 277.648 199.651799 
L 278.432 197.569861 
L 280.336 192.083317 
L 280.56 191.823722 
L 281.12 191.718081 
L 281.344 191.96626 
L 281.792 193.101414 
L 282.352 195.597971 
L 283.024 199.889875 
L 284.704 211.294701 
L 285.152 212.919496 
L 285.488 213.512267 
L 285.712 213.431927 
L 286.048 213.076665 
L 286.272 212.482897 
L 286.832 209.813347 
L 287.84 202.95922 
L 288.736 197.345721 
L 289.296 195.173268 
L 289.744 194.346367 
L 289.968 194.274231 
L 290.416 194.471482 
L 290.64 194.716531 
L 292.096 197.045296 
L 292.544 197.291227 
L 292.88 197.241168 
L 293.44 196.843743 
L 295.68 194.360618 
L 296.016 194.307116 
L 296.576 194.488772 
L 297.024 194.935379 
L 297.584 195.774601 
L 299.712 199.313764 
L 300.272 199.521037 
L 300.608 199.447065 
L 301.168 199.085942 
L 302.624 197.837566 
L 303.072 197.686154 
L 303.856 197.783288 
L 304.752 198.305967 
L 305.536 198.99014 
L 306.096 199.73106 
L 306.656 200.858312 
L 307.216 202.492258 
L 308.224 206.398861 
L 308.896 208.763975 
L 309.232 209.284872 
L 309.568 209.482009 
L 309.68 209.481918 
L 309.904 209.113721 
L 310.352 207.577069 
L 310.912 204.20838 
L 312.48 193.288851 
L 312.816 192.017309 
L 313.04 191.88497 
L 313.488 191.981428 
L 313.712 192.435328 
L 314.384 195.248316 
L 315.168 198.557351 
L 315.616 199.679145 
L 316.064 199.680798 
L 316.288 199.623498 
L 316.512 199.234316 
L 317.744 196.271197 
L 317.968 196.163467 
L 318.528 196.200191 
L 318.864 196.867637 
L 319.424 198.434032 
L 320.432 201.180138 
L 320.768 201.531449 
L 321.216 201.667289 
L 321.552 201.362934 
L 322.112 200.473992 
L 323.12 198.776157 
L 323.568 198.433738 
L 324.016 198.350393 
L 324.576 198.628742 
L 325.36 199.408055 
L 326.592 200.608453 
L 327.264 200.977685 
L 327.936 201.00834 
L 328.384 200.742242 
L 328.832 200.192329 
L 329.392 199.14657 
L 331.184 195.434671 
L 331.632 195.256677 
L 331.856 195.427946 
L 332.304 196.172647 
L 332.864 197.908328 
L 334.32 203.230169 
L 334.768 203.992167 
L 334.992 204.030865 
L 335.328 203.792076 
L 335.552 203.503567 
L 336 202.25367 
L 337.792 196.703281 
L 338.128 196.340304 
L 338.576 196.386034 
L 338.912 196.543231 
L 340.032 197.50709 
L 340.48 197.58971 
L 341.04 197.387501 
L 342.048 196.878954 
L 342.608 196.977739 
L 342.944 197.250125 
L 343.616 198.136628 
L 344.96 199.994359 
L 345.296 200.218854 
L 345.968 200.244315 
L 346.416 199.945677 
L 347.088 199.254496 
L 347.984 198.372504 
L 348.656 198.288728 
L 348.992 198.537006 
L 349.44 199.129505 
L 350.336 200.948385 
L 351.008 202.158847 
L 351.344 202.466339 
L 351.904 202.372127 
L 352.128 202.149177 
L 352.8 200.798679 
L 353.808 198.636628 
L 354.032 198.372991 
L 354.704 198.369399 
L 354.928 198.614445 
L 355.824 200.311082 
L 356.496 201.446681 
L 356.832 201.725074 
L 357.504 201.639646 
L 358.064 201.050988 
L 358.848 200.229038 
L 359.184 200.155623 
L 359.744 200.205336 
L 360.416 200.798894 
L 361.088 201.390532 
L 361.536 201.472777 
L 361.984 201.407633 
L 362.544 200.887634 
L 364.336 198.805584 
L 364.896 198.575221 
L 365.68 198.526963 
L 366.688 198.391363 
L 367.248 198.09258 
L 368.032 197.413026 
L 369.376 196.179025 
L 370.048 195.869266 
L 370.832 195.832008 
L 373.52 196.176981 
L 374.304 196.258013 
L 374.864 196.537157 
L 375.424 197.069753 
L 376.208 198.163627 
L 377.328 199.736093 
L 377.776 200.093887 
L 378.224 200.241918 
L 378.784 200.104483 
L 379.232 199.808064 
L 380.912 198.563295 
L 381.584 198.458268 
L 382.256 198.615342 
L 383.04 199.067646 
L 383.936 199.844484 
L 385.056 201.166144 
L 386.288 202.597073 
L 386.736 202.78147 
L 387.184 202.769616 
L 387.632 202.349866 
L 388.08 201.527262 
L 388.64 200.033609 
L 389.984 196.262683 
L 390.32 195.923436 
L 390.544 196.065609 
L 390.88 196.618438 
L 391.104 197.387088 
L 391.552 199.894826 
L 392.224 205.580544 
L 393.344 215.614985 
L 393.568 216.730628 
L 393.904 217.002894 
L 394.128 217.064204 
L 394.24 216.942334 
L 394.464 215.614274 
L 394.912 211.148696 
L 395.584 200.371163 
L 396.816 178.938039 
L 397.376 173.966356 
L 397.488 173.84512 
L 397.712 174.043816 
L 398.048 174.803914 
L 398.272 176.630282 
L 398.832 184.027092 
L 400.624 211.762989 
L 401.184 216.499129 
L 401.632 218.73004 
L 402.08 220.021665 
L 402.528 220.73147 
L 402.864 221.032903 
L 403.312 220.98322 
L 403.536 220.886268 
L 403.76 220.515556 
L 404.208 219.103064 
L 404.656 216.525924 
L 405.216 211.531789 
L 406 201.885256 
L 407.456 183.289623 
L 408.24 176.207529 
L 408.912 172.066041 
L 409.584 169.42274 
L 410.032 168.398763 
L 410.48 168.15991 
L 410.704 168.17005 
L 410.928 168.481432 
L 411.376 169.580492 
L 411.936 171.920201 
L 412.72 176.530326 
L 413.84 184.719351 
L 415.072 195.323682 
L 417.76 219.388051 
L 418.656 224.979644 
L 419.328 227.957936 
L 419.888 229.594813 
L 420.448 230.418221 
L 420.896 230.362511 
L 421.12 230.26181 
L 421.456 229.668133 
L 421.904 228.429838 
L 422.464 226.110349 
L 423.248 221.615389 
L 424.256 214.25767 
L 427.952 185.70532 
L 428.736 182.0526 
L 429.408 179.941308 
L 429.968 178.816363 
L 430.416 178.294153 
L 430.864 178.075559 
L 431.2 178.135758 
L 431.648 178.432391 
L 432.208 179.278737 
L 432.88 180.887309 
L 433.664 183.46057 
L 434.784 188.029867 
L 438.368 203.288833 
L 439.376 206.383053 
L 440.16 208.121249 
L 440.832 209.072124 
L 441.392 209.47403 
L 442.064 209.519774 
L 442.624 209.198486 
L 443.296 208.468748 
L 444.192 207.095981 
L 445.536 204.553578 
L 448.896 197.939029 
L 449.68 197.079714 
L 453.04 194.331209 
L 453.488 194.400689 
L 453.488 194.400689 
" clip-path="url(#pd8360d5f8c)" style="fill: none; stroke: #ff0000; stroke-width: 0.25; stroke-linecap: square"/>
   </g>
   <g id="patch_10">
    <path d="M 50.4 230.4 
L 453.6 230.4 
" style="fill: none; stroke: #000000; stroke-width: 0.8; stroke-linejoin: miter; stroke-linecap: square"/>
   </g>
   <g id="text_18">
    <g id="patch_11">
     <path d="M 30.299688 209.105469 
L 44.32 209.105469 
L 44.32 191.374219 
L 30.299688 191.374219 
L 30.299688 209.105469 
z
" style="fill: none"/>
    </g>
    <!-- Z -->
    <g transform="translate(34.299688 203.025781) scale(0.1 -0.1)">
     <defs>
      <path id="DejaVuSansMono-5a" d="M 556 4666 
L 3584 4666 
L 3584 4184 
L 1147 531 
L 3653 531 
L 3653 0 
L 488 0 
L 488 481 
L 2859 4134 
L 556 4134 
L 556 4666 
z
" transform="scale(0.015625)"/>
     </defs>
     <use xlink:href="#DejaVuSansMono-5a"/>
    </g>
   </g>
   <g id="text_19">
    <g id="patch_12">
     <path d="M 46.4049 177.629494 
L 103.195753 177.629494 
L 103.195753 164.0049 
L 46.4049 164.0049 
L 46.4049 177.629494 
z
" style="fill: none"/>
    </g>
    <!-- A: 0.0015287 m -->
    <g transform="translate(50.4 172.430255) scale(0.0579 -0.0579)">
     <use xlink:href="#DejaVuSansMono-41"/>
     <use xlink:href="#DejaVuSansMono-3a" x="60.205078"/>
     <use xlink:href="#DejaVuSansMono-20" x="120.410156"/>
     <use xlink:href="#DejaVuSansMono-30" x="180.615234"/>
     <use xlink:href="#DejaVuSansMono-2e" x="240.820312"/>
     <use xlink:href="#DejaVuSansMono-30" x="301.025391"/>
     <use xlink:href="#DejaVuSansMono-30" x="361.230469"/>
     <use xlink:href="#DejaVuSansMono-31" x="421.435547"/>
     <use xlink:href="#DejaVuSansMono-35" x="481.640625"/>
     <use xlink:href="#DejaVuSansMono-32" x="541.845703"/>
     <use xlink:href="#DejaVuSansMono-38" x="602.050781"/>
     <use xlink:href="#DejaVuSansMono-37" x="662.255859"/>
     <use xlink:href="#DejaVuSansMono-20" x="722.460938"/>
     <use xlink:href="#DejaVuSansMono-6d" x="782.666016"/>
    </g>
   </g>
  </g>
 </g>
 <defs>
  <clipPath id="p906ae4afde">
   <rect x="50.4" y="43.2" width="403.2" height="62.4"/>
  </clipPath>
  <clipPath id="p1314d4d528">
   <rect x="50.4" y="105.6" width="403.2" height="62.4"/>
  </clipPath>
  <clipPath id="pd8360d5f8c">
   <rect x="50.4" y="168" width="403.2" height="62.4"/>
  </clipPath>
 </defs>
</svg>
