<?xml version="1.0" encoding="utf-8" standalone="no"?>
<!DOCTYPE svg PUBLIC "-//W3C//DTD SVG 1.1//EN"
  "http://www.w3.org/Graphics/SVG/1.1/DTD/svg11.dtd">
<svg xmlns:xlink="http://www.w3.org/1999/xlink" width="432pt" height="288pt" viewBox="0 0 432 288" xmlns="http://www.w3.org/2000/svg" version="1.1">
 <metadata>
  <rdf:RDF xmlns:dc="http://purl.org/dc/elements/1.1/" xmlns:cc="http://creativecommons.org/ns#" xmlns:rdf="http://www.w3.org/1999/02/22-rdf-syntax-ns#">
   <cc:Work>
    <dc:type rdf:resource="http://purl.org/dc/dcmitype/StillImage"/>
    <dc:date>2023-04-04T13:26:15.714029</dc:date>
    <dc:format>image/svg+xml</dc:format>
    <dc:creator>
     <cc:Agent>
      <dc:title>Matplotlib v3.6.2, https://matplotlib.org/</dc:title>
     </cc:Agent>
    </dc:creator>
   </cc:Work>
  </rdf:RDF>
 </metadata>
 <defs>
  <style type="text/css">*{stroke-linejoin: round; stroke-linecap: butt}</style>
 </defs>
 <g id="figure_1">
  <g id="patch_1">
   <path d="M 0 288 
L 432 288 
L 432 0 
L 0 0 
z
" style="fill: #ffffff"/>
  </g>
  <g id="axes_1">
   <g id="patch_2">
    <path d="M 54 256.32 
L 345.6 256.32 
L 345.6 21.6 
L 54 21.6 
z
" style="fill: #ffffff"/>
   </g>
   <g id="axes_2">
    <g id="patch_3">
     <path d="M 345.6 256.32 
L 345.6 256.32 
L 345.6 21.6 
L 345.6 21.6 
z
" style="fill: #ffffff"/>
    </g>
    <g id="matplotlib.axis_1"/>
    <g id="matplotlib.axis_2">
     <g id="ytick_1">
      <g id="text_1">
       <!-- D: 73.56 A:331.02 -->
       <g transform="translate(352.6 188.10419) scale(0.0694 -0.0694)">
        <defs>
         <path id="DejaVuSansMono-44" d="M 1363 519 
Q 2159 519 2475 911 
Q 2791 1303 2791 2328 
Q 2791 3363 2477 3755 
Q 2163 4147 1363 4147 
L 1063 4147 
L 1063 519 
L 1363 519 
z
M 1375 4666 
Q 2444 4666 2950 4097 
Q 3456 3528 3456 2328 
Q 3456 1134 2950 567 
Q 2444 0 1375 0 
L 428 0 
L 428 4666 
L 1375 4666 
z
" transform="scale(0.015625)"/>
         <path id="DejaVuSansMono-3a" d="M 1528 3322 
L 2316 3322 
L 2316 2375 
L 1528 2375 
L 1528 3322 
z
M 1528 953 
L 2316 953 
L 2316 0 
L 1528 0 
L 1528 953 
z
" transform="scale(0.015625)"/>
         <path id="DejaVuSansMono-20" transform="scale(0.015625)"/>
         <path id="DejaVuSansMono-37" d="M 434 4666 
L 3372 4666 
L 3372 4397 
L 1703 0 
L 1044 0 
L 2669 4134 
L 434 4134 
L 434 4666 
z
" transform="scale(0.015625)"/>
         <path id="DejaVuSansMono-33" d="M 2425 2497 
Q 2884 2375 3128 2064 
Q 3372 1753 3372 1288 
Q 3372 644 2939 276 
Q 2506 -91 1741 -91 
Q 1419 -91 1084 -31 
Q 750 28 428 141 
L 428 769 
Q 747 603 1056 522 
Q 1366 441 1672 441 
Q 2191 441 2469 675 
Q 2747 909 2747 1350 
Q 2747 1756 2469 1995 
Q 2191 2234 1716 2234 
L 1234 2234 
L 1234 2753 
L 1716 2753 
Q 2150 2753 2394 2943 
Q 2638 3134 2638 3475 
Q 2638 3834 2411 4026 
Q 2184 4219 1766 4219 
Q 1488 4219 1191 4156 
Q 894 4094 569 3969 
L 569 4550 
Q 947 4650 1242 4700 
Q 1538 4750 1766 4750 
Q 2447 4750 2855 4408 
Q 3263 4066 3263 3500 
Q 3263 3116 3048 2859 
Q 2834 2603 2425 2497 
z
" transform="scale(0.015625)"/>
         <path id="DejaVuSansMono-2e" d="M 1528 953 
L 2316 953 
L 2316 0 
L 1528 0 
L 1528 953 
z
" transform="scale(0.015625)"/>
         <path id="DejaVuSansMono-35" d="M 647 4666 
L 3009 4666 
L 3009 4134 
L 1222 4134 
L 1222 2988 
Q 1356 3038 1492 3061 
Q 1628 3084 1766 3084 
Q 2491 3084 2916 2656 
Q 3341 2228 3341 1497 
Q 3341 759 2895 334 
Q 2450 -91 1678 -91 
Q 1306 -91 998 -41 
Q 691 9 447 109 
L 447 750 
Q 734 594 1025 517 
Q 1316 441 1619 441 
Q 2141 441 2423 716 
Q 2706 991 2706 1497 
Q 2706 1997 2414 2275 
Q 2122 2553 1600 2553 
Q 1347 2553 1106 2495 
Q 866 2438 647 2322 
L 647 4666 
z
" transform="scale(0.015625)"/>
         <path id="DejaVuSansMono-36" d="M 3097 4563 
L 3097 3981 
Q 2900 4097 2678 4158 
Q 2456 4219 2216 4219 
Q 1616 4219 1306 3767 
Q 997 3316 997 2438 
Q 1147 2750 1412 2917 
Q 1678 3084 2022 3084 
Q 2697 3084 3067 2670 
Q 3438 2256 3438 1497 
Q 3438 741 3056 325 
Q 2675 -91 1984 -91 
Q 1172 -91 794 492 
Q 416 1075 416 2328 
Q 416 3509 870 4129 
Q 1325 4750 2188 4750 
Q 2419 4750 2650 4701 
Q 2881 4653 3097 4563 
z
M 1972 2591 
Q 1569 2591 1337 2300 
Q 1106 2009 1106 1497 
Q 1106 984 1337 693 
Q 1569 403 1972 403 
Q 2391 403 2603 679 
Q 2816 956 2816 1497 
Q 2816 2041 2603 2316 
Q 2391 2591 1972 2591 
z
" transform="scale(0.015625)"/>
         <path id="DejaVuSansMono-41" d="M 1925 4109 
L 1259 1722 
L 2591 1722 
L 1925 4109 
z
M 1544 4666 
L 2309 4666 
L 3738 0 
L 3084 0 
L 2741 1216 
L 1106 1216 
L 769 0 
L 116 0 
L 1544 4666 
z
" transform="scale(0.015625)"/>
         <path id="DejaVuSansMono-31" d="M 844 531 
L 1825 531 
L 1825 4097 
L 769 3859 
L 769 4434 
L 1819 4666 
L 2450 4666 
L 2450 531 
L 3419 531 
L 3419 0 
L 844 0 
L 844 531 
z
" transform="scale(0.015625)"/>
         <path id="DejaVuSansMono-30" d="M 1509 2344 
Q 1509 2516 1629 2641 
Q 1750 2766 1919 2766 
Q 2094 2766 2219 2641 
Q 2344 2516 2344 2344 
Q 2344 2169 2220 2047 
Q 2097 1925 1919 1925 
Q 1744 1925 1626 2044 
Q 1509 2163 1509 2344 
z
M 1925 4250 
Q 1484 4250 1267 3775 
Q 1050 3300 1050 2328 
Q 1050 1359 1267 884 
Q 1484 409 1925 409 
Q 2369 409 2586 884 
Q 2803 1359 2803 2328 
Q 2803 3300 2586 3775 
Q 2369 4250 1925 4250 
z
M 1925 4750 
Q 2672 4750 3055 4137 
Q 3438 3525 3438 2328 
Q 3438 1134 3055 521 
Q 2672 -91 1925 -91 
Q 1178 -91 797 521 
Q 416 1134 416 2328 
Q 416 3525 797 4137 
Q 1178 4750 1925 4750 
z
" transform="scale(0.015625)"/>
         <path id="DejaVuSansMono-32" d="M 1166 531 
L 3309 531 
L 3309 0 
L 475 0 
L 475 531 
Q 1059 1147 1496 1619 
Q 1934 2091 2100 2284 
Q 2413 2666 2522 2902 
Q 2631 3138 2631 3384 
Q 2631 3775 2401 3997 
Q 2172 4219 1772 4219 
Q 1488 4219 1175 4116 
Q 863 4013 513 3803 
L 513 4441 
Q 834 4594 1145 4672 
Q 1456 4750 1759 4750 
Q 2444 4750 2861 4386 
Q 3278 4022 3278 3431 
Q 3278 3131 3139 2831 
Q 3000 2531 2688 2169 
Q 2513 1966 2180 1606 
Q 1847 1247 1166 531 
z
" transform="scale(0.015625)"/>
        </defs>
        <use xlink:href="#DejaVuSansMono-44"/>
        <use xlink:href="#DejaVuSansMono-3a" x="60.205078"/>
        <use xlink:href="#DejaVuSansMono-20" x="120.410156"/>
        <use xlink:href="#DejaVuSansMono-37" x="180.615234"/>
        <use xlink:href="#DejaVuSansMono-33" x="240.820312"/>
        <use xlink:href="#DejaVuSansMono-2e" x="301.025391"/>
        <use xlink:href="#DejaVuSansMono-35" x="361.230469"/>
        <use xlink:href="#DejaVuSansMono-36" x="421.435547"/>
        <use xlink:href="#DejaVuSansMono-20" x="481.640625"/>
        <use xlink:href="#DejaVuSansMono-41" x="541.845703"/>
        <use xlink:href="#DejaVuSansMono-3a" x="602.050781"/>
        <use xlink:href="#DejaVuSansMono-33" x="662.255859"/>
        <use xlink:href="#DejaVuSansMono-33" x="722.460938"/>
        <use xlink:href="#DejaVuSansMono-31" x="782.666016"/>
        <use xlink:href="#DejaVuSansMono-2e" x="842.871094"/>
        <use xlink:href="#DejaVuSansMono-30" x="903.076172"/>
        <use xlink:href="#DejaVuSansMono-32" x="963.28125"/>
       </g>
      </g>
     </g>
     <g id="ytick_2">
      <g id="text_2">
       <!-- D: 73.64 A:  0.41 -->
       <g transform="translate(352.6 134.869437) scale(0.0694 -0.0694)">
        <defs>
         <path id="DejaVuSansMono-34" d="M 2297 4091 
L 825 1625 
L 2297 1625 
L 2297 4091 
z
M 2194 4666 
L 2925 4666 
L 2925 1625 
L 3547 1625 
L 3547 1113 
L 2925 1113 
L 2925 0 
L 2297 0 
L 2297 1113 
L 319 1113 
L 319 1709 
L 2194 4666 
z
" transform="scale(0.015625)"/>
        </defs>
        <use xlink:href="#DejaVuSansMono-44"/>
        <use xlink:href="#DejaVuSansMono-3a" x="60.205078"/>
        <use xlink:href="#DejaVuSansMono-20" x="120.410156"/>
        <use xlink:href="#DejaVuSansMono-37" x="180.615234"/>
        <use xlink:href="#DejaVuSansMono-33" x="240.820312"/>
        <use xlink:href="#DejaVuSansMono-2e" x="301.025391"/>
        <use xlink:href="#DejaVuSansMono-36" x="361.230469"/>
        <use xlink:href="#DejaVuSansMono-34" x="421.435547"/>
        <use xlink:href="#DejaVuSansMono-20" x="481.640625"/>
        <use xlink:href="#DejaVuSansMono-41" x="541.845703"/>
        <use xlink:href="#DejaVuSansMono-3a" x="602.050781"/>
        <use xlink:href="#DejaVuSansMono-20" x="662.255859"/>
        <use xlink:href="#DejaVuSansMono-20" x="722.460938"/>
        <use xlink:href="#DejaVuSansMono-30" x="782.666016"/>
        <use xlink:href="#DejaVuSansMono-2e" x="842.871094"/>
        <use xlink:href="#DejaVuSansMono-34" x="903.076172"/>
        <use xlink:href="#DejaVuSansMono-31" x="963.28125"/>
       </g>
      </g>
     </g>
     <g id="ytick_3">
      <g id="text_3">
       <!-- D:106.95 A: 43.40 -->
       <g transform="translate(352.6 81.634685) scale(0.0694 -0.0694)">
        <defs>
         <path id="DejaVuSansMono-39" d="M 1863 2069 
Q 2266 2069 2495 2359 
Q 2725 2650 2725 3163 
Q 2725 3675 2495 3965 
Q 2266 4256 1863 4256 
Q 1444 4256 1231 3979 
Q 1019 3703 1019 3163 
Q 1019 2619 1230 2344 
Q 1441 2069 1863 2069 
z
M 738 97 
L 738 678 
Q 934 563 1156 502 
Q 1378 441 1619 441 
Q 2219 441 2526 892 
Q 2834 1344 2834 2222 
Q 2688 1909 2422 1742 
Q 2156 1575 1813 1575 
Q 1138 1575 767 1990 
Q 397 2406 397 3169 
Q 397 3922 776 4336 
Q 1156 4750 1850 4750 
Q 2663 4750 3041 4165 
Q 3419 3581 3419 2328 
Q 3419 1150 2964 529 
Q 2509 -91 1644 -91 
Q 1416 -91 1184 -42 
Q 953 6 738 97 
z
" transform="scale(0.015625)"/>
        </defs>
        <use xlink:href="#DejaVuSansMono-44"/>
        <use xlink:href="#DejaVuSansMono-3a" x="60.205078"/>
        <use xlink:href="#DejaVuSansMono-31" x="120.410156"/>
        <use xlink:href="#DejaVuSansMono-30" x="180.615234"/>
        <use xlink:href="#DejaVuSansMono-36" x="240.820312"/>
        <use xlink:href="#DejaVuSansMono-2e" x="301.025391"/>
        <use xlink:href="#DejaVuSansMono-39" x="361.230469"/>
        <use xlink:href="#DejaVuSansMono-35" x="421.435547"/>
        <use xlink:href="#DejaVuSansMono-20" x="481.640625"/>
        <use xlink:href="#DejaVuSansMono-41" x="541.845703"/>
        <use xlink:href="#DejaVuSansMono-3a" x="602.050781"/>
        <use xlink:href="#DejaVuSansMono-20" x="662.255859"/>
        <use xlink:href="#DejaVuSansMono-34" x="722.460938"/>
        <use xlink:href="#DejaVuSansMono-33" x="782.666016"/>
        <use xlink:href="#DejaVuSansMono-2e" x="842.871094"/>
        <use xlink:href="#DejaVuSansMono-34" x="903.076172"/>
        <use xlink:href="#DejaVuSansMono-30" x="963.28125"/>
       </g>
      </g>
     </g>
    </g>
   </g>
   <g id="matplotlib.axis_3">
    <g id="xtick_1">
     <g id="line2d_1">
      <defs>
       <path id="m1b9fbde179" d="M 0 0 
L 0 3.5 
" style="stroke: #000000; stroke-width: 0.8"/>
      </defs>
      <g>
       <use xlink:href="#m1b9fbde179" x="80.4951" y="256.32" style="stroke: #000000; stroke-width: 0.8"/>
      </g>
     </g>
     <g id="text_4">
      <!-- 23:00 -->
      <g transform="translate(65.444319 270.971563) scale(0.1 -0.1)">
       <use xlink:href="#DejaVuSansMono-32"/>
       <use xlink:href="#DejaVuSansMono-33" x="60.205078"/>
       <use xlink:href="#DejaVuSansMono-3a" x="120.410156"/>
       <use xlink:href="#DejaVuSansMono-30" x="180.615234"/>
       <use xlink:href="#DejaVuSansMono-30" x="240.820312"/>
      </g>
     </g>
    </g>
    <g id="xtick_2">
     <g id="line2d_2">
      <g>
       <use xlink:href="#m1b9fbde179" x="129.0951" y="256.32" style="stroke: #000000; stroke-width: 0.8"/>
      </g>
     </g>
     <g id="text_5">
      <!-- 23:10 -->
      <g transform="translate(114.044319 270.971563) scale(0.1 -0.1)">
       <use xlink:href="#DejaVuSansMono-32"/>
       <use xlink:href="#DejaVuSansMono-33" x="60.205078"/>
       <use xlink:href="#DejaVuSansMono-3a" x="120.410156"/>
       <use xlink:href="#DejaVuSansMono-31" x="180.615234"/>
       <use xlink:href="#DejaVuSansMono-30" x="240.820312"/>
      </g>
     </g>
    </g>
    <g id="xtick_3">
     <g id="line2d_3">
      <g>
       <use xlink:href="#m1b9fbde179" x="177.6951" y="256.32" style="stroke: #000000; stroke-width: 0.8"/>
      </g>
     </g>
     <g id="text_6">
      <!-- 23:20 -->
      <g transform="translate(162.644319 270.971563) scale(0.1 -0.1)">
       <use xlink:href="#DejaVuSansMono-32"/>
       <use xlink:href="#DejaVuSansMono-33" x="60.205078"/>
       <use xlink:href="#DejaVuSansMono-3a" x="120.410156"/>
       <use xlink:href="#DejaVuSansMono-32" x="180.615234"/>
       <use xlink:href="#DejaVuSansMono-30" x="240.820312"/>
      </g>
     </g>
    </g>
    <g id="xtick_4">
     <g id="line2d_4">
      <g>
       <use xlink:href="#m1b9fbde179" x="226.2951" y="256.32" style="stroke: #000000; stroke-width: 0.8"/>
      </g>
     </g>
     <g id="text_7">
      <!-- 23:30 -->
      <g transform="translate(211.244319 270.971563) scale(0.1 -0.1)">
       <use xlink:href="#DejaVuSansMono-32"/>
       <use xlink:href="#DejaVuSansMono-33" x="60.205078"/>
       <use xlink:href="#DejaVuSansMono-3a" x="120.410156"/>
       <use xlink:href="#DejaVuSansMono-33" x="180.615234"/>
       <use xlink:href="#DejaVuSansMono-30" x="240.820312"/>
      </g>
     </g>
    </g>
    <g id="xtick_5">
     <g id="line2d_5">
      <g>
       <use xlink:href="#m1b9fbde179" x="274.8951" y="256.32" style="stroke: #000000; stroke-width: 0.8"/>
      </g>
     </g>
     <g id="text_8">
      <!-- 23:40 -->
      <g transform="translate(259.844319 270.971563) scale(0.1 -0.1)">
       <use xlink:href="#DejaVuSansMono-32"/>
       <use xlink:href="#DejaVuSansMono-33" x="60.205078"/>
       <use xlink:href="#DejaVuSansMono-3a" x="120.410156"/>
       <use xlink:href="#DejaVuSansMono-34" x="180.615234"/>
       <use xlink:href="#DejaVuSansMono-30" x="240.820312"/>
      </g>
     </g>
    </g>
    <g id="xtick_6">
     <g id="line2d_6">
      <g>
       <use xlink:href="#m1b9fbde179" x="323.4951" y="256.32" style="stroke: #000000; stroke-width: 0.8"/>
      </g>
     </g>
     <g id="text_9">
      <!-- 23:50 -->
      <g transform="translate(308.444319 270.971563) scale(0.1 -0.1)">
       <use xlink:href="#DejaVuSansMono-32"/>
       <use xlink:href="#DejaVuSansMono-33" x="60.205078"/>
       <use xlink:href="#DejaVuSansMono-3a" x="120.410156"/>
       <use xlink:href="#DejaVuSansMono-35" x="180.615234"/>
       <use xlink:href="#DejaVuSansMono-30" x="240.820312"/>
      </g>
     </g>
    </g>
    <g id="text_10">
     <!-- Time -->
     <g transform="translate(187.759375 284.702812) scale(0.1 -0.1)">
      <defs>
       <path id="DejaVuSansMono-54" d="M 147 4666 
L 3706 4666 
L 3706 4134 
L 2247 4134 
L 2247 0 
L 1613 0 
L 1613 4134 
L 147 4134 
L 147 4666 
z
" transform="scale(0.015625)"/>
       <path id="DejaVuSansMono-69" d="M 800 3500 
L 2272 3500 
L 2272 447 
L 3413 447 
L 3413 0 
L 556 0 
L 556 447 
L 1697 447 
L 1697 3053 
L 800 3053 
L 800 3500 
z
M 1697 4863 
L 2272 4863 
L 2272 4134 
L 1697 4134 
L 1697 4863 
z
" transform="scale(0.015625)"/>
       <path id="DejaVuSansMono-6d" d="M 2113 3144 
Q 2219 3369 2383 3476 
Q 2547 3584 2778 3584 
Q 3200 3584 3373 3257 
Q 3547 2931 3547 2028 
L 3547 0 
L 3022 0 
L 3022 2003 
Q 3022 2744 2939 2923 
Q 2856 3103 2638 3103 
Q 2388 3103 2295 2911 
Q 2203 2719 2203 2003 
L 2203 0 
L 1678 0 
L 1678 2003 
Q 1678 2753 1589 2928 
Q 1500 3103 1269 3103 
Q 1041 3103 952 2911 
Q 863 2719 863 2003 
L 863 0 
L 341 0 
L 341 3500 
L 863 3500 
L 863 3200 
Q 966 3388 1120 3486 
Q 1275 3584 1472 3584 
Q 1709 3584 1867 3475 
Q 2025 3366 2113 3144 
z
" transform="scale(0.015625)"/>
       <path id="DejaVuSansMono-65" d="M 3475 1894 
L 3475 1613 
L 984 1613 
L 984 1594 
Q 984 1022 1282 709 
Q 1581 397 2125 397 
Q 2400 397 2700 484 
Q 3000 572 3341 750 
L 3341 178 
Q 3013 44 2708 -23 
Q 2403 -91 2119 -91 
Q 1303 -91 843 398 
Q 384 888 384 1747 
Q 384 2584 834 3084 
Q 1284 3584 2034 3584 
Q 2703 3584 3089 3131 
Q 3475 2678 3475 1894 
z
M 2900 2063 
Q 2888 2569 2661 2833 
Q 2434 3097 2009 3097 
Q 1594 3097 1325 2822 
Q 1056 2547 1006 2059 
L 2900 2063 
z
" transform="scale(0.015625)"/>
      </defs>
      <use xlink:href="#DejaVuSansMono-54"/>
      <use xlink:href="#DejaVuSansMono-69" x="60.205078"/>
      <use xlink:href="#DejaVuSansMono-6d" x="120.410156"/>
      <use xlink:href="#DejaVuSansMono-65" x="180.615234"/>
     </g>
    </g>
    <g id="text_11">
     <!-- 2015-Sep-16 -->
     <g transform="translate(279.376563 283.702812) scale(0.1 -0.1)">
      <defs>
       <path id="DejaVuSansMono-2d" d="M 1113 2009 
L 2741 2009 
L 2741 1497 
L 1113 1497 
L 1113 2009 
z
" transform="scale(0.015625)"/>
       <path id="DejaVuSansMono-53" d="M 3163 4506 
L 3163 3866 
Q 2875 4050 2586 4144 
Q 2297 4238 2003 4238 
Q 1556 4238 1297 4030 
Q 1038 3822 1038 3469 
Q 1038 3159 1208 2996 
Q 1378 2834 1844 2725 
L 2175 2650 
Q 2831 2497 3131 2169 
Q 3431 1841 3431 1275 
Q 3431 609 3018 259 
Q 2606 -91 1819 -91 
Q 1491 -91 1159 -20 
Q 828 50 494 191 
L 494 863 
Q 853 634 1173 528 
Q 1494 422 1819 422 
Q 2297 422 2562 636 
Q 2828 850 2828 1234 
Q 2828 1584 2645 1768 
Q 2463 1953 2009 2053 
L 1672 2131 
Q 1022 2278 728 2575 
Q 434 2872 434 3372 
Q 434 3997 854 4373 
Q 1275 4750 1972 4750 
Q 2241 4750 2537 4689 
Q 2834 4628 3163 4506 
z
" transform="scale(0.015625)"/>
       <path id="DejaVuSansMono-70" d="M 1172 441 
L 1172 -1331 
L 594 -1331 
L 594 3500 
L 1172 3500 
L 1172 3053 
Q 1316 3313 1555 3448 
Q 1794 3584 2106 3584 
Q 2741 3584 3102 3093 
Q 3463 2603 3463 1734 
Q 3463 881 3100 395 
Q 2738 -91 2106 -91 
Q 1788 -91 1548 45 
Q 1309 181 1172 441 
z
M 2859 1747 
Q 2859 2416 2648 2756 
Q 2438 3097 2022 3097 
Q 1603 3097 1387 2755 
Q 1172 2413 1172 1747 
Q 1172 1084 1387 740 
Q 1603 397 2022 397 
Q 2438 397 2648 737 
Q 2859 1078 2859 1747 
z
" transform="scale(0.015625)"/>
      </defs>
      <use xlink:href="#DejaVuSansMono-32"/>
      <use xlink:href="#DejaVuSansMono-30" x="60.205078"/>
      <use xlink:href="#DejaVuSansMono-31" x="120.410156"/>
      <use xlink:href="#DejaVuSansMono-35" x="180.615234"/>
      <use xlink:href="#DejaVuSansMono-2d" x="240.820312"/>
      <use xlink:href="#DejaVuSansMono-53" x="301.025391"/>
      <use xlink:href="#DejaVuSansMono-65" x="361.230469"/>
      <use xlink:href="#DejaVuSansMono-70" x="421.435547"/>
      <use xlink:href="#DejaVuSansMono-2d" x="481.640625"/>
      <use xlink:href="#DejaVuSansMono-31" x="541.845703"/>
      <use xlink:href="#DejaVuSansMono-36" x="602.050781"/>
     </g>
    </g>
   </g>
   <g id="matplotlib.axis_4">
    <g id="ytick_4">
     <g id="text_12">
      <!-- IU.ANMO -->
      <g transform="translate(11.895558 188.491435) scale(0.0833 -0.0833)">
       <defs>
        <path id="DejaVuSansMono-49" d="M 628 4666 
L 3219 4666 
L 3219 4134 
L 2241 4134 
L 2241 531 
L 3219 531 
L 3219 0 
L 628 0 
L 628 531 
L 1606 531 
L 1606 4134 
L 628 4134 
L 628 4666 
z
" transform="scale(0.015625)"/>
        <path id="DejaVuSansMono-55" d="M 459 1791 
L 459 4666 
L 1094 4666 
L 1094 1503 
Q 1094 1163 1112 1017 
Q 1131 872 1178 794 
Q 1278 609 1467 515 
Q 1656 422 1925 422 
Q 2197 422 2384 515 
Q 2572 609 2675 794 
Q 2722 872 2740 1015 
Q 2759 1159 2759 1497 
L 2759 4666 
L 3391 4666 
L 3391 1791 
Q 3391 1075 3302 773 
Q 3213 472 2994 275 
Q 2788 91 2522 0 
Q 2256 -91 1925 -91 
Q 1597 -91 1331 0 
Q 1066 91 856 275 
Q 641 469 550 776 
Q 459 1084 459 1791 
z
" transform="scale(0.015625)"/>
        <path id="DejaVuSansMono-4e" d="M 434 4666 
L 1234 4666 
L 2809 825 
L 2809 4666 
L 3419 4666 
L 3419 0 
L 2619 0 
L 1044 3841 
L 1044 0 
L 434 0 
L 434 4666 
z
" transform="scale(0.015625)"/>
        <path id="DejaVuSansMono-4d" d="M 269 4666 
L 1113 4666 
L 1919 2291 
L 2731 4666 
L 3578 4666 
L 3578 0 
L 2994 0 
L 2994 4122 
L 2163 1663 
L 1684 1663 
L 850 4122 
L 850 0 
L 269 0 
L 269 4666 
z
" transform="scale(0.015625)"/>
        <path id="DejaVuSansMono-4f" d="M 2828 2328 
Q 2828 3356 2617 3797 
Q 2406 4238 1925 4238 
Q 1447 4238 1236 3797 
Q 1025 3356 1025 2328 
Q 1025 1303 1236 862 
Q 1447 422 1925 422 
Q 2406 422 2617 861 
Q 2828 1300 2828 2328 
z
M 3488 2328 
Q 3488 1109 3102 509 
Q 2716 -91 1925 -91 
Q 1134 -91 750 506 
Q 366 1103 366 2328 
Q 366 3550 752 4150 
Q 1138 4750 1925 4750 
Q 2716 4750 3102 4150 
Q 3488 3550 3488 2328 
z
" transform="scale(0.015625)"/>
       </defs>
       <use xlink:href="#DejaVuSansMono-49"/>
       <use xlink:href="#DejaVuSansMono-55" x="60.205078"/>
       <use xlink:href="#DejaVuSansMono-2e" x="120.410156"/>
       <use xlink:href="#DejaVuSansMono-41" x="180.615234"/>
       <use xlink:href="#DejaVuSansMono-4e" x="240.820312"/>
       <use xlink:href="#DejaVuSansMono-4d" x="301.025391"/>
       <use xlink:href="#DejaVuSansMono-4f" x="361.230469"/>
      </g>
     </g>
    </g>
    <g id="ytick_5">
     <g id="text_13">
      <!-- IU.HRV -->
      <g transform="translate(16.910478 135.256683) scale(0.0833 -0.0833)">
       <defs>
        <path id="DejaVuSansMono-48" d="M 428 4666 
L 1063 4666 
L 1063 2753 
L 2791 2753 
L 2791 4666 
L 3425 4666 
L 3425 0 
L 2791 0 
L 2791 2222 
L 1063 2222 
L 1063 0 
L 428 0 
L 428 4666 
z
" transform="scale(0.015625)"/>
        <path id="DejaVuSansMono-52" d="M 2375 2203 
Q 2619 2141 2791 1967 
Q 2963 1794 3219 1275 
L 3853 0 
L 3175 0 
L 2619 1178 
Q 2378 1681 2186 1826 
Q 1994 1972 1684 1972 
L 1081 1972 
L 1081 0 
L 447 0 
L 447 4666 
L 1747 4666 
Q 2516 4666 2925 4319 
Q 3334 3972 3334 3316 
Q 3334 2853 3082 2561 
Q 2831 2269 2375 2203 
z
M 1081 4147 
L 1081 2491 
L 1772 2491 
Q 2225 2491 2447 2694 
Q 2669 2897 2669 3316 
Q 2669 3719 2433 3933 
Q 2197 4147 1747 4147 
L 1081 4147 
z
" transform="scale(0.015625)"/>
        <path id="DejaVuSansMono-56" d="M 1925 531 
L 3022 4666 
L 3675 4666 
L 2309 0 
L 1544 0 
L 178 4666 
L 831 4666 
L 1925 531 
z
" transform="scale(0.015625)"/>
       </defs>
       <use xlink:href="#DejaVuSansMono-49"/>
       <use xlink:href="#DejaVuSansMono-55" x="60.205078"/>
       <use xlink:href="#DejaVuSansMono-2e" x="120.410156"/>
       <use xlink:href="#DejaVuSansMono-48" x="180.615234"/>
       <use xlink:href="#DejaVuSansMono-52" x="240.820312"/>
       <use xlink:href="#DejaVuSansMono-56" x="301.025391"/>
      </g>
     </g>
    </g>
    <g id="ytick_6">
     <g id="text_14">
      <!-- II.BFO -->
      <g transform="translate(16.910478 82.02193) scale(0.0833 -0.0833)">
       <defs>
        <path id="DejaVuSansMono-42" d="M 1153 2228 
L 1153 519 
L 1900 519 
Q 2450 519 2684 711 
Q 2919 903 2919 1344 
Q 2919 1800 2672 2014 
Q 2425 2228 1900 2228 
L 1153 2228 
z
M 1153 4147 
L 1153 2741 
L 1888 2741 
Q 2344 2741 2548 2916 
Q 2753 3091 2753 3481 
Q 2753 3834 2551 3990 
Q 2350 4147 1888 4147 
L 1153 4147 
z
M 519 4666 
L 1900 4666 
Q 2616 4666 3003 4356 
Q 3391 4047 3391 3481 
Q 3391 3053 3186 2806 
Q 2981 2559 2572 2497 
Q 3031 2428 3292 2104 
Q 3553 1781 3553 1281 
Q 3553 647 3137 323 
Q 2722 0 1900 0 
L 519 0 
L 519 4666 
z
" transform="scale(0.015625)"/>
        <path id="DejaVuSansMono-46" d="M 728 4666 
L 3475 4666 
L 3475 4134 
L 1363 4134 
L 1363 2759 
L 3278 2759 
L 3278 2228 
L 1363 2228 
L 1363 0 
L 728 0 
L 728 4666 
z
" transform="scale(0.015625)"/>
       </defs>
       <use xlink:href="#DejaVuSansMono-49"/>
       <use xlink:href="#DejaVuSansMono-49" x="60.205078"/>
       <use xlink:href="#DejaVuSansMono-2e" x="120.410156"/>
       <use xlink:href="#DejaVuSansMono-42" x="180.615234"/>
       <use xlink:href="#DejaVuSansMono-46" x="240.820312"/>
       <use xlink:href="#DejaVuSansMono-4f" x="301.025391"/>
      </g>
     </g>
    </g>
   </g>
   <g id="line2d_7">
    <path d="M 54 186.166215 
L 104.949 186.099498 
L 109.728 185.960127 
L 110.376 185.894066 
L 110.943 185.577479 
L 111.834 184.984737 
L 112.158 185.032833 
L 112.482 185.349729 
L 112.887 186.12327 
L 114.021 188.604323 
L 114.345 188.753846 
L 114.588 188.622337 
L 114.912 188.160699 
L 116.451 185.400087 
L 116.775 185.33741 
L 117.18 185.506047 
L 118.476 186.260631 
L 119.043 186.258075 
L 120.339 185.924105 
L 121.311 185.793046 
L 122.364 185.899765 
L 123.822 186.032176 
L 124.632 185.884394 
L 125.28 185.531288 
L 126.252 184.971295 
L 126.576 185.018744 
L 126.9 185.265 
L 127.386 185.96918 
L 128.439 187.630855 
L 128.844 187.822721 
L 129.168 187.740061 
L 129.654 187.345948 
L 130.626 186.511967 
L 131.112 186.38217 
L 131.76 186.485309 
L 132.894 186.726466 
L 133.38 186.599911 
L 133.947 186.190854 
L 135.486 184.78956 
L 135.891 184.8076 
L 136.296 185.06695 
L 137.025 185.886651 
L 137.673 186.505232 
L 138.159 186.684123 
L 138.645 186.618639 
L 139.374 186.255595 
L 140.346 185.808011 
L 140.913 185.800782 
L 141.561 186.040246 
L 142.533 186.40534 
L 143.1 186.344288 
L 143.829 185.992107 
L 144.72 185.619453 
L 145.287 185.617157 
L 146.097 185.877911 
L 150.066 187.508964 
L 150.714 187.464447 
L 151.443 187.176092 
L 152.82 186.571951 
L 154.602 186.034299 
L 155.169 185.506799 
L 155.817 184.574263 
L 156.951 182.853093 
L 157.356 182.600537 
L 157.68 182.630998 
L 158.085 182.948729 
L 158.652 183.774433 
L 160.758 187.253042 
L 161.082 187.295265 
L 161.325 187.11021 
L 161.649 186.566796 
L 162.783 184.134885 
L 162.945 184.183856 
L 163.188 184.64258 
L 163.512 186.040953 
L 163.998 189.588218 
L 164.889 196.543928 
L 165.213 197.627384 
L 165.375 197.697661 
L 165.537 197.457079 
L 165.78 196.526357 
L 166.185 193.776278 
L 167.562 183.227853 
L 167.967 181.758249 
L 168.372 181.011779 
L 168.777 180.72395 
L 169.182 180.694592 
L 169.668 180.882024 
L 170.235 181.386756 
L 171.045 182.509834 
L 172.179 184.04119 
L 173.07 184.875608 
L 175.581 186.614935 
L 176.067 186.645066 
L 177.201 186.484163 
L 177.525 186.792211 
L 177.93 187.568561 
L 178.578 189.497492 
L 179.307 191.494884 
L 179.631 191.832693 
L 179.874 191.730332 
L 180.117 191.289287 
L 180.441 190.167695 
L 180.927 187.549051 
L 181.818 182.507996 
L 182.142 181.750486 
L 182.304 181.745394 
L 182.466 181.99867 
L 182.709 182.856721 
L 183.114 185.308597 
L 184.005 191.249532 
L 184.329 192.063606 
L 184.491 192.023598 
L 184.653 191.686866 
L 184.977 190.188637 
L 185.544 185.879213 
L 186.192 181.267562 
L 186.516 180.090595 
L 186.759 179.861573 
L 186.921 180.002885 
L 187.164 180.609752 
L 187.65 182.749512 
L 188.46 186.286365 
L 188.784 186.969986 
L 189.027 187.151615 
L 189.27 187.08907 
L 189.675 186.632267 
L 190.485 185.579598 
L 190.89 185.430615 
L 191.214 185.534923 
L 191.781 186.024784 
L 192.591 186.729635 
L 193.077 186.880498 
L 193.563 186.773632 
L 194.13 186.370788 
L 195.183 185.515107 
L 195.507 185.526286 
L 195.831 185.792327 
L 196.236 186.501586 
L 197.532 189.322937 
L 197.775 189.346516 
L 198.018 189.061205 
L 198.342 188.170516 
L 198.828 185.882363 
L 199.881 180.432403 
L 200.205 179.85106 
L 200.367 179.892698 
L 200.61 180.370062 
L 200.934 181.714207 
L 201.582 185.802799 
L 202.23 189.458186 
L 202.635 190.655785 
L 202.878 190.922323 
L 203.121 190.891497 
L 203.445 190.490541 
L 203.931 189.384417 
L 206.361 182.996335 
L 206.928 182.173315 
L 207.171 182.066435 
L 207.414 182.219665 
L 207.657 182.72368 
L 207.981 184.054513 
L 208.386 186.810919 
L 209.763 197.658918 
L 210.006 198.071749 
L 210.168 197.93435 
L 210.411 197.135832 
L 210.816 194.525213 
L 212.193 184.27932 
L 212.679 182.638081 
L 213.165 181.712554 
L 213.651 181.18962 
L 213.975 181.082957 
L 214.299 181.19668 
L 215.271 181.784543 
L 215.514 181.532824 
L 215.838 180.714443 
L 216.243 178.934581 
L 217.458 172.989089 
L 217.701 172.748159 
L 217.863 172.888491 
L 218.106 173.577983 
L 218.43 175.341151 
L 218.916 179.401866 
L 221.265 201.498478 
L 221.67 203.113137 
L 221.832 203.307726 
L 221.994 203.202746 
L 222.237 202.458904 
L 222.561 200.378719 
L 223.047 195.379045 
L 224.1 183.960068 
L 224.424 182.363069 
L 224.667 182.046679 
L 224.829 182.218024 
L 225.072 182.953171 
L 226.125 187.073321 
L 226.287 187.059356 
L 226.449 186.776195 
L 226.773 185.479332 
L 227.664 181.038164 
L 227.826 180.954737 
L 227.988 181.282413 
L 228.231 182.650421 
L 228.555 186.073121 
L 229.203 196.278473 
L 229.689 202.719355 
L 229.932 204.112069 
L 230.013 204.186331 
L 230.094 204.073943 
L 230.256 203.211535 
L 230.499 200.326246 
L 230.904 191.85137 
L 231.876 168.786191 
L 232.119 166.879584 
L 232.2 166.880358 
L 232.362 167.743274 
L 232.605 171.391466 
L 233.01 182.590278 
L 233.901 209.591745 
L 234.144 211.91298 
L 234.225 211.85368 
L 234.387 210.542361 
L 234.63 205.423375 
L 235.035 189.871252 
L 236.169 139.891511 
L 236.493 134.072396 
L 236.736 132.935997 
L 236.817 133.074575 
L 236.979 134.018558 
L 237.303 137.892349 
L 237.87 148.219865 
L 238.518 164.438665 
L 239.247 189.882692 
L 240.138 219.463566 
L 240.624 228.997175 
L 241.029 233.13557 
L 241.272 234.039723 
L 241.353 234.051869 
L 241.515 233.699292 
L 241.758 232.119879 
L 242.082 228.271297 
L 243.459 209.000557 
L 244.431 200.26403 
L 244.998 192.059985 
L 246.294 171.820665 
L 246.699 168.925962 
L 247.104 167.69465 
L 247.671 166.324692 
L 248.157 164.173142 
L 248.886 160.726196 
L 249.129 160.271109 
L 249.291 160.324785 
L 249.453 160.685261 
L 249.696 161.805577 
L 250.101 164.91394 
L 251.397 175.831493 
L 252.774 184.68563 
L 253.827 193.141415 
L 254.232 194.781628 
L 254.556 195.334386 
L 254.88 195.484073 
L 255.366 195.639039 
L 255.69 195.983737 
L 256.905 197.691214 
L 257.148 197.60864 
L 257.472 197.221847 
L 258.12 195.978314 
L 258.768 194.374934 
L 259.335 192.280159 
L 260.307 188.368819 
L 260.631 187.791278 
L 260.874 187.665794 
L 261.198 187.771805 
L 261.765 188.002165 
L 262.008 187.863457 
L 262.332 187.3287 
L 262.818 185.897706 
L 263.709 183.203797 
L 264.033 182.7975 
L 264.276 182.762151 
L 264.6 183.002762 
L 265.491 183.936907 
L 265.734 183.817569 
L 265.977 183.401519 
L 266.382 182.081657 
L 267.435 178.192869 
L 267.678 178.030166 
L 267.84 178.155636 
L 268.083 178.681392 
L 268.569 180.525498 
L 269.217 182.82424 
L 269.541 183.290528 
L 269.784 183.31847 
L 270.189 183.022613 
L 270.594 182.799383 
L 270.837 182.909707 
L 271.161 183.442721 
L 271.647 184.881423 
L 272.376 186.946582 
L 272.781 187.438749 
L 273.267 187.590351 
L 273.591 187.755443 
L 273.915 188.185477 
L 274.32 189.140871 
L 275.211 191.410731 
L 275.535 191.686004 
L 275.778 191.619624 
L 276.102 191.239643 
L 277.236 189.539051 
L 277.722 189.319035 
L 278.289 189.105405 
L 278.694 188.672049 
L 279.261 187.595477 
L 280.152 185.873117 
L 280.557 185.506166 
L 281.043 185.389458 
L 282.015 185.261242 
L 283.311 184.813635 
L 283.959 184.99063 
L 284.526 185.084443 
L 285.093 184.910841 
L 286.065 184.536173 
L 286.713 184.575247 
L 289.305 185.093186 
L 292.059 186.47882 
L 293.679 187.726987 
L 294.489 188.548477 
L 294.975 188.931952 
L 295.299 188.916857 
L 295.623 188.594558 
L 296.028 187.794483 
L 297 185.696965 
L 297.324 185.476201 
L 297.648 185.563036 
L 298.215 186.097182 
L 298.62 186.365027 
L 298.944 186.324269 
L 299.268 186.042775 
L 300.321 184.925402 
L 300.645 184.952668 
L 301.941 185.429988 
L 302.589 185.410562 
L 302.994 185.681529 
L 303.642 186.5354 
L 304.128 187.002482 
L 304.452 187.018285 
L 304.776 186.779549 
L 305.91 185.669902 
L 306.234 185.782263 
L 306.801 186.347056 
L 307.287 186.69135 
L 307.611 186.681024 
L 308.097 186.383439 
L 308.745 186.010942 
L 309.15 186.049517 
L 310.446 186.50163 
L 310.932 186.248366 
L 311.661 185.855641 
L 312.228 185.839719 
L 314.496 186.130388 
L 315.873 185.930101 
L 316.521 186.19959 
L 317.412 186.558491 
L 318.06 186.532875 
L 319.68 186.323338 
L 320.733 186.177066 
L 323.406 185.67334 
L 323.973 185.934912 
L 324.945 186.419693 
L 325.431 186.420618 
L 326.241 186.136962 
L 326.889 186.027499 
L 327.861 186.208851 
L 329.562 186.509476 
L 330.615 187.069216 
L 331.02 187.014573 
L 331.506 186.681382 
L 332.64 185.758657 
L 333.126 185.749555 
L 334.098 185.890941 
L 334.746 185.638546 
L 335.394 185.426978 
L 335.88 185.51064 
L 336.447 185.887821 
L 337.257 186.440678 
L 337.905 186.571056 
L 339.12 186.535741 
L 339.849 186.29005 
L 340.821 185.673136 
L 341.55 185.329274 
L 342.036 185.371837 
L 342.522 185.665779 
L 344.385 187.091084 
L 345.195 187.287752 
L 345.519 187.312129 
L 345.519 187.312129 
" clip-path="url(#pf27a3d4149)" style="fill: none; stroke: #000000; stroke-width: 0.75; stroke-linecap: square"/>
   </g>
   <g id="line2d_8">
    <path d="M 54 186.169344 
L 107.136 186.044612 
L 109.728 186.063395 
L 110.619 185.995565 
L 111.51 185.60942 
L 112.077 185.460808 
L 112.482 185.581308 
L 112.806 185.86616 
L 113.292 186.574108 
L 114.345 188.220647 
L 114.669 188.32316 
L 114.993 188.293862 
L 115.398 187.872845 
L 116.856 185.962299 
L 117.342 185.838363 
L 118.152 186.014197 
L 118.8 186.095274 
L 119.367 185.988364 
L 121.068 185.493086 
L 121.959 185.558716 
L 123.741 185.732144 
L 124.551 185.545682 
L 126.414 184.902249 
L 126.819 185.098267 
L 127.305 185.590053 
L 128.763 187.380712 
L 129.249 187.511167 
L 129.816 187.322034 
L 131.112 186.639906 
L 131.841 186.663901 
L 133.299 186.885668 
L 133.947 186.629439 
L 134.838 185.954202 
L 135.486 185.547342 
L 136.053 185.480506 
L 136.62 185.709562 
L 138.483 186.789558 
L 139.131 186.759341 
L 143.181 185.857046 
L 144.558 185.348385 
L 145.449 185.29641 
L 146.421 185.453046 
L 147.636 185.860509 
L 150.066 186.773072 
L 151.929 187.104722 
L 152.82 187.052852 
L 153.711 186.751669 
L 154.683 186.178252 
L 155.412 185.488477 
L 156.06 184.542174 
L 157.761 181.679254 
L 158.166 181.738195 
L 158.409 182.101844 
L 158.814 183.216633 
L 159.462 185.98698 
L 160.11 188.689379 
L 160.515 189.503081 
L 160.839 189.35616 
L 161.001 189.155967 
L 161.325 188.075369 
L 162.54 183.471609 
L 162.864 183.609713 
L 163.026 183.919772 
L 163.431 186.089623 
L 164.16 192.247809 
L 164.727 196.535858 
L 165.051 197.66931 
L 165.294 197.967408 
L 165.456 197.732386 
L 165.78 196.596936 
L 166.266 193.322935 
L 167.319 185.589494 
L 167.805 183.55793 
L 168.21 182.722992 
L 168.615 182.374114 
L 169.668 181.771459 
L 170.802 180.850183 
L 171.369 180.926392 
L 172.017 181.452239 
L 172.989 182.184628 
L 173.88 182.749202 
L 174.366 183.336067 
L 174.933 184.361277 
L 176.391 187.206563 
L 178.74 190.522581 
L 179.145 190.802509 
L 179.388 190.730559 
L 179.712 190.389521 
L 180.117 189.326725 
L 180.765 186.577185 
L 181.494 183.602558 
L 181.818 183.239816 
L 181.98 183.203178 
L 182.142 183.491398 
L 182.466 184.688089 
L 182.952 187.875722 
L 183.762 193.560891 
L 184.005 194.260377 
L 184.329 194.466983 
L 184.41 194.381141 
L 184.653 193.324234 
L 184.977 191.135844 
L 186.273 180.528314 
L 186.597 179.69456 
L 186.759 179.610041 
L 187.002 179.955574 
L 187.326 180.86207 
L 188.217 184.000316 
L 188.622 184.598453 
L 188.946 184.602559 
L 189.351 184.422607 
L 189.756 184.300789 
L 190.08 184.381966 
L 190.485 184.865677 
L 191.862 187.091409 
L 192.348 187.205484 
L 192.834 187.002225 
L 194.049 186.338669 
L 195.021 186.081502 
L 195.588 186.174753 
L 195.993 186.511563 
L 196.479 187.267676 
L 197.451 188.980881 
L 197.856 189.086875 
L 198.018 188.919773 
L 198.423 187.967543 
L 198.99 185.610985 
L 199.8 182.453638 
L 200.205 182.128594 
L 200.367 182.301917 
L 200.691 183.218008 
L 201.177 185.630632 
L 202.068 190.166343 
L 202.473 191.13862 
L 202.635 191.225201 
L 203.04 191.07472 
L 203.364 190.498305 
L 204.255 188.484397 
L 205.551 185.980703 
L 206.766 183.884066 
L 207.252 183.425958 
L 207.657 183.342601 
L 207.981 183.414484 
L 208.467 183.797935 
L 209.115 184.627478 
L 210.006 185.763601 
L 210.33 185.86352 
L 210.654 185.826069 
L 211.059 185.312272 
L 211.545 184.185766 
L 212.679 181.254018 
L 213.003 180.849565 
L 213.327 180.695245 
L 213.732 180.820206 
L 214.299 181.294719 
L 215.757 182.773409 
L 216.243 183.819413 
L 216.891 185.894197 
L 218.025 189.576597 
L 218.592 190.681005 
L 219.726 192.174951 
L 220.86 193.578323 
L 221.265 193.792003 
L 221.832 193.684463 
L 222.318 193.190913 
L 222.966 192.162097 
L 224.262 190.009416 
L 224.91 189.385325 
L 225.963 188.51119 
L 226.611 187.582862 
L 227.745 185.838669 
L 228.231 185.476322 
L 229.527 184.818316 
L 229.932 184.169512 
L 230.904 182.492566 
L 231.228 182.461196 
L 231.471 182.975673 
L 231.795 184.194873 
L 232.524 188.54976 
L 232.848 189.900655 
L 233.091 190.298121 
L 233.172 190.314152 
L 233.334 189.766455 
L 233.658 187.185755 
L 234.063 180.543902 
L 234.63 166.137755 
L 235.602 140.686902 
L 235.926 135.880615 
L 236.25 134.359551 
L 236.331 134.276831 
L 236.412 134.477262 
L 236.655 136.611057 
L 236.898 139.992706 
L 237.384 151.084965 
L 238.194 176.342074 
L 239.814 227.842956 
L 240.381 239.44332 
L 240.786 244.152193 
L 241.029 245.568879 
L 241.191 245.588786 
L 241.434 245.021535 
L 241.596 244.259385 
L 242.001 239.952216 
L 242.568 230.734656 
L 243.864 204.328913 
L 245.16 180.248391 
L 245.97 168.730768 
L 246.618 162.340127 
L 247.104 159.464381 
L 247.509 158.257225 
L 247.833 157.931153 
L 248.076 158.055338 
L 248.4 158.487113 
L 248.886 159.771049 
L 249.534 162.231659 
L 250.263 165.958591 
L 251.235 172.277244 
L 252.855 182.789824 
L 253.908 188.070527 
L 254.961 192.267858 
L 255.852 194.927558 
L 256.5 196.233105 
L 257.067 196.855031 
L 257.391 196.986695 
L 257.958 196.863365 
L 258.525 196.337221 
L 259.254 195.324443 
L 260.307 193.481103 
L 261.36 191.178431 
L 262.98 187.621402 
L 264.357 185.308223 
L 265.896 183.02196 
L 266.706 182.199229 
L 267.354 181.854824 
L 267.921 181.799104 
L 268.569 181.950137 
L 269.703 182.52157 
L 272.7 184.300627 
L 273.834 185.215538 
L 275.13 186.578421 
L 277.236 188.871698 
L 277.722 188.970788 
L 278.208 188.759854 
L 278.856 188.073048 
L 279.909 186.921277 
L 280.476 186.673207 
L 281.124 186.6703 
L 283.068 186.80541 
L 284.445 186.572286 
L 287.361 185.960914 
L 291.249 185.527864 
L 292.383 185.21017 
L 293.031 185.270542 
L 293.679 185.57482 
L 295.38 186.567687 
L 296.028 186.577148 
L 296.838 186.249306 
L 297.81 185.849002 
L 298.539 185.866689 
L 300.321 186.159652 
L 301.86 186.106944 
L 302.589 186.400837 
L 303.966 186.990767 
L 304.533 186.978788 
L 305.1 186.790326 
L 307.125 185.921399 
L 308.016 185.903188 
L 312.795 186.084022 
L 313.767 186.041801 
L 314.901 186.269037 
L 316.035 186.38459 
L 318.789 186.292265 
L 322.515 185.808423 
L 324.945 185.842003 
L 325.917 185.984442 
L 326.727 186.357745 
L 327.78 186.833087 
L 328.347 186.863777 
L 328.995 186.738824 
L 330.453 186.448109 
L 331.425 186.18851 
L 333.045 185.616831 
L 333.774 185.664101 
L 336.69 186.320452 
L 337.986 186.722057 
L 338.796 186.684777 
L 339.93 186.33287 
L 341.955 185.730069 
L 342.684 185.734185 
L 343.332 185.931242 
L 344.628 186.369207 
L 345.438 186.279929 
L 345.519 186.261042 
L 345.519 186.261042 
" clip-path="url(#pf27a3d4149)" style="fill: none; stroke: #ff0000; stroke-width: 0.75; stroke-linecap: square"/>
   </g>
   <g id="line2d_9">
    <path d="M 54 132.934162 
L 110.133 132.843375 
L 110.619 132.515544 
L 112.077 131.262387 
L 112.401 131.435674 
L 112.725 131.900675 
L 113.292 133.229348 
L 114.021 134.873364 
L 114.345 135.214001 
L 114.588 135.249715 
L 114.912 135.020181 
L 115.398 134.24729 
L 116.289 132.727263 
L 116.694 132.413379 
L 117.099 132.384657 
L 117.666 132.634191 
L 118.557 133.026007 
L 119.205 133.062668 
L 120.339 132.851472 
L 121.797 132.590439 
L 122.526 132.726871 
L 123.903 133.100635 
L 124.389 132.962767 
L 125.037 132.49474 
L 125.928 131.835133 
L 126.333 131.778772 
L 126.738 131.949332 
L 127.305 132.502407 
L 128.358 133.614154 
L 128.844 133.801068 
L 129.33 133.750076 
L 130.95 133.373192 
L 132.894 133.481985 
L 133.542 133.096013 
L 134.757 132.28399 
L 135.243 132.249875 
L 135.81 132.441706 
L 137.025 132.933644 
L 137.754 132.929069 
L 140.022 132.702695 
L 141.318 132.913013 
L 142.128 132.93488 
L 144.315 132.73199 
L 146.016 133.121843 
L 148.527 133.35417 
L 150.228 133.584708 
L 152.253 133.56881 
L 153.225 133.288469 
L 154.359 132.724378 
L 155.169 132.05342 
L 156.546 130.780245 
L 157.113 130.591972 
L 159.138 130.417377 
L 159.462 130.71277 
L 159.867 131.503113 
L 160.353 133.041617 
L 161.568 137.166054 
L 162.054 137.941655 
L 162.459 138.184632 
L 162.864 138.156029 
L 163.188 137.937451 
L 163.593 137.341673 
L 163.998 136.311669 
L 164.727 133.648991 
L 165.375 131.587146 
L 165.699 131.072331 
L 165.942 130.954409 
L 166.266 131.091756 
L 167.238 131.868241 
L 167.481 131.782573 
L 167.805 131.415634 
L 169.182 129.323987 
L 169.506 129.37477 
L 169.83 129.700764 
L 170.316 130.571195 
L 172.017 133.97338 
L 172.422 134.301593 
L 172.746 134.349787 
L 173.151 134.163859 
L 173.88 133.450258 
L 174.528 132.955482 
L 175.014 132.865921 
L 175.743 133.016682 
L 176.472 133.078305 
L 177.282 132.869534 
L 178.011 132.73831 
L 178.578 132.861922 
L 179.064 133.179218 
L 179.631 133.845725 
L 180.36 135.150063 
L 181.089 136.407078 
L 181.413 136.642517 
L 181.656 136.598567 
L 181.899 136.347404 
L 182.304 135.494966 
L 183.843 131.452963 
L 184.167 131.26842 
L 184.572 131.340743 
L 185.139 131.487183 
L 185.463 131.343947 
L 185.868 130.828234 
L 187.002 129.006762 
L 187.245 128.998847 
L 187.488 129.206593 
L 187.893 129.965129 
L 189.432 133.41849 
L 189.999 133.946077 
L 191.457 135.050539 
L 192.429 135.875269 
L 192.834 135.947297 
L 193.239 135.765467 
L 193.725 135.237768 
L 194.535 133.921755 
L 195.75 131.534777 
L 197.046 128.886936 
L 197.451 128.565199 
L 197.694 128.590659 
L 198.018 128.892591 
L 198.423 129.670999 
L 199.071 131.577616 
L 200.205 135.007847 
L 200.772 135.986985 
L 201.258 136.384907 
L 201.663 136.469616 
L 202.068 136.354295 
L 202.473 136.028435 
L 202.959 135.346439 
L 203.607 134.015945 
L 204.741 131.627819 
L 205.146 131.243578 
L 205.47 131.252477 
L 205.794 131.563295 
L 206.199 132.322991 
L 207.252 134.553761 
L 207.495 134.690553 
L 207.738 134.577684 
L 208.062 134.033554 
L 208.548 132.555295 
L 209.601 129.142234 
L 210.006 128.571842 
L 210.249 128.524984 
L 210.492 128.713012 
L 210.816 129.348419 
L 211.221 130.763372 
L 211.788 133.687195 
L 212.679 138.236722 
L 213.003 139.01543 
L 213.246 139.132001 
L 213.489 138.861802 
L 213.813 137.992261 
L 214.623 134.739661 
L 215.19 132.978681 
L 215.757 131.974898 
L 216.243 131.0701 
L 216.648 129.779491 
L 217.215 127.022465 
L 217.944 123.601645 
L 218.268 123.042254 
L 218.43 123.117878 
L 218.673 123.712562 
L 218.997 125.39889 
L 219.483 129.488788 
L 220.779 141.525509 
L 221.184 143.375648 
L 221.427 143.826417 
L 221.589 143.839274 
L 221.751 143.625961 
L 221.994 142.863492 
L 222.318 141.000275 
L 222.723 137.301619 
L 223.371 128.859023 
L 224.181 118.848488 
L 224.505 117.148835 
L 224.667 117.084465 
L 224.829 117.565074 
L 225.072 119.321474 
L 225.477 124.605984 
L 226.854 145.841125 
L 227.259 148.446865 
L 227.745 150.011288 
L 228.15 151.543371 
L 228.555 154.122935 
L 229.284 158.92313 
L 229.446 159.061989 
L 229.608 158.556585 
L 229.851 156.289453 
L 230.175 150.165164 
L 230.661 135.114733 
L 231.633 103.530602 
L 231.957 99.317265 
L 232.119 98.931741 
L 232.281 99.556939 
L 232.524 102.114032 
L 233.577 116.295559 
L 233.739 116.633327 
L 233.901 116.320485 
L 234.144 114.881386 
L 234.792 110.400797 
L 234.873 110.295196 
L 234.954 110.364067 
L 235.116 111.071125 
L 235.359 113.653709 
L 235.764 121.441748 
L 236.736 142.156059 
L 237.06 145.196193 
L 237.303 146.069905 
L 237.546 146.205177 
L 237.87 146.153018 
L 238.032 146.329359 
L 238.275 147.075593 
L 238.68 149.543827 
L 239.247 153.164346 
L 239.49 153.661379 
L 239.652 153.45811 
L 239.895 152.362327 
L 240.381 148.337065 
L 240.867 144.63553 
L 241.191 143.580549 
L 241.353 143.506922 
L 241.596 143.747388 
L 242.001 144.176221 
L 242.163 144.02965 
L 242.406 143.214779 
L 242.73 140.932123 
L 243.378 133.895145 
L 243.945 128.697299 
L 244.35 126.765554 
L 244.755 125.932509 
L 245.403 124.957999 
L 246.618 122.537206 
L 246.861 122.577819 
L 247.185 122.95637 
L 248.4 124.737136 
L 249.129 125.550341 
L 249.696 126.554077 
L 250.344 128.149096 
L 251.073 130.669498 
L 251.964 133.716342 
L 252.612 135.152693 
L 253.422 136.469368 
L 253.827 136.817793 
L 254.232 136.895873 
L 254.88 136.958261 
L 255.366 137.307664 
L 255.933 137.659493 
L 256.257 137.594976 
L 257.148 137.196879 
L 257.472 137.395933 
L 258.12 137.865196 
L 258.363 137.784861 
L 258.687 137.37566 
L 259.497 135.691136 
L 260.145 134.664022 
L 261.279 133.082401 
L 261.846 131.580158 
L 262.575 129.716387 
L 262.899 129.419169 
L 263.223 129.469536 
L 265.329 130.579546 
L 265.815 130.667739 
L 266.301 130.524438 
L 267.111 130.27127 
L 267.516 130.380645 
L 267.921 130.715309 
L 268.407 131.427538 
L 269.865 133.892813 
L 270.108 133.875454 
L 270.432 133.614528 
L 271.323 132.720705 
L 271.728 132.687549 
L 272.214 132.944508 
L 272.862 133.601784 
L 274.239 135.119584 
L 274.644 135.259922 
L 275.049 135.170861 
L 275.778 134.683368 
L 277.641 133.31891 
L 278.37 132.61313 
L 278.775 132.508627 
L 279.261 132.653478 
L 279.909 132.849178 
L 280.557 132.737666 
L 281.286 132.690185 
L 282.177 132.648513 
L 282.906 132.327289 
L 283.716 131.998618 
L 284.283 132.056444 
L 285.174 132.194129 
L 286.389 132.223308 
L 286.956 132.566841 
L 288.252 133.49636 
L 288.819 133.585786 
L 289.953 133.4756 
L 290.682 133.155303 
L 291.411 132.897015 
L 292.14 132.893208 
L 293.031 133.147358 
L 293.679 133.246923 
L 294.246 133.121567 
L 295.461 132.763289 
L 297.486 132.673862 
L 298.296 132.72696 
L 299.673 133.064555 
L 300.159 132.812611 
L 301.131 132.236826 
L 301.536 132.344534 
L 302.022 132.775246 
L 302.832 133.496901 
L 303.237 133.603259 
L 303.723 133.499785 
L 305.1 133.069895 
L 305.991 133.013168 
L 307.044 133.222491 
L 308.259 133.431147 
L 309.069 133.319288 
L 310.041 132.887136 
L 310.77 132.692066 
L 314.415 132.285954 
L 315.144 132.489178 
L 316.683 133.025978 
L 317.655 133.045771 
L 318.87 133.087105 
L 319.761 133.351516 
L 321.138 133.75797 
L 321.705 133.698031 
L 322.434 133.342333 
L 324.297 132.386236 
L 324.864 132.354243 
L 325.431 132.573561 
L 326.322 132.949347 
L 326.808 132.900696 
L 328.023 132.617781 
L 328.59 132.836728 
L 329.4 133.154882 
L 329.886 133.073616 
L 330.858 132.767713 
L 331.344 132.895891 
L 332.397 133.289686 
L 332.883 133.183923 
L 333.45 132.774094 
L 334.179 132.239615 
L 334.584 132.198711 
L 335.07 132.419424 
L 336.042 133.248747 
L 336.771 133.688663 
L 337.419 133.839066 
L 337.986 133.757846 
L 338.634 133.429134 
L 339.768 132.531294 
L 340.335 132.242908 
L 340.821 132.249147 
L 341.469 132.539114 
L 342.522 133.056675 
L 343.008 133.036649 
L 344.628 132.663642 
L 345.357 132.982316 
L 345.519 133.056816 
L 345.519 133.056816 
" clip-path="url(#pf27a3d4149)" style="fill: none; stroke: #000000; stroke-width: 0.75; stroke-linecap: square"/>
   </g>
   <g id="line2d_10">
    <path d="M 54 132.936137 
L 109.485 133.036114 
L 110.214 133.110243 
L 110.7 132.900459 
L 111.186 132.344505 
L 112.482 130.546169 
L 112.806 130.666216 
L 113.049 130.940965 
L 113.535 132.186966 
L 114.669 135.62241 
L 114.912 135.887743 
L 115.317 135.91372 
L 115.56 135.603815 
L 116.208 134.272569 
L 116.856 133.052468 
L 117.261 132.674735 
L 117.747 132.596414 
L 118.638 132.893228 
L 119.286 132.984932 
L 120.339 132.838237 
L 122.04 132.629941 
L 123.174 132.725083 
L 124.47 132.880019 
L 124.956 132.676499 
L 125.604 132.111769 
L 126.495 131.330585 
L 126.9 131.25814 
L 127.305 131.445135 
L 127.872 132.125486 
L 129.006 133.599566 
L 129.492 133.844453 
L 130.14 133.796151 
L 131.193 133.559322 
L 132.084 133.681589 
L 132.894 133.781011 
L 133.461 133.634226 
L 134.109 133.21651 
L 135.081 132.555956 
L 135.648 132.462752 
L 136.296 132.646479 
L 137.754 133.197081 
L 138.564 133.158544 
L 140.346 132.971396 
L 142.776 132.920354 
L 145.449 132.437946 
L 146.664 132.561476 
L 147.879 132.923527 
L 149.337 133.324166 
L 151.929 133.586445 
L 152.901 133.521202 
L 154.44 133.143045 
L 155.25 132.762655 
L 155.817 132.244562 
L 156.465 131.298271 
L 158.004 128.857424 
L 158.247 128.799177 
L 158.652 128.841233 
L 159.057 129.302122 
L 159.624 130.381273 
L 160.515 132.652962 
L 161.325 135.348463 
L 162.783 140.634334 
L 162.945 140.74145 
L 163.35 140.587737 
L 163.593 139.92377 
L 164.079 137.816434 
L 165.132 133.09182 
L 165.456 132.587964 
L 165.699 132.467406 
L 166.023 132.659622 
L 166.752 133.117526 
L 166.995 133.063884 
L 167.4 132.448326 
L 168.858 129.354786 
L 169.344 129.346125 
L 169.749 129.76713 
L 171.045 131.32088 
L 171.693 131.672254 
L 173.556 132.244297 
L 174.528 132.347769 
L 176.391 132.413764 
L 177.201 132.768233 
L 178.173 133.172081 
L 178.74 133.173273 
L 179.955 133.116365 
L 180.279 133.369553 
L 180.684 133.959814 
L 181.251 135.227603 
L 182.304 137.658247 
L 182.709 138.049075 
L 183.033 137.975655 
L 183.276 137.780625 
L 183.681 136.97149 
L 184.248 135.150967 
L 186.192 128.15378 
L 186.516 127.839042 
L 186.759 127.778341 
L 187.002 127.961025 
L 187.326 128.422255 
L 188.136 130.313078 
L 188.865 131.859435 
L 189.432 132.584714 
L 190.08 133.00806 
L 191.295 133.684775 
L 192.591 134.513049 
L 193.239 134.579863 
L 194.049 134.357655 
L 194.859 134.17465 
L 195.588 134.228338 
L 196.317 134.269541 
L 196.803 134.082987 
L 197.37 133.563565 
L 199.233 131.526513 
L 199.638 131.531189 
L 200.043 131.740863 
L 200.691 132.425489 
L 201.987 133.906838 
L 202.392 134.088467 
L 202.797 134.073662 
L 203.283 133.769594 
L 204.093 132.859971 
L 204.741 132.27087 
L 205.146 132.130376 
L 205.713 132.158676 
L 206.604 132.20404 
L 207.09 131.958176 
L 208.71 130.849254 
L 209.196 130.904557 
L 211.464 131.777964 
L 212.193 131.99771 
L 212.922 132.512592 
L 214.218 133.486461 
L 214.947 133.706341 
L 216.648 133.880641 
L 217.539 133.730042 
L 218.268 133.652575 
L 218.673 133.793462 
L 219.159 134.282765 
L 219.726 135.255041 
L 221.103 137.843508 
L 221.346 137.92212 
L 221.751 137.811722 
L 222.075 137.171675 
L 222.399 136.053043 
L 222.804 133.960579 
L 223.452 129.304615 
L 224.262 123.755972 
L 224.424 123.32864 
L 224.829 123.37844 
L 224.991 124.023467 
L 225.396 127.803275 
L 225.882 135.512343 
L 227.097 156.606898 
L 227.34 157.791667 
L 227.583 158.217211 
L 227.664 158.090473 
L 227.907 156.155505 
L 228.231 151.925053 
L 230.094 121.676698 
L 230.742 117.332992 
L 231.471 112.05474 
L 232.443 104.688003 
L 232.686 103.87823 
L 232.848 103.878825 
L 233.091 104.464205 
L 233.253 105.137226 
L 233.658 108.539457 
L 234.468 118.307615 
L 236.25 139.651292 
L 237.141 148.431119 
L 237.708 151.949928 
L 238.194 153.624797 
L 238.599 154.296919 
L 238.842 154.350912 
L 239.247 154.247411 
L 239.652 153.516677 
L 240.138 151.928245 
L 240.786 148.806465 
L 244.593 128.424832 
L 245.484 124.97485 
L 246.213 122.989937 
L 246.78 122.101721 
L 247.104 121.887762 
L 247.59 121.88642 
L 248.076 122.254722 
L 248.886 123.280705 
L 249.696 124.657383 
L 250.425 126.328077 
L 252.45 131.392941 
L 255.771 137.145183 
L 256.419 137.741519 
L 257.067 138.009533 
L 257.796 138.067106 
L 258.606 137.926471 
L 259.335 137.585352 
L 260.064 137.001254 
L 261.198 135.769042 
L 262.332 134.260498 
L 264.357 131.294806 
L 264.762 131.186443 
L 265.167 131.255983 
L 266.463 131.758592 
L 266.787 131.656563 
L 267.354 131.21667 
L 268.326 130.399676 
L 268.731 130.355754 
L 269.136 130.448488 
L 269.946 131.041404 
L 270.999 131.782772 
L 272.133 132.253101 
L 275.697 133.427315 
L 276.507 133.349747 
L 278.046 133.015493 
L 278.694 133.186397 
L 280.314 133.767795 
L 281.043 133.691548 
L 283.149 133.305353 
L 284.85 133.228506 
L 287.361 133.300779 
L 289.062 133.119482 
L 289.872 132.755292 
L 291.087 132.225452 
L 291.897 132.240167 
L 293.112 132.566269 
L 294.813 132.924528 
L 295.623 132.907625 
L 296.919 132.574419 
L 297.891 132.433969 
L 299.43 132.546509 
L 301.293 132.86772 
L 302.589 133.369632 
L 303.399 133.589154 
L 304.29 133.476206 
L 305.748 133.106416 
L 309.879 133.201872 
L 310.77 133.304634 
L 311.499 133.162624 
L 313.362 132.579337 
L 314.577 132.651919 
L 315.954 132.690209 
L 317.817 132.687783 
L 320.733 132.989372 
L 322.677 132.648026 
L 323.892 132.871988 
L 327.537 133.485099 
L 328.266 133.260738 
L 329.319 132.952192 
L 330.21 132.972797 
L 331.182 132.95274 
L 332.073 132.690318 
L 333.126 132.433711 
L 334.098 132.530917 
L 335.718 132.786991 
L 336.933 132.972108 
L 339.12 133.557375 
L 339.768 133.432786 
L 340.902 132.93276 
L 341.793 132.63287 
L 342.441 132.67833 
L 344.142 133.132965 
L 344.628 132.89965 
L 345.519 132.206964 
L 345.519 132.206964 
" clip-path="url(#pf27a3d4149)" style="fill: none; stroke: #ff0000; stroke-width: 0.75; stroke-linecap: square"/>
   </g>
   <g id="line2d_11">
    <path d="M 54 79.6999 
L 116.775 79.813019 
L 121.311 79.763186 
L 123.579 79.57601 
L 124.551 79.192759 
L 125.523 78.82931 
L 126.009 78.853718 
L 126.576 79.13145 
L 128.52 80.399724 
L 129.087 80.346845 
L 131.517 79.769126 
L 133.785 79.773481 
L 135.891 79.639336 
L 138.24 79.567936 
L 139.617 79.63489 
L 142.209 79.832129 
L 144.072 79.854381 
L 145.449 80.008654 
L 145.935 79.822842 
L 146.502 79.342863 
L 147.798 78.077244 
L 148.203 78.0651 
L 148.608 78.339767 
L 149.175 79.093905 
L 150.228 80.553538 
L 150.714 80.837176 
L 151.2 80.835264 
L 153.225 80.424237 
L 154.197 80.409464 
L 155.007 80.118059 
L 156.06 79.747904 
L 156.87 79.757509 
L 157.68 79.723584 
L 158.166 79.472034 
L 158.814 78.828186 
L 159.786 77.841372 
L 160.191 77.70326 
L 160.596 77.806342 
L 161.082 78.214446 
L 163.107 80.315684 
L 163.917 80.556758 
L 166.185 80.910136 
L 166.914 80.723416 
L 167.967 80.16438 
L 169.02 79.691739 
L 170.073 79.501444 
L 171.45 79.214936 
L 172.665 78.967294 
L 173.475 79.071821 
L 175.581 79.520103 
L 178.335 79.528204 
L 178.983 79.203097 
L 180.117 78.586014 
L 180.522 78.611251 
L 180.927 78.83634 
L 181.494 79.429999 
L 182.79 80.882061 
L 183.357 81.141329 
L 184.005 81.172652 
L 185.22 81.18847 
L 186.84 81.404551 
L 187.569 81.171552 
L 188.379 80.675073 
L 189.027 80.001967 
L 189.675 78.958256 
L 190.809 77.043474 
L 191.214 76.785841 
L 191.538 76.832181 
L 191.943 77.156693 
L 193.077 78.306531 
L 193.401 78.333655 
L 193.806 78.092883 
L 195.264 76.819652 
L 195.588 76.986462 
L 195.993 77.549969 
L 196.479 78.692864 
L 197.37 81.554543 
L 198.018 83.376391 
L 198.423 83.993294 
L 198.747 84.117081 
L 199.071 83.940149 
L 199.476 83.40341 
L 201.096 80.881436 
L 202.149 79.991118 
L 203.202 79.278319 
L 203.688 79.24527 
L 204.255 79.48701 
L 205.227 79.932664 
L 205.713 79.91098 
L 206.28 79.666654 
L 207.009 79.097396 
L 209.439 76.96196 
L 209.925 76.903283 
L 210.33 77.060417 
L 210.816 77.513362 
L 211.464 78.497729 
L 213.894 82.657559 
L 214.461 83.016396 
L 214.947 83.073194 
L 215.433 82.904974 
L 215.919 82.49125 
L 216.405 81.796189 
L 216.972 80.604842 
L 217.782 78.291855 
L 219.402 73.376419 
L 219.807 72.818968 
L 220.05 72.769853 
L 220.293 72.97113 
L 220.617 73.668996 
L 221.022 75.248643 
L 221.589 78.614884 
L 223.128 88.663233 
L 223.533 89.788996 
L 223.776 89.949212 
L 223.938 89.841289 
L 224.181 89.357836 
L 224.505 88.175332 
L 225.072 85.041215 
L 226.287 77.928995 
L 226.854 75.894491 
L 227.259 75.075909 
L 227.583 74.787802 
L 227.826 74.777231 
L 228.15 75.013339 
L 228.555 75.634005 
L 229.851 77.923642 
L 230.256 78.11577 
L 230.661 78.020408 
L 231.633 77.607261 
L 231.957 77.707347 
L 232.362 78.080099 
L 233.982 80.013031 
L 234.387 80.053519 
L 235.035 79.838132 
L 236.574 79.274935 
L 237.06 79.27491 
L 237.465 79.512942 
L 237.87 80.079995 
L 238.356 81.234274 
L 239.895 85.442468 
L 240.219 85.637444 
L 240.462 85.526343 
L 240.786 85.052068 
L 241.272 83.790909 
L 243.621 76.752932 
L 244.107 76.123483 
L 244.512 75.922064 
L 244.917 75.988579 
L 245.403 76.338495 
L 246.375 77.440249 
L 247.266 78.292174 
L 248.076 78.718811 
L 249.129 79.014847 
L 250.83 79.392831 
L 251.397 79.833547 
L 252.126 80.713937 
L 253.098 81.895838 
L 253.503 82.051287 
L 253.827 81.928557 
L 254.232 81.447127 
L 254.799 80.291152 
L 255.771 78.267251 
L 256.095 77.999225 
L 256.338 78.01827 
L 256.662 78.347711 
L 257.067 79.190035 
L 258.687 83.125945 
L 259.011 83.296826 
L 259.335 83.189441 
L 259.74 82.718485 
L 260.307 81.591635 
L 261.117 79.398344 
L 262.17 76.509072 
L 262.575 75.985507 
L 262.818 75.955254 
L 263.061 76.142822 
L 263.466 76.861922 
L 265.005 80.17858 
L 265.491 80.550215 
L 265.896 80.583807 
L 266.301 80.371099 
L 266.787 79.807845 
L 267.921 78.250449 
L 268.245 78.207926 
L 268.488 78.395833 
L 268.812 78.94423 
L 269.379 80.467766 
L 269.946 81.865668 
L 270.27 82.174521 
L 270.513 82.061882 
L 270.756 81.647313 
L 271.161 80.407243 
L 272.133 77.209762 
L 272.376 76.953458 
L 272.619 77.027654 
L 272.862 77.402716 
L 273.348 78.760352 
L 274.077 80.774477 
L 274.401 81.173429 
L 274.644 81.227593 
L 274.968 81.055303 
L 275.697 80.5162 
L 276.021 80.593273 
L 276.345 80.942247 
L 277.317 82.244628 
L 277.56 82.194385 
L 277.803 81.888385 
L 278.208 80.851538 
L 279.504 76.861305 
L 279.828 76.583776 
L 280.071 76.627889 
L 280.395 76.95494 
L 281.043 78.077642 
L 281.691 79.070187 
L 282.177 79.472133 
L 282.906 79.725717 
L 283.797 80.080099 
L 285.579 80.879174 
L 286.227 80.900898 
L 287.118 80.621793 
L 287.847 80.511218 
L 288.657 80.638326 
L 289.71 80.809963 
L 290.115 80.660067 
L 290.601 80.235813 
L 291.654 79.217325 
L 292.059 79.148391 
L 293.355 79.243891 
L 293.76 78.793486 
L 294.975 77.13261 
L 295.218 77.165983 
L 295.542 77.518665 
L 295.947 78.398316 
L 297.162 81.435523 
L 297.405 81.572041 
L 297.648 81.429943 
L 297.972 80.794424 
L 298.458 79.064716 
L 299.349 75.634998 
L 299.673 75.132406 
L 299.835 75.1304 
L 300.078 75.445016 
L 300.402 76.412996 
L 301.05 79.394011 
L 301.617 81.501658 
L 301.86 81.871862 
L 302.022 81.900213 
L 302.265 81.645341 
L 302.67 80.650703 
L 303.237 79.291376 
L 303.48 79.167171 
L 303.642 79.300253 
L 303.885 79.815656 
L 304.776 82.170491 
L 304.938 81.97893 
L 305.181 80.945005 
L 305.505 78.040255 
L 305.991 71.058387 
L 306.639 62.203572 
L 306.882 61.032338 
L 306.963 61.074386 
L 307.125 61.82521 
L 307.368 64.80516 
L 307.692 72.098317 
L 308.34 94.000251 
L 308.988 113.665507 
L 309.312 118.480712 
L 309.474 119.286755 
L 309.555 119.26625 
L 309.717 118.532388 
L 309.96 115.775904 
L 310.446 106.539115 
L 311.175 92.737599 
L 311.661 87.565841 
L 312.795 78.709511 
L 313.281 70.749201 
L 314.739 43.584821 
L 315.144 40.560375 
L 315.387 39.993184 
L 315.549 40.087579 
L 315.792 40.845977 
L 316.116 42.866105 
L 316.602 47.678776 
L 317.331 57.813969 
L 318.87 80.217155 
L 321.543 111.724051 
L 321.948 113.831453 
L 322.191 114.243713 
L 322.353 114.159649 
L 322.596 113.534353 
L 322.92 111.884996 
L 323.487 107.551056 
L 325.593 88.919662 
L 327.699 63.236028 
L 328.59 56.514398 
L 328.995 54.632822 
L 329.319 54.004587 
L 329.481 53.996014 
L 329.724 54.314349 
L 330.048 55.238426 
L 330.615 57.711764 
L 331.749 64.045693 
L 333.288 73.175598 
L 335.313 88.694828 
L 335.799 90.590678 
L 336.123 91.202156 
L 336.447 91.351481 
L 336.933 91.18268 
L 337.257 91.159824 
L 337.581 91.358372 
L 338.148 92.086748 
L 338.796 92.851277 
L 339.201 93.012471 
L 339.444 92.903697 
L 339.687 92.573703 
L 340.011 91.719898 
L 340.497 89.580684 
L 341.955 82.353578 
L 342.684 80.192458 
L 344.061 76.600278 
L 345.357 72.575538 
L 345.519 72.282605 
L 345.519 72.282605 
" clip-path="url(#pf27a3d4149)" style="fill: none; stroke: #000000; stroke-width: 0.75; stroke-linecap: square"/>
   </g>
   <g id="line2d_12">
    <path d="M 54 79.700647 
L 124.065 79.589368 
L 124.632 79.304115 
L 126.252 78.227365 
L 126.576 78.286683 
L 127.062 78.736537 
L 127.872 79.972324 
L 128.52 80.765244 
L 128.844 80.934043 
L 129.33 80.937099 
L 130.059 80.523627 
L 130.95 80.052363 
L 131.679 79.94287 
L 134.919 79.785616 
L 136.944 79.569005 
L 140.67 79.486864 
L 146.178 80.147737 
L 146.502 79.901718 
L 146.988 79.214771 
L 148.203 77.230425 
L 148.689 77.218319 
L 149.013 77.63592 
L 149.418 78.475176 
L 150.552 80.992723 
L 150.957 81.37154 
L 151.524 81.372836 
L 152.982 80.781856 
L 154.602 80.696506 
L 156.222 80.231884 
L 157.032 80.435544 
L 157.518 80.492599 
L 157.923 80.378409 
L 158.409 79.892266 
L 159.057 78.780669 
L 159.948 77.20518 
L 160.353 76.84857 
L 160.677 76.813476 
L 161.082 77.000861 
L 161.649 77.692301 
L 163.107 79.61539 
L 163.755 80.025562 
L 164.97 80.398933 
L 167.076 81.042859 
L 167.643 80.832148 
L 168.372 80.300701 
L 169.506 79.501976 
L 170.235 79.257123 
L 171.126 79.194516 
L 172.746 79.303645 
L 174.771 79.603251 
L 175.824 79.980045 
L 176.958 80.670227 
L 177.525 80.930136 
L 178.011 80.886463 
L 178.335 80.656172 
L 178.74 80.151768 
L 179.631 78.605014 
L 180.117 78.00068 
L 180.441 77.877145 
L 180.846 78.045171 
L 181.251 78.606012 
L 182.709 81.073595 
L 183.195 81.224304 
L 183.6 81.053062 
L 184.815 80.269239 
L 185.301 80.371148 
L 185.949 80.987403 
L 186.678 81.671996 
L 187.164 81.740179 
L 187.569 81.483666 
L 188.136 80.76225 
L 189.351 79.116726 
L 190.566 77.738148 
L 191.052 76.747697 
L 191.7 74.907926 
L 192.51 72.746799 
L 192.753 72.517965 
L 193.077 72.457199 
L 193.239 72.626575 
L 193.644 73.652747 
L 194.211 76.097047 
L 195.183 80.283037 
L 195.507 80.996777 
L 195.831 81.305461 
L 196.317 81.190212 
L 196.722 81.019034 
L 197.127 81.135952 
L 197.451 81.708398 
L 197.856 82.935256 
L 198.99 86.853762 
L 199.395 87.196959 
L 199.557 87.120249 
L 199.881 86.624712 
L 200.367 85.271251 
L 201.258 82.732864 
L 201.825 81.763971 
L 202.635 80.908011 
L 203.931 79.754569 
L 204.336 79.652297 
L 204.903 79.74158 
L 205.956 80.045239 
L 206.361 79.910572 
L 206.847 79.382328 
L 207.414 78.335655 
L 209.601 73.685769 
L 210.006 73.453131 
L 210.33 73.480346 
L 210.735 73.778291 
L 211.221 74.548816 
L 211.869 76.115675 
L 213.57 80.675402 
L 214.137 81.512342 
L 214.866 82.144412 
L 216.972 83.603413 
L 217.296 83.403863 
L 217.62 82.881776 
L 217.944 82.014071 
L 218.43 79.996994 
L 218.997 76.687586 
L 220.212 69.177335 
L 220.455 68.435948 
L 220.86 68.274609 
L 221.022 68.653636 
L 221.346 70.387282 
L 221.751 74.200105 
L 222.399 83.251182 
L 223.452 98.172672 
L 223.857 101.104002 
L 224.019 101.559411 
L 224.181 101.436713 
L 224.424 100.894146 
L 224.586 99.987323 
L 225.072 94.861786 
L 226.692 74.042366 
L 227.016 72.517727 
L 227.178 72.175027 
L 227.421 72.289108 
L 227.664 72.622902 
L 228.069 74.049187 
L 228.717 76.262606 
L 229.122 76.786103 
L 229.284 76.770986 
L 229.608 76.424512 
L 229.932 75.689006 
L 231.309 72.393691 
L 231.552 72.22175 
L 231.876 72.355277 
L 232.119 72.640125 
L 232.524 73.64256 
L 233.172 76.078786 
L 234.063 79.34371 
L 234.387 79.966622 
L 234.711 80.191542 
L 234.954 80.078569 
L 235.359 79.527051 
L 236.412 77.62049 
L 236.736 77.389249 
L 237.222 77.473134 
L 237.708 77.987657 
L 238.356 79.037465 
L 238.842 80.245283 
L 239.247 81.826102 
L 239.733 84.729289 
L 241.272 95.239477 
L 241.515 95.404129 
L 241.677 94.841807 
L 242.001 92.494981 
L 242.487 86.090283 
L 243.54 70.673542 
L 243.864 68.524899 
L 244.188 68.623019 
L 244.269 68.676803 
L 244.431 69.370014 
L 245.079 75.246706 
L 245.646 79.764334 
L 245.889 80.476193 
L 246.294 80.348025 
L 246.537 79.323355 
L 247.428 75.082708 
L 247.833 75.034482 
L 247.914 75.119837 
L 248.157 76.139182 
L 248.643 79.050275 
L 249.291 82.725376 
L 249.534 83.261911 
L 249.777 83.472208 
L 249.939 83.37783 
L 250.263 82.557024 
L 251.559 78.530983 
L 251.802 78.386471 
L 252.045 78.531851 
L 252.45 79.13389 
L 254.07 82.299983 
L 254.394 82.483259 
L 254.718 82.463001 
L 255.042 82.056607 
L 255.366 81.216762 
L 255.771 79.619644 
L 257.067 73.95071 
L 257.31 73.684743 
L 257.472 73.767322 
L 257.796 74.709881 
L 258.12 76.575386 
L 258.687 81.101096 
L 259.335 85.856252 
L 259.74 87.10527 
L 259.902 86.997013 
L 260.145 86.53809 
L 260.388 85.402271 
L 261.117 80.023761 
L 261.684 76.452228 
L 262.089 75.333821 
L 262.332 75.36532 
L 262.575 75.515439 
L 262.98 76.338696 
L 263.466 77.115776 
L 263.709 77.254541 
L 263.952 77.148657 
L 264.357 76.710155 
L 264.843 76.171441 
L 265.167 76.219629 
L 265.41 76.404202 
L 265.815 77.317768 
L 267.192 81.18933 
L 267.435 81.297607 
L 267.759 81.296156 
L 268.083 80.840066 
L 268.569 79.784473 
L 269.217 78.437465 
L 269.622 78.303387 
L 269.784 78.38325 
L 270.108 79.069281 
L 270.513 80.547162 
L 271.485 84.450705 
L 271.647 84.689705 
L 271.971 84.594631 
L 272.133 84.427105 
L 272.457 83.282007 
L 273.672 78.41158 
L 274.077 78.432723 
L 274.239 78.806966 
L 274.968 81.744262 
L 275.454 83.341675 
L 275.616 83.55762 
L 276.021 83.497176 
L 276.183 83.285757 
L 277.236 81.160928 
L 277.722 81.236626 
L 278.208 82.143128 
L 278.775 83.118741 
L 279.261 83.159724 
L 279.504 82.791018 
L 279.909 81.838551 
L 280.962 79.221161 
L 281.367 78.795125 
L 281.691 78.693189 
L 282.663 78.52158 
L 283.068 78.121747 
L 283.554 77.301194 
L 284.931 74.795418 
L 285.255 74.583101 
L 285.66 74.535197 
L 286.308 74.820909 
L 287.037 75.088028 
L 288.333 75.258576 
L 288.657 75.634462 
L 289.062 76.447861 
L 289.629 78.118461 
L 290.52 80.700173 
L 290.844 81.148688 
L 291.168 81.284324 
L 291.492 81.0826 
L 291.816 80.629899 
L 293.031 78.728848 
L 293.517 78.568446 
L 293.922 78.744963 
L 294.408 79.264459 
L 295.056 80.350583 
L 295.785 82.052124 
L 297 85.007738 
L 297.405 85.222195 
L 297.567 85.15288 
L 297.891 84.511824 
L 298.215 83.255515 
L 298.701 80.460655 
L 299.511 75.524272 
L 299.835 74.697166 
L 299.997 74.914298 
L 300.24 75.758598 
L 300.483 77.771766 
L 300.888 83.380482 
L 302.265 106.668917 
L 302.589 106.984048 
L 302.67 106.797923 
L 302.832 104.769666 
L 303.237 95.576776 
L 303.885 71.929558 
L 304.614 46.888936 
L 304.938 41.163589 
L 305.019 40.978433 
L 305.181 41.281888 
L 305.424 42.442734 
L 305.667 47.236147 
L 306.234 64.97741 
L 307.206 96.959942 
L 307.692 106.121046 
L 308.097 110.14527 
L 308.502 112.139031 
L 308.907 113.045175 
L 309.15 113.017413 
L 309.393 112.821229 
L 309.555 112.255066 
L 309.879 110.097862 
L 310.284 104.872724 
L 310.77 94.684397 
L 312.876 43.355834 
L 313.443 36.684328 
L 313.929 33.28502 
L 314.172 32.534224 
L 314.496 32.269091 
L 314.577 32.311278 
L 314.739 32.786831 
L 315.063 34.465352 
L 315.549 38.92925 
L 316.278 48.580566 
L 317.331 66.110852 
L 320.247 118.150344 
L 320.814 123.621315 
L 321.3 126.439339 
L 321.624 127.378743 
L 321.867 127.340932 
L 322.11 127.139867 
L 322.353 126.233183 
L 322.758 123.72171 
L 323.244 119.046939 
L 323.892 110.432292 
L 324.945 92.895961 
L 326.646 64.295001 
L 327.375 55.6603 
L 327.942 51.20422 
L 328.428 48.847618 
L 328.833 47.773144 
L 329.157 47.4393 
L 329.4 47.531237 
L 329.724 47.984265 
L 330.129 49.276832 
L 330.615 51.733497 
L 331.263 56.297659 
L 332.316 65.6835 
L 334.422 84.720646 
L 335.232 90.213514 
L 335.88 93.326071 
L 336.366 94.778279 
L 336.771 95.392082 
L 337.176 95.500261 
L 337.419 95.302285 
L 337.824 94.647425 
L 338.391 93.13856 
L 339.201 90.220153 
L 340.497 84.642433 
L 341.874 78.797621 
L 342.522 76.959534 
L 343.17 75.790058 
L 344.061 74.247455 
L 345.033 72.272708 
L 345.357 72.299045 
L 345.519 72.371578 
L 345.519 72.371578 
" clip-path="url(#pf27a3d4149)" style="fill: none; stroke: #ff0000; stroke-width: 0.75; stroke-linecap: square"/>
   </g>
   <g id="patch_4">
    <path d="M 54 256.32 
L 345.6 256.32 
" style="fill: none; stroke: #000000; stroke-width: 0.8; stroke-linejoin: miter; stroke-linecap: square"/>
   </g>
   <g id="text_15">
    <g id="patch_5">
     <path d="M 246.318114 260.3184 
L 349.5984 260.3184 
L 349.5984 243.9916 
L 246.318114 243.9916 
L 246.318114 260.3184 
z
" style="fill: none"/>
    </g>
    <!-- max|u|: 0.0020494 m -->
    <g transform="translate(250.316514 254.355942) scale(0.0833 -0.0833)">
     <defs>
      <path id="DejaVuSansMono-61" d="M 2194 1759 
L 2003 1759 
Q 1500 1759 1245 1582 
Q 991 1406 991 1056 
Q 991 741 1181 566 
Q 1372 391 1709 391 
Q 2184 391 2456 720 
Q 2728 1050 2731 1631 
L 2731 1759 
L 2194 1759 
z
M 3309 1997 
L 3309 0 
L 2731 0 
L 2731 519 
Q 2547 206 2267 57 
Q 1988 -91 1588 -91 
Q 1053 -91 734 211 
Q 416 513 416 1019 
Q 416 1603 808 1906 
Q 1200 2209 1959 2209 
L 2731 2209 
L 2731 2300 
Q 2728 2719 2518 2908 
Q 2309 3097 1850 3097 
Q 1556 3097 1256 3012 
Q 956 2928 672 2766 
L 672 3341 
Q 991 3463 1283 3523 
Q 1575 3584 1850 3584 
Q 2284 3584 2592 3456 
Q 2900 3328 3091 3072 
Q 3209 2916 3259 2686 
Q 3309 2456 3309 1997 
z
" transform="scale(0.015625)"/>
      <path id="DejaVuSansMono-78" d="M 3494 3500 
L 2241 1825 
L 3616 0 
L 2950 0 
L 1925 1403 
L 903 0 
L 238 0 
L 1613 1825 
L 359 3500 
L 997 3500 
L 1925 2234 
L 2847 3500 
L 3494 3500 
z
" transform="scale(0.015625)"/>
      <path id="DejaVuSansMono-7c" d="M 2194 4891 
L 2194 -1509 
L 1656 -1509 
L 1656 4891 
L 2194 4891 
z
" transform="scale(0.015625)"/>
      <path id="DejaVuSansMono-75" d="M 609 1325 
L 609 3494 
L 1184 3494 
L 1184 1325 
Q 1184 853 1351 631 
Q 1519 409 1869 409 
Q 2275 409 2490 695 
Q 2706 981 2706 1516 
L 2706 3494 
L 3284 3494 
L 3284 0 
L 2706 0 
L 2706 525 
Q 2553 222 2289 65 
Q 2025 -91 1672 -91 
Q 1134 -91 871 261 
Q 609 613 609 1325 
z
" transform="scale(0.015625)"/>
     </defs>
     <use xlink:href="#DejaVuSansMono-6d"/>
     <use xlink:href="#DejaVuSansMono-61" x="60.205078"/>
     <use xlink:href="#DejaVuSansMono-78" x="120.410156"/>
     <use xlink:href="#DejaVuSansMono-7c" x="180.615234"/>
     <use xlink:href="#DejaVuSansMono-75" x="240.820312"/>
     <use xlink:href="#DejaVuSansMono-7c" x="301.025391"/>
     <use xlink:href="#DejaVuSansMono-3a" x="361.230469"/>
     <use xlink:href="#DejaVuSansMono-20" x="421.435547"/>
     <use xlink:href="#DejaVuSansMono-30" x="481.640625"/>
     <use xlink:href="#DejaVuSansMono-2e" x="541.845703"/>
     <use xlink:href="#DejaVuSansMono-30" x="602.050781"/>
     <use xlink:href="#DejaVuSansMono-30" x="662.255859"/>
     <use xlink:href="#DejaVuSansMono-32" x="722.460938"/>
     <use xlink:href="#DejaVuSansMono-30" x="782.666016"/>
     <use xlink:href="#DejaVuSansMono-34" x="842.871094"/>
     <use xlink:href="#DejaVuSansMono-39" x="903.076172"/>
     <use xlink:href="#DejaVuSansMono-34" x="963.28125"/>
     <use xlink:href="#DejaVuSansMono-20" x="1023.486328"/>
     <use xlink:href="#DejaVuSansMono-6d" x="1083.691406"/>
    </g>
   </g>
   <g id="text_16">
    <g id="patch_6">
     <path d="M 50 35.278125 
L 64.020313 35.278125 
L 64.020313 17.6 
L 50 17.6 
L 50 35.278125 
z
" style="fill: none"/>
    </g>
    <!-- Z -->
    <g transform="translate(54 29.198437) scale(0.1 -0.1)">
     <defs>
      <path id="DejaVuSansMono-Bold-5a" d="M 428 4666 
L 3584 4666 
L 3584 3903 
L 1422 813 
L 3628 813 
L 3628 0 
L 359 0 
L 359 763 
L 2456 3853 
L 428 3853 
L 428 4666 
z
" transform="scale(0.015625)"/>
     </defs>
     <use xlink:href="#DejaVuSansMono-Bold-5a"/>
    </g>
   </g>
   <g id="text_17">
    <!-- Wed Sep 16 22:55:22 2015 Loc: -31.13dg, -72.09dg, 17.4km  -->
    <g transform="translate(54 15.6) scale(0.0833 -0.0833)">
     <defs>
      <path id="DejaVuSansMono-57" d="M 0 4666 
L 616 4666 
L 1063 878 
L 1594 3384 
L 2253 3384 
L 2791 872 
L 3238 4666 
L 3853 4666 
L 3156 0 
L 2559 0 
L 1925 2772 
L 1294 0 
L 697 0 
L 0 4666 
z
" transform="scale(0.015625)"/>
      <path id="DejaVuSansMono-64" d="M 2681 3053 
L 2681 4863 
L 3256 4863 
L 3256 0 
L 2681 0 
L 2681 441 
Q 2538 181 2298 45 
Q 2059 -91 1747 -91 
Q 1113 -91 748 401 
Q 384 894 384 1759 
Q 384 2613 750 3098 
Q 1116 3584 1747 3584 
Q 2063 3584 2303 3448 
Q 2544 3313 2681 3053 
z
M 991 1747 
Q 991 1078 1203 737 
Q 1416 397 1831 397 
Q 2247 397 2464 740 
Q 2681 1084 2681 1747 
Q 2681 2413 2464 2755 
Q 2247 3097 1831 3097 
Q 1416 3097 1203 2756 
Q 991 2416 991 1747 
z
" transform="scale(0.015625)"/>
      <path id="DejaVuSansMono-4c" d="M 672 4666 
L 1306 4666 
L 1306 531 
L 3559 531 
L 3559 0 
L 672 0 
L 672 4666 
z
" transform="scale(0.015625)"/>
      <path id="DejaVuSansMono-6f" d="M 1925 3097 
Q 1488 3097 1263 2756 
Q 1038 2416 1038 1747 
Q 1038 1081 1263 739 
Q 1488 397 1925 397 
Q 2366 397 2591 739 
Q 2816 1081 2816 1747 
Q 2816 2416 2591 2756 
Q 2366 3097 1925 3097 
z
M 1925 3584 
Q 2653 3584 3039 3112 
Q 3425 2641 3425 1747 
Q 3425 850 3040 379 
Q 2656 -91 1925 -91 
Q 1197 -91 812 379 
Q 428 850 428 1747 
Q 428 2641 812 3112 
Q 1197 3584 1925 3584 
z
" transform="scale(0.015625)"/>
      <path id="DejaVuSansMono-63" d="M 3316 178 
Q 3084 44 2839 -23 
Q 2594 -91 2338 -91 
Q 1525 -91 1067 396 
Q 609 884 609 1747 
Q 609 2609 1067 3096 
Q 1525 3584 2338 3584 
Q 2591 3584 2831 3518 
Q 3072 3453 3316 3316 
L 3316 2713 
Q 3088 2916 2858 3006 
Q 2628 3097 2338 3097 
Q 1797 3097 1506 2747 
Q 1216 2397 1216 1747 
Q 1216 1100 1508 748 
Q 1800 397 2338 397 
Q 2638 397 2875 489 
Q 3113 581 3316 775 
L 3316 178 
z
" transform="scale(0.015625)"/>
      <path id="DejaVuSansMono-67" d="M 2681 1778 
Q 2681 2425 2470 2761 
Q 2259 3097 1856 3097 
Q 1434 3097 1212 2761 
Q 991 2425 991 1778 
Q 991 1131 1214 792 
Q 1438 453 1863 453 
Q 2259 453 2470 793 
Q 2681 1134 2681 1778 
z
M 3256 225 
Q 3256 -563 2884 -969 
Q 2513 -1375 1791 -1375 
Q 1553 -1375 1293 -1331 
Q 1034 -1288 775 -1203 
L 775 -634 
Q 1081 -778 1331 -847 
Q 1581 -916 1791 -916 
Q 2256 -916 2468 -662 
Q 2681 -409 2681 141 
L 2681 166 
L 2681 556 
Q 2544 263 2306 119 
Q 2069 -25 1728 -25 
Q 1116 -25 750 465 
Q 384 956 384 1778 
Q 384 2603 750 3093 
Q 1116 3584 1728 3584 
Q 2066 3584 2300 3450 
Q 2534 3316 2681 3034 
L 2681 3488 
L 3256 3488 
L 3256 225 
z
" transform="scale(0.015625)"/>
      <path id="DejaVuSansMono-2c" d="M 1569 947 
L 2356 947 
L 2356 300 
L 1741 -897 
L 1259 -897 
L 1569 300 
L 1569 947 
z
" transform="scale(0.015625)"/>
      <path id="DejaVuSansMono-6b" d="M 738 4863 
L 1331 4863 
L 1331 2047 
L 2841 3500 
L 3541 3500 
L 2163 2181 
L 3756 0 
L 3053 0 
L 1759 1806 
L 1331 1403 
L 1331 0 
L 738 0 
L 738 4863 
z
" transform="scale(0.015625)"/>
     </defs>
     <use xlink:href="#DejaVuSansMono-57"/>
     <use xlink:href="#DejaVuSansMono-65" x="60.205078"/>
     <use xlink:href="#DejaVuSansMono-64" x="120.410156"/>
     <use xlink:href="#DejaVuSansMono-20" x="180.615234"/>
     <use xlink:href="#DejaVuSansMono-53" x="240.820312"/>
     <use xlink:href="#DejaVuSansMono-65" x="301.025391"/>
     <use xlink:href="#DejaVuSansMono-70" x="361.230469"/>
     <use xlink:href="#DejaVuSansMono-20" x="421.435547"/>
     <use xlink:href="#DejaVuSansMono-31" x="481.640625"/>
     <use xlink:href="#DejaVuSansMono-36" x="541.845703"/>
     <use xlink:href="#DejaVuSansMono-20" x="602.050781"/>
     <use xlink:href="#DejaVuSansMono-32" x="662.255859"/>
     <use xlink:href="#DejaVuSansMono-32" x="722.460938"/>
     <use xlink:href="#DejaVuSansMono-3a" x="782.666016"/>
     <use xlink:href="#DejaVuSansMono-35" x="842.871094"/>
     <use xlink:href="#DejaVuSansMono-35" x="903.076172"/>
     <use xlink:href="#DejaVuSansMono-3a" x="963.28125"/>
     <use xlink:href="#DejaVuSansMono-32" x="1023.486328"/>
     <use xlink:href="#DejaVuSansMono-32" x="1083.691406"/>
     <use xlink:href="#DejaVuSansMono-20" x="1143.896484"/>
     <use xlink:href="#DejaVuSansMono-32" x="1204.101562"/>
     <use xlink:href="#DejaVuSansMono-30" x="1264.306641"/>
     <use xlink:href="#DejaVuSansMono-31" x="1324.511719"/>
     <use xlink:href="#DejaVuSansMono-35" x="1384.716797"/>
     <use xlink:href="#DejaVuSansMono-20" x="1444.921875"/>
     <use xlink:href="#DejaVuSansMono-4c" x="1505.126953"/>
     <use xlink:href="#DejaVuSansMono-6f" x="1565.332031"/>
     <use xlink:href="#DejaVuSansMono-63" x="1625.537109"/>
     <use xlink:href="#DejaVuSansMono-3a" x="1685.742188"/>
     <use xlink:href="#DejaVuSansMono-20" x="1745.947266"/>
     <use xlink:href="#DejaVuSansMono-2d" x="1806.152344"/>
     <use xlink:href="#DejaVuSansMono-33" x="1866.357422"/>
     <use xlink:href="#DejaVuSansMono-31" x="1926.5625"/>
     <use xlink:href="#DejaVuSansMono-2e" x="1986.767578"/>
     <use xlink:href="#DejaVuSansMono-31" x="2046.972656"/>
     <use xlink:href="#DejaVuSansMono-33" x="2107.177734"/>
     <use xlink:href="#DejaVuSansMono-64" x="2167.382812"/>
     <use xlink:href="#DejaVuSansMono-67" x="2227.587891"/>
     <use xlink:href="#DejaVuSansMono-2c" x="2287.792969"/>
     <use xlink:href="#DejaVuSansMono-20" x="2347.998047"/>
     <use xlink:href="#DejaVuSansMono-2d" x="2408.203125"/>
     <use xlink:href="#DejaVuSansMono-37" x="2468.408203"/>
     <use xlink:href="#DejaVuSansMono-32" x="2528.613281"/>
     <use xlink:href="#DejaVuSansMono-2e" x="2588.818359"/>
     <use xlink:href="#DejaVuSansMono-30" x="2649.023438"/>
     <use xlink:href="#DejaVuSansMono-39" x="2709.228516"/>
     <use xlink:href="#DejaVuSansMono-64" x="2769.433594"/>
     <use xlink:href="#DejaVuSansMono-67" x="2829.638672"/>
     <use xlink:href="#DejaVuSansMono-2c" x="2889.84375"/>
     <use xlink:href="#DejaVuSansMono-20" x="2950.048828"/>
     <use xlink:href="#DejaVuSansMono-31" x="3010.253906"/>
     <use xlink:href="#DejaVuSansMono-37" x="3070.458984"/>
     <use xlink:href="#DejaVuSansMono-2e" x="3130.664062"/>
     <use xlink:href="#DejaVuSansMono-34" x="3190.869141"/>
     <use xlink:href="#DejaVuSansMono-6b" x="3251.074219"/>
     <use xlink:href="#DejaVuSansMono-6d" x="3311.279297"/>
     <use xlink:href="#DejaVuSansMono-20" x="3371.484375"/>
    </g>
   </g>
  </g>
 </g>
 <defs>
  <clipPath id="pf27a3d4149">
   <rect x="54" y="21.6" width="291.6" height="234.72"/>
  </clipPath>
 </defs>
</svg>
