<?xml version="1.0" encoding="utf-8" standalone="no"?>
<!DOCTYPE svg PUBLIC "-//W3C//DTD SVG 1.1//EN"
  "http://www.w3.org/Graphics/SVG/1.1/DTD/svg11.dtd">
<svg xmlns:xlink="http://www.w3.org/1999/xlink" width="504pt" height="288pt" viewBox="0 0 504 288" xmlns="http://www.w3.org/2000/svg" version="1.1">
 <metadata>
  <rdf:RDF xmlns:dc="http://purl.org/dc/elements/1.1/" xmlns:cc="http://creativecommons.org/ns#" xmlns:rdf="http://www.w3.org/1999/02/22-rdf-syntax-ns#">
   <cc:Work>
    <dc:type rdf:resource="http://purl.org/dc/dcmitype/StillImage"/>
    <dc:date>2023-03-16T15:13:19.953144</dc:date>
    <dc:format>image/svg+xml</dc:format>
    <dc:creator>
     <cc:Agent>
      <dc:title>Matplotlib v3.6.2, https://matplotlib.org/</dc:title>
     </cc:Agent>
    </dc:creator>
   </cc:Work>
  </rdf:RDF>
 </metadata>
 <defs>
  <style type="text/css">*{stroke-linejoin: round; stroke-linecap: butt}</style>
 </defs>
 <g id="figure_1">
  <g id="patch_1">
   <path d="M 0 288 
L 504 288 
L 504 0 
L 0 0 
z
" style="fill: #ffffff"/>
  </g>
  <g id="axes_1">
   <g id="patch_2">
    <path d="M 50.4 105.6 
L 453.6 105.6 
L 453.6 43.2 
L 50.4 43.2 
z
" style="fill: #ffffff"/>
   </g>
   <g id="matplotlib.axis_1">
    <g id="xtick_1"/>
    <g id="xtick_2"/>
    <g id="xtick_3"/>
    <g id="text_1">
     <!-- 2015-Sep-16 -->
     <g transform="translate(387.376563 116.251563) scale(0.1 -0.1)">
      <defs>
       <path id="DejaVuSansMono-32" d="M 1166 531 
L 3309 531 
L 3309 0 
L 475 0 
L 475 531 
Q 1059 1147 1496 1619 
Q 1934 2091 2100 2284 
Q 2413 2666 2522 2902 
Q 2631 3138 2631 3384 
Q 2631 3775 2401 3997 
Q 2172 4219 1772 4219 
Q 1488 4219 1175 4116 
Q 863 4013 513 3803 
L 513 4441 
Q 834 4594 1145 4672 
Q 1456 4750 1759 4750 
Q 2444 4750 2861 4386 
Q 3278 4022 3278 3431 
Q 3278 3131 3139 2831 
Q 3000 2531 2688 2169 
Q 2513 1966 2180 1606 
Q 1847 1247 1166 531 
z
" transform="scale(0.015625)"/>
       <path id="DejaVuSansMono-30" d="M 1509 2344 
Q 1509 2516 1629 2641 
Q 1750 2766 1919 2766 
Q 2094 2766 2219 2641 
Q 2344 2516 2344 2344 
Q 2344 2169 2220 2047 
Q 2097 1925 1919 1925 
Q 1744 1925 1626 2044 
Q 1509 2163 1509 2344 
z
M 1925 4250 
Q 1484 4250 1267 3775 
Q 1050 3300 1050 2328 
Q 1050 1359 1267 884 
Q 1484 409 1925 409 
Q 2369 409 2586 884 
Q 2803 1359 2803 2328 
Q 2803 3300 2586 3775 
Q 2369 4250 1925 4250 
z
M 1925 4750 
Q 2672 4750 3055 4137 
Q 3438 3525 3438 2328 
Q 3438 1134 3055 521 
Q 2672 -91 1925 -91 
Q 1178 -91 797 521 
Q 416 1134 416 2328 
Q 416 3525 797 4137 
Q 1178 4750 1925 4750 
z
" transform="scale(0.015625)"/>
       <path id="DejaVuSansMono-31" d="M 844 531 
L 1825 531 
L 1825 4097 
L 769 3859 
L 769 4434 
L 1819 4666 
L 2450 4666 
L 2450 531 
L 3419 531 
L 3419 0 
L 844 0 
L 844 531 
z
" transform="scale(0.015625)"/>
       <path id="DejaVuSansMono-35" d="M 647 4666 
L 3009 4666 
L 3009 4134 
L 1222 4134 
L 1222 2988 
Q 1356 3038 1492 3061 
Q 1628 3084 1766 3084 
Q 2491 3084 2916 2656 
Q 3341 2228 3341 1497 
Q 3341 759 2895 334 
Q 2450 -91 1678 -91 
Q 1306 -91 998 -41 
Q 691 9 447 109 
L 447 750 
Q 734 594 1025 517 
Q 1316 441 1619 441 
Q 2141 441 2423 716 
Q 2706 991 2706 1497 
Q 2706 1997 2414 2275 
Q 2122 2553 1600 2553 
Q 1347 2553 1106 2495 
Q 866 2438 647 2322 
L 647 4666 
z
" transform="scale(0.015625)"/>
       <path id="DejaVuSansMono-2d" d="M 1113 2009 
L 2741 2009 
L 2741 1497 
L 1113 1497 
L 1113 2009 
z
" transform="scale(0.015625)"/>
       <path id="DejaVuSansMono-53" d="M 3163 4506 
L 3163 3866 
Q 2875 4050 2586 4144 
Q 2297 4238 2003 4238 
Q 1556 4238 1297 4030 
Q 1038 3822 1038 3469 
Q 1038 3159 1208 2996 
Q 1378 2834 1844 2725 
L 2175 2650 
Q 2831 2497 3131 2169 
Q 3431 1841 3431 1275 
Q 3431 609 3018 259 
Q 2606 -91 1819 -91 
Q 1491 -91 1159 -20 
Q 828 50 494 191 
L 494 863 
Q 853 634 1173 528 
Q 1494 422 1819 422 
Q 2297 422 2562 636 
Q 2828 850 2828 1234 
Q 2828 1584 2645 1768 
Q 2463 1953 2009 2053 
L 1672 2131 
Q 1022 2278 728 2575 
Q 434 2872 434 3372 
Q 434 3997 854 4373 
Q 1275 4750 1972 4750 
Q 2241 4750 2537 4689 
Q 2834 4628 3163 4506 
z
" transform="scale(0.015625)"/>
       <path id="DejaVuSansMono-65" d="M 3475 1894 
L 3475 1613 
L 984 1613 
L 984 1594 
Q 984 1022 1282 709 
Q 1581 397 2125 397 
Q 2400 397 2700 484 
Q 3000 572 3341 750 
L 3341 178 
Q 3013 44 2708 -23 
Q 2403 -91 2119 -91 
Q 1303 -91 843 398 
Q 384 888 384 1747 
Q 384 2584 834 3084 
Q 1284 3584 2034 3584 
Q 2703 3584 3089 3131 
Q 3475 2678 3475 1894 
z
M 2900 2063 
Q 2888 2569 2661 2833 
Q 2434 3097 2009 3097 
Q 1594 3097 1325 2822 
Q 1056 2547 1006 2059 
L 2900 2063 
z
" transform="scale(0.015625)"/>
       <path id="DejaVuSansMono-70" d="M 1172 441 
L 1172 -1331 
L 594 -1331 
L 594 3500 
L 1172 3500 
L 1172 3053 
Q 1316 3313 1555 3448 
Q 1794 3584 2106 3584 
Q 2741 3584 3102 3093 
Q 3463 2603 3463 1734 
Q 3463 881 3100 395 
Q 2738 -91 2106 -91 
Q 1788 -91 1548 45 
Q 1309 181 1172 441 
z
M 2859 1747 
Q 2859 2416 2648 2756 
Q 2438 3097 2022 3097 
Q 1603 3097 1387 2755 
Q 1172 2413 1172 1747 
Q 1172 1084 1387 740 
Q 1603 397 2022 397 
Q 2438 397 2648 737 
Q 2859 1078 2859 1747 
z
" transform="scale(0.015625)"/>
       <path id="DejaVuSansMono-36" d="M 3097 4563 
L 3097 3981 
Q 2900 4097 2678 4158 
Q 2456 4219 2216 4219 
Q 1616 4219 1306 3767 
Q 997 3316 997 2438 
Q 1147 2750 1412 2917 
Q 1678 3084 2022 3084 
Q 2697 3084 3067 2670 
Q 3438 2256 3438 1497 
Q 3438 741 3056 325 
Q 2675 -91 1984 -91 
Q 1172 -91 794 492 
Q 416 1075 416 2328 
Q 416 3509 870 4129 
Q 1325 4750 2188 4750 
Q 2419 4750 2650 4701 
Q 2881 4653 3097 4563 
z
M 1972 2591 
Q 1569 2591 1337 2300 
Q 1106 2009 1106 1497 
Q 1106 984 1337 693 
Q 1569 403 1972 403 
Q 2391 403 2603 679 
Q 2816 956 2816 1497 
Q 2816 2041 2603 2316 
Q 2391 2591 1972 2591 
z
" transform="scale(0.015625)"/>
      </defs>
      <use xlink:href="#DejaVuSansMono-32"/>
      <use xlink:href="#DejaVuSansMono-30" x="60.205078"/>
      <use xlink:href="#DejaVuSansMono-31" x="120.410156"/>
      <use xlink:href="#DejaVuSansMono-35" x="180.615234"/>
      <use xlink:href="#DejaVuSansMono-2d" x="240.820312"/>
      <use xlink:href="#DejaVuSansMono-53" x="301.025391"/>
      <use xlink:href="#DejaVuSansMono-65" x="361.230469"/>
      <use xlink:href="#DejaVuSansMono-70" x="421.435547"/>
      <use xlink:href="#DejaVuSansMono-2d" x="481.640625"/>
      <use xlink:href="#DejaVuSansMono-31" x="541.845703"/>
      <use xlink:href="#DejaVuSansMono-36" x="602.050781"/>
     </g>
    </g>
   </g>
   <g id="matplotlib.axis_2">
    <g id="ytick_1"/>
    <g id="ytick_2"/>
    <g id="ytick_3"/>
   </g>
   <g id="line2d_1">
    <path d="M 49.9968 71.922503 
L 98.3808 71.557441 
L 112.0896 71.747233 
L 127.008 72.038876 
L 148.3776 72.245679 
L 158.4576 72.056002 
L 180.2304 71.417892 
L 183.8592 71.479927 
L 188.2944 71.629151 
L 189.9072 71.480509 
L 191.52 71.102772 
L 193.1328 70.460653 
L 195.1488 69.34153 
L 197.9712 67.673009 
L 199.1808 67.18576 
L 199.9872 67.018963 
L 200.7936 67.019434 
L 201.6 67.20705 
L 202.4064 67.604632 
L 203.2128 68.220877 
L 204.0192 69.052805 
L 205.2288 70.663522 
L 206.8416 73.280192 
L 209.2608 77.206238 
L 210.4704 78.661215 
L 211.2768 79.309718 
L 212.0832 79.660292 
L 212.8896 79.689897 
L 213.696 79.412669 
L 214.5024 78.83946 
L 215.3088 78.006811 
L 216.5184 76.379896 
L 220.9536 69.759338 
L 222.1632 68.634229 
L 222.9696 68.166576 
L 223.776 67.930116 
L 224.5824 67.918319 
L 225.3888 68.100023 
L 226.5984 68.671165 
L 228.2112 69.780712 
L 231.0336 71.823952 
L 232.2432 72.476902 
L 233.4528 72.905118 
L 234.6624 73.086789 
L 235.872 73.027826 
L 237.4848 72.654707 
L 242.7264 71.074092 
L 244.3392 70.99431 
L 245.952 71.153339 
L 252.4032 72.125228 
L 254.016 72.006362 
L 256.032 71.593061 
L 259.2576 70.601997 
L 261.2736 70.083691 
L 262.8864 69.915461 
L 264.096 69.989985 
L 265.3056 70.24577 
L 266.9184 70.835973 
L 269.3376 72.044923 
L 271.7568 73.225751 
L 273.3696 73.786907 
L 274.9824 74.092893 
L 276.5952 74.138836 
L 278.208 73.952117 
L 280.224 73.47725 
L 287.4816 71.526231 
L 288.6912 71.420916 
L 289.9008 71.508932 
L 291.1104 71.828579 
L 292.32 72.379829 
L 293.9328 73.391398 
L 296.7552 75.248553 
L 297.9648 75.720441 
L 298.7712 75.807923 
L 299.5776 75.671479 
L 300.384 75.268089 
L 301.1904 74.574899 
L 301.9968 73.581073 
L 302.8032 72.291348 
L 304.0128 69.853844 
L 305.6256 65.91916 
L 308.0448 59.871122 
L 308.8512 58.246701 
L 309.6576 57.019601 
L 310.464 56.307645 
L 310.8672 56.184604 
L 311.2704 56.2337 
L 311.6736 56.44975 
L 312.0768 56.855745 
L 312.8832 58.243581 
L 313.6896 60.398589 
L 314.496 63.272723 
L 315.7056 68.691456 
L 319.7376 88.581332 
L 320.544 91.319316 
L 321.3504 93.252079 
L 321.7536 93.886965 
L 322.1568 94.292303 
L 322.56 94.452689 
L 322.9632 94.376119 
L 323.3664 94.077566 
L 323.7696 93.545117 
L 324.576 91.828714 
L 325.3824 89.332218 
L 326.592 84.444743 
L 329.0112 72.860626 
L 330.2208 67.476238 
L 331.4304 63.125827 
L 332.2368 61.002782 
L 333.0432 59.587289 
L 333.4464 59.153572 
L 333.8496 58.899308 
L 334.2528 58.838641 
L 334.656 58.932249 
L 335.0592 59.18807 
L 335.8656 60.131298 
L 336.672 61.540795 
L 337.8816 64.205065 
L 339.8976 68.822024 
L 341.1072 70.964329 
L 341.9136 71.943763 
L 342.72 72.521174 
L 343.5264 72.695963 
L 344.3328 72.520158 
L 345.1392 72.054522 
L 346.3488 71.018652 
L 348.3648 69.240171 
L 349.1712 68.776145 
L 349.9776 68.550502 
L 350.784 68.609368 
L 351.5904 68.955775 
L 352.3968 69.585686 
L 353.2032 70.468106 
L 354.4128 72.140476 
L 356.832 75.620336 
L 357.6384 76.411101 
L 358.4448 76.832667 
L 359.2512 76.777892 
L 359.6544 76.557929 
L 360.4608 75.696073 
L 361.2672 74.261531 
L 362.0736 72.273575 
L 363.2832 68.387459 
L 364.896 62.084512 
L 366.912 54.141674 
L 367.7184 51.527582 
L 368.5248 49.507449 
L 369.3312 48.235598 
L 369.7344 47.915149 
L 370.1376 47.847756 
L 370.5408 47.990418 
L 370.944 48.377376 
L 371.3472 49.005481 
L 372.1536 50.965773 
L 372.96 53.805742 
L 373.7664 57.414655 
L 374.976 63.938434 
L 379.4112 89.487278 
L 380.2176 92.779137 
L 381.024 95.292095 
L 381.8304 96.955761 
L 382.2336 97.459827 
L 382.6368 97.749291 
L 383.04 97.8 
L 383.4432 97.669072 
L 383.8464 97.333211 
L 384.6528 96.114211 
L 385.4592 94.273536 
L 386.6688 90.687423 
L 389.8944 80.39247 
L 390.7008 78.4693 
L 391.5072 77.009846 
L 392.3136 76.057802 
L 393.12 75.619016 
L 393.9264 75.683869 
L 394.7328 76.177298 
L 395.5392 77.021844 
L 396.7488 78.707891 
L 398.7648 81.606908 
L 399.5712 82.453601 
L 400.3776 82.980038 
L 400.7808 83.105705 
L 401.5872 83.037829 
L 402.3936 82.557227 
L 403.2 81.66862 
L 404.0064 80.408754 
L 405.216 77.952979 
L 406.8288 74.032353 
L 408.8448 69.097224 
L 410.0544 66.637911 
L 410.8608 65.352498 
L 411.6672 64.40223 
L 412.4736 63.80802 
L 413.28 63.568906 
L 414.0864 63.665971 
L 414.8928 64.051172 
L 415.6992 64.669208 
L 417.312 66.318329 
L 418.9248 68.002904 
L 420.1344 68.94033 
L 420.9408 69.301576 
L 421.7472 69.398413 
L 422.5536 69.221652 
L 423.36 68.749558 
L 424.1664 67.992681 
L 424.9728 66.976864 
L 426.1824 65.073095 
L 429.408 59.600145 
L 430.2144 58.60569 
L 431.0208 57.903954 
L 431.8272 57.53617 
L 432.6336 57.532038 
L 433.44 57.877236 
L 434.2464 58.554954 
L 435.0528 59.51701 
L 436.2624 61.340049 
L 438.6816 65.188582 
L 439.488 66.14515 
L 440.2944 66.772749 
L 441.1008 66.98846 
L 441.504 66.930125 
L 442.3104 66.457719 
L 443.1168 65.511162 
L 443.9232 64.123235 
L 445.1328 61.359906 
L 447.1488 55.800522 
L 448.7616 51.657569 
L 449.568 50.057068 
L 450.3744 48.926533 
L 451.1808 48.349657 
L 451.584 48.302975 
L 451.9872 48.395763 
L 452.3904 48.647413 
L 453.1968 49.605318 
L 454.0032 51.111076 
L 454.0032 51.111076 
" clip-path="url(#p89ec1429e7)" style="fill: none; stroke: #000000; stroke-linecap: square"/>
   </g>
   <g id="line2d_2">
    <path d="M 49.9968 79.113923 
L 55.6416 78.854536 
L 61.2864 78.360718 
L 66.9312 77.633898 
L 72.9792 76.625459 
L 80.64 75.107367 
L 93.5424 72.522161 
L 98.784 71.725016 
L 103.2192 71.279868 
L 106.848 71.123224 
L 110.88 71.19366 
L 114.5088 71.518063 
L 117.7344 72.024956 
L 120.96 72.748219 
L 124.1856 73.696958 
L 127.4112 74.866613 
L 131.04 76.424198 
L 135.072 78.420273 
L 139.104 80.675273 
L 143.9424 83.665529 
L 151.6032 88.415606 
L 161.28 94.022126 
L 163.296 94.959685 
L 165.312 95.618436 
L 167.328 95.957331 
L 170.1504 96.068969 
L 172.5696 96.186203 
L 174.5856 96.536137 
L 178.2144 97.358913 
L 179.8272 97.38678 
L 180.6336 97.091275 
L 181.8432 96.356112 
L 182.6496 95.539438 
L 183.8592 93.996315 
L 185.472 91.364091 
L 187.8912 87.421964 
L 188.6976 86.352273 
L 189.1008 85.97047 
L 189.9072 85.592715 
L 191.1168 85.298574 
L 191.52 85.304028 
L 192.3264 85.644432 
L 193.1328 85.993702 
L 193.9392 85.947339 
L 194.7456 85.68267 
L 195.1488 85.486858 
L 195.552 85.145978 
L 195.9552 84.294202 
L 196.7616 81.404094 
L 197.568 77.5162 
L 198.3744 71.250474 
L 199.1808 63.086143 
L 199.9872 52.818675 
L 201.1968 32.868144 
L 202.4064 8.491473 
L 202.834277 -1 
M 214.821484 -1 
L 218.5344 124.100987 
L 219.744 152.085061 
L 220.5504 166.265444 
L 220.9536 169.933588 
L 221.76 173.167445 
L 222.1632 174.30602 
L 222.5664 175.036004 
L 222.9696 175.28711 
L 223.3728 173.968768 
L 223.776 170.608434 
L 224.9856 155.516015 
L 225.792 143.258772 
L 228.6144 94.531279 
L 230.2272 72.552052 
L 231.0336 65.371551 
L 231.84 59.94162 
L 232.2432 57.940653 
L 232.6464 56.811171 
L 233.0496 56.723418 
L 233.4528 57.127986 
L 233.856 57.850822 
L 234.6624 59.927837 
L 235.0656 61.319261 
L 235.4688 63.575083 
L 236.2752 69.764144 
L 237.888 84.08479 
L 241.5168 119.50862 
L 242.7264 129.575293 
L 243.936 137.989322 
L 244.7424 142.337387 
L 245.952 147.464051 
L 246.3552 148.573944 
L 246.7584 149.132165 
L 247.5648 149.729363 
L 248.3712 150.043931 
L 248.7744 150.037997 
L 249.1776 149.605174 
L 249.984 147.694341 
L 251.1936 143.9593 
L 252.8064 137.082301 
L 256.4352 120.670165 
L 257.6448 116.476071 
L 258.4512 114.232557 
L 259.6608 111.757042 
L 260.4672 110.605025 
L 261.2736 109.853895 
L 262.4832 109.063582 
L 265.7088 107.462266 
L 266.9184 106.394836 
L 268.128 104.857047 
L 269.3376 103.054704 
L 271.7568 99.273068 
L 272.9664 97.793394 
L 273.7728 96.990739 
L 274.5792 96.459466 
L 275.7888 95.958058 
L 276.9984 95.692222 
L 278.6112 95.382461 
L 279.4176 95.016342 
L 280.224 94.495355 
L 281.0304 93.677268 
L 282.24 91.8367 
L 283.0464 90.228158 
L 284.256 87.236725 
L 285.4656 83.721658 
L 291.5136 65.1297 
L 292.32 63.490723 
L 293.1264 62.060913 
L 293.5296 61.52641 
L 293.9328 61.237076 
L 294.336 61.250531 
L 294.7392 61.466952 
L 295.5456 62.344183 
L 295.9488 62.938475 
L 296.352 63.768749 
L 296.7552 65.219177 
L 297.5616 69.44195 
L 298.368 74.642703 
L 299.1744 81.814262 
L 300.384 94.788392 
L 302.8032 126.473095 
L 303.6096 136.125814 
L 304.416 141.100452 
L 305.2224 144.439967 
L 305.6256 145.367471 
L 306.0288 145.527103 
L 306.432 143.303154 
L 306.8352 138.574302 
L 307.6416 124.513931 
L 308.0448 116.420247 
L 308.8512 91.545417 
L 310.0608 39.642315 
L 310.803594 -1 
M 325.618035 -1 
L 327.3984 147.010259 
L 328.608 222.876859 
L 329.4144 260.43312 
L 330.2208 280.811744 
L 330.625367 289 
M 332.677414 289 
L 333.8496 266.681521 
L 334.656 243.384874 
L 337.0752 167.243167 
L 338.2848 137.385167 
L 339.0912 121.542156 
L 339.4944 116.512402 
L 340.3008 109.984977 
L 340.704 107.472583 
L 341.1072 105.792095 
L 341.5104 105.19403 
L 341.9136 105.904228 
L 342.3168 107.726704 
L 343.1232 113.216942 
L 343.9296 119.585019 
L 347.5584 155.875107 
L 348.768 164.177966 
L 349.9776 171.088762 
L 351.1872 177.246926 
L 352.3968 185.51259 
L 353.2032 192.620468 
L 354.0096 202.156545 
L 354.816 214.728611 
L 355.6224 229.73229 
L 356.4288 248.628111 
L 357.869495 289 
M 369.237386 289 
L 369.7344 252.781267 
L 371.3472 116.383266 
L 372.618746 -1 
M 387.106026 -1 
L 388.6848 83.636516 
L 389.8944 134.913214 
L 390.7008 162.789681 
L 391.9104 193.865123 
L 392.7168 208.921207 
L 393.5232 219.023078 
L 394.3296 226.591743 
L 394.7328 229.135635 
L 395.5392 232.207588 
L 396.3456 234.281483 
L 397.152 236.05181 
L 398.3616 238.148363 
L 398.7648 239.103004 
L 399.168 240.42299 
L 399.9744 244.244435 
L 400.7808 249.22748 
L 401.5872 255.990719 
L 402.7968 269.255359 
L 404.0064 285.641271 
L 404.234496 289 
M 415.608062 289 
L 416.5056 262.30628 
L 417.7152 221.61275 
L 419.7312 144.97507 
L 423.353266 -1 
L 423.353266 -1 
" clip-path="url(#p89ec1429e7)" style="fill: none; stroke: #ff0000; stroke-linecap: square"/>
   </g>
   <g id="text_2">
    <g id="patch_3">
     <path d="M 30.299688 84.305469 
L 44.32 84.305469 
L 44.32 66.574219 
L 30.299688 66.574219 
L 30.299688 84.305469 
z
" style="fill: none"/>
    </g>
    <!-- N -->
    <g transform="translate(34.299688 78.225781) scale(0.1 -0.1)">
     <defs>
      <path id="DejaVuSansMono-4e" d="M 434 4666 
L 1234 4666 
L 2809 825 
L 2809 4666 
L 3419 4666 
L 3419 0 
L 2619 0 
L 1044 3841 
L 1044 0 
L 434 0 
L 434 4666 
z
" transform="scale(0.015625)"/>
     </defs>
     <use xlink:href="#DejaVuSansMono-4e"/>
    </g>
   </g>
   <g id="text_3">
    <g id="patch_4">
     <path d="M 46.4049 52.829494 
L 106.681514 52.829494 
L 106.681514 39.2049 
L 46.4049 39.2049 
L 46.4049 52.829494 
z
" style="fill: none"/>
    </g>
    <!-- A: 1.8601e-06 m -->
    <g transform="translate(50.4 47.630255) scale(0.0579 -0.0579)">
     <defs>
      <path id="DejaVuSansMono-41" d="M 1925 4109 
L 1259 1722 
L 2591 1722 
L 1925 4109 
z
M 1544 4666 
L 2309 4666 
L 3738 0 
L 3084 0 
L 2741 1216 
L 1106 1216 
L 769 0 
L 116 0 
L 1544 4666 
z
" transform="scale(0.015625)"/>
      <path id="DejaVuSansMono-3a" d="M 1528 3322 
L 2316 3322 
L 2316 2375 
L 1528 2375 
L 1528 3322 
z
M 1528 953 
L 2316 953 
L 2316 0 
L 1528 0 
L 1528 953 
z
" transform="scale(0.015625)"/>
      <path id="DejaVuSansMono-20" transform="scale(0.015625)"/>
      <path id="DejaVuSansMono-2e" d="M 1528 953 
L 2316 953 
L 2316 0 
L 1528 0 
L 1528 953 
z
" transform="scale(0.015625)"/>
      <path id="DejaVuSansMono-38" d="M 1925 2216 
Q 1503 2216 1273 1980 
Q 1044 1744 1044 1313 
Q 1044 881 1276 642 
Q 1509 403 1925 403 
Q 2350 403 2579 639 
Q 2809 875 2809 1313 
Q 2809 1741 2576 1978 
Q 2344 2216 1925 2216 
z
M 1375 2478 
Q 972 2581 745 2862 
Q 519 3144 519 3541 
Q 519 4097 897 4423 
Q 1275 4750 1925 4750 
Q 2578 4750 2956 4423 
Q 3334 4097 3334 3541 
Q 3334 3144 3107 2862 
Q 2881 2581 2478 2478 
Q 2947 2375 3195 2062 
Q 3444 1750 3444 1253 
Q 3444 622 3041 265 
Q 2638 -91 1925 -91 
Q 1213 -91 811 264 
Q 409 619 409 1247 
Q 409 1747 657 2061 
Q 906 2375 1375 2478 
z
M 1147 3481 
Q 1147 3106 1347 2909 
Q 1547 2713 1925 2713 
Q 2306 2713 2506 2909 
Q 2706 3106 2706 3481 
Q 2706 3863 2507 4063 
Q 2309 4263 1925 4263 
Q 1547 4263 1347 4061 
Q 1147 3859 1147 3481 
z
" transform="scale(0.015625)"/>
      <path id="DejaVuSansMono-6d" d="M 2113 3144 
Q 2219 3369 2383 3476 
Q 2547 3584 2778 3584 
Q 3200 3584 3373 3257 
Q 3547 2931 3547 2028 
L 3547 0 
L 3022 0 
L 3022 2003 
Q 3022 2744 2939 2923 
Q 2856 3103 2638 3103 
Q 2388 3103 2295 2911 
Q 2203 2719 2203 2003 
L 2203 0 
L 1678 0 
L 1678 2003 
Q 1678 2753 1589 2928 
Q 1500 3103 1269 3103 
Q 1041 3103 952 2911 
Q 863 2719 863 2003 
L 863 0 
L 341 0 
L 341 3500 
L 863 3500 
L 863 3200 
Q 966 3388 1120 3486 
Q 1275 3584 1472 3584 
Q 1709 3584 1867 3475 
Q 2025 3366 2113 3144 
z
" transform="scale(0.015625)"/>
     </defs>
     <use xlink:href="#DejaVuSansMono-41"/>
     <use xlink:href="#DejaVuSansMono-3a" x="60.205078"/>
     <use xlink:href="#DejaVuSansMono-20" x="120.410156"/>
     <use xlink:href="#DejaVuSansMono-31" x="180.615234"/>
     <use xlink:href="#DejaVuSansMono-2e" x="240.820312"/>
     <use xlink:href="#DejaVuSansMono-38" x="301.025391"/>
     <use xlink:href="#DejaVuSansMono-36" x="361.230469"/>
     <use xlink:href="#DejaVuSansMono-30" x="421.435547"/>
     <use xlink:href="#DejaVuSansMono-31" x="481.640625"/>
     <use xlink:href="#DejaVuSansMono-65" x="541.845703"/>
     <use xlink:href="#DejaVuSansMono-2d" x="602.050781"/>
     <use xlink:href="#DejaVuSansMono-30" x="662.255859"/>
     <use xlink:href="#DejaVuSansMono-36" x="722.460938"/>
     <use xlink:href="#DejaVuSansMono-20" x="782.666016"/>
     <use xlink:href="#DejaVuSansMono-6d" x="842.871094"/>
    </g>
   </g>
   <g id="text_4">
    <g id="patch_5">
     <path d="M 46.4 37.857727 
L 373.476562 37.857727 
L 373.476562 8.78054 
L 46.4 8.78054 
L 46.4 37.857727 
z
" style="fill: none"/>
    </g>
    <!-- 2015-09-16 22:55:22  Loc: -31.13dg, -72.09dg, 17.35km -->
    <g transform="translate(50.4 20.447727) scale(0.1 -0.1)">
     <defs>
      <path id="DejaVuSansMono-39" d="M 1863 2069 
Q 2266 2069 2495 2359 
Q 2725 2650 2725 3163 
Q 2725 3675 2495 3965 
Q 2266 4256 1863 4256 
Q 1444 4256 1231 3979 
Q 1019 3703 1019 3163 
Q 1019 2619 1230 2344 
Q 1441 2069 1863 2069 
z
M 738 97 
L 738 678 
Q 934 563 1156 502 
Q 1378 441 1619 441 
Q 2219 441 2526 892 
Q 2834 1344 2834 2222 
Q 2688 1909 2422 1742 
Q 2156 1575 1813 1575 
Q 1138 1575 767 1990 
Q 397 2406 397 3169 
Q 397 3922 776 4336 
Q 1156 4750 1850 4750 
Q 2663 4750 3041 4165 
Q 3419 3581 3419 2328 
Q 3419 1150 2964 529 
Q 2509 -91 1644 -91 
Q 1416 -91 1184 -42 
Q 953 6 738 97 
z
" transform="scale(0.015625)"/>
      <path id="DejaVuSansMono-4c" d="M 672 4666 
L 1306 4666 
L 1306 531 
L 3559 531 
L 3559 0 
L 672 0 
L 672 4666 
z
" transform="scale(0.015625)"/>
      <path id="DejaVuSansMono-6f" d="M 1925 3097 
Q 1488 3097 1263 2756 
Q 1038 2416 1038 1747 
Q 1038 1081 1263 739 
Q 1488 397 1925 397 
Q 2366 397 2591 739 
Q 2816 1081 2816 1747 
Q 2816 2416 2591 2756 
Q 2366 3097 1925 3097 
z
M 1925 3584 
Q 2653 3584 3039 3112 
Q 3425 2641 3425 1747 
Q 3425 850 3040 379 
Q 2656 -91 1925 -91 
Q 1197 -91 812 379 
Q 428 850 428 1747 
Q 428 2641 812 3112 
Q 1197 3584 1925 3584 
z
" transform="scale(0.015625)"/>
      <path id="DejaVuSansMono-63" d="M 3316 178 
Q 3084 44 2839 -23 
Q 2594 -91 2338 -91 
Q 1525 -91 1067 396 
Q 609 884 609 1747 
Q 609 2609 1067 3096 
Q 1525 3584 2338 3584 
Q 2591 3584 2831 3518 
Q 3072 3453 3316 3316 
L 3316 2713 
Q 3088 2916 2858 3006 
Q 2628 3097 2338 3097 
Q 1797 3097 1506 2747 
Q 1216 2397 1216 1747 
Q 1216 1100 1508 748 
Q 1800 397 2338 397 
Q 2638 397 2875 489 
Q 3113 581 3316 775 
L 3316 178 
z
" transform="scale(0.015625)"/>
      <path id="DejaVuSansMono-33" d="M 2425 2497 
Q 2884 2375 3128 2064 
Q 3372 1753 3372 1288 
Q 3372 644 2939 276 
Q 2506 -91 1741 -91 
Q 1419 -91 1084 -31 
Q 750 28 428 141 
L 428 769 
Q 747 603 1056 522 
Q 1366 441 1672 441 
Q 2191 441 2469 675 
Q 2747 909 2747 1350 
Q 2747 1756 2469 1995 
Q 2191 2234 1716 2234 
L 1234 2234 
L 1234 2753 
L 1716 2753 
Q 2150 2753 2394 2943 
Q 2638 3134 2638 3475 
Q 2638 3834 2411 4026 
Q 2184 4219 1766 4219 
Q 1488 4219 1191 4156 
Q 894 4094 569 3969 
L 569 4550 
Q 947 4650 1242 4700 
Q 1538 4750 1766 4750 
Q 2447 4750 2855 4408 
Q 3263 4066 3263 3500 
Q 3263 3116 3048 2859 
Q 2834 2603 2425 2497 
z
" transform="scale(0.015625)"/>
      <path id="DejaVuSansMono-64" d="M 2681 3053 
L 2681 4863 
L 3256 4863 
L 3256 0 
L 2681 0 
L 2681 441 
Q 2538 181 2298 45 
Q 2059 -91 1747 -91 
Q 1113 -91 748 401 
Q 384 894 384 1759 
Q 384 2613 750 3098 
Q 1116 3584 1747 3584 
Q 2063 3584 2303 3448 
Q 2544 3313 2681 3053 
z
M 991 1747 
Q 991 1078 1203 737 
Q 1416 397 1831 397 
Q 2247 397 2464 740 
Q 2681 1084 2681 1747 
Q 2681 2413 2464 2755 
Q 2247 3097 1831 3097 
Q 1416 3097 1203 2756 
Q 991 2416 991 1747 
z
" transform="scale(0.015625)"/>
      <path id="DejaVuSansMono-67" d="M 2681 1778 
Q 2681 2425 2470 2761 
Q 2259 3097 1856 3097 
Q 1434 3097 1212 2761 
Q 991 2425 991 1778 
Q 991 1131 1214 792 
Q 1438 453 1863 453 
Q 2259 453 2470 793 
Q 2681 1134 2681 1778 
z
M 3256 225 
Q 3256 -563 2884 -969 
Q 2513 -1375 1791 -1375 
Q 1553 -1375 1293 -1331 
Q 1034 -1288 775 -1203 
L 775 -634 
Q 1081 -778 1331 -847 
Q 1581 -916 1791 -916 
Q 2256 -916 2468 -662 
Q 2681 -409 2681 141 
L 2681 166 
L 2681 556 
Q 2544 263 2306 119 
Q 2069 -25 1728 -25 
Q 1116 -25 750 465 
Q 384 956 384 1778 
Q 384 2603 750 3093 
Q 1116 3584 1728 3584 
Q 2066 3584 2300 3450 
Q 2534 3316 2681 3034 
L 2681 3488 
L 3256 3488 
L 3256 225 
z
" transform="scale(0.015625)"/>
      <path id="DejaVuSansMono-2c" d="M 1569 947 
L 2356 947 
L 2356 300 
L 1741 -897 
L 1259 -897 
L 1569 300 
L 1569 947 
z
" transform="scale(0.015625)"/>
      <path id="DejaVuSansMono-37" d="M 434 4666 
L 3372 4666 
L 3372 4397 
L 1703 0 
L 1044 0 
L 2669 4134 
L 434 4134 
L 434 4666 
z
" transform="scale(0.015625)"/>
      <path id="DejaVuSansMono-6b" d="M 738 4863 
L 1331 4863 
L 1331 2047 
L 2841 3500 
L 3541 3500 
L 2163 2181 
L 3756 0 
L 3053 0 
L 1759 1806 
L 1331 1403 
L 1331 0 
L 738 0 
L 738 4863 
z
" transform="scale(0.015625)"/>
     </defs>
     <use xlink:href="#DejaVuSansMono-32"/>
     <use xlink:href="#DejaVuSansMono-30" x="60.205078"/>
     <use xlink:href="#DejaVuSansMono-31" x="120.410156"/>
     <use xlink:href="#DejaVuSansMono-35" x="180.615234"/>
     <use xlink:href="#DejaVuSansMono-2d" x="240.820312"/>
     <use xlink:href="#DejaVuSansMono-30" x="301.025391"/>
     <use xlink:href="#DejaVuSansMono-39" x="361.230469"/>
     <use xlink:href="#DejaVuSansMono-2d" x="421.435547"/>
     <use xlink:href="#DejaVuSansMono-31" x="481.640625"/>
     <use xlink:href="#DejaVuSansMono-36" x="541.845703"/>
     <use xlink:href="#DejaVuSansMono-20" x="602.050781"/>
     <use xlink:href="#DejaVuSansMono-32" x="662.255859"/>
     <use xlink:href="#DejaVuSansMono-32" x="722.460938"/>
     <use xlink:href="#DejaVuSansMono-3a" x="782.666016"/>
     <use xlink:href="#DejaVuSansMono-35" x="842.871094"/>
     <use xlink:href="#DejaVuSansMono-35" x="903.076172"/>
     <use xlink:href="#DejaVuSansMono-3a" x="963.28125"/>
     <use xlink:href="#DejaVuSansMono-32" x="1023.486328"/>
     <use xlink:href="#DejaVuSansMono-32" x="1083.691406"/>
     <use xlink:href="#DejaVuSansMono-20" x="1143.896484"/>
     <use xlink:href="#DejaVuSansMono-20" x="1204.101562"/>
     <use xlink:href="#DejaVuSansMono-4c" x="1264.306641"/>
     <use xlink:href="#DejaVuSansMono-6f" x="1324.511719"/>
     <use xlink:href="#DejaVuSansMono-63" x="1384.716797"/>
     <use xlink:href="#DejaVuSansMono-3a" x="1444.921875"/>
     <use xlink:href="#DejaVuSansMono-20" x="1505.126953"/>
     <use xlink:href="#DejaVuSansMono-2d" x="1565.332031"/>
     <use xlink:href="#DejaVuSansMono-33" x="1625.537109"/>
     <use xlink:href="#DejaVuSansMono-31" x="1685.742188"/>
     <use xlink:href="#DejaVuSansMono-2e" x="1745.947266"/>
     <use xlink:href="#DejaVuSansMono-31" x="1806.152344"/>
     <use xlink:href="#DejaVuSansMono-33" x="1866.357422"/>
     <use xlink:href="#DejaVuSansMono-64" x="1926.5625"/>
     <use xlink:href="#DejaVuSansMono-67" x="1986.767578"/>
     <use xlink:href="#DejaVuSansMono-2c" x="2046.972656"/>
     <use xlink:href="#DejaVuSansMono-20" x="2107.177734"/>
     <use xlink:href="#DejaVuSansMono-2d" x="2167.382812"/>
     <use xlink:href="#DejaVuSansMono-37" x="2227.587891"/>
     <use xlink:href="#DejaVuSansMono-32" x="2287.792969"/>
     <use xlink:href="#DejaVuSansMono-2e" x="2347.998047"/>
     <use xlink:href="#DejaVuSansMono-30" x="2408.203125"/>
     <use xlink:href="#DejaVuSansMono-39" x="2468.408203"/>
     <use xlink:href="#DejaVuSansMono-64" x="2528.613281"/>
     <use xlink:href="#DejaVuSansMono-67" x="2588.818359"/>
     <use xlink:href="#DejaVuSansMono-2c" x="2649.023438"/>
     <use xlink:href="#DejaVuSansMono-20" x="2709.228516"/>
     <use xlink:href="#DejaVuSansMono-31" x="2769.433594"/>
     <use xlink:href="#DejaVuSansMono-37" x="2829.638672"/>
     <use xlink:href="#DejaVuSansMono-2e" x="2889.84375"/>
     <use xlink:href="#DejaVuSansMono-33" x="2950.048828"/>
     <use xlink:href="#DejaVuSansMono-35" x="3010.253906"/>
     <use xlink:href="#DejaVuSansMono-6b" x="3070.458984"/>
     <use xlink:href="#DejaVuSansMono-6d" x="3130.664062"/>
    </g>
    <!-- II.BFO - - BP: [40s, 300s] -->
    <g transform="translate(50.4 31.77804) scale(0.1 -0.1)">
     <defs>
      <path id="DejaVuSansMono-49" d="M 628 4666 
L 3219 4666 
L 3219 4134 
L 2241 4134 
L 2241 531 
L 3219 531 
L 3219 0 
L 628 0 
L 628 531 
L 1606 531 
L 1606 4134 
L 628 4134 
L 628 4666 
z
" transform="scale(0.015625)"/>
      <path id="DejaVuSansMono-42" d="M 1153 2228 
L 1153 519 
L 1900 519 
Q 2450 519 2684 711 
Q 2919 903 2919 1344 
Q 2919 1800 2672 2014 
Q 2425 2228 1900 2228 
L 1153 2228 
z
M 1153 4147 
L 1153 2741 
L 1888 2741 
Q 2344 2741 2548 2916 
Q 2753 3091 2753 3481 
Q 2753 3834 2551 3990 
Q 2350 4147 1888 4147 
L 1153 4147 
z
M 519 4666 
L 1900 4666 
Q 2616 4666 3003 4356 
Q 3391 4047 3391 3481 
Q 3391 3053 3186 2806 
Q 2981 2559 2572 2497 
Q 3031 2428 3292 2104 
Q 3553 1781 3553 1281 
Q 3553 647 3137 323 
Q 2722 0 1900 0 
L 519 0 
L 519 4666 
z
" transform="scale(0.015625)"/>
      <path id="DejaVuSansMono-46" d="M 728 4666 
L 3475 4666 
L 3475 4134 
L 1363 4134 
L 1363 2759 
L 3278 2759 
L 3278 2228 
L 1363 2228 
L 1363 0 
L 728 0 
L 728 4666 
z
" transform="scale(0.015625)"/>
      <path id="DejaVuSansMono-4f" d="M 2828 2328 
Q 2828 3356 2617 3797 
Q 2406 4238 1925 4238 
Q 1447 4238 1236 3797 
Q 1025 3356 1025 2328 
Q 1025 1303 1236 862 
Q 1447 422 1925 422 
Q 2406 422 2617 861 
Q 2828 1300 2828 2328 
z
M 3488 2328 
Q 3488 1109 3102 509 
Q 2716 -91 1925 -91 
Q 1134 -91 750 506 
Q 366 1103 366 2328 
Q 366 3550 752 4150 
Q 1138 4750 1925 4750 
Q 2716 4750 3102 4150 
Q 3488 3550 3488 2328 
z
" transform="scale(0.015625)"/>
      <path id="DejaVuSansMono-50" d="M 1247 4147 
L 1247 2394 
L 1978 2394 
Q 2416 2394 2661 2625 
Q 2906 2856 2906 3272 
Q 2906 3688 2662 3917 
Q 2419 4147 1978 4147 
L 1247 4147 
z
M 616 4666 
L 1978 4666 
Q 2759 4666 3162 4311 
Q 3566 3956 3566 3272 
Q 3566 2581 3164 2228 
Q 2763 1875 1978 1875 
L 1247 1875 
L 1247 0 
L 616 0 
L 616 4666 
z
" transform="scale(0.015625)"/>
      <path id="DejaVuSansMono-5b" d="M 1447 4863 
L 2772 4863 
L 2772 4416 
L 2022 4416 
L 2022 -397 
L 2772 -397 
L 2772 -844 
L 1447 -844 
L 1447 4863 
z
" transform="scale(0.015625)"/>
      <path id="DejaVuSansMono-34" d="M 2297 4091 
L 825 1625 
L 2297 1625 
L 2297 4091 
z
M 2194 4666 
L 2925 4666 
L 2925 1625 
L 3547 1625 
L 3547 1113 
L 2925 1113 
L 2925 0 
L 2297 0 
L 2297 1113 
L 319 1113 
L 319 1709 
L 2194 4666 
z
" transform="scale(0.015625)"/>
      <path id="DejaVuSansMono-73" d="M 3041 3378 
L 3041 2816 
Q 2794 2959 2544 3031 
Q 2294 3103 2034 3103 
Q 1644 3103 1451 2976 
Q 1259 2850 1259 2591 
Q 1259 2356 1403 2240 
Q 1547 2125 2119 2016 
L 2350 1972 
Q 2778 1891 2998 1647 
Q 3219 1403 3219 1013 
Q 3219 494 2850 201 
Q 2481 -91 1825 -91 
Q 1566 -91 1281 -36 
Q 997 19 666 128 
L 666 722 
Q 988 556 1281 473 
Q 1575 391 1838 391 
Q 2219 391 2428 545 
Q 2638 700 2638 978 
Q 2638 1378 1872 1531 
L 1847 1538 
L 1631 1581 
Q 1134 1678 906 1908 
Q 678 2138 678 2534 
Q 678 3038 1018 3311 
Q 1359 3584 1991 3584 
Q 2272 3584 2531 3532 
Q 2791 3481 3041 3378 
z
" transform="scale(0.015625)"/>
      <path id="DejaVuSansMono-5d" d="M 2406 4863 
L 2406 -844 
L 1081 -844 
L 1081 -397 
L 1831 -397 
L 1831 4416 
L 1081 4416 
L 1081 4863 
L 2406 4863 
z
" transform="scale(0.015625)"/>
     </defs>
     <use xlink:href="#DejaVuSansMono-49"/>
     <use xlink:href="#DejaVuSansMono-49" x="60.205078"/>
     <use xlink:href="#DejaVuSansMono-2e" x="120.410156"/>
     <use xlink:href="#DejaVuSansMono-42" x="180.615234"/>
     <use xlink:href="#DejaVuSansMono-46" x="240.820312"/>
     <use xlink:href="#DejaVuSansMono-4f" x="301.025391"/>
     <use xlink:href="#DejaVuSansMono-20" x="361.230469"/>
     <use xlink:href="#DejaVuSansMono-2d" x="421.435547"/>
     <use xlink:href="#DejaVuSansMono-2d" x="481.640625"/>
     <use xlink:href="#DejaVuSansMono-20" x="541.845703"/>
     <use xlink:href="#DejaVuSansMono-42" x="602.050781"/>
     <use xlink:href="#DejaVuSansMono-50" x="662.255859"/>
     <use xlink:href="#DejaVuSansMono-3a" x="722.460938"/>
     <use xlink:href="#DejaVuSansMono-20" x="782.666016"/>
     <use xlink:href="#DejaVuSansMono-5b" x="842.871094"/>
     <use xlink:href="#DejaVuSansMono-34" x="903.076172"/>
     <use xlink:href="#DejaVuSansMono-30" x="963.28125"/>
     <use xlink:href="#DejaVuSansMono-73" x="1023.486328"/>
     <use xlink:href="#DejaVuSansMono-2c" x="1083.691406"/>
     <use xlink:href="#DejaVuSansMono-20" x="1143.896484"/>
     <use xlink:href="#DejaVuSansMono-33" x="1204.101562"/>
     <use xlink:href="#DejaVuSansMono-30" x="1264.306641"/>
     <use xlink:href="#DejaVuSansMono-30" x="1324.511719"/>
     <use xlink:href="#DejaVuSansMono-73" x="1384.716797"/>
     <use xlink:href="#DejaVuSansMono-5d" x="1444.921875"/>
    </g>
   </g>
   <g id="legend_1">
    <g id="line2d_3">
     <path d="M 323.582353 52.327184 
L 330.522353 52.327184 
L 337.462353 52.327184 
" style="fill: none; stroke: #000000; stroke-linecap: square"/>
    </g>
    <g id="text_5">
     <!-- Observed -->
     <g transform="translate(343.014353 54.756184) scale(0.0694 -0.0694)">
      <defs>
       <path id="DejaVuSansMono-62" d="M 2869 1747 
Q 2869 2416 2656 2756 
Q 2444 3097 2028 3097 
Q 1609 3097 1393 2755 
Q 1178 2413 1178 1747 
Q 1178 1084 1393 740 
Q 1609 397 2028 397 
Q 2444 397 2656 737 
Q 2869 1078 2869 1747 
z
M 1178 3053 
Q 1316 3309 1558 3446 
Q 1800 3584 2119 3584 
Q 2750 3584 3112 3098 
Q 3475 2613 3475 1759 
Q 3475 894 3111 401 
Q 2747 -91 2113 -91 
Q 1800 -91 1561 45 
Q 1322 181 1178 441 
L 1178 0 
L 603 0 
L 603 4863 
L 1178 4863 
L 1178 3053 
z
" transform="scale(0.015625)"/>
       <path id="DejaVuSansMono-72" d="M 3609 2778 
Q 3425 2922 3234 2987 
Q 3044 3053 2816 3053 
Q 2278 3053 1993 2715 
Q 1709 2378 1709 1741 
L 1709 0 
L 1131 0 
L 1131 3500 
L 1709 3500 
L 1709 2816 
Q 1853 3188 2151 3386 
Q 2450 3584 2859 3584 
Q 3072 3584 3256 3531 
Q 3441 3478 3609 3366 
L 3609 2778 
z
" transform="scale(0.015625)"/>
       <path id="DejaVuSansMono-76" d="M 313 3500 
L 909 3500 
L 1925 563 
L 2944 3500 
L 3541 3500 
L 2297 0 
L 1556 0 
L 313 3500 
z
" transform="scale(0.015625)"/>
      </defs>
      <use xlink:href="#DejaVuSansMono-4f"/>
      <use xlink:href="#DejaVuSansMono-62" x="60.205078"/>
      <use xlink:href="#DejaVuSansMono-73" x="120.410156"/>
      <use xlink:href="#DejaVuSansMono-65" x="180.615234"/>
      <use xlink:href="#DejaVuSansMono-72" x="240.820312"/>
      <use xlink:href="#DejaVuSansMono-76" x="301.025391"/>
      <use xlink:href="#DejaVuSansMono-65" x="361.230469"/>
      <use xlink:href="#DejaVuSansMono-64" x="421.435547"/>
     </g>
    </g>
    <g id="line2d_4">
     <path d="M 390.319128 52.327184 
L 397.259128 52.327184 
L 404.199128 52.327184 
" style="fill: none; stroke: #ff0000; stroke-linecap: square"/>
    </g>
    <g id="text_6">
     <!-- Synthetic -->
     <g transform="translate(409.751128 54.756184) scale(0.0694 -0.0694)">
      <defs>
       <path id="DejaVuSansMono-79" d="M 2681 1125 
Q 2538 759 2316 163 
Q 2006 -663 1900 -844 
Q 1756 -1088 1540 -1209 
Q 1325 -1331 1038 -1331 
L 575 -1331 
L 575 -850 
L 916 -850 
Q 1169 -850 1312 -703 
Q 1456 -556 1678 56 
L 325 3500 
L 934 3500 
L 1972 763 
L 2994 3500 
L 3603 3500 
L 2681 1125 
z
" transform="scale(0.015625)"/>
       <path id="DejaVuSansMono-6e" d="M 3284 2169 
L 3284 0 
L 2706 0 
L 2706 2169 
Q 2706 2641 2540 2862 
Q 2375 3084 2022 3084 
Q 1619 3084 1401 2798 
Q 1184 2513 1184 1978 
L 1184 0 
L 609 0 
L 609 3500 
L 1184 3500 
L 1184 2975 
Q 1338 3275 1600 3429 
Q 1863 3584 2222 3584 
Q 2756 3584 3020 3232 
Q 3284 2881 3284 2169 
z
" transform="scale(0.015625)"/>
       <path id="DejaVuSansMono-74" d="M 1919 4494 
L 1919 3500 
L 3225 3500 
L 3225 3053 
L 1919 3053 
L 1919 1153 
Q 1919 766 2066 612 
Q 2213 459 2578 459 
L 3225 459 
L 3225 0 
L 2522 0 
Q 1875 0 1609 259 
Q 1344 519 1344 1153 
L 1344 3053 
L 409 3053 
L 409 3500 
L 1344 3500 
L 1344 4494 
L 1919 4494 
z
" transform="scale(0.015625)"/>
       <path id="DejaVuSansMono-68" d="M 3284 2169 
L 3284 0 
L 2706 0 
L 2706 2169 
Q 2706 2641 2540 2862 
Q 2375 3084 2022 3084 
Q 1619 3084 1401 2798 
Q 1184 2513 1184 1978 
L 1184 0 
L 609 0 
L 609 4863 
L 1184 4863 
L 1184 2975 
Q 1338 3275 1600 3429 
Q 1863 3584 2222 3584 
Q 2756 3584 3020 3232 
Q 3284 2881 3284 2169 
z
" transform="scale(0.015625)"/>
       <path id="DejaVuSansMono-69" d="M 800 3500 
L 2272 3500 
L 2272 447 
L 3413 447 
L 3413 0 
L 556 0 
L 556 447 
L 1697 447 
L 1697 3053 
L 800 3053 
L 800 3500 
z
M 1697 4863 
L 2272 4863 
L 2272 4134 
L 1697 4134 
L 1697 4863 
z
" transform="scale(0.015625)"/>
      </defs>
      <use xlink:href="#DejaVuSansMono-53"/>
      <use xlink:href="#DejaVuSansMono-79" x="60.205078"/>
      <use xlink:href="#DejaVuSansMono-6e" x="120.410156"/>
      <use xlink:href="#DejaVuSansMono-74" x="180.615234"/>
      <use xlink:href="#DejaVuSansMono-68" x="240.820312"/>
      <use xlink:href="#DejaVuSansMono-65" x="301.025391"/>
      <use xlink:href="#DejaVuSansMono-74" x="361.230469"/>
      <use xlink:href="#DejaVuSansMono-69" x="421.435547"/>
      <use xlink:href="#DejaVuSansMono-63" x="481.640625"/>
     </g>
    </g>
   </g>
  </g>
  <g id="axes_2">
   <g id="patch_6">
    <path d="M 50.4 168 
L 453.6 168 
L 453.6 105.6 
L 50.4 105.6 
z
" style="fill: #ffffff"/>
   </g>
   <g id="matplotlib.axis_3">
    <g id="xtick_4"/>
    <g id="xtick_5"/>
    <g id="xtick_6"/>
    <g id="text_7">
     <!-- 2015-Sep-16 -->
     <g transform="translate(387.376563 178.651563) scale(0.1 -0.1)">
      <use xlink:href="#DejaVuSansMono-32"/>
      <use xlink:href="#DejaVuSansMono-30" x="60.205078"/>
      <use xlink:href="#DejaVuSansMono-31" x="120.410156"/>
      <use xlink:href="#DejaVuSansMono-35" x="180.615234"/>
      <use xlink:href="#DejaVuSansMono-2d" x="240.820312"/>
      <use xlink:href="#DejaVuSansMono-53" x="301.025391"/>
      <use xlink:href="#DejaVuSansMono-65" x="361.230469"/>
      <use xlink:href="#DejaVuSansMono-70" x="421.435547"/>
      <use xlink:href="#DejaVuSansMono-2d" x="481.640625"/>
      <use xlink:href="#DejaVuSansMono-31" x="541.845703"/>
      <use xlink:href="#DejaVuSansMono-36" x="602.050781"/>
     </g>
    </g>
   </g>
   <g id="matplotlib.axis_4">
    <g id="ytick_4"/>
    <g id="ytick_5"/>
    <g id="ytick_6"/>
   </g>
   <g id="line2d_5">
    <path d="M 49.9968 134.280008 
L 70.56 134.307319 
L 114.5088 134.017682 
L 158.4576 134.605242 
L 172.9728 134.34948 
L 179.424 134.005703 
L 183.0528 133.920453 
L 189.1008 133.912795 
L 190.7136 133.635664 
L 192.3264 133.108711 
L 193.9392 132.317624 
L 196.3584 130.786442 
L 198.3744 129.554676 
L 199.584 129.048148 
L 200.3904 128.877659 
L 201.1968 128.882491 
L 202.0032 129.082263 
L 202.8096 129.499219 
L 203.616 130.140992 
L 204.8256 131.510824 
L 206.0352 133.294115 
L 210.4704 140.428263 
L 211.2768 141.274357 
L 212.0832 141.854724 
L 212.8896 142.14637 
L 213.696 142.132404 
L 214.5024 141.829614 
L 215.3088 141.25362 
L 216.1152 140.440199 
L 217.3248 138.880306 
L 221.76 132.641092 
L 222.9696 131.537548 
L 223.776 131.039437 
L 224.5824 130.735699 
L 225.3888 130.619813 
L 226.1952 130.677495 
L 227.4048 131.04095 
L 228.6144 131.66246 
L 230.6304 133.018453 
L 233.4528 134.901737 
L 235.0656 135.662966 
L 236.2752 136.008938 
L 237.4848 136.15552 
L 239.0976 136.073768 
L 240.7104 135.758695 
L 243.5328 134.936823 
L 247.1616 133.912367 
L 249.984 133.358917 
L 252.4032 133.110959 
L 255.2256 133.05981 
L 261.2736 133.258843 
L 264.096 133.543417 
L 267.3216 134.136561 
L 270.5472 134.691572 
L 272.5632 134.778822 
L 274.5792 134.595117 
L 276.9984 134.118694 
L 280.6272 133.382306 
L 282.6432 133.19051 
L 285.0624 133.203366 
L 287.0784 133.401108 
L 288.6912 133.751924 
L 290.304 134.360151 
L 291.9168 135.246847 
L 296.7552 138.297913 
L 297.5616 138.536745 
L 298.368 138.584372 
L 299.1744 138.410119 
L 299.9808 137.970728 
L 300.7872 137.243959 
L 301.5936 136.218932 
L 302.4 134.900154 
L 303.6096 132.421889 
L 305.2224 128.430274 
L 307.6416 122.239249 
L 308.8512 119.818169 
L 309.6576 118.725048 
L 310.464 118.177803 
L 310.8672 118.168921 
L 311.2704 118.302987 
L 311.6736 118.630665 
L 312.0768 119.1477 
L 312.8832 120.763244 
L 313.6896 123.144202 
L 314.496 126.23338 
L 315.7056 131.944686 
L 319.7376 152.809237 
L 320.544 155.813225 
L 321.3504 158.039728 
L 322.1568 159.389174 
L 322.56 159.719084 
L 322.9632 159.78545 
L 323.3664 159.640707 
L 323.7696 159.255382 
L 324.1728 158.6398 
L 324.9792 156.760675 
L 325.7856 154.112662 
L 326.9952 149.032485 
L 331.4304 128.553695 
L 332.2368 125.985777 
L 333.0432 124.071825 
L 333.8496 122.857337 
L 334.2528 122.513898 
L 334.656 122.340977 
L 335.0592 122.350818 
L 335.4624 122.494601 
L 336.2688 123.216454 
L 337.0752 124.400581 
L 338.2848 126.748554 
L 340.704 131.799818 
L 341.9136 133.731064 
L 342.72 134.632072 
L 343.5264 135.196392 
L 344.3328 135.437454 
L 345.1392 135.386178 
L 345.9456 135.114177 
L 347.5584 134.20367 
L 349.1712 133.316531 
L 350.3808 132.952367 
L 351.1872 132.916922 
L 351.9936 133.047588 
L 353.2032 133.530682 
L 355.2192 134.746531 
L 356.4288 135.360114 
L 357.2352 135.553529 
L 358.0416 135.473543 
L 358.848 135.05923 
L 359.6544 134.254623 
L 360.4608 133.029111 
L 361.2672 131.376959 
L 362.4768 128.152076 
L 363.6864 124.20856 
L 366.912 113.025609 
L 367.7184 110.871684 
L 368.5248 109.277676 
L 369.3312 108.365851 
L 369.7344 108.2 
L 370.1376 108.245895 
L 370.5408 108.482732 
L 370.944 108.935831 
L 371.7504 110.471002 
L 372.5568 112.814844 
L 373.3632 115.898492 
L 374.5728 121.680506 
L 376.1856 130.806498 
L 378.6048 144.736538 
L 379.8144 150.525345 
L 380.6208 153.613235 
L 381.4272 155.970994 
L 382.2336 157.545008 
L 382.6368 158.032532 
L 383.04 158.324072 
L 383.4432 158.406474 
L 383.8464 158.313905 
L 384.2496 158.042635 
L 385.056 157.001791 
L 385.8624 155.393167 
L 387.072 152.208697 
L 390.2976 142.821012 
L 391.104 141.030785 
L 391.9104 139.671672 
L 392.7168 138.799951 
L 393.5232 138.439794 
L 394.3296 138.58768 
L 395.136 139.190422 
L 395.9424 140.178091 
L 397.152 142.16008 
L 399.5712 146.459882 
L 400.3776 147.572966 
L 401.184 148.372704 
L 401.9904 148.801845 
L 402.7968 148.81826 
L 403.6032 148.429414 
L 404.4096 147.640016 
L 405.216 146.483764 
L 406.4256 144.166579 
L 408.0384 140.319177 
L 411.264 132.244921 
L 412.4736 129.792711 
L 413.6832 127.905279 
L 414.4896 126.998404 
L 415.296 126.379449 
L 416.1024 126.039548 
L 416.9088 125.964787 
L 417.7152 126.11082 
L 418.5216 126.45189 
L 419.7312 127.225958 
L 423.36 129.888611 
L 424.5696 130.377472 
L 425.376 130.508667 
L 426.5856 130.404384 
L 427.7952 129.995227 
L 429.408 129.133861 
L 432.2304 127.50144 
L 433.44 127.03544 
L 434.6496 126.822278 
L 435.8592 126.872248 
L 437.472 127.210244 
L 439.0848 127.512891 
L 439.8912 127.494217 
L 440.6976 127.284533 
L 441.504 126.829254 
L 442.3104 126.090722 
L 443.1168 125.049061 
L 443.9232 123.705355 
L 445.1328 121.183461 
L 447.1488 116.16648 
L 448.7616 112.331572 
L 449.568 110.803613 
L 450.3744 109.683829 
L 451.1808 109.054954 
L 451.584 108.945292 
L 451.9872 108.979316 
L 452.3904 109.141363 
L 453.1968 109.872273 
L 454.0032 111.07897 
L 454.0032 111.07897 
" clip-path="url(#p67b4b18e9d)" style="fill: none; stroke: #000000; stroke-linecap: square"/>
   </g>
   <g id="line2d_6">
    <path d="M 49.9968 141.546037 
L 56.0448 141.368676 
L 61.6896 140.967165 
L 67.3344 140.330673 
L 73.3824 139.406137 
L 80.2368 138.11932 
L 98.3808 134.562426 
L 103.2192 133.924437 
L 107.2512 133.6071 
L 110.88 133.530165 
L 114.5088 133.672568 
L 117.7344 134.007975 
L 120.96 134.551739 
L 124.1856 135.318422 
L 127.4112 136.307885 
L 131.04 137.670821 
L 134.6688 139.277988 
L 138.2976 141.125835 
L 142.3296 143.452155 
L 155.6352 151.686293 
L 163.296 156.46162 
L 165.312 157.312853 
L 167.328 157.859579 
L 170.5536 158.407752 
L 172.5696 158.886166 
L 174.1824 159.497212 
L 179.0208 161.775224 
L 179.8272 161.818129 
L 181.0368 161.581858 
L 181.8432 161.275432 
L 182.6496 160.591488 
L 183.8592 159.241561 
L 185.8752 156.282089 
L 187.0848 154.483339 
L 188.6976 152.833874 
L 189.1008 152.613549 
L 189.9072 152.616774 
L 191.1168 153.004126 
L 191.52 153.197973 
L 192.3264 154.083469 
L 193.1328 154.903819 
L 194.3424 155.117403 
L 195.1488 155.165763 
L 195.552 155.017247 
L 195.9552 154.218661 
L 196.7616 151.17782 
L 197.568 147.081269 
L 198.3744 140.27119 
L 199.1808 131.327658 
L 199.9872 120.081889 
L 201.1968 98.197299 
L 202.4064 71.568064 
L 205.361491 -1 
M 212.680403 -1 
L 213.696 30.615134 
L 215.712 106.536357 
L 217.3248 166.645305 
L 218.5344 205.711022 
L 219.744 233.93037 
L 220.5504 247.766897 
L 220.9536 250.471652 
L 221.76 251.17898 
L 222.5664 251.536989 
L 222.9696 251.580882 
L 223.3728 249.83871 
L 223.776 245.423045 
L 224.9856 226.072762 
L 225.792 211.451165 
L 228.6144 155.65691 
L 230.2272 130.81513 
L 231.0336 122.438413 
L 231.84 115.785734 
L 232.2432 113.300762 
L 232.6464 111.89021 
L 233.0496 111.735639 
L 233.4528 111.934382 
L 234.2592 112.806929 
L 234.6624 113.424693 
L 235.0656 114.346256 
L 235.4688 116.252053 
L 236.2752 121.947303 
L 237.4848 131.60198 
L 239.904 154.781884 
L 241.92 173.798302 
L 243.1296 183.71054 
L 244.3392 192.199944 
L 245.5488 198.502453 
L 246.3552 201.510767 
L 246.7584 202.136379 
L 247.5648 202.784881 
L 248.3712 203.124536 
L 248.7744 203.111457 
L 249.1776 202.547713 
L 249.5808 201.462916 
L 250.7904 196.962407 
L 251.5968 192.956081 
L 253.2096 183.245501 
L 256.032 165.034462 
L 257.2416 158.600023 
L 258.048 154.922536 
L 258.8544 152.121316 
L 259.6608 149.806693 
L 260.4672 148.25648 
L 261.6768 147.005697 
L 262.08 146.76961 
L 262.8864 146.712152 
L 264.096 146.995687 
L 265.3056 147.454539 
L 266.9184 148.167191 
L 270.9504 149.513731 
L 272.16 150.31843 
L 272.9664 151.056693 
L 274.5792 153.063684 
L 277.4016 157.103223 
L 277.8048 157.533942 
L 278.208 157.754068 
L 280.224 157.839297 
L 280.6272 157.683135 
L 281.0304 157.220535 
L 281.8368 155.772384 
L 282.6432 154.117587 
L 283.8528 150.700284 
L 285.4656 145.506271 
L 287.4816 139.14603 
L 288.6912 136.158711 
L 289.4976 134.492514 
L 289.9008 133.959645 
L 290.7072 133.567462 
L 291.9168 133.306306 
L 292.32 133.359445 
L 292.7232 133.765544 
L 293.5296 135.382244 
L 294.336 137.498012 
L 295.1424 140.752436 
L 295.9488 145.04583 
L 296.7552 150.445932 
L 297.9648 161.246468 
L 298.7712 170.108342 
L 300.384 191.616418 
L 303.2064 233.899129 
L 303.6096 238.495764 
L 304.0128 241.186022 
L 304.8192 244.293887 
L 305.2224 245.395988 
L 305.6256 246.07264 
L 306.0288 246.14518 
L 306.432 243.401609 
L 306.8352 237.593924 
L 307.6416 220.508584 
L 308.0448 210.850131 
L 308.8512 182.34777 
L 310.0608 124.008234 
L 310.8672 74.832677 
L 311.955936 -1 
M 324.289414 -1 
L 326.592 233.702429 
L 327.213992 289 
M 336.766703 289 
L 337.8816 245.918033 
L 339.0912 207.032054 
L 339.8976 189.403227 
L 340.704 174.89246 
L 341.1072 170.027367 
L 341.5104 167.787473 
L 342.3168 166.577703 
L 342.72 166.184203 
L 343.1232 165.947854 
L 343.5264 165.894092 
L 343.9296 167.023894 
L 344.3328 169.533218 
L 347.5584 195.16944 
L 348.768 202.629806 
L 349.9776 208.915783 
L 351.1872 214.51022 
L 352.3968 221.902571 
L 353.2032 228.245553 
L 354.0096 236.848394 
L 354.816 248.283245 
L 355.6224 262.016846 
L 356.4288 279.489037 
L 356.81943 289 
M 368.526982 289 
L 369.7344 189.052245 
L 371.647359 -1 
M 387.75864 -1 
L 388.6848 52.802728 
L 389.8944 110.545332 
L 390.7008 142.291512 
L 391.9104 178.694525 
L 392.7168 197.397812 
L 393.5232 211.516 
L 394.7328 227.794601 
L 395.5392 236.208417 
L 397.5552 255.03814 
L 398.7648 268.043448 
L 399.5712 278.971381 
L 400.208606 289 
M 422.334558 289 
L 424.9728 198.227621 
L 426.5856 148.362347 
L 428.1984 105.073001 
L 429.8112 70.91073 
L 430.6176 58.70544 
L 431.424 48.060599 
L 431.8272 44.081003 
L 432.2304 41.89719 
L 432.6336 41.636271 
L 434.2464 41.499013 
L 434.6496 42.077218 
L 435.0528 44.468572 
L 436.2624 56.342095 
L 437.0688 64.796573 
L 438.2784 77.58206 
L 439.488 86.869027 
L 439.8912 88.879726 
L 440.2944 89.624096 
L 440.6976 89.056558 
L 441.1008 87.544085 
L 441.9072 82.546316 
L 442.3104 79.473114 
L 442.7136 74.801916 
L 443.52 60.099064 
L 444.7296 32.906064 
L 445.951466 -1 
L 445.951466 -1 
" clip-path="url(#p67b4b18e9d)" style="fill: none; stroke: #ff0000; stroke-linecap: square"/>
   </g>
   <g id="text_8">
    <g id="patch_7">
     <path d="M 30.299688 146.705469 
L 44.32 146.705469 
L 44.32 128.974219 
L 30.299688 128.974219 
L 30.299688 146.705469 
z
" style="fill: none"/>
    </g>
    <!-- E -->
    <g transform="translate(34.299688 140.625781) scale(0.1 -0.1)">
     <defs>
      <path id="DejaVuSansMono-45" d="M 616 4666 
L 3384 4666 
L 3384 4134 
L 1247 4134 
L 1247 2753 
L 3291 2753 
L 3291 2222 
L 1247 2222 
L 1247 531 
L 3444 531 
L 3444 0 
L 616 0 
L 616 4666 
z
" transform="scale(0.015625)"/>
     </defs>
     <use xlink:href="#DejaVuSansMono-45"/>
    </g>
   </g>
   <g id="text_9">
    <g id="patch_8">
     <path d="M 46.4049 115.229494 
L 106.681514 115.229494 
L 106.681514 101.6049 
L 46.4049 101.6049 
L 46.4049 115.229494 
z
" style="fill: none"/>
    </g>
    <!-- A: 3.0051e-06 m -->
    <g transform="translate(50.4 110.030255) scale(0.0579 -0.0579)">
     <use xlink:href="#DejaVuSansMono-41"/>
     <use xlink:href="#DejaVuSansMono-3a" x="60.205078"/>
     <use xlink:href="#DejaVuSansMono-20" x="120.410156"/>
     <use xlink:href="#DejaVuSansMono-33" x="180.615234"/>
     <use xlink:href="#DejaVuSansMono-2e" x="240.820312"/>
     <use xlink:href="#DejaVuSansMono-30" x="301.025391"/>
     <use xlink:href="#DejaVuSansMono-30" x="361.230469"/>
     <use xlink:href="#DejaVuSansMono-35" x="421.435547"/>
     <use xlink:href="#DejaVuSansMono-31" x="481.640625"/>
     <use xlink:href="#DejaVuSansMono-65" x="541.845703"/>
     <use xlink:href="#DejaVuSansMono-2d" x="602.050781"/>
     <use xlink:href="#DejaVuSansMono-30" x="662.255859"/>
     <use xlink:href="#DejaVuSansMono-36" x="722.460938"/>
     <use xlink:href="#DejaVuSansMono-20" x="782.666016"/>
     <use xlink:href="#DejaVuSansMono-6d" x="842.871094"/>
    </g>
   </g>
  </g>
  <g id="axes_3">
   <g id="patch_9">
    <path d="M 50.4 230.4 
L 453.6 230.4 
L 453.6 168 
L 50.4 168 
z
" style="fill: #ffffff"/>
   </g>
   <g id="matplotlib.axis_5">
    <g id="xtick_7">
     <g id="line2d_7">
      <defs>
       <path id="m9fa6323615" d="M 0 0 
L 0 3.5 
" style="stroke: #000000; stroke-width: 0.8"/>
      </defs>
      <g>
       <use xlink:href="#m9fa6323615" x="101.64672" y="230.4" style="stroke: #000000; stroke-width: 0.8"/>
      </g>
     </g>
     <g id="text_10">
      <!-- 23:05 -->
      <g transform="translate(74.538158 259.077229) rotate(-30) scale(0.1 -0.1)">
       <use xlink:href="#DejaVuSansMono-32"/>
       <use xlink:href="#DejaVuSansMono-33" x="60.205078"/>
       <use xlink:href="#DejaVuSansMono-3a" x="120.410156"/>
       <use xlink:href="#DejaVuSansMono-30" x="180.615234"/>
       <use xlink:href="#DejaVuSansMono-35" x="240.820312"/>
      </g>
     </g>
    </g>
    <g id="xtick_8">
     <g id="line2d_8">
      <g>
       <use xlink:href="#m9fa6323615" x="222.60672" y="230.4" style="stroke: #000000; stroke-width: 0.8"/>
      </g>
     </g>
     <g id="text_11">
      <!-- 23:10 -->
      <g transform="translate(195.498158 259.077229) rotate(-30) scale(0.1 -0.1)">
       <use xlink:href="#DejaVuSansMono-32"/>
       <use xlink:href="#DejaVuSansMono-33" x="60.205078"/>
       <use xlink:href="#DejaVuSansMono-3a" x="120.410156"/>
       <use xlink:href="#DejaVuSansMono-31" x="180.615234"/>
       <use xlink:href="#DejaVuSansMono-30" x="240.820312"/>
      </g>
     </g>
    </g>
    <g id="xtick_9">
     <g id="line2d_9">
      <g>
       <use xlink:href="#m9fa6323615" x="343.56672" y="230.4" style="stroke: #000000; stroke-width: 0.8"/>
      </g>
     </g>
     <g id="text_12">
      <!-- 23:15 -->
      <g transform="translate(316.458158 259.077229) rotate(-30) scale(0.1 -0.1)">
       <use xlink:href="#DejaVuSansMono-32"/>
       <use xlink:href="#DejaVuSansMono-33" x="60.205078"/>
       <use xlink:href="#DejaVuSansMono-3a" x="120.410156"/>
       <use xlink:href="#DejaVuSansMono-31" x="180.615234"/>
       <use xlink:href="#DejaVuSansMono-35" x="240.820312"/>
      </g>
     </g>
    </g>
    <g id="text_13">
     <!-- Time -->
     <g transform="translate(239.959375 272.529853) scale(0.1 -0.1)">
      <defs>
       <path id="DejaVuSansMono-54" d="M 147 4666 
L 3706 4666 
L 3706 4134 
L 2247 4134 
L 2247 0 
L 1613 0 
L 1613 4134 
L 147 4134 
L 147 4666 
z
" transform="scale(0.015625)"/>
      </defs>
      <use xlink:href="#DejaVuSansMono-54"/>
      <use xlink:href="#DejaVuSansMono-69" x="60.205078"/>
      <use xlink:href="#DejaVuSansMono-6d" x="120.410156"/>
      <use xlink:href="#DejaVuSansMono-65" x="180.615234"/>
     </g>
    </g>
    <g id="text_14">
     <!-- 2015-Sep-16 -->
     <g transform="translate(387.376563 271.529853) scale(0.1 -0.1)">
      <use xlink:href="#DejaVuSansMono-32"/>
      <use xlink:href="#DejaVuSansMono-30" x="60.205078"/>
      <use xlink:href="#DejaVuSansMono-31" x="120.410156"/>
      <use xlink:href="#DejaVuSansMono-35" x="180.615234"/>
      <use xlink:href="#DejaVuSansMono-2d" x="240.820312"/>
      <use xlink:href="#DejaVuSansMono-53" x="301.025391"/>
      <use xlink:href="#DejaVuSansMono-65" x="361.230469"/>
      <use xlink:href="#DejaVuSansMono-70" x="421.435547"/>
      <use xlink:href="#DejaVuSansMono-2d" x="481.640625"/>
      <use xlink:href="#DejaVuSansMono-31" x="541.845703"/>
      <use xlink:href="#DejaVuSansMono-36" x="602.050781"/>
     </g>
    </g>
   </g>
   <g id="matplotlib.axis_6">
    <g id="ytick_7"/>
    <g id="ytick_8"/>
    <g id="ytick_9"/>
   </g>
   <g id="line2d_10">
    <path d="M 49.9968 196.70139 
L 73.7856 196.547704 
L 100.3968 196.395663 
L 111.2832 196.507435 
L 146.3616 197.0198 
L 158.0544 196.921857 
L 175.392 196.347679 
L 181.44 195.932132 
L 184.2624 196.011583 
L 187.488 196.130209 
L 189.1008 195.967584 
L 190.3104 195.646927 
L 191.52 195.111568 
L 192.7296 194.346612 
L 194.3424 193.007621 
L 198.3744 189.385899 
L 199.1808 188.963608 
L 199.9872 188.763228 
L 200.7936 188.840673 
L 201.6 189.229288 
L 202.4064 189.961985 
L 203.2128 191.051905 
L 204.0192 192.491955 
L 205.2288 195.235659 
L 206.8416 199.636846 
L 208.8576 205.238485 
L 210.0672 208.007944 
L 210.8736 209.414477 
L 211.68 210.392464 
L 212.4864 210.902177 
L 212.8896 210.966689 
L 213.2928 210.913346 
L 214.0992 210.447838 
L 214.9056 209.522235 
L 215.712 208.188111 
L 216.9216 205.579045 
L 218.9376 200.372923 
L 220.5504 196.303289 
L 221.76 193.740885 
L 222.5664 192.373594 
L 223.3728 191.317778 
L 224.1792 190.586865 
L 224.9856 190.177961 
L 225.792 190.08158 
L 226.5984 190.252516 
L 227.4048 190.666341 
L 228.6144 191.633663 
L 230.2272 193.301668 
L 232.6464 195.817075 
L 233.856 196.788445 
L 235.0656 197.452951 
L 236.2752 197.781216 
L 237.4848 197.789211 
L 238.6944 197.534574 
L 240.3072 196.919324 
L 244.3392 195.180623 
L 245.952 194.796511 
L 247.5648 194.696413 
L 249.1776 194.86827 
L 250.7904 195.268665 
L 256.032 196.814172 
L 257.2416 196.890384 
L 258.8544 196.737275 
L 260.8704 196.245901 
L 263.2896 195.640682 
L 264.9024 195.495722 
L 266.112 195.58715 
L 267.7248 195.964349 
L 269.7408 196.712021 
L 273.3696 198.090783 
L 275.3856 198.5511 
L 276.9984 198.707875 
L 278.6112 198.678995 
L 280.6272 198.397652 
L 282.6432 197.870189 
L 285.0624 196.973455 
L 287.8848 195.901856 
L 289.0944 195.638449 
L 290.304 195.607288 
L 291.5136 195.853773 
L 292.7232 196.381982 
L 294.336 197.431445 
L 297.1584 199.429947 
L 297.9648 199.801623 
L 298.7712 199.982811 
L 299.5776 199.912288 
L 300.384 199.549872 
L 301.1904 198.856246 
L 301.9968 197.811228 
L 302.8032 196.413398 
L 304.0128 193.70274 
L 305.6256 189.213215 
L 308.448 181.041775 
L 309.2544 179.253353 
L 310.0608 177.971802 
L 310.464 177.563962 
L 310.8672 177.327375 
L 311.2704 177.311609 
L 311.6736 177.462798 
L 312.0768 177.835352 
L 312.48 178.42347 
L 313.2864 180.252134 
L 314.0928 182.922513 
L 314.8992 186.35026 
L 316.1088 192.600217 
L 320.1408 214.885249 
L 320.9472 218.088459 
L 321.7536 220.497451 
L 322.56 222.019309 
L 322.9632 222.432121 
L 323.3664 222.6 
L 323.7696 222.530061 
L 324.1728 222.243588 
L 324.576 221.72965 
L 325.3824 220.081935 
L 326.1888 217.712892 
L 327.3984 213.151222 
L 331.4304 196.358554 
L 332.2368 193.899362 
L 333.0432 192.009283 
L 333.8496 190.736582 
L 334.656 190.085025 
L 335.0592 189.987473 
L 335.4624 190.029146 
L 336.2688 190.472651 
L 337.0752 191.32452 
L 338.2848 193.084115 
L 340.3008 196.179551 
L 341.1072 197.121529 
L 341.9136 197.758811 
L 342.72 198.041443 
L 343.5264 197.942879 
L 344.3328 197.487251 
L 345.1392 196.714227 
L 346.3488 195.115621 
L 349.1712 190.949788 
L 349.9776 190.057662 
L 350.784 189.43193 
L 351.5904 189.116683 
L 352.3968 189.146997 
L 353.2032 189.513149 
L 354.0096 190.199396 
L 354.816 191.158645 
L 356.0256 192.951457 
L 358.4448 196.622857 
L 359.2512 197.493072 
L 360.0576 198.029087 
L 360.4608 198.149626 
L 361.2672 198.043142 
L 362.0736 197.464034 
L 362.88 196.394929 
L 363.6864 194.85735 
L 364.896 191.804541 
L 366.912 185.62041 
L 368.5248 180.988509 
L 369.3312 179.204753 
L 370.1376 177.956752 
L 370.5408 177.566172 
L 370.944 177.340651 
L 371.3472 177.316956 
L 371.7504 177.446097 
L 372.1536 177.767568 
L 372.5568 178.272847 
L 373.3632 179.823383 
L 374.1696 182.053273 
L 374.976 184.886026 
L 376.1856 190.028284 
L 380.6208 210.520127 
L 381.4272 213.24633 
L 382.2336 215.393271 
L 383.04 216.912461 
L 383.8464 217.786596 
L 384.2496 217.987415 
L 384.6528 218.013662 
L 385.056 217.912794 
L 385.4592 217.663778 
L 386.2656 216.777001 
L 387.072 215.447499 
L 388.2816 212.853776 
L 391.9104 204.277017 
L 393.12 202.188572 
L 393.9264 201.161581 
L 394.7328 200.432478 
L 395.5392 199.98188 
L 396.3456 199.772319 
L 397.5552 199.798568 
L 400.7808 200.315492 
L 401.5872 200.228024 
L 402.3936 199.974786 
L 403.2 199.545129 
L 404.4096 198.57455 
L 405.6192 197.252441 
L 407.232 195.077092 
L 410.8608 189.880316 
L 412.0704 188.567634 
L 413.28 187.662253 
L 414.0864 187.315227 
L 414.8928 187.181868 
L 415.6992 187.258206 
L 416.5056 187.530816 
L 417.7152 188.263475 
L 418.9248 189.295449 
L 423.36 193.518631 
L 424.5696 194.206768 
L 425.376 194.464176 
L 426.1824 194.553858 
L 427.392 194.399268 
L 428.6016 193.9584 
L 430.6176 192.882707 
L 432.2304 192.09559 
L 433.44 191.791056 
L 434.2464 191.80302 
L 435.0528 192.010258 
L 435.8592 192.424103 
L 436.6656 193.035555 
L 437.8752 194.2661 
L 439.8912 196.798076 
L 441.9072 199.26456 
L 443.1168 200.426781 
L 444.3264 201.220734 
L 445.1328 201.516168 
L 445.9392 201.617305 
L 446.7456 201.536001 
L 447.9552 201.112259 
L 449.1648 200.414649 
L 454.0032 197.217189 
L 454.0032 197.217189 
" clip-path="url(#p0e22521d77)" style="fill: none; stroke: #000000; stroke-linecap: square"/>
   </g>
   <g id="line2d_11">
    <path d="M 49.9968 203.476353 
L 55.2384 202.830248 
L 60.8832 201.904751 
L 67.3344 200.611838 
L 87.0912 196.442354 
L 91.5264 195.834428 
L 95.5584 195.507439 
L 99.1872 195.440822 
L 102.816 195.613462 
L 106.0416 195.996348 
L 109.2672 196.602742 
L 112.4928 197.440385 
L 115.7184 198.508061 
L 118.944 199.800562 
L 122.5728 201.515426 
L 126.2016 203.47886 
L 130.6368 206.128974 
L 137.088 210.255689 
L 145.9584 215.973395 
L 148.7808 217.493045 
L 151.6032 218.767121 
L 156.0384 220.477506 
L 159.6672 221.70884 
L 161.6832 222.14055 
L 164.1024 222.156006 
L 165.312 221.857461 
L 166.5216 221.423299 
L 168.9408 220.157388 
L 171.36 218.903199 
L 172.9728 218.365031 
L 174.1824 218.199297 
L 177.8112 217.903066 
L 178.6176 217.565242 
L 179.8272 216.722801 
L 180.6336 215.737658 
L 181.8432 213.748604 
L 183.0528 210.952938 
L 184.2624 207.689915 
L 186.6816 200.76123 
L 187.488 198.977047 
L 188.6976 196.866513 
L 189.1008 196.48138 
L 189.504 196.399474 
L 190.7136 196.618604 
L 191.52 196.908612 
L 192.3264 197.744763 
L 193.1328 198.48375 
L 193.536 198.491611 
L 193.9392 198.263101 
L 194.7456 197.261233 
L 195.1488 196.553003 
L 195.552 195.544471 
L 195.9552 193.564871 
L 196.7616 187.338976 
L 197.568 179.213737 
L 198.3744 166.967613 
L 199.584 142.778705 
L 200.7936 109.838364 
L 202.0032 71.119099 
L 204.011122 -1 
M 212.328774 -1 
L 213.696 74.284145 
L 217.060025 289 
M 230.767302 289 
L 231.84 272.686279 
L 232.6464 263.471588 
L 233.856 254.706466 
L 234.2592 252.656444 
L 234.6624 251.388 
L 235.4688 250.580969 
L 236.2752 250.143692 
L 236.6784 250.062631 
L 237.0816 250.173064 
L 237.4848 250.638348 
L 239.904 254.628872 
L 240.3072 255.106266 
L 240.7104 255.312677 
L 242.7264 255.287524 
L 243.1296 255.068367 
L 243.5328 254.520772 
L 244.3392 252.867927 
L 245.1456 250.957459 
L 245.952 248.372763 
L 247.1616 243.69539 
L 248.3712 237.889884 
L 249.5808 231.271986 
L 252 216.221897 
L 254.4192 201.131144 
L 256.032 192.453178 
L 257.2416 187.163632 
L 258.4512 182.842066 
L 259.6608 179.530091 
L 261.2736 175.907055 
L 262.8864 172.475865 
L 264.096 169.466069 
L 265.3056 165.736606 
L 266.9184 159.658291 
L 270.5472 144.446883 
L 271.7568 140.469794 
L 272.16 139.593914 
L 272.9664 138.667898 
L 273.7728 138.063903 
L 274.176 137.933187 
L 274.5792 138.007106 
L 274.9824 138.456167 
L 275.7888 140.106541 
L 276.5952 142.13802 
L 277.4016 145.039379 
L 279.0144 152.218363 
L 281.0304 162.892209 
L 287.8848 200.941985 
L 289.4976 208.329046 
L 290.7072 212.685985 
L 291.9168 216.075819 
L 292.7232 217.657352 
L 295.5456 222.224299 
L 296.352 224.169347 
L 297.1584 227.216007 
L 297.9648 231.27748 
L 298.7712 236.893243 
L 299.9808 248.516658 
L 300.7872 258.151502 
L 302.984276 289 
M 307.796052 289 
L 308.0448 284.263624 
L 308.448 273.336668 
L 309.2544 242.273039 
L 310.464 182.805623 
L 311.6736 103.587672 
L 313.064732 -1 
M 324.227849 -1 
L 327.105661 289 
M 367.551181 289 
L 368.1216 262.256206 
L 369.3312 193.103908 
L 370.5408 108.525472 
L 371.959768 -1 
M 388.011934 -1 
L 389.4912 79.678812 
L 390.7008 137.101095 
L 391.9104 184.467182 
L 393.12 222.444119 
L 394.3296 251.895959 
L 395.136 267.275498 
L 396.3456 285.564949 
L 396.606003 289 
M 419.148595 289 
L 420.9408 232.598359 
L 422.5536 188.687076 
L 423.7632 161.570396 
L 424.9728 140.166415 
L 425.7792 128.496524 
L 426.5856 119.411444 
L 427.392 112.137889 
L 428.1984 106.63028 
L 429.408 101.44827 
L 429.8112 100.24163 
L 430.2144 99.562767 
L 431.0208 99.479809 
L 432.2304 99.513117 
L 432.6336 99.627348 
L 433.0368 100.146085 
L 433.8432 101.944173 
L 435.456 106.159981 
L 437.472 112.682539 
L 439.8912 121.530168 
L 441.9072 129.66421 
L 443.52 136.969169 
L 445.1328 145.38398 
L 446.3424 152.679878 
L 447.552 161.068555 
L 448.7616 170.750161 
L 449.9712 182.016586 
L 451.1808 195.177111 
L 452.3904 210.608452 
L 453.6 228.849284 
L 454.0032 235.5699 
L 454.0032 235.5699 
" clip-path="url(#p0e22521d77)" style="fill: none; stroke: #ff0000; stroke-linecap: square"/>
   </g>
   <g id="patch_10">
    <path d="M 50.4 230.4 
L 453.6 230.4 
" style="fill: none; stroke: #000000; stroke-width: 0.8; stroke-linejoin: miter; stroke-linecap: square"/>
   </g>
   <g id="text_15">
    <g id="patch_11">
     <path d="M 30.299688 209.105469 
L 44.32 209.105469 
L 44.32 191.374219 
L 30.299688 191.374219 
L 30.299688 209.105469 
z
" style="fill: none"/>
    </g>
    <!-- Z -->
    <g transform="translate(34.299688 203.025781) scale(0.1 -0.1)">
     <defs>
      <path id="DejaVuSansMono-5a" d="M 556 4666 
L 3584 4666 
L 3584 4184 
L 1147 531 
L 3653 531 
L 3653 0 
L 488 0 
L 488 481 
L 2859 4134 
L 556 4134 
L 556 4666 
z
" transform="scale(0.015625)"/>
     </defs>
     <use xlink:href="#DejaVuSansMono-5a"/>
    </g>
   </g>
   <g id="text_16">
    <g id="patch_12">
     <path d="M 46.4049 177.629494 
L 106.681514 177.629494 
L 106.681514 164.0049 
L 46.4049 164.0049 
L 46.4049 177.629494 
z
" style="fill: none"/>
    </g>
    <!-- A: 4.9579e-06 m -->
    <g transform="translate(50.4 172.430255) scale(0.0579 -0.0579)">
     <use xlink:href="#DejaVuSansMono-41"/>
     <use xlink:href="#DejaVuSansMono-3a" x="60.205078"/>
     <use xlink:href="#DejaVuSansMono-20" x="120.410156"/>
     <use xlink:href="#DejaVuSansMono-34" x="180.615234"/>
     <use xlink:href="#DejaVuSansMono-2e" x="240.820312"/>
     <use xlink:href="#DejaVuSansMono-39" x="301.025391"/>
     <use xlink:href="#DejaVuSansMono-35" x="361.230469"/>
     <use xlink:href="#DejaVuSansMono-37" x="421.435547"/>
     <use xlink:href="#DejaVuSansMono-39" x="481.640625"/>
     <use xlink:href="#DejaVuSansMono-65" x="541.845703"/>
     <use xlink:href="#DejaVuSansMono-2d" x="602.050781"/>
     <use xlink:href="#DejaVuSansMono-30" x="662.255859"/>
     <use xlink:href="#DejaVuSansMono-36" x="722.460938"/>
     <use xlink:href="#DejaVuSansMono-20" x="782.666016"/>
     <use xlink:href="#DejaVuSansMono-6d" x="842.871094"/>
    </g>
   </g>
  </g>
 </g>
 <defs>
  <clipPath id="p89ec1429e7">
   <rect x="50.4" y="43.2" width="403.2" height="62.4"/>
  </clipPath>
  <clipPath id="p67b4b18e9d">
   <rect x="50.4" y="105.6" width="403.2" height="62.4"/>
  </clipPath>
  <clipPath id="p0e22521d77">
   <rect x="50.4" y="168" width="403.2" height="62.4"/>
  </clipPath>
 </defs>
</svg>
