<?xml version="1.0" encoding="utf-8" standalone="no"?>
<!DOCTYPE svg PUBLIC "-//W3C//DTD SVG 1.1//EN"
  "http://www.w3.org/Graphics/SVG/1.1/DTD/svg11.dtd">
<svg xmlns:xlink="http://www.w3.org/1999/xlink" width="432pt" height="288pt" viewBox="0 0 432 288" xmlns="http://www.w3.org/2000/svg" version="1.1">
 <metadata>
  <rdf:RDF xmlns:dc="http://purl.org/dc/elements/1.1/" xmlns:cc="http://creativecommons.org/ns#" xmlns:rdf="http://www.w3.org/1999/02/22-rdf-syntax-ns#">
   <cc:Work>
    <dc:type rdf:resource="http://purl.org/dc/dcmitype/StillImage"/>
    <dc:date>2023-07-13T00:43:02.096035</dc:date>
    <dc:format>image/svg+xml</dc:format>
    <dc:creator>
     <cc:Agent>
      <dc:title>Matplotlib v3.6.2, https://matplotlib.org/</dc:title>
     </cc:Agent>
    </dc:creator>
   </cc:Work>
  </rdf:RDF>
 </metadata>
 <defs>
  <style type="text/css">*{stroke-linejoin: round; stroke-linecap: butt}</style>
 </defs>
 <g id="figure_1">
  <g id="patch_1">
   <path d="M 0 288 
L 432 288 
L 432 0 
L 0 0 
z
" style="fill: #ffffff"/>
  </g>
  <g id="axes_1">
   <g id="patch_2">
    <path d="M 54 256.32 
L 345.6 256.32 
L 345.6 21.6 
L 54 21.6 
z
" style="fill: #ffffff"/>
   </g>
   <g id="axes_2">
    <g id="patch_3">
     <path d="M 345.6 256.32 
L 345.6 256.32 
L 345.6 21.6 
L 345.6 21.6 
z
" style="fill: #ffffff"/>
    </g>
    <g id="matplotlib.axis_1"/>
    <g id="matplotlib.axis_2">
     <g id="ytick_1">
      <g id="text_1">
       <!-- D: 73.56 A:331.02 -->
       <g transform="translate(352.6 188.248547) scale(0.0694 -0.0694)">
        <defs>
         <path id="DejaVuSansMono-44" d="M 1363 519 
Q 2159 519 2475 911 
Q 2791 1303 2791 2328 
Q 2791 3363 2477 3755 
Q 2163 4147 1363 4147 
L 1063 4147 
L 1063 519 
L 1363 519 
z
M 1375 4666 
Q 2444 4666 2950 4097 
Q 3456 3528 3456 2328 
Q 3456 1134 2950 567 
Q 2444 0 1375 0 
L 428 0 
L 428 4666 
L 1375 4666 
z
" transform="scale(0.015625)"/>
         <path id="DejaVuSansMono-3a" d="M 1528 3322 
L 2316 3322 
L 2316 2375 
L 1528 2375 
L 1528 3322 
z
M 1528 953 
L 2316 953 
L 2316 0 
L 1528 0 
L 1528 953 
z
" transform="scale(0.015625)"/>
         <path id="DejaVuSansMono-20" transform="scale(0.015625)"/>
         <path id="DejaVuSansMono-37" d="M 434 4666 
L 3372 4666 
L 3372 4397 
L 1703 0 
L 1044 0 
L 2669 4134 
L 434 4134 
L 434 4666 
z
" transform="scale(0.015625)"/>
         <path id="DejaVuSansMono-33" d="M 2425 2497 
Q 2884 2375 3128 2064 
Q 3372 1753 3372 1288 
Q 3372 644 2939 276 
Q 2506 -91 1741 -91 
Q 1419 -91 1084 -31 
Q 750 28 428 141 
L 428 769 
Q 747 603 1056 522 
Q 1366 441 1672 441 
Q 2191 441 2469 675 
Q 2747 909 2747 1350 
Q 2747 1756 2469 1995 
Q 2191 2234 1716 2234 
L 1234 2234 
L 1234 2753 
L 1716 2753 
Q 2150 2753 2394 2943 
Q 2638 3134 2638 3475 
Q 2638 3834 2411 4026 
Q 2184 4219 1766 4219 
Q 1488 4219 1191 4156 
Q 894 4094 569 3969 
L 569 4550 
Q 947 4650 1242 4700 
Q 1538 4750 1766 4750 
Q 2447 4750 2855 4408 
Q 3263 4066 3263 3500 
Q 3263 3116 3048 2859 
Q 2834 2603 2425 2497 
z
" transform="scale(0.015625)"/>
         <path id="DejaVuSansMono-2e" d="M 1528 953 
L 2316 953 
L 2316 0 
L 1528 0 
L 1528 953 
z
" transform="scale(0.015625)"/>
         <path id="DejaVuSansMono-35" d="M 647 4666 
L 3009 4666 
L 3009 4134 
L 1222 4134 
L 1222 2988 
Q 1356 3038 1492 3061 
Q 1628 3084 1766 3084 
Q 2491 3084 2916 2656 
Q 3341 2228 3341 1497 
Q 3341 759 2895 334 
Q 2450 -91 1678 -91 
Q 1306 -91 998 -41 
Q 691 9 447 109 
L 447 750 
Q 734 594 1025 517 
Q 1316 441 1619 441 
Q 2141 441 2423 716 
Q 2706 991 2706 1497 
Q 2706 1997 2414 2275 
Q 2122 2553 1600 2553 
Q 1347 2553 1106 2495 
Q 866 2438 647 2322 
L 647 4666 
z
" transform="scale(0.015625)"/>
         <path id="DejaVuSansMono-36" d="M 3097 4563 
L 3097 3981 
Q 2900 4097 2678 4158 
Q 2456 4219 2216 4219 
Q 1616 4219 1306 3767 
Q 997 3316 997 2438 
Q 1147 2750 1412 2917 
Q 1678 3084 2022 3084 
Q 2697 3084 3067 2670 
Q 3438 2256 3438 1497 
Q 3438 741 3056 325 
Q 2675 -91 1984 -91 
Q 1172 -91 794 492 
Q 416 1075 416 2328 
Q 416 3509 870 4129 
Q 1325 4750 2188 4750 
Q 2419 4750 2650 4701 
Q 2881 4653 3097 4563 
z
M 1972 2591 
Q 1569 2591 1337 2300 
Q 1106 2009 1106 1497 
Q 1106 984 1337 693 
Q 1569 403 1972 403 
Q 2391 403 2603 679 
Q 2816 956 2816 1497 
Q 2816 2041 2603 2316 
Q 2391 2591 1972 2591 
z
" transform="scale(0.015625)"/>
         <path id="DejaVuSansMono-41" d="M 1925 4109 
L 1259 1722 
L 2591 1722 
L 1925 4109 
z
M 1544 4666 
L 2309 4666 
L 3738 0 
L 3084 0 
L 2741 1216 
L 1106 1216 
L 769 0 
L 116 0 
L 1544 4666 
z
" transform="scale(0.015625)"/>
         <path id="DejaVuSansMono-31" d="M 844 531 
L 1825 531 
L 1825 4097 
L 769 3859 
L 769 4434 
L 1819 4666 
L 2450 4666 
L 2450 531 
L 3419 531 
L 3419 0 
L 844 0 
L 844 531 
z
" transform="scale(0.015625)"/>
         <path id="DejaVuSansMono-30" d="M 1509 2344 
Q 1509 2516 1629 2641 
Q 1750 2766 1919 2766 
Q 2094 2766 2219 2641 
Q 2344 2516 2344 2344 
Q 2344 2169 2220 2047 
Q 2097 1925 1919 1925 
Q 1744 1925 1626 2044 
Q 1509 2163 1509 2344 
z
M 1925 4250 
Q 1484 4250 1267 3775 
Q 1050 3300 1050 2328 
Q 1050 1359 1267 884 
Q 1484 409 1925 409 
Q 2369 409 2586 884 
Q 2803 1359 2803 2328 
Q 2803 3300 2586 3775 
Q 2369 4250 1925 4250 
z
M 1925 4750 
Q 2672 4750 3055 4137 
Q 3438 3525 3438 2328 
Q 3438 1134 3055 521 
Q 2672 -91 1925 -91 
Q 1178 -91 797 521 
Q 416 1134 416 2328 
Q 416 3525 797 4137 
Q 1178 4750 1925 4750 
z
" transform="scale(0.015625)"/>
         <path id="DejaVuSansMono-32" d="M 1166 531 
L 3309 531 
L 3309 0 
L 475 0 
L 475 531 
Q 1059 1147 1496 1619 
Q 1934 2091 2100 2284 
Q 2413 2666 2522 2902 
Q 2631 3138 2631 3384 
Q 2631 3775 2401 3997 
Q 2172 4219 1772 4219 
Q 1488 4219 1175 4116 
Q 863 4013 513 3803 
L 513 4441 
Q 834 4594 1145 4672 
Q 1456 4750 1759 4750 
Q 2444 4750 2861 4386 
Q 3278 4022 3278 3431 
Q 3278 3131 3139 2831 
Q 3000 2531 2688 2169 
Q 2513 1966 2180 1606 
Q 1847 1247 1166 531 
z
" transform="scale(0.015625)"/>
        </defs>
        <use xlink:href="#DejaVuSansMono-44"/>
        <use xlink:href="#DejaVuSansMono-3a" x="60.205078"/>
        <use xlink:href="#DejaVuSansMono-20" x="120.410156"/>
        <use xlink:href="#DejaVuSansMono-37" x="180.615234"/>
        <use xlink:href="#DejaVuSansMono-33" x="240.820312"/>
        <use xlink:href="#DejaVuSansMono-2e" x="301.025391"/>
        <use xlink:href="#DejaVuSansMono-35" x="361.230469"/>
        <use xlink:href="#DejaVuSansMono-36" x="421.435547"/>
        <use xlink:href="#DejaVuSansMono-20" x="481.640625"/>
        <use xlink:href="#DejaVuSansMono-41" x="541.845703"/>
        <use xlink:href="#DejaVuSansMono-3a" x="602.050781"/>
        <use xlink:href="#DejaVuSansMono-33" x="662.255859"/>
        <use xlink:href="#DejaVuSansMono-33" x="722.460938"/>
        <use xlink:href="#DejaVuSansMono-31" x="782.666016"/>
        <use xlink:href="#DejaVuSansMono-2e" x="842.871094"/>
        <use xlink:href="#DejaVuSansMono-30" x="903.076172"/>
        <use xlink:href="#DejaVuSansMono-32" x="963.28125"/>
       </g>
      </g>
     </g>
     <g id="ytick_2">
      <g id="text_2">
       <!-- D: 73.64 A:  0.41 -->
       <g transform="translate(352.6 134.969399) scale(0.0694 -0.0694)">
        <defs>
         <path id="DejaVuSansMono-34" d="M 2297 4091 
L 825 1625 
L 2297 1625 
L 2297 4091 
z
M 2194 4666 
L 2925 4666 
L 2925 1625 
L 3547 1625 
L 3547 1113 
L 2925 1113 
L 2925 0 
L 2297 0 
L 2297 1113 
L 319 1113 
L 319 1709 
L 2194 4666 
z
" transform="scale(0.015625)"/>
        </defs>
        <use xlink:href="#DejaVuSansMono-44"/>
        <use xlink:href="#DejaVuSansMono-3a" x="60.205078"/>
        <use xlink:href="#DejaVuSansMono-20" x="120.410156"/>
        <use xlink:href="#DejaVuSansMono-37" x="180.615234"/>
        <use xlink:href="#DejaVuSansMono-33" x="240.820312"/>
        <use xlink:href="#DejaVuSansMono-2e" x="301.025391"/>
        <use xlink:href="#DejaVuSansMono-36" x="361.230469"/>
        <use xlink:href="#DejaVuSansMono-34" x="421.435547"/>
        <use xlink:href="#DejaVuSansMono-20" x="481.640625"/>
        <use xlink:href="#DejaVuSansMono-41" x="541.845703"/>
        <use xlink:href="#DejaVuSansMono-3a" x="602.050781"/>
        <use xlink:href="#DejaVuSansMono-20" x="662.255859"/>
        <use xlink:href="#DejaVuSansMono-20" x="722.460938"/>
        <use xlink:href="#DejaVuSansMono-30" x="782.666016"/>
        <use xlink:href="#DejaVuSansMono-2e" x="842.871094"/>
        <use xlink:href="#DejaVuSansMono-34" x="903.076172"/>
        <use xlink:href="#DejaVuSansMono-31" x="963.28125"/>
       </g>
      </g>
     </g>
     <g id="ytick_3">
      <g id="text_3">
       <!-- D:106.95 A: 43.40 -->
       <g transform="translate(352.6 81.690252) scale(0.0694 -0.0694)">
        <defs>
         <path id="DejaVuSansMono-39" d="M 1863 2069 
Q 2266 2069 2495 2359 
Q 2725 2650 2725 3163 
Q 2725 3675 2495 3965 
Q 2266 4256 1863 4256 
Q 1444 4256 1231 3979 
Q 1019 3703 1019 3163 
Q 1019 2619 1230 2344 
Q 1441 2069 1863 2069 
z
M 738 97 
L 738 678 
Q 934 563 1156 502 
Q 1378 441 1619 441 
Q 2219 441 2526 892 
Q 2834 1344 2834 2222 
Q 2688 1909 2422 1742 
Q 2156 1575 1813 1575 
Q 1138 1575 767 1990 
Q 397 2406 397 3169 
Q 397 3922 776 4336 
Q 1156 4750 1850 4750 
Q 2663 4750 3041 4165 
Q 3419 3581 3419 2328 
Q 3419 1150 2964 529 
Q 2509 -91 1644 -91 
Q 1416 -91 1184 -42 
Q 953 6 738 97 
z
" transform="scale(0.015625)"/>
        </defs>
        <use xlink:href="#DejaVuSansMono-44"/>
        <use xlink:href="#DejaVuSansMono-3a" x="60.205078"/>
        <use xlink:href="#DejaVuSansMono-31" x="120.410156"/>
        <use xlink:href="#DejaVuSansMono-30" x="180.615234"/>
        <use xlink:href="#DejaVuSansMono-36" x="240.820312"/>
        <use xlink:href="#DejaVuSansMono-2e" x="301.025391"/>
        <use xlink:href="#DejaVuSansMono-39" x="361.230469"/>
        <use xlink:href="#DejaVuSansMono-35" x="421.435547"/>
        <use xlink:href="#DejaVuSansMono-20" x="481.640625"/>
        <use xlink:href="#DejaVuSansMono-41" x="541.845703"/>
        <use xlink:href="#DejaVuSansMono-3a" x="602.050781"/>
        <use xlink:href="#DejaVuSansMono-20" x="662.255859"/>
        <use xlink:href="#DejaVuSansMono-34" x="722.460938"/>
        <use xlink:href="#DejaVuSansMono-33" x="782.666016"/>
        <use xlink:href="#DejaVuSansMono-2e" x="842.871094"/>
        <use xlink:href="#DejaVuSansMono-34" x="903.076172"/>
        <use xlink:href="#DejaVuSansMono-30" x="963.28125"/>
       </g>
      </g>
     </g>
    </g>
   </g>
   <g id="matplotlib.axis_3">
    <g id="xtick_1">
     <g id="line2d_1">
      <defs>
       <path id="m88c0354ad1" d="M 0 0 
L 0 3.5 
" style="stroke: #000000; stroke-width: 0.8"/>
      </defs>
      <g>
       <use xlink:href="#m88c0354ad1" x="82.903745" y="256.32" style="stroke: #000000; stroke-width: 0.8"/>
      </g>
     </g>
     <g id="text_4">
      <!-- 23:00 -->
      <g transform="translate(67.852964 270.971563) scale(0.1 -0.1)">
       <use xlink:href="#DejaVuSansMono-32"/>
       <use xlink:href="#DejaVuSansMono-33" x="60.205078"/>
       <use xlink:href="#DejaVuSansMono-3a" x="120.410156"/>
       <use xlink:href="#DejaVuSansMono-30" x="180.615234"/>
       <use xlink:href="#DejaVuSansMono-30" x="240.820312"/>
      </g>
     </g>
    </g>
    <g id="xtick_2">
     <g id="line2d_2">
      <g>
       <use xlink:href="#m88c0354ad1" x="135.921927" y="256.32" style="stroke: #000000; stroke-width: 0.8"/>
      </g>
     </g>
     <g id="text_5">
      <!-- 23:10 -->
      <g transform="translate(120.871146 270.971563) scale(0.1 -0.1)">
       <use xlink:href="#DejaVuSansMono-32"/>
       <use xlink:href="#DejaVuSansMono-33" x="60.205078"/>
       <use xlink:href="#DejaVuSansMono-3a" x="120.410156"/>
       <use xlink:href="#DejaVuSansMono-31" x="180.615234"/>
       <use xlink:href="#DejaVuSansMono-30" x="240.820312"/>
      </g>
     </g>
    </g>
    <g id="xtick_3">
     <g id="line2d_3">
      <g>
       <use xlink:href="#m88c0354ad1" x="188.940109" y="256.32" style="stroke: #000000; stroke-width: 0.8"/>
      </g>
     </g>
     <g id="text_6">
      <!-- 23:20 -->
      <g transform="translate(173.889328 270.971563) scale(0.1 -0.1)">
       <use xlink:href="#DejaVuSansMono-32"/>
       <use xlink:href="#DejaVuSansMono-33" x="60.205078"/>
       <use xlink:href="#DejaVuSansMono-3a" x="120.410156"/>
       <use xlink:href="#DejaVuSansMono-32" x="180.615234"/>
       <use xlink:href="#DejaVuSansMono-30" x="240.820312"/>
      </g>
     </g>
    </g>
    <g id="xtick_4">
     <g id="line2d_4">
      <g>
       <use xlink:href="#m88c0354ad1" x="241.958291" y="256.32" style="stroke: #000000; stroke-width: 0.8"/>
      </g>
     </g>
     <g id="text_7">
      <!-- 23:30 -->
      <g transform="translate(226.90751 270.971563) scale(0.1 -0.1)">
       <use xlink:href="#DejaVuSansMono-32"/>
       <use xlink:href="#DejaVuSansMono-33" x="60.205078"/>
       <use xlink:href="#DejaVuSansMono-3a" x="120.410156"/>
       <use xlink:href="#DejaVuSansMono-33" x="180.615234"/>
       <use xlink:href="#DejaVuSansMono-30" x="240.820312"/>
      </g>
     </g>
    </g>
    <g id="xtick_5">
     <g id="line2d_5">
      <g>
       <use xlink:href="#m88c0354ad1" x="294.976473" y="256.32" style="stroke: #000000; stroke-width: 0.8"/>
      </g>
     </g>
     <g id="text_8">
      <!-- 23:40 -->
      <g transform="translate(279.925691 270.971563) scale(0.1 -0.1)">
       <use xlink:href="#DejaVuSansMono-32"/>
       <use xlink:href="#DejaVuSansMono-33" x="60.205078"/>
       <use xlink:href="#DejaVuSansMono-3a" x="120.410156"/>
       <use xlink:href="#DejaVuSansMono-34" x="180.615234"/>
       <use xlink:href="#DejaVuSansMono-30" x="240.820312"/>
      </g>
     </g>
    </g>
    <g id="text_9">
     <!-- Time -->
     <g transform="translate(187.759375 284.702812) scale(0.1 -0.1)">
      <defs>
       <path id="DejaVuSansMono-54" d="M 147 4666 
L 3706 4666 
L 3706 4134 
L 2247 4134 
L 2247 0 
L 1613 0 
L 1613 4134 
L 147 4134 
L 147 4666 
z
" transform="scale(0.015625)"/>
       <path id="DejaVuSansMono-69" d="M 800 3500 
L 2272 3500 
L 2272 447 
L 3413 447 
L 3413 0 
L 556 0 
L 556 447 
L 1697 447 
L 1697 3053 
L 800 3053 
L 800 3500 
z
M 1697 4863 
L 2272 4863 
L 2272 4134 
L 1697 4134 
L 1697 4863 
z
" transform="scale(0.015625)"/>
       <path id="DejaVuSansMono-6d" d="M 2113 3144 
Q 2219 3369 2383 3476 
Q 2547 3584 2778 3584 
Q 3200 3584 3373 3257 
Q 3547 2931 3547 2028 
L 3547 0 
L 3022 0 
L 3022 2003 
Q 3022 2744 2939 2923 
Q 2856 3103 2638 3103 
Q 2388 3103 2295 2911 
Q 2203 2719 2203 2003 
L 2203 0 
L 1678 0 
L 1678 2003 
Q 1678 2753 1589 2928 
Q 1500 3103 1269 3103 
Q 1041 3103 952 2911 
Q 863 2719 863 2003 
L 863 0 
L 341 0 
L 341 3500 
L 863 3500 
L 863 3200 
Q 966 3388 1120 3486 
Q 1275 3584 1472 3584 
Q 1709 3584 1867 3475 
Q 2025 3366 2113 3144 
z
" transform="scale(0.015625)"/>
       <path id="DejaVuSansMono-65" d="M 3475 1894 
L 3475 1613 
L 984 1613 
L 984 1594 
Q 984 1022 1282 709 
Q 1581 397 2125 397 
Q 2400 397 2700 484 
Q 3000 572 3341 750 
L 3341 178 
Q 3013 44 2708 -23 
Q 2403 -91 2119 -91 
Q 1303 -91 843 398 
Q 384 888 384 1747 
Q 384 2584 834 3084 
Q 1284 3584 2034 3584 
Q 2703 3584 3089 3131 
Q 3475 2678 3475 1894 
z
M 2900 2063 
Q 2888 2569 2661 2833 
Q 2434 3097 2009 3097 
Q 1594 3097 1325 2822 
Q 1056 2547 1006 2059 
L 2900 2063 
z
" transform="scale(0.015625)"/>
      </defs>
      <use xlink:href="#DejaVuSansMono-54"/>
      <use xlink:href="#DejaVuSansMono-69" x="60.205078"/>
      <use xlink:href="#DejaVuSansMono-6d" x="120.410156"/>
      <use xlink:href="#DejaVuSansMono-65" x="180.615234"/>
     </g>
    </g>
    <g id="text_10">
     <!-- 2015-Sep-16 -->
     <g transform="translate(279.376563 283.702812) scale(0.1 -0.1)">
      <defs>
       <path id="DejaVuSansMono-2d" d="M 1113 2009 
L 2741 2009 
L 2741 1497 
L 1113 1497 
L 1113 2009 
z
" transform="scale(0.015625)"/>
       <path id="DejaVuSansMono-53" d="M 3163 4506 
L 3163 3866 
Q 2875 4050 2586 4144 
Q 2297 4238 2003 4238 
Q 1556 4238 1297 4030 
Q 1038 3822 1038 3469 
Q 1038 3159 1208 2996 
Q 1378 2834 1844 2725 
L 2175 2650 
Q 2831 2497 3131 2169 
Q 3431 1841 3431 1275 
Q 3431 609 3018 259 
Q 2606 -91 1819 -91 
Q 1491 -91 1159 -20 
Q 828 50 494 191 
L 494 863 
Q 853 634 1173 528 
Q 1494 422 1819 422 
Q 2297 422 2562 636 
Q 2828 850 2828 1234 
Q 2828 1584 2645 1768 
Q 2463 1953 2009 2053 
L 1672 2131 
Q 1022 2278 728 2575 
Q 434 2872 434 3372 
Q 434 3997 854 4373 
Q 1275 4750 1972 4750 
Q 2241 4750 2537 4689 
Q 2834 4628 3163 4506 
z
" transform="scale(0.015625)"/>
       <path id="DejaVuSansMono-70" d="M 1172 441 
L 1172 -1331 
L 594 -1331 
L 594 3500 
L 1172 3500 
L 1172 3053 
Q 1316 3313 1555 3448 
Q 1794 3584 2106 3584 
Q 2741 3584 3102 3093 
Q 3463 2603 3463 1734 
Q 3463 881 3100 395 
Q 2738 -91 2106 -91 
Q 1788 -91 1548 45 
Q 1309 181 1172 441 
z
M 2859 1747 
Q 2859 2416 2648 2756 
Q 2438 3097 2022 3097 
Q 1603 3097 1387 2755 
Q 1172 2413 1172 1747 
Q 1172 1084 1387 740 
Q 1603 397 2022 397 
Q 2438 397 2648 737 
Q 2859 1078 2859 1747 
z
" transform="scale(0.015625)"/>
      </defs>
      <use xlink:href="#DejaVuSansMono-32"/>
      <use xlink:href="#DejaVuSansMono-30" x="60.205078"/>
      <use xlink:href="#DejaVuSansMono-31" x="120.410156"/>
      <use xlink:href="#DejaVuSansMono-35" x="180.615234"/>
      <use xlink:href="#DejaVuSansMono-2d" x="240.820312"/>
      <use xlink:href="#DejaVuSansMono-53" x="301.025391"/>
      <use xlink:href="#DejaVuSansMono-65" x="361.230469"/>
      <use xlink:href="#DejaVuSansMono-70" x="421.435547"/>
      <use xlink:href="#DejaVuSansMono-2d" x="481.640625"/>
      <use xlink:href="#DejaVuSansMono-31" x="541.845703"/>
      <use xlink:href="#DejaVuSansMono-36" x="602.050781"/>
     </g>
    </g>
   </g>
   <g id="matplotlib.axis_4">
    <g id="ytick_4">
     <g id="text_11">
      <!-- IU.ANMO -->
      <g transform="translate(11.895558 188.635793) scale(0.0833 -0.0833)">
       <defs>
        <path id="DejaVuSansMono-49" d="M 628 4666 
L 3219 4666 
L 3219 4134 
L 2241 4134 
L 2241 531 
L 3219 531 
L 3219 0 
L 628 0 
L 628 531 
L 1606 531 
L 1606 4134 
L 628 4134 
L 628 4666 
z
" transform="scale(0.015625)"/>
        <path id="DejaVuSansMono-55" d="M 459 1791 
L 459 4666 
L 1094 4666 
L 1094 1503 
Q 1094 1163 1112 1017 
Q 1131 872 1178 794 
Q 1278 609 1467 515 
Q 1656 422 1925 422 
Q 2197 422 2384 515 
Q 2572 609 2675 794 
Q 2722 872 2740 1015 
Q 2759 1159 2759 1497 
L 2759 4666 
L 3391 4666 
L 3391 1791 
Q 3391 1075 3302 773 
Q 3213 472 2994 275 
Q 2788 91 2522 0 
Q 2256 -91 1925 -91 
Q 1597 -91 1331 0 
Q 1066 91 856 275 
Q 641 469 550 776 
Q 459 1084 459 1791 
z
" transform="scale(0.015625)"/>
        <path id="DejaVuSansMono-4e" d="M 434 4666 
L 1234 4666 
L 2809 825 
L 2809 4666 
L 3419 4666 
L 3419 0 
L 2619 0 
L 1044 3841 
L 1044 0 
L 434 0 
L 434 4666 
z
" transform="scale(0.015625)"/>
        <path id="DejaVuSansMono-4d" d="M 269 4666 
L 1113 4666 
L 1919 2291 
L 2731 4666 
L 3578 4666 
L 3578 0 
L 2994 0 
L 2994 4122 
L 2163 1663 
L 1684 1663 
L 850 4122 
L 850 0 
L 269 0 
L 269 4666 
z
" transform="scale(0.015625)"/>
        <path id="DejaVuSansMono-4f" d="M 2828 2328 
Q 2828 3356 2617 3797 
Q 2406 4238 1925 4238 
Q 1447 4238 1236 3797 
Q 1025 3356 1025 2328 
Q 1025 1303 1236 862 
Q 1447 422 1925 422 
Q 2406 422 2617 861 
Q 2828 1300 2828 2328 
z
M 3488 2328 
Q 3488 1109 3102 509 
Q 2716 -91 1925 -91 
Q 1134 -91 750 506 
Q 366 1103 366 2328 
Q 366 3550 752 4150 
Q 1138 4750 1925 4750 
Q 2716 4750 3102 4150 
Q 3488 3550 3488 2328 
z
" transform="scale(0.015625)"/>
       </defs>
       <use xlink:href="#DejaVuSansMono-49"/>
       <use xlink:href="#DejaVuSansMono-55" x="60.205078"/>
       <use xlink:href="#DejaVuSansMono-2e" x="120.410156"/>
       <use xlink:href="#DejaVuSansMono-41" x="180.615234"/>
       <use xlink:href="#DejaVuSansMono-4e" x="240.820312"/>
       <use xlink:href="#DejaVuSansMono-4d" x="301.025391"/>
       <use xlink:href="#DejaVuSansMono-4f" x="361.230469"/>
      </g>
     </g>
    </g>
    <g id="ytick_5">
     <g id="text_12">
      <!-- IU.HRV -->
      <g transform="translate(16.910478 135.356645) scale(0.0833 -0.0833)">
       <defs>
        <path id="DejaVuSansMono-48" d="M 428 4666 
L 1063 4666 
L 1063 2753 
L 2791 2753 
L 2791 4666 
L 3425 4666 
L 3425 0 
L 2791 0 
L 2791 2222 
L 1063 2222 
L 1063 0 
L 428 0 
L 428 4666 
z
" transform="scale(0.015625)"/>
        <path id="DejaVuSansMono-52" d="M 2375 2203 
Q 2619 2141 2791 1967 
Q 2963 1794 3219 1275 
L 3853 0 
L 3175 0 
L 2619 1178 
Q 2378 1681 2186 1826 
Q 1994 1972 1684 1972 
L 1081 1972 
L 1081 0 
L 447 0 
L 447 4666 
L 1747 4666 
Q 2516 4666 2925 4319 
Q 3334 3972 3334 3316 
Q 3334 2853 3082 2561 
Q 2831 2269 2375 2203 
z
M 1081 4147 
L 1081 2491 
L 1772 2491 
Q 2225 2491 2447 2694 
Q 2669 2897 2669 3316 
Q 2669 3719 2433 3933 
Q 2197 4147 1747 4147 
L 1081 4147 
z
" transform="scale(0.015625)"/>
        <path id="DejaVuSansMono-56" d="M 1925 531 
L 3022 4666 
L 3675 4666 
L 2309 0 
L 1544 0 
L 178 4666 
L 831 4666 
L 1925 531 
z
" transform="scale(0.015625)"/>
       </defs>
       <use xlink:href="#DejaVuSansMono-49"/>
       <use xlink:href="#DejaVuSansMono-55" x="60.205078"/>
       <use xlink:href="#DejaVuSansMono-2e" x="120.410156"/>
       <use xlink:href="#DejaVuSansMono-48" x="180.615234"/>
       <use xlink:href="#DejaVuSansMono-52" x="240.820312"/>
       <use xlink:href="#DejaVuSansMono-56" x="301.025391"/>
      </g>
     </g>
    </g>
    <g id="ytick_6">
     <g id="text_13">
      <!-- II.BFO -->
      <g transform="translate(16.910478 82.077497) scale(0.0833 -0.0833)">
       <defs>
        <path id="DejaVuSansMono-42" d="M 1153 2228 
L 1153 519 
L 1900 519 
Q 2450 519 2684 711 
Q 2919 903 2919 1344 
Q 2919 1800 2672 2014 
Q 2425 2228 1900 2228 
L 1153 2228 
z
M 1153 4147 
L 1153 2741 
L 1888 2741 
Q 2344 2741 2548 2916 
Q 2753 3091 2753 3481 
Q 2753 3834 2551 3990 
Q 2350 4147 1888 4147 
L 1153 4147 
z
M 519 4666 
L 1900 4666 
Q 2616 4666 3003 4356 
Q 3391 4047 3391 3481 
Q 3391 3053 3186 2806 
Q 2981 2559 2572 2497 
Q 3031 2428 3292 2104 
Q 3553 1781 3553 1281 
Q 3553 647 3137 323 
Q 2722 0 1900 0 
L 519 0 
L 519 4666 
z
" transform="scale(0.015625)"/>
        <path id="DejaVuSansMono-46" d="M 728 4666 
L 3475 4666 
L 3475 4134 
L 1363 4134 
L 1363 2759 
L 3278 2759 
L 3278 2228 
L 1363 2228 
L 1363 0 
L 728 0 
L 728 4666 
z
" transform="scale(0.015625)"/>
       </defs>
       <use xlink:href="#DejaVuSansMono-49"/>
       <use xlink:href="#DejaVuSansMono-49" x="60.205078"/>
       <use xlink:href="#DejaVuSansMono-2e" x="120.410156"/>
       <use xlink:href="#DejaVuSansMono-42" x="180.615234"/>
       <use xlink:href="#DejaVuSansMono-46" x="240.820312"/>
       <use xlink:href="#DejaVuSansMono-4f" x="301.025391"/>
      </g>
     </g>
    </g>
   </g>
   <g id="line2d_6">
    <path d="M 54 186.310569 
L 109.580727 186.243796 
L 114.794182 186.104309 
L 115.501091 186.038193 
L 116.119636 185.721342 
L 117.091636 185.128105 
L 117.445091 185.176241 
L 117.798545 185.493401 
L 118.240364 186.267588 
L 119.477455 188.75071 
L 119.830909 188.900358 
L 120.096 188.768739 
L 120.449455 188.306716 
L 121.333091 186.532962 
L 121.863273 185.743931 
L 122.305091 185.484903 
L 122.658545 185.522483 
L 123.277091 185.884351 
L 124.072364 186.336665 
L 124.690909 186.427036 
L 125.574545 186.26864 
L 127.253455 185.94241 
L 128.313818 186.005348 
L 130.257818 186.172442 
L 131.053091 186.028512 
L 131.76 185.675112 
L 132.820364 185.114652 
L 133.173818 185.162141 
L 133.527273 185.408602 
L 134.057455 186.113369 
L 135.206182 187.77643 
L 135.648 187.968456 
L 136.001455 187.885727 
L 136.531636 187.491286 
L 137.592 186.656609 
L 138.122182 186.526704 
L 138.829091 186.629929 
L 140.066182 186.871287 
L 140.596364 186.744627 
L 141.214909 186.335228 
L 142.893818 184.932766 
L 143.335636 184.95082 
L 143.777455 185.210387 
L 144.572727 186.030772 
L 145.279636 186.649869 
L 145.809818 186.828909 
L 146.34 186.76337 
L 147.135273 186.400024 
L 148.195636 185.952066 
L 148.814182 185.944831 
L 149.521091 186.184495 
L 150.581455 186.549893 
L 151.2 186.48879 
L 151.995273 186.136316 
L 152.967273 185.763351 
L 153.585818 185.761053 
L 154.469455 186.022024 
L 158.799273 187.654438 
L 159.506182 187.609883 
L 160.301455 187.321287 
L 161.803636 186.716643 
L 163.747636 186.178542 
L 164.366182 185.650603 
L 165.073091 184.717289 
L 166.310182 182.994684 
L 166.752 182.741917 
L 167.105455 182.772403 
L 167.547273 183.090399 
L 168.165818 183.916792 
L 170.463273 187.398302 
L 170.816727 187.44056 
L 171.081818 187.255351 
L 171.435273 186.711484 
L 172.672364 184.277544 
L 172.849091 184.326557 
L 173.114182 184.785663 
L 173.467636 186.185203 
L 173.909455 189.05639 
L 175.058182 197.077381 
L 175.323273 197.781295 
L 175.5 197.851631 
L 175.676727 197.610849 
L 175.941818 196.679351 
L 176.383636 193.926978 
L 177.797455 183.770678 
L 178.239273 182.126941 
L 178.681091 181.256329 
L 179.122909 180.8959 
L 179.564727 180.825501 
L 180.094909 180.975065 
L 180.625091 181.351911 
L 181.332 182.169358 
L 183.099273 184.360918 
L 184.071273 185.13654 
L 186.898909 186.807418 
L 187.429091 186.722326 
L 188.224364 186.568511 
L 188.577818 186.749226 
L 188.931273 187.195822 
L 189.373091 188.137523 
L 190.875273 191.873321 
L 191.140364 191.980947 
L 191.405455 191.770946 
L 191.670545 191.213269 
L 192.024 189.946325 
L 192.642545 186.675656 
L 193.437818 182.649299 
L 193.791273 181.891157 
L 193.968 181.886061 
L 194.144727 182.139548 
L 194.409818 182.998314 
L 194.851636 185.452235 
L 195.823636 191.398125 
L 196.088727 192.115078 
L 196.265455 192.225245 
L 196.442182 192.041489 
L 196.707273 191.212915 
L 197.149091 188.649672 
L 198.297818 181.023771 
L 198.651273 180.089499 
L 198.828 180.000669 
L 199.004727 180.142099 
L 199.269818 180.749472 
L 199.711636 182.486035 
L 200.683636 186.430818 
L 201.037091 187.11501 
L 201.302182 187.296791 
L 201.567273 187.234193 
L 201.920727 186.890884 
L 202.981091 185.667024 
L 203.334545 185.574355 
L 203.688 185.678751 
L 204.306545 186.16902 
L 205.190182 186.874458 
L 205.720364 187.025447 
L 206.250545 186.918492 
L 206.869091 186.515312 
L 208.017818 185.658917 
L 208.371273 185.670106 
L 208.724727 185.936369 
L 209.166545 186.646219 
L 210.580364 189.469923 
L 210.845455 189.493522 
L 211.110545 189.207973 
L 211.464 188.316541 
L 211.905818 186.469398 
L 213.231273 180.349861 
L 213.496364 179.990147 
L 213.673091 180.031819 
L 213.938182 180.509582 
L 214.291636 181.854848 
L 214.910182 185.403919 
L 215.705455 189.605285 
L 216.147273 190.803883 
L 216.412364 191.070643 
L 216.677455 191.039792 
L 217.030909 190.6385 
L 217.561091 189.531455 
L 220.212 183.138046 
L 220.830545 182.314339 
L 221.095636 182.207369 
L 221.360727 182.360727 
L 221.625818 182.865163 
L 221.979273 184.197105 
L 222.421091 186.95581 
L 223.923273 197.812855 
L 224.188364 198.226031 
L 224.365091 198.088517 
L 224.630182 197.289334 
L 224.983636 195.297626 
L 226.662545 184.075985 
L 227.192727 182.588764 
L 227.722909 181.74012 
L 228.253091 181.282512 
L 228.606545 181.231127 
L 228.96 181.395392 
L 229.843636 181.948329 
L 230.108727 181.789594 
L 230.373818 181.335745 
L 230.727273 180.232969 
L 231.257455 177.720141 
L 232.141091 173.562 
L 232.494545 172.89844 
L 232.671273 172.919265 
L 232.848 173.188365 
L 233.113091 174.066508 
L 233.466545 176.051641 
L 234.085091 181.141657 
L 236.205818 200.075285 
L 236.736 202.803113 
L 237.001091 203.405628 
L 237.177818 203.449209 
L 237.354545 203.19274 
L 237.619636 202.21 
L 237.973091 199.836048 
L 238.591636 193.568577 
L 239.475273 184.703245 
L 239.828727 182.77852 
L 240.093818 182.206064 
L 240.270545 182.236122 
L 240.447273 182.548212 
L 240.800727 183.808416 
L 241.596 186.961511 
L 241.861091 187.242664 
L 242.037818 187.096798 
L 242.302909 186.379919 
L 242.744727 184.228811 
L 243.363273 181.363538 
L 243.54 181.082576 
L 243.716727 181.20084 
L 243.893455 181.760556 
L 244.158545 183.484039 
L 244.600364 188.505928 
L 245.749091 203.51546 
L 246.014182 204.345712 
L 246.102545 204.233231 
L 246.279273 203.370104 
L 246.544364 200.482409 
L 246.986182 192.000465 
L 248.046545 168.91605 
L 248.311636 167.007853 
L 248.4 167.008628 
L 248.576727 167.872264 
L 248.841818 171.523499 
L 249.283636 182.73165 
L 250.255636 209.755634 
L 250.520727 212.078805 
L 250.609091 212.019456 
L 250.785818 210.707043 
L 251.050909 205.583788 
L 251.404364 193.68268 
L 252.818182 138.05428 
L 253.171636 133.504657 
L 253.348364 133.035959 
L 253.436727 133.174653 
L 253.613455 134.119423 
L 253.966909 137.996445 
L 254.585455 148.332574 
L 255.204 162.19554 
L 255.910909 183.924759 
L 256.971273 217.529123 
L 257.501455 227.946628 
L 257.943273 232.753849 
L 258.208364 234.054023 
L 258.385091 234.236157 
L 258.561818 233.883286 
L 258.826909 232.302556 
L 259.180364 228.450764 
L 260.682545 209.163953 
L 261.742909 200.42014 
L 262.361455 192.209254 
L 263.775273 171.953055 
L 264.217091 169.055938 
L 264.570545 167.998644 
L 265.277455 166.452498 
L 265.719273 164.714995 
L 266.691273 160.635363 
L 266.956364 160.389614 
L 267.133091 160.588404 
L 267.398182 161.481971 
L 267.751636 163.651253 
L 269.695636 177.799843 
L 270.490909 182.207717 
L 271.286182 188.446323 
L 271.993091 193.291585 
L 272.434909 194.933166 
L 272.788364 195.486386 
L 273.141818 195.636198 
L 273.672 195.791293 
L 274.025455 196.136278 
L 275.350909 197.845179 
L 275.616 197.762536 
L 275.969455 197.37542 
L 276.676364 196.130851 
L 277.383273 194.526133 
L 278.001818 192.429611 
L 279.062182 188.51501 
L 279.415636 187.936987 
L 279.680727 187.811398 
L 280.034182 187.917497 
L 280.652727 188.14805 
L 280.917818 188.009226 
L 281.271273 187.474023 
L 281.801455 186.041836 
L 282.685091 183.511327 
L 283.038545 183.001392 
L 283.303636 182.892074 
L 283.568727 182.989835 
L 284.010545 183.454896 
L 284.629091 184.061789 
L 284.894182 184.031088 
L 285.159273 183.716507 
L 285.512727 182.832291 
L 286.219636 180.111736 
L 286.749818 178.478869 
L 287.014909 178.169548 
L 287.191636 178.205308 
L 287.456727 178.603467 
L 287.810182 179.65828 
L 288.782182 182.965807 
L 289.135636 183.432484 
L 289.400727 183.460449 
L 289.842545 183.164345 
L 290.284364 182.940928 
L 290.549455 183.051344 
L 290.814545 183.410771 
L 291.256364 184.492962 
L 292.228364 187.091587 
L 292.581818 187.524622 
L 293.023636 187.701208 
L 293.553818 187.901122 
L 293.907273 188.331514 
L 294.349091 189.287705 
L 295.321091 191.559458 
L 295.674545 191.834961 
L 295.939636 191.768525 
L 296.293091 191.388228 
L 297.530182 189.686217 
L 298.060364 189.466018 
L 298.678909 189.25221 
L 299.120727 188.818493 
L 299.650909 187.916791 
L 300.711273 186.017226 
L 301.153091 185.649969 
L 301.683273 185.533163 
L 302.743636 185.404841 
L 304.157455 184.956861 
L 304.864364 185.134003 
L 305.482909 185.227895 
L 306.101455 185.054147 
L 307.161818 184.679167 
L 307.868727 184.718274 
L 310.696364 185.236645 
L 313.700727 186.623434 
L 315.379636 187.808277 
L 316.174909 188.518133 
L 316.881818 189.078612 
L 317.235273 189.063504 
L 317.588727 188.740937 
L 318.030545 187.940195 
L 319.090909 185.840927 
L 319.444364 185.619979 
L 319.797818 185.706886 
L 320.416364 186.241478 
L 320.858182 186.509547 
L 321.211636 186.468754 
L 321.565091 186.187025 
L 322.625455 185.096198 
L 322.978909 185.070877 
L 323.509091 185.325924 
L 324.127636 185.578948 
L 324.746182 185.535969 
L 325.276364 185.585093 
L 325.718182 185.913525 
L 326.955273 187.177087 
L 327.308727 187.125565 
L 327.750545 186.734527 
L 328.634182 185.853115 
L 328.987636 185.839852 
L 329.341091 186.06155 
L 330.313091 186.836141 
L 330.666545 186.825807 
L 331.196727 186.527974 
L 331.903636 186.155167 
L 332.345455 186.193773 
L 333.759273 186.646263 
L 334.289455 186.392788 
L 335.084727 185.999735 
L 335.703273 185.983801 
L 338.177455 186.274712 
L 339.679636 186.074258 
L 340.386545 186.343971 
L 341.270182 186.688732 
L 341.977091 186.691798 
L 344.097818 186.456189 
L 345.246545 186.265806 
L 345.511636 186.211893 
L 345.511636 186.211893 
" clip-path="url(#p80a3ab109a)" style="fill: none; stroke: #000000; stroke-width: 0.75; stroke-linecap: square"/>
   </g>
   <g id="line2d_7">
    <path d="M 54 186.313624 
L 111.966545 186.188722 
L 114.794182 186.206565 
L 115.677818 186.160715 
L 116.561455 185.833561 
L 117.268364 185.6061 
L 117.798545 185.716188 
L 118.240364 186.100601 
L 118.858909 187.006224 
L 119.742545 188.284932 
L 120.096 188.466105 
L 120.449455 188.472674 
L 120.891273 188.1237 
L 122.746909 186.026193 
L 123.188727 185.994844 
L 123.895636 186.135466 
L 124.690909 186.243295 
L 125.397818 186.103248 
L 127.076727 185.640378 
L 127.960364 185.677492 
L 130.081091 185.873789 
L 130.964727 185.688866 
L 132.997091 185.04606 
L 133.527273 185.305814 
L 134.145818 185.95009 
L 135.471273 187.471391 
L 136.001455 187.650368 
L 136.62 187.512896 
L 138.122182 186.79047 
L 138.829091 186.794017 
L 140.596364 187.010308 
L 141.126545 186.821404 
L 141.921818 186.29224 
L 142.893818 185.696447 
L 143.424 185.620384 
L 144.042545 185.80516 
L 145.014545 186.452443 
L 145.809818 186.865295 
L 146.516727 186.941561 
L 147.400364 186.783489 
L 148.814182 186.523324 
L 150.581455 186.25807 
L 152.083636 185.68617 
L 153.055636 185.452698 
L 154.027636 185.46326 
L 155.264727 185.708154 
L 156.678545 186.217815 
L 158.445818 186.835909 
L 160.478182 187.218901 
L 161.538545 187.238786 
L 162.422182 187.032922 
L 163.482545 186.545444 
L 164.366182 185.898781 
L 165.073091 185.082983 
L 165.868364 183.766125 
L 166.928727 181.988657 
L 167.193818 181.848815 
L 167.635636 181.867972 
L 167.989091 182.406146 
L 168.342545 183.359489 
L 168.872727 185.370888 
L 169.844727 189.085732 
L 170.109818 189.56957 
L 170.64 189.490532 
L 170.905091 188.799307 
L 171.346909 187.147444 
L 172.230545 183.794956 
L 172.584 183.642191 
L 172.760727 183.652962 
L 172.937455 184.096225 
L 173.379273 186.24881 
L 174.174545 192.404356 
L 174.793091 196.686248 
L 175.234909 198.061675 
L 175.411636 198.071592 
L 175.676727 197.642804 
L 175.853455 197.151538 
L 176.295273 194.701312 
L 177.885818 184.547588 
L 178.327636 183.275234 
L 178.769455 182.677481 
L 179.388 182.367519 
L 180.006545 182.046325 
L 181.597091 180.997345 
L 182.038909 181.070447 
L 182.922545 181.739696 
L 183.717818 182.279981 
L 184.866545 182.966257 
L 185.396727 183.601292 
L 186.192 185.017768 
L 187.429091 187.227232 
L 188.577818 188.656766 
L 190.521818 190.93311 
L 190.963636 190.781551 
L 191.228727 190.356488 
L 191.582182 189.466282 
L 192.200727 187.103459 
L 193.084364 183.796117 
L 193.437818 183.315199 
L 193.614545 183.370733 
L 193.879636 183.896216 
L 194.144727 184.842597 
L 194.674909 188.033204 
L 195.558545 193.705551 
L 195.912 194.560661 
L 196.088727 194.710948 
L 196.265455 194.462015 
L 196.618909 193.080146 
L 197.060727 189.905004 
L 198.121091 181.498381 
L 198.474545 180.132779 
L 198.651273 179.788718 
L 198.828 179.814655 
L 199.181455 180.212658 
L 199.534909 181.326069 
L 200.506909 184.293195 
L 200.860364 184.726161 
L 201.478909 184.681585 
L 202.009091 184.440427 
L 202.362545 184.484723 
L 202.804364 184.883458 
L 203.688 186.387207 
L 204.218182 187.102623 
L 204.66 187.344906 
L 205.101818 187.297113 
L 205.632 187.042896 
L 206.869091 186.453512 
L 207.841091 186.232753 
L 208.459636 186.322648 
L 208.901455 186.65975 
L 209.431636 187.414347 
L 210.580364 189.175918 
L 210.845455 189.262389 
L 211.110545 189.03635 
L 211.464 188.365598 
L 211.994182 186.498457 
L 212.966182 182.794668 
L 213.319636 182.278511 
L 213.496364 182.270239 
L 213.761455 182.659859 
L 214.026545 183.359748 
L 214.645091 186.250333 
L 215.528727 190.309943 
L 215.970545 191.290028 
L 216.500727 191.321963 
L 216.765818 190.961274 
L 217.561091 189.36049 
L 218.621455 187.340402 
L 220.653818 184.024825 
L 221.184 183.57481 
L 221.714182 183.477204 
L 222.156 183.649251 
L 222.686182 184.118767 
L 224.453455 186.004963 
L 224.806909 186.00563 
L 225.160364 185.710884 
L 225.602182 184.950793 
L 226.397455 182.93714 
L 227.104364 181.388193 
L 227.546182 180.908078 
L 227.811273 180.853807 
L 228.341455 181.008568 
L 230.197091 182.563457 
L 230.638909 183.213814 
L 231.169091 184.419314 
L 231.964364 186.921537 
L 232.936364 189.721359 
L 233.554909 190.827634 
L 234.615273 192.107933 
L 236.117455 193.797249 
L 236.470909 193.928796 
L 237.001091 193.881262 
L 237.531273 193.443029 
L 238.238182 192.455937 
L 239.740364 190.155916 
L 240.447273 189.533867 
L 241.596 188.658832 
L 242.302909 187.727118 
L 243.54 185.980125 
L 244.070182 185.617343 
L 245.484 184.967342 
L 245.925818 184.318651 
L 246.986182 182.608592 
L 247.251273 182.551506 
L 247.516364 182.928895 
L 247.781455 183.61313 
L 248.311636 186.158919 
L 249.018545 189.806025 
L 249.283636 190.481257 
L 249.372 190.520217 
L 249.548727 190.15492 
L 249.813818 188.916432 
L 250.078909 186.203064 
L 250.520727 178.871008 
L 251.227636 161.631477 
L 252.022909 142.401715 
L 252.464727 136.14556 
L 252.729818 134.45579 
L 252.818182 134.306756 
L 252.906545 134.436896 
L 253.171636 135.925868 
L 253.436727 138.720881 
L 253.966909 149.065327 
L 254.762182 171.025217 
L 256.706182 228.00019 
L 257.324727 239.664765 
L 257.766545 244.462147 
L 258.031636 245.650909 
L 258.385091 245.48459 
L 258.473455 245.387507 
L 258.650182 244.458595 
L 259.092 240.126805 
L 259.710545 230.914739 
L 260.859273 209.505128 
L 262.273091 184.455955 
L 263.245091 170.878779 
L 263.952 163.79115 
L 264.482182 160.354168 
L 264.924 158.715895 
L 265.277455 158.118122 
L 265.542545 158.103935 
L 265.896 158.318399 
L 266.249455 158.982482 
L 266.779636 160.43117 
L 267.486545 163.098564 
L 268.281818 167.05373 
L 269.430545 174.100521 
L 270.844364 182.47219 
L 271.904727 187.478576 
L 273.053455 191.840244 
L 274.025455 194.666231 
L 274.732364 196.115486 
L 275.262545 196.807251 
L 275.792727 197.120553 
L 276.411273 197.064076 
L 277.029818 196.582325 
L 277.736727 195.724909 
L 278.885455 193.943473 
L 279.945818 191.893863 
L 282.066545 187.618204 
L 283.657091 185.192196 
L 285.159273 183.162984 
L 286.042909 182.339447 
L 286.749818 181.992065 
L 287.28 181.939721 
L 287.898545 182.033738 
L 288.870545 182.440808 
L 292.228364 184.22541 
L 293.553818 185.139897 
L 294.879273 186.355611 
L 297.706909 189.096444 
L 298.148727 189.094565 
L 298.502182 188.966904 
L 299.120727 188.414602 
L 300.534545 187.015778 
L 301.064727 186.816406 
L 301.683273 186.806007 
L 304.245818 186.914902 
L 305.836364 186.611659 
L 308.133818 186.146043 
L 310.077818 186.041803 
L 311.933455 185.910976 
L 313.170545 185.551883 
L 314.142545 185.345382 
L 314.761091 185.410708 
L 315.468 185.718894 
L 317.412 186.72098 
L 318.118909 186.698532 
L 318.825818 186.437265 
L 319.974545 186.000632 
L 320.681455 186.000237 
L 322.978909 186.277489 
L 324.216 186.226342 
L 324.922909 186.430497 
L 326.778545 187.155634 
L 327.485455 187.09434 
L 328.457455 186.682237 
L 329.694545 186.151261 
L 330.489818 186.04015 
L 332.522182 186.091636 
L 334.024364 186.243086 
L 335.261455 186.34924 
L 338.089091 186.290744 
L 339.679636 186.514096 
L 342.507273 186.476394 
L 345.511636 186.066825 
L 345.511636 186.066825 
" clip-path="url(#p80a3ab109a)" style="fill: none; stroke: #ff0000; stroke-width: 0.75; stroke-linecap: square"/>
   </g>
   <g id="line2d_8">
    <path d="M 54 133.034123 
L 115.236 132.94326 
L 115.766182 132.615156 
L 117.356727 131.360954 
L 117.710182 131.534385 
L 118.063636 131.999774 
L 118.682182 133.329555 
L 119.477455 134.974942 
L 119.830909 135.315863 
L 120.096 135.351607 
L 120.449455 135.121882 
L 120.891273 134.499327 
L 122.04 132.739653 
L 122.481818 132.486279 
L 122.923636 132.505211 
L 123.718909 132.869129 
L 124.514182 133.142143 
L 125.309455 133.146123 
L 126.723273 132.869931 
L 127.960364 132.690113 
L 128.755636 132.826659 
L 130.257818 133.200735 
L 130.788 133.062752 
L 131.494909 132.594334 
L 132.466909 131.934177 
L 132.908727 131.877769 
L 133.350545 132.048472 
L 133.969091 132.602007 
L 135.117818 133.714681 
L 135.648 133.901752 
L 136.178182 133.850717 
L 137.945455 133.473519 
L 140.066182 133.582402 
L 140.773091 133.196109 
L 142.098545 132.383409 
L 142.628727 132.349265 
L 143.247273 132.541256 
L 144.572727 133.033604 
L 145.368 133.029026 
L 147.842182 132.802462 
L 149.256 133.012956 
L 150.139636 133.034842 
L 152.525455 132.831782 
L 154.381091 133.221961 
L 157.120364 133.454481 
L 158.976 133.685212 
L 161.185091 133.669299 
L 162.157091 133.420155 
L 163.394182 132.875449 
L 164.189455 132.310216 
L 166.045091 130.80022 
L 166.752 130.664829 
L 167.989091 130.493324 
L 168.519273 130.457723 
L 168.872727 130.629266 
L 169.226182 131.067979 
L 169.668 132.052996 
L 170.374909 134.372888 
L 171.170182 136.870785 
L 171.700364 137.853652 
L 172.142182 138.227887 
L 172.584 138.30186 
L 173.025818 138.115066 
L 173.379273 137.73306 
L 173.821091 136.879846 
L 174.351273 135.305083 
L 175.5 131.685983 
L 175.853455 131.170739 
L 176.118545 131.052718 
L 176.472 131.190181 
L 177.532364 131.967313 
L 177.797455 131.881573 
L 178.150909 131.514328 
L 178.946182 130.153461 
L 179.476364 129.507136 
L 179.829818 129.410353 
L 180.183273 129.603388 
L 180.625091 130.188986 
L 181.420364 131.765147 
L 182.392364 133.615755 
L 182.922545 134.240435 
L 183.364364 134.451044 
L 183.806182 134.368465 
L 184.336364 133.974093 
L 185.396727 133.094778 
L 185.926909 132.96468 
L 186.633818 133.075063 
L 187.517455 133.185644 
L 188.312727 133.020562 
L 189.284727 132.838108 
L 189.903273 132.961823 
L 190.433455 133.279383 
L 191.052 133.946446 
L 191.758909 135.091658 
L 192.642545 136.509935 
L 192.996 136.745571 
L 193.261091 136.701584 
L 193.526182 136.450211 
L 193.879636 135.805708 
L 194.498182 134.105293 
L 195.293455 132.04509 
L 195.735273 131.478445 
L 196.088727 131.36205 
L 196.618909 131.504599 
L 197.149091 131.572007 
L 197.502545 131.368647 
L 197.944364 130.784969 
L 199.004727 129.15345 
L 199.269818 129.075581 
L 199.534909 129.21072 
L 199.888364 129.707246 
L 200.506909 131.11716 
L 201.390545 133.029901 
L 201.920727 133.704481 
L 202.627636 134.205864 
L 203.688 134.919271 
L 205.101818 136.011051 
L 205.543636 136.034264 
L 205.985455 135.80113 
L 206.515636 135.225987 
L 207.487636 133.730078 
L 208.724727 131.454083 
L 210.050182 128.983522 
L 210.492 128.661516 
L 210.757091 128.686998 
L 211.110545 128.989181 
L 211.552364 129.768238 
L 212.170909 131.410657 
L 213.496364 135.109537 
L 214.026545 135.986203 
L 214.556727 136.445456 
L 214.998545 136.572526 
L 215.440364 136.496582 
L 215.882182 136.213773 
L 216.412364 135.583731 
L 217.119273 134.30184 
L 218.444727 131.72669 
L 218.886545 131.342129 
L 219.24 131.351035 
L 219.593455 131.662113 
L 220.035273 132.422442 
L 221.184 134.655072 
L 221.449091 134.791979 
L 221.714182 134.679015 
L 221.979273 134.310478 
L 222.421091 133.212019 
L 223.834909 129.078716 
L 224.188364 128.668165 
L 224.453455 128.621268 
L 224.718545 128.809452 
L 225.072 129.44539 
L 225.513818 130.861522 
L 226.132364 133.787783 
L 227.104364 138.341105 
L 227.457818 139.120462 
L 227.722909 139.237131 
L 227.899636 139.098179 
L 228.164727 138.593925 
L 228.606545 137.182983 
L 229.755273 133.274664 
L 230.285455 132.321506 
L 230.992364 131.168506 
L 231.434182 129.876821 
L 232.052727 127.117495 
L 232.848 123.693823 
L 233.113091 123.190048 
L 233.289818 123.143492 
L 233.466545 123.34259 
L 233.731636 124.133602 
L 234.085091 126.060963 
L 234.615273 130.391189 
L 235.852364 141.105975 
L 236.294182 143.222258 
L 236.647636 143.935461 
L 236.824364 143.948329 
L 237.001091 143.734838 
L 237.266182 142.971733 
L 237.619636 141.106963 
L 238.061455 137.405221 
L 238.768364 128.955585 
L 239.563636 119.644801 
L 239.917091 117.476117 
L 240.093818 117.133013 
L 240.182182 117.171208 
L 240.358909 117.652217 
L 240.624 119.410083 
L 240.977455 123.448964 
L 241.861091 137.460456 
L 242.479636 145.18846 
L 242.921455 148.178462 
L 243.363273 149.666234 
L 243.893455 151.277125 
L 244.335273 153.643996 
L 245.218909 159.044764 
L 245.395636 159.183739 
L 245.572364 158.677914 
L 245.837455 156.408891 
L 246.190909 150.279495 
L 246.721091 135.216512 
L 247.693091 105.350652 
L 248.046545 100.016269 
L 248.223273 99.039894 
L 248.311636 99.003345 
L 248.4 99.1872 
L 248.576727 100.29418 
L 248.930182 104.629582 
L 249.725455 115.331781 
L 249.990545 116.644281 
L 250.078909 116.719693 
L 250.167273 116.639683 
L 250.344 116.034666 
L 250.697455 113.640054 
L 251.139273 110.755471 
L 251.316 110.376277 
L 251.404364 110.445205 
L 251.581091 111.152853 
L 251.846182 113.737591 
L 252.288 121.532125 
L 253.348364 142.26371 
L 253.701818 145.30638 
L 253.966909 146.18082 
L 254.143636 146.321572 
L 254.673818 146.324203 
L 254.850545 146.620475 
L 255.115636 147.573853 
L 255.557455 150.254982 
L 256.087636 153.281177 
L 256.352727 153.778625 
L 256.529455 153.575187 
L 256.794545 152.47849 
L 257.236364 149.191514 
L 257.854909 144.745249 
L 258.208364 143.689388 
L 258.385091 143.6157 
L 258.650182 143.856367 
L 259.092 144.285557 
L 259.268727 144.138863 
L 259.533818 143.323313 
L 259.887273 141.038753 
L 260.505818 134.910622 
L 261.124364 129.364135 
L 261.566182 127.135515 
L 261.919636 126.279522 
L 263.245091 124.080991 
L 263.863636 122.842937 
L 264.128727 122.628496 
L 264.393818 122.669143 
L 264.747273 123.04801 
L 265.984364 124.752139 
L 266.868 125.644144 
L 267.486545 126.648717 
L 268.193455 128.245066 
L 268.900364 130.459371 
L 269.960727 133.816955 
L 270.667636 135.254503 
L 271.551273 136.572277 
L 271.993091 136.920993 
L 272.434909 136.999137 
L 273.141818 137.061578 
L 273.672 137.411272 
L 274.202182 137.744369 
L 274.555636 137.734167 
L 275.704364 137.330222 
L 276.146182 137.652264 
L 276.676364 137.969269 
L 276.941455 137.888867 
L 277.294909 137.479325 
L 278.090182 135.955337 
L 278.797091 134.870596 
L 280.122545 133.182485 
L 280.652727 131.922402 
L 281.536364 129.813664 
L 281.889818 129.516199 
L 282.243273 129.566607 
L 284.452364 130.642528 
L 284.982545 130.768596 
L 285.512727 130.657291 
L 286.484727 130.36901 
L 286.926545 130.478477 
L 287.368364 130.813419 
L 287.898545 131.526242 
L 289.400727 133.957743 
L 289.665818 134.001175 
L 290.019273 133.799647 
L 291.168 132.79146 
L 291.609818 132.811021 
L 292.14 133.110269 
L 292.846909 133.801024 
L 294.172364 135.167337 
L 294.702545 135.361822 
L 295.144364 135.272687 
L 295.939636 134.784787 
L 297.972 133.419192 
L 298.767273 132.712823 
L 299.209091 132.608233 
L 299.739273 132.753205 
L 300.446182 132.949068 
L 301.153091 132.837463 
L 301.948364 132.789943 
L 302.920364 132.748235 
L 303.715636 132.426743 
L 304.599273 132.097798 
L 305.217818 132.155673 
L 306.189818 132.293472 
L 307.515273 132.322676 
L 308.133818 132.666496 
L 309.547636 133.59679 
L 310.166182 133.68629 
L 311.403273 133.576013 
L 312.198545 133.255448 
L 312.993818 132.996945 
L 313.789091 132.993134 
L 314.761091 133.247497 
L 315.468 133.347145 
L 316.086545 133.221684 
L 317.412 132.863107 
L 319.621091 132.773605 
L 320.504727 132.826748 
L 322.006909 133.164624 
L 322.537091 132.91247 
L 323.597455 132.336205 
L 324.039273 132.444002 
L 324.569455 132.875074 
L 325.453091 133.597331 
L 325.894909 133.703777 
L 326.425091 133.600217 
L 327.927273 133.169969 
L 328.899273 133.113195 
L 330.048 133.322692 
L 331.373455 133.531522 
L 332.257091 133.41957 
L 333.317455 132.987057 
L 334.112727 132.791824 
L 338.089091 132.385374 
L 338.884364 132.588768 
L 340.563273 133.126015 
L 341.623636 133.145825 
L 342.949091 133.187193 
L 343.921091 133.451825 
L 345.423273 133.858618 
L 345.511636 133.864027 
L 345.511636 133.864027 
" clip-path="url(#p80a3ab109a)" style="fill: none; stroke: #000000; stroke-width: 0.75; stroke-linecap: square"/>
   </g>
   <g id="line2d_9">
    <path d="M 54 133.036088 
L 114.529091 133.13669 
L 115.324364 133.203362 
L 115.854545 132.996729 
L 116.296364 132.559175 
L 117.091636 131.356541 
L 117.621818 130.710084 
L 117.886909 130.683199 
L 118.240364 130.794079 
L 118.593818 131.387193 
L 119.035636 132.54484 
L 120.184364 135.730075 
L 120.449455 135.972389 
L 120.802909 136.059772 
L 121.068 135.813599 
L 121.509818 135.090652 
L 122.570182 133.157445 
L 123.012 132.782487 
L 123.453818 132.692368 
L 124.249091 132.909777 
L 125.132727 133.083136 
L 126.281455 132.9532 
L 128.225455 132.730686 
L 129.374182 132.808642 
L 130.876364 132.977296 
L 131.494909 132.718726 
L 132.201818 132.12633 
L 132.997091 131.4691 
L 133.350545 131.352272 
L 133.880727 131.479196 
L 134.410909 131.996905 
L 135.913091 133.758397 
L 136.443273 133.941655 
L 137.150182 133.869225 
L 138.387273 133.665985 
L 139.094182 133.762784 
L 140.066182 133.87797 
L 140.684727 133.736445 
L 141.391636 133.31563 
L 142.540364 132.627611 
L 142.982182 132.564573 
L 143.600727 132.676414 
L 145.456364 133.302048 
L 146.693455 133.19201 
L 148.195636 133.072355 
L 150.846545 133.020014 
L 153.762545 132.538159 
L 155.088 132.661076 
L 156.413455 133.023547 
L 157.915636 133.411717 
L 160.389818 133.660145 
L 161.538545 133.668676 
L 162.864 133.423062 
L 164.189455 133.010438 
L 164.808 132.598849 
L 165.426545 131.916809 
L 166.310182 130.516716 
L 167.193818 129.205625 
L 167.547273 128.930524 
L 168.077455 128.899948 
L 168.519273 129.283455 
L 169.049455 130.129456 
L 169.933091 132.07646 
L 170.816727 134.557328 
L 171.788727 138.111729 
L 172.495636 140.398307 
L 172.760727 140.771554 
L 173.202545 140.821048 
L 173.379273 140.510349 
L 173.821091 139.095677 
L 175.323273 133.023824 
L 175.676727 132.591809 
L 175.941818 132.615387 
L 176.383636 132.900866 
L 176.825455 133.198772 
L 177.178909 133.20539 
L 177.532364 132.851695 
L 177.974182 131.973394 
L 179.034545 129.688598 
L 179.299636 129.474118 
L 179.741455 129.409174 
L 180.183273 129.763143 
L 181.862182 131.531903 
L 182.657455 131.856603 
L 184.778182 132.405635 
L 185.926909 132.433689 
L 187.252364 132.453451 
L 188.136 132.743573 
L 189.549818 133.289453 
L 190.433455 133.207439 
L 191.228727 133.164471 
L 191.582182 133.316668 
L 192.024 133.784656 
L 192.554182 134.739715 
L 194.233091 138.068606 
L 194.498182 138.123352 
L 194.94 137.993219 
L 195.381818 137.272751 
L 195.912 135.841866 
L 196.795636 132.596032 
L 197.767636 129.207635 
L 198.297818 128.151627 
L 198.651273 127.871969 
L 198.916364 127.935987 
L 199.269818 128.236124 
L 199.8 129.212555 
L 201.213818 132.092153 
L 201.832364 132.753628 
L 202.539273 133.146036 
L 203.953091 133.902313 
L 205.101818 134.58341 
L 205.720364 134.689241 
L 206.515636 134.543726 
L 207.752727 134.267919 
L 209.785091 134.181466 
L 210.403636 133.666232 
L 212.436 131.614855 
L 212.877818 131.633771 
L 213.231273 131.778675 
L 213.938182 132.424863 
L 215.440364 134.009335 
L 215.970545 134.214393 
L 216.500727 134.113724 
L 217.030909 133.715574 
L 218.533091 132.321836 
L 219.151636 132.212954 
L 220.653818 132.241781 
L 221.272364 131.863101 
L 222.509455 130.989689 
L 223.128 130.954531 
L 223.834909 131.248553 
L 224.983636 131.749882 
L 226.927636 132.292143 
L 229.313455 133.7563 
L 230.727273 133.948092 
L 231.787636 133.957835 
L 233.378182 133.776103 
L 233.82 134.015429 
L 234.261818 134.49401 
L 234.880364 135.525899 
L 236.205818 137.859848 
L 236.470909 138.003113 
L 236.912727 137.992935 
L 237.266182 137.47418 
L 237.619636 136.479505 
L 238.061455 134.54152 
L 238.68 130.670688 
L 239.652 124.259973 
L 239.917091 123.53229 
L 240.270545 123.277365 
L 240.447273 123.761083 
L 240.800727 126.060916 
L 241.242545 131.354033 
L 242.037818 145.099462 
L 242.744727 155.843495 
L 243.098182 158.042705 
L 243.274909 158.470902 
L 243.363273 158.387554 
L 243.54 157.572044 
L 243.893455 154.515017 
L 244.512 144.538629 
L 245.572364 127.016012 
L 246.102545 121.776487 
L 246.809455 117.401444 
L 247.516364 112.81373 
L 248.753455 104.326059 
L 248.930182 103.982771 
L 249.195273 104.169105 
L 249.372 104.438121 
L 249.548727 105.214805 
L 249.990545 108.628802 
L 250.874182 118.397366 
L 252.641455 137.902969 
L 253.613455 147.21407 
L 254.232 151.24078 
L 254.762182 153.299576 
L 255.204 154.206923 
L 255.469091 154.431939 
L 255.910909 154.486479 
L 256.176 154.232841 
L 256.529455 153.627533 
L 256.971273 152.36053 
L 257.589818 149.779962 
L 258.826909 143.338654 
L 260.859273 133.198958 
L 262.184727 127.483013 
L 263.068364 124.551738 
L 263.775273 122.92056 
L 264.305455 122.187165 
L 264.658909 121.980686 
L 265.100727 121.955157 
L 265.630909 122.266905 
L 266.426182 123.139667 
L 267.309818 124.440124 
L 268.105091 126.011494 
L 270.844364 132.05169 
L 272.611636 134.882466 
L 273.848727 136.925813 
L 274.555636 137.664177 
L 275.174182 138.014132 
L 275.881091 138.161153 
L 276.853091 138.112332 
L 277.736727 137.829619 
L 278.532 137.325476 
L 279.592364 136.339013 
L 281.006182 134.722076 
L 282.154909 133.012414 
L 283.126909 131.68106 
L 283.657091 131.328848 
L 284.098909 131.279272 
L 284.717455 131.521973 
L 285.512727 131.844933 
L 285.954545 131.822351 
L 286.484727 131.53279 
L 287.986909 130.464521 
L 288.517091 130.477168 
L 289.224 130.872446 
L 290.902909 131.964102 
L 292.405091 132.497127 
L 295.851273 133.528395 
L 296.646545 133.47118 
L 298.502182 133.129317 
L 299.297455 133.357118 
L 300.622909 133.841873 
L 301.329818 133.851608 
L 302.478545 133.618109 
L 304.069091 133.397148 
L 305.836364 133.328485 
L 308.398909 133.407243 
L 310.431273 133.218185 
L 311.314909 132.853411 
L 312.552 132.338785 
L 313.347273 132.312846 
L 314.319273 132.524253 
L 316.528364 133.003942 
L 317.500364 133.017858 
L 318.737455 132.740637 
L 319.886182 132.539942 
L 321.388364 132.611107 
L 323.774182 132.973737 
L 325.099636 133.444591 
L 326.071636 133.69239 
L 326.866909 133.630134 
L 328.987636 133.222466 
L 331.196727 133.198467 
L 332.257091 133.147903 
L 334.642909 133.328291 
L 335.614909 132.99281 
L 336.675273 132.688263 
L 337.647273 132.674071 
L 340.121455 132.748027 
L 341.712 132.755726 
L 343.302545 133.050911 
L 344.362909 133.150055 
L 345.334909 133.002933 
L 345.511636 132.959516 
L 345.511636 132.959516 
" clip-path="url(#p80a3ab109a)" style="fill: none; stroke: #ff0000; stroke-width: 0.75; stroke-linecap: square"/>
   </g>
   <g id="line2d_10">
    <path d="M 54 79.755466 
L 122.481818 79.86868 
L 127.430182 79.818805 
L 129.904364 79.631472 
L 130.964727 79.247902 
L 132.025091 78.88415 
L 132.555273 78.908578 
L 133.173818 79.186542 
L 135.206182 80.444974 
L 135.824727 80.422328 
L 136.885091 80.077921 
L 137.857091 79.844803 
L 138.917455 79.844066 
L 140.684727 79.86151 
L 143.865818 79.702352 
L 148.725818 79.839558 
L 150.316364 79.884068 
L 152.172 79.89663 
L 153.850909 80.047555 
L 154.381091 79.826781 
L 154.999636 79.310318 
L 156.236727 78.167471 
L 156.678545 78.098494 
L 157.032 78.251449 
L 157.473818 78.678062 
L 159.329455 80.834062 
L 159.771273 80.922466 
L 160.389818 80.788681 
L 161.626909 80.461316 
L 163.924364 80.281736 
L 165.426545 79.793442 
L 166.398545 79.827255 
L 167.105455 79.779169 
L 167.635636 79.52741 
L 168.342545 78.883025 
L 169.402909 77.895388 
L 169.844727 77.757161 
L 170.286545 77.860329 
L 170.816727 78.268773 
L 172.937455 80.331677 
L 173.732727 80.579403 
L 176.295273 80.972819 
L 177.090545 80.811892 
L 178.150909 80.312878 
L 179.388 79.77237 
L 180.448364 79.577193 
L 182.038909 79.293791 
L 183.452727 79.022249 
L 184.336364 79.126863 
L 186.633818 79.575519 
L 189.638182 79.583627 
L 190.345091 79.258248 
L 191.582182 78.640651 
L 192.024 78.665909 
L 192.465818 78.891186 
L 193.084364 79.48534 
L 194.409818 80.87832 
L 195.028364 81.17742 
L 195.735273 81.234211 
L 197.237455 81.260978 
L 198.828 81.472551 
L 199.623273 81.2647 
L 200.506909 80.794245 
L 201.213818 80.161687 
L 201.920727 79.16154 
L 203.246182 77.096825 
L 203.688 76.838977 
L 204.041455 76.885355 
L 204.483273 77.210138 
L 205.720364 78.360935 
L 206.073818 78.388081 
L 206.427273 78.21694 
L 207.045818 77.593715 
L 207.752727 76.945882 
L 208.106182 76.872816 
L 208.459636 77.039765 
L 208.813091 77.460369 
L 209.343273 78.526473 
L 210.138545 80.798817 
L 211.022182 83.254422 
L 211.464 83.969431 
L 211.817455 84.177282 
L 212.170909 84.068837 
L 212.612727 83.589706 
L 214.733455 80.707461 
L 216.412364 79.491107 
L 216.942545 79.293382 
L 217.472727 79.345099 
L 218.268 79.733757 
L 218.974909 79.988424 
L 219.505091 79.966722 
L 220.123636 79.722192 
L 220.918909 79.15246 
L 223.481455 77.047543 
L 224.011636 76.948961 
L 224.453455 77.066168 
L 224.983636 77.472345 
L 225.602182 78.27338 
L 226.662545 80.121248 
L 227.811273 82.03123 
L 228.518182 82.78697 
L 229.048364 83.074727 
L 229.578545 83.131573 
L 230.108727 82.963213 
L 230.638909 82.549144 
L 231.169091 81.853503 
L 231.787636 80.661163 
L 232.582909 78.602276 
L 234.526909 73.274157 
L 234.880364 72.868796 
L 235.145455 72.819639 
L 235.410545 73.021085 
L 235.764 73.719532 
L 236.205818 75.300497 
L 236.736 78.12268 
L 238.591636 89.032635 
L 238.945091 89.852975 
L 239.210182 90.013325 
L 239.386909 89.905312 
L 239.652 89.421456 
L 240.005455 88.237966 
L 240.624 85.101236 
L 241.949455 77.983084 
L 242.568 75.946883 
L 243.009818 75.127619 
L 243.363273 74.839271 
L 243.628364 74.828692 
L 243.981818 75.064996 
L 244.423636 75.686181 
L 245.837455 77.977727 
L 246.279273 78.170015 
L 246.721091 78.074574 
L 247.781455 77.661081 
L 248.134909 77.761252 
L 248.576727 78.134314 
L 250.344 80.068858 
L 250.785818 80.109379 
L 251.492727 79.893813 
L 253.171636 79.330146 
L 253.701818 79.330121 
L 254.143636 79.568352 
L 254.585455 80.135878 
L 255.115636 81.29112 
L 256.794545 85.502823 
L 257.148 85.697962 
L 257.413091 85.586768 
L 257.766545 85.112097 
L 258.296727 83.849886 
L 260.770909 76.951565 
L 261.301091 76.25146 
L 261.742909 75.992111 
L 262.184727 76.00885 
L 262.714909 76.317159 
L 263.510182 77.110045 
L 264.658909 78.223769 
L 265.454182 78.671057 
L 266.602909 79.02261 
L 268.900364 79.550443 
L 269.607273 80.148718 
L 271.551273 82.104593 
L 271.904727 82.038992 
L 272.258182 81.738754 
L 272.7 81.061386 
L 274.378909 78.090698 
L 274.644 78.04488 
L 274.909091 78.194534 
L 275.262545 78.688918 
L 275.792727 79.911709 
L 276.941455 82.727601 
L 277.383273 83.254133 
L 277.736727 83.352564 
L 278.090182 83.181374 
L 278.532 82.644508 
L 279.150545 81.454684 
L 280.034182 79.211188 
L 281.094545 76.561977 
L 281.536364 76.037976 
L 281.801455 76.007697 
L 282.066545 76.195421 
L 282.42 76.738893 
L 283.215273 78.550145 
L 283.922182 79.902725 
L 284.452364 80.467317 
L 284.894182 80.649603 
L 285.336 80.584723 
L 285.777818 80.273721 
L 286.396364 79.489991 
L 287.28 78.361795 
L 287.633455 78.243899 
L 287.898545 78.365678 
L 288.252 78.832229 
L 288.782182 80.051069 
L 289.577455 81.92304 
L 289.930909 82.232151 
L 290.196 82.119417 
L 290.461091 81.704503 
L 290.902909 80.463399 
L 291.874909 77.418438 
L 292.228364 77.006734 
L 292.493455 77.080992 
L 292.758545 77.456367 
L 293.200364 78.557242 
L 294.084 80.830939 
L 294.437455 81.230224 
L 294.702545 81.284433 
L 295.056 81.111999 
L 295.851273 80.572446 
L 296.204727 80.649584 
L 296.558182 80.998849 
L 297.618545 82.302316 
L 297.883636 82.252031 
L 298.148727 81.945776 
L 298.502182 81.159732 
L 300.092727 76.807471 
L 300.446182 76.630749 
L 300.711273 76.737105 
L 301.153091 77.254872 
L 302.566909 79.292116 
L 303.097091 79.605454 
L 307.161818 80.976917 
L 307.868727 80.819728 
L 308.929091 80.570139 
L 309.724364 80.637577 
L 311.226545 80.851483 
L 311.668364 80.663003 
L 312.286909 80.109439 
L 313.170545 79.314444 
L 313.612364 79.199651 
L 314.142545 79.310933 
L 314.761091 79.429933 
L 315.114545 79.299077 
L 315.556364 78.848296 
L 316.881818 77.186035 
L 317.146909 77.219436 
L 317.412 77.451629 
L 317.765455 78.051545 
L 318.472364 79.857867 
L 319.090909 81.261664 
L 319.444364 81.614948 
L 319.709455 81.566783 
L 319.974545 81.230719 
L 320.328 80.359386 
L 320.946545 78.071548 
L 321.653455 75.687174 
L 322.006909 75.184163 
L 322.183636 75.182155 
L 322.448727 75.497034 
L 322.802182 76.465821 
L 323.509091 79.449322 
L 324.039273 81.352513 
L 324.392727 81.929239 
L 324.569455 81.957614 
L 324.834545 81.702529 
L 325.276364 80.707062 
L 325.894909 79.346601 
L 326.16 79.222292 
L 326.336727 79.355485 
L 326.601818 79.871319 
L 327.573818 82.228117 
L 327.750545 82.036396 
L 328.015636 81.001609 
L 328.369091 78.094437 
L 328.899273 71.106747 
L 329.606182 62.244547 
L 329.871273 61.072336 
L 329.959636 61.11442 
L 330.136364 61.86587 
L 330.401455 64.848304 
L 330.754909 72.147544 
L 331.373455 91.130116 
L 332.080364 111.91312 
L 332.433818 117.7613 
L 332.698909 119.375334 
L 332.787273 119.354813 
L 332.964 118.620338 
L 333.229091 115.861556 
L 333.759273 106.617064 
L 334.554545 92.804038 
L 334.996364 88.272573 
L 335.526545 85.066997 
L 335.968364 82.251901 
L 336.410182 77.662192 
L 336.940364 69.194817 
L 338.354182 44.542464 
L 338.796 40.973654 
L 339.061091 40.107807 
L 339.237818 40.024292 
L 339.414545 40.283957 
L 339.679636 41.273158 
L 340.033091 43.555702 
L 340.563273 48.687265 
L 341.358545 59.109477 
L 342.860727 79.270232 
L 345.511636 108.963673 
L 345.511636 108.963673 
" clip-path="url(#p80a3ab109a)" style="fill: none; stroke: #000000; stroke-width: 0.75; stroke-linecap: square"/>
   </g>
   <g id="line2d_11">
    <path d="M 54 79.756427 
L 130.346182 79.668147 
L 130.964727 79.413047 
L 131.848364 78.748415 
L 132.555273 78.319338 
L 132.997091 78.280846 
L 133.438909 78.516231 
L 133.969091 79.126722 
L 135.294545 80.8259 
L 135.736364 81.013674 
L 136.178182 80.984617 
L 136.885091 80.634274 
L 137.857091 80.135768 
L 138.564 80.004834 
L 143.512364 79.684165 
L 147.400364 79.443956 
L 149.167636 79.620362 
L 151.818545 79.854117 
L 152.967273 80.011295 
L 154.292727 80.280406 
L 154.734545 80.108874 
L 155.264727 79.536392 
L 156.06 78.196092 
L 156.678545 77.351394 
L 157.120364 77.215916 
L 157.385455 77.369171 
L 157.827273 77.988095 
L 159.594545 81.323449 
L 159.948 81.453043 
L 160.389818 81.4196 
L 161.980364 80.843212 
L 163.836 80.724295 
L 165.338182 80.283633 
L 166.045091 80.393261 
L 166.928727 80.544084 
L 167.370545 80.43006 
L 167.812364 80.053284 
L 168.430909 79.147764 
L 169.668 77.164905 
L 170.109818 76.867157 
L 170.728364 76.984598 
L 171.346909 77.631303 
L 173.114182 79.739818 
L 173.821091 80.113901 
L 177.002182 81.117821 
L 177.620727 81.044435 
L 178.327636 80.675522 
L 180.36 79.420405 
L 181.243636 79.25889 
L 182.657455 79.288862 
L 185.396727 79.586078 
L 186.633818 79.924041 
L 187.694182 80.464934 
L 188.754545 80.976942 
L 189.373091 80.906889 
L 189.903273 80.437977 
L 190.610182 79.373731 
L 191.405455 78.20971 
L 191.758909 77.949693 
L 192.289091 78.023671 
L 192.730909 78.52624 
L 193.614545 80.079889 
L 194.233091 80.976794 
L 194.674909 81.260592 
L 195.028364 81.249945 
L 195.470182 81.050433 
L 196.530545 80.346575 
L 197.149091 80.38193 
L 197.767636 80.868607 
L 198.828 81.749435 
L 199.269818 81.789104 
L 199.711636 81.542489 
L 200.330182 80.816904 
L 201.655636 79.170894 
L 202.981091 77.793495 
L 203.511273 76.804108 
L 204.306545 74.712178 
L 205.101818 72.804204 
L 205.455273 72.510878 
L 205.720364 72.50334 
L 206.073818 73.006669 
L 206.427273 74.008554 
L 206.957455 76.139804 
L 207.929455 80.089263 
L 208.371273 81.063761 
L 208.636364 81.329873 
L 209.254909 81.249002 
L 209.608364 81.097096 
L 210.050182 81.117578 
L 210.403636 81.588314 
L 210.757091 82.452259 
L 211.375636 84.567173 
L 211.994182 86.556478 
L 212.347636 87.131045 
L 212.612727 87.253726 
L 212.966182 86.970611 
L 213.231273 86.491709 
L 215.175273 81.930478 
L 215.970545 81.124069 
L 217.561091 79.807113 
L 218.002909 79.701843 
L 218.533091 79.76858 
L 219.946909 80.089312 
L 220.300364 79.898521 
L 220.742182 79.437703 
L 221.272364 78.564782 
L 222.244364 76.407321 
L 223.216364 74.413872 
L 223.746545 73.738687 
L 224.276727 73.489376 
L 224.718545 73.602199 
L 225.072 73.93422 
L 225.513818 74.59966 
L 226.132364 75.945271 
L 228.164727 80.877117 
L 228.783273 81.655943 
L 229.578545 82.264144 
L 230.727273 83.160569 
L 231.434182 83.635284 
L 231.787636 83.645345 
L 232.141091 83.471413 
L 232.494545 82.949199 
L 232.848 82.070605 
L 233.289818 80.447653 
L 233.908364 77.264184 
L 235.410545 68.897338 
L 235.764 68.31476 
L 235.940727 68.228068 
L 236.117455 68.506317 
L 236.470909 69.886171 
L 236.912727 73.351017 
L 237.531273 80.824395 
L 238.945091 98.990996 
L 239.386909 101.457644 
L 239.740364 101.360693 
L 239.828727 101.307067 
L 240.005455 100.642748 
L 240.447273 96.943451 
L 241.154182 87.944793 
L 242.037818 76.956685 
L 242.479636 73.649474 
L 242.833091 72.334256 
L 243.274909 72.379134 
L 243.451636 72.639327 
L 244.865455 76.730323 
L 245.042182 76.835305 
L 245.395636 76.678604 
L 245.660727 76.334675 
L 246.367636 74.600139 
L 247.162909 72.77273 
L 247.604727 72.298038 
L 248.046545 72.383856 
L 248.223273 72.551307 
L 248.665091 73.452284 
L 249.283636 75.470399 
L 250.520727 79.61498 
L 250.874182 80.123146 
L 251.139273 80.241955 
L 251.492727 80.057623 
L 251.757818 79.729224 
L 253.083273 77.571999 
L 253.348364 77.466988 
L 253.878545 77.529347 
L 254.497091 78.155838 
L 255.115636 79.092678 
L 255.645818 80.303144 
L 256.087636 81.88857 
L 256.617818 84.791973 
L 257.413091 90.773694 
L 258.031636 94.680741 
L 258.385091 95.539292 
L 258.473455 95.559275 
L 258.650182 95.163822 
L 259.003636 93.326804 
L 259.445455 88.594048 
L 260.947636 69.260665 
L 261.212727 68.640147 
L 261.477818 68.466272 
L 261.566182 68.611996 
L 261.831273 70.129647 
L 262.273091 73.729145 
L 263.068364 79.853394 
L 263.333455 80.448509 
L 263.598545 80.613998 
L 263.686909 80.592795 
L 263.863636 80.108074 
L 265.100727 75.126955 
L 265.365818 74.962637 
L 265.542545 75.22295 
L 265.984364 77.021182 
L 267.044727 82.768934 
L 267.398182 83.476771 
L 267.574909 83.561251 
L 267.751636 83.379373 
L 268.105091 82.628675 
L 269.342182 78.794671 
L 269.695636 78.446531 
L 270.049091 78.596239 
L 270.314182 78.879882 
L 271.109455 80.442442 
L 271.993091 82.031866 
L 272.434909 82.471894 
L 272.788364 82.581116 
L 273.141818 82.350915 
L 273.406909 81.939149 
L 273.848727 80.705323 
L 274.467273 78.067908 
L 275.350909 74.355178 
L 275.704364 73.731317 
L 275.881091 73.770615 
L 276.146182 74.226936 
L 276.322909 74.740744 
L 276.764727 77.172341 
L 278.178545 86.67905 
L 278.355273 87.06746 
L 278.708727 86.928188 
L 278.885455 86.681961 
L 279.238909 84.961796 
L 279.857455 80.711226 
L 280.476 76.888661 
L 280.917818 75.492559 
L 281.359636 75.424508 
L 281.536364 75.542837 
L 282.596727 77.26604 
L 282.861818 77.268996 
L 283.215273 77.086923 
L 284.098909 76.250978 
L 284.540727 76.338384 
L 284.894182 76.951744 
L 285.424364 78.38817 
L 286.308 80.807455 
L 286.661455 81.280949 
L 287.014909 81.413312 
L 287.28 81.24363 
L 287.721818 80.579867 
L 288.870545 78.455988 
L 289.224 78.320073 
L 289.489091 78.602165 
L 289.842545 79.370577 
L 290.461091 81.700216 
L 291.256364 84.52461 
L 291.521455 84.689502 
L 291.874909 84.656004 
L 292.14 83.944115 
L 292.581818 82.190093 
L 293.465455 78.677633 
L 293.818909 78.393253 
L 293.995636 78.381403 
L 294.172364 78.680103 
L 294.614182 80.054686 
L 295.497818 83.21402 
L 295.762909 83.551307 
L 296.116364 83.633169 
L 296.293091 83.472175 
L 297.088364 81.805277 
L 297.441818 81.28175 
L 297.883636 81.16846 
L 298.148727 81.446148 
L 298.855636 82.688312 
L 299.209091 83.142864 
L 299.562545 83.28325 
L 299.739273 83.199764 
L 300.181091 82.534583 
L 301.771636 79.066306 
L 302.213455 78.783616 
L 303.627273 78.467072 
L 304.157455 77.816594 
L 305.129455 76.006377 
L 305.836364 74.946343 
L 306.278182 74.640687 
L 306.631636 74.594482 
L 307.250182 74.796801 
L 308.133818 75.142066 
L 309.724364 75.389864 
L 310.166182 75.967593 
L 310.696364 77.169407 
L 312.198545 81.02011 
L 312.552 81.333598 
L 312.993818 81.21445 
L 313.258909 80.94265 
L 314.849455 78.727829 
L 315.202909 78.61035 
L 315.733091 78.77808 
L 316.263273 79.300887 
L 316.970182 80.382212 
L 317.765455 82.080297 
L 319.090909 85.006116 
L 319.444364 85.268597 
L 319.621091 85.22607 
L 319.974545 84.754751 
L 320.328 83.643163 
L 320.769818 81.505906 
L 322.006909 74.890831 
L 322.183636 74.822946 
L 322.448727 75.169593 
L 322.625455 75.699027 
L 322.978909 78.676967 
L 323.420727 84.794738 
L 324.746182 106.217358 
L 325.099636 107.420398 
L 325.188 107.29469 
L 325.364727 105.761855 
L 325.718182 100.10289 
L 326.248364 84.641812 
L 327.397091 46.890577 
L 327.662182 42.009379 
L 327.838909 41.559372 
L 328.104 41.399801 
L 328.192364 41.471909 
L 328.369091 43.671196 
L 328.899273 56.676161 
L 330.401455 100.701382 
L 330.843273 107.247409 
L 331.285091 110.800865 
L 331.726909 112.543332 
L 331.992 113.113353 
L 332.345455 113.17207 
L 332.522182 113.161095 
L 332.698909 112.745881 
L 333.052364 110.964155 
L 333.405818 107.495281 
L 333.847636 100.455873 
L 334.466182 86.240504 
L 335.88 52.003634 
L 336.498545 42.315507 
L 337.028727 36.75902 
L 337.558909 33.355039 
L 337.912364 32.449042 
L 338.089091 32.269091 
L 338.265818 32.424534 
L 338.619273 33.518399 
L 338.972727 35.788043 
L 339.414545 39.884871 
L 340.121455 48.598547 
L 341.181818 64.624658 
L 342.595636 89.98202 
L 343.744364 109.203748 
L 344.539636 118.977958 
L 345.158182 124.08883 
L 345.511636 125.974102 
L 345.511636 125.974102 
" clip-path="url(#p80a3ab109a)" style="fill: none; stroke: #ff0000; stroke-width: 0.75; stroke-linecap: square"/>
   </g>
   <g id="patch_4">
    <path d="M 54 256.32 
L 345.6 256.32 
" style="fill: none; stroke: #000000; stroke-width: 0.8; stroke-linejoin: miter; stroke-linecap: square"/>
   </g>
   <g id="text_14">
    <g id="patch_5">
     <path d="M 246.318114 260.3184 
L 349.5984 260.3184 
L 349.5984 243.9916 
L 246.318114 243.9916 
L 246.318114 260.3184 
z
" style="fill: none"/>
    </g>
    <!-- max|u|: 0.0020494 m -->
    <g transform="translate(250.316514 254.355942) scale(0.0833 -0.0833)">
     <defs>
      <path id="DejaVuSansMono-61" d="M 2194 1759 
L 2003 1759 
Q 1500 1759 1245 1582 
Q 991 1406 991 1056 
Q 991 741 1181 566 
Q 1372 391 1709 391 
Q 2184 391 2456 720 
Q 2728 1050 2731 1631 
L 2731 1759 
L 2194 1759 
z
M 3309 1997 
L 3309 0 
L 2731 0 
L 2731 519 
Q 2547 206 2267 57 
Q 1988 -91 1588 -91 
Q 1053 -91 734 211 
Q 416 513 416 1019 
Q 416 1603 808 1906 
Q 1200 2209 1959 2209 
L 2731 2209 
L 2731 2300 
Q 2728 2719 2518 2908 
Q 2309 3097 1850 3097 
Q 1556 3097 1256 3012 
Q 956 2928 672 2766 
L 672 3341 
Q 991 3463 1283 3523 
Q 1575 3584 1850 3584 
Q 2284 3584 2592 3456 
Q 2900 3328 3091 3072 
Q 3209 2916 3259 2686 
Q 3309 2456 3309 1997 
z
" transform="scale(0.015625)"/>
      <path id="DejaVuSansMono-78" d="M 3494 3500 
L 2241 1825 
L 3616 0 
L 2950 0 
L 1925 1403 
L 903 0 
L 238 0 
L 1613 1825 
L 359 3500 
L 997 3500 
L 1925 2234 
L 2847 3500 
L 3494 3500 
z
" transform="scale(0.015625)"/>
      <path id="DejaVuSansMono-7c" d="M 2194 4891 
L 2194 -1509 
L 1656 -1509 
L 1656 4891 
L 2194 4891 
z
" transform="scale(0.015625)"/>
      <path id="DejaVuSansMono-75" d="M 609 1325 
L 609 3494 
L 1184 3494 
L 1184 1325 
Q 1184 853 1351 631 
Q 1519 409 1869 409 
Q 2275 409 2490 695 
Q 2706 981 2706 1516 
L 2706 3494 
L 3284 3494 
L 3284 0 
L 2706 0 
L 2706 525 
Q 2553 222 2289 65 
Q 2025 -91 1672 -91 
Q 1134 -91 871 261 
Q 609 613 609 1325 
z
" transform="scale(0.015625)"/>
     </defs>
     <use xlink:href="#DejaVuSansMono-6d"/>
     <use xlink:href="#DejaVuSansMono-61" x="60.205078"/>
     <use xlink:href="#DejaVuSansMono-78" x="120.410156"/>
     <use xlink:href="#DejaVuSansMono-7c" x="180.615234"/>
     <use xlink:href="#DejaVuSansMono-75" x="240.820312"/>
     <use xlink:href="#DejaVuSansMono-7c" x="301.025391"/>
     <use xlink:href="#DejaVuSansMono-3a" x="361.230469"/>
     <use xlink:href="#DejaVuSansMono-20" x="421.435547"/>
     <use xlink:href="#DejaVuSansMono-30" x="481.640625"/>
     <use xlink:href="#DejaVuSansMono-2e" x="541.845703"/>
     <use xlink:href="#DejaVuSansMono-30" x="602.050781"/>
     <use xlink:href="#DejaVuSansMono-30" x="662.255859"/>
     <use xlink:href="#DejaVuSansMono-32" x="722.460938"/>
     <use xlink:href="#DejaVuSansMono-30" x="782.666016"/>
     <use xlink:href="#DejaVuSansMono-34" x="842.871094"/>
     <use xlink:href="#DejaVuSansMono-39" x="903.076172"/>
     <use xlink:href="#DejaVuSansMono-34" x="963.28125"/>
     <use xlink:href="#DejaVuSansMono-20" x="1023.486328"/>
     <use xlink:href="#DejaVuSansMono-6d" x="1083.691406"/>
    </g>
   </g>
   <g id="text_15">
    <g id="patch_6">
     <path d="M 50 35.278125 
L 64.020313 35.278125 
L 64.020313 17.6 
L 50 17.6 
L 50 35.278125 
z
" style="fill: none"/>
    </g>
    <!-- Z -->
    <g transform="translate(54 29.198437) scale(0.1 -0.1)">
     <defs>
      <path id="DejaVuSansMono-Bold-5a" d="M 428 4666 
L 3584 4666 
L 3584 3903 
L 1422 813 
L 3628 813 
L 3628 0 
L 359 0 
L 359 763 
L 2456 3853 
L 428 3853 
L 428 4666 
z
" transform="scale(0.015625)"/>
     </defs>
     <use xlink:href="#DejaVuSansMono-Bold-5a"/>
    </g>
   </g>
   <g id="text_16">
    <!-- Wed Sep 16 22:55:22 2015 Loc: -31.13dg, -72.09dg, 17.4km  -->
    <g transform="translate(54 15.6) scale(0.0833 -0.0833)">
     <defs>
      <path id="DejaVuSansMono-57" d="M 0 4666 
L 616 4666 
L 1063 878 
L 1594 3384 
L 2253 3384 
L 2791 872 
L 3238 4666 
L 3853 4666 
L 3156 0 
L 2559 0 
L 1925 2772 
L 1294 0 
L 697 0 
L 0 4666 
z
" transform="scale(0.015625)"/>
      <path id="DejaVuSansMono-64" d="M 2681 3053 
L 2681 4863 
L 3256 4863 
L 3256 0 
L 2681 0 
L 2681 441 
Q 2538 181 2298 45 
Q 2059 -91 1747 -91 
Q 1113 -91 748 401 
Q 384 894 384 1759 
Q 384 2613 750 3098 
Q 1116 3584 1747 3584 
Q 2063 3584 2303 3448 
Q 2544 3313 2681 3053 
z
M 991 1747 
Q 991 1078 1203 737 
Q 1416 397 1831 397 
Q 2247 397 2464 740 
Q 2681 1084 2681 1747 
Q 2681 2413 2464 2755 
Q 2247 3097 1831 3097 
Q 1416 3097 1203 2756 
Q 991 2416 991 1747 
z
" transform="scale(0.015625)"/>
      <path id="DejaVuSansMono-4c" d="M 672 4666 
L 1306 4666 
L 1306 531 
L 3559 531 
L 3559 0 
L 672 0 
L 672 4666 
z
" transform="scale(0.015625)"/>
      <path id="DejaVuSansMono-6f" d="M 1925 3097 
Q 1488 3097 1263 2756 
Q 1038 2416 1038 1747 
Q 1038 1081 1263 739 
Q 1488 397 1925 397 
Q 2366 397 2591 739 
Q 2816 1081 2816 1747 
Q 2816 2416 2591 2756 
Q 2366 3097 1925 3097 
z
M 1925 3584 
Q 2653 3584 3039 3112 
Q 3425 2641 3425 1747 
Q 3425 850 3040 379 
Q 2656 -91 1925 -91 
Q 1197 -91 812 379 
Q 428 850 428 1747 
Q 428 2641 812 3112 
Q 1197 3584 1925 3584 
z
" transform="scale(0.015625)"/>
      <path id="DejaVuSansMono-63" d="M 3316 178 
Q 3084 44 2839 -23 
Q 2594 -91 2338 -91 
Q 1525 -91 1067 396 
Q 609 884 609 1747 
Q 609 2609 1067 3096 
Q 1525 3584 2338 3584 
Q 2591 3584 2831 3518 
Q 3072 3453 3316 3316 
L 3316 2713 
Q 3088 2916 2858 3006 
Q 2628 3097 2338 3097 
Q 1797 3097 1506 2747 
Q 1216 2397 1216 1747 
Q 1216 1100 1508 748 
Q 1800 397 2338 397 
Q 2638 397 2875 489 
Q 3113 581 3316 775 
L 3316 178 
z
" transform="scale(0.015625)"/>
      <path id="DejaVuSansMono-67" d="M 2681 1778 
Q 2681 2425 2470 2761 
Q 2259 3097 1856 3097 
Q 1434 3097 1212 2761 
Q 991 2425 991 1778 
Q 991 1131 1214 792 
Q 1438 453 1863 453 
Q 2259 453 2470 793 
Q 2681 1134 2681 1778 
z
M 3256 225 
Q 3256 -563 2884 -969 
Q 2513 -1375 1791 -1375 
Q 1553 -1375 1293 -1331 
Q 1034 -1288 775 -1203 
L 775 -634 
Q 1081 -778 1331 -847 
Q 1581 -916 1791 -916 
Q 2256 -916 2468 -662 
Q 2681 -409 2681 141 
L 2681 166 
L 2681 556 
Q 2544 263 2306 119 
Q 2069 -25 1728 -25 
Q 1116 -25 750 465 
Q 384 956 384 1778 
Q 384 2603 750 3093 
Q 1116 3584 1728 3584 
Q 2066 3584 2300 3450 
Q 2534 3316 2681 3034 
L 2681 3488 
L 3256 3488 
L 3256 225 
z
" transform="scale(0.015625)"/>
      <path id="DejaVuSansMono-2c" d="M 1569 947 
L 2356 947 
L 2356 300 
L 1741 -897 
L 1259 -897 
L 1569 300 
L 1569 947 
z
" transform="scale(0.015625)"/>
      <path id="DejaVuSansMono-6b" d="M 738 4863 
L 1331 4863 
L 1331 2047 
L 2841 3500 
L 3541 3500 
L 2163 2181 
L 3756 0 
L 3053 0 
L 1759 1806 
L 1331 1403 
L 1331 0 
L 738 0 
L 738 4863 
z
" transform="scale(0.015625)"/>
     </defs>
     <use xlink:href="#DejaVuSansMono-57"/>
     <use xlink:href="#DejaVuSansMono-65" x="60.205078"/>
     <use xlink:href="#DejaVuSansMono-64" x="120.410156"/>
     <use xlink:href="#DejaVuSansMono-20" x="180.615234"/>
     <use xlink:href="#DejaVuSansMono-53" x="240.820312"/>
     <use xlink:href="#DejaVuSansMono-65" x="301.025391"/>
     <use xlink:href="#DejaVuSansMono-70" x="361.230469"/>
     <use xlink:href="#DejaVuSansMono-20" x="421.435547"/>
     <use xlink:href="#DejaVuSansMono-31" x="481.640625"/>
     <use xlink:href="#DejaVuSansMono-36" x="541.845703"/>
     <use xlink:href="#DejaVuSansMono-20" x="602.050781"/>
     <use xlink:href="#DejaVuSansMono-32" x="662.255859"/>
     <use xlink:href="#DejaVuSansMono-32" x="722.460938"/>
     <use xlink:href="#DejaVuSansMono-3a" x="782.666016"/>
     <use xlink:href="#DejaVuSansMono-35" x="842.871094"/>
     <use xlink:href="#DejaVuSansMono-35" x="903.076172"/>
     <use xlink:href="#DejaVuSansMono-3a" x="963.28125"/>
     <use xlink:href="#DejaVuSansMono-32" x="1023.486328"/>
     <use xlink:href="#DejaVuSansMono-32" x="1083.691406"/>
     <use xlink:href="#DejaVuSansMono-20" x="1143.896484"/>
     <use xlink:href="#DejaVuSansMono-32" x="1204.101562"/>
     <use xlink:href="#DejaVuSansMono-30" x="1264.306641"/>
     <use xlink:href="#DejaVuSansMono-31" x="1324.511719"/>
     <use xlink:href="#DejaVuSansMono-35" x="1384.716797"/>
     <use xlink:href="#DejaVuSansMono-20" x="1444.921875"/>
     <use xlink:href="#DejaVuSansMono-4c" x="1505.126953"/>
     <use xlink:href="#DejaVuSansMono-6f" x="1565.332031"/>
     <use xlink:href="#DejaVuSansMono-63" x="1625.537109"/>
     <use xlink:href="#DejaVuSansMono-3a" x="1685.742188"/>
     <use xlink:href="#DejaVuSansMono-20" x="1745.947266"/>
     <use xlink:href="#DejaVuSansMono-2d" x="1806.152344"/>
     <use xlink:href="#DejaVuSansMono-33" x="1866.357422"/>
     <use xlink:href="#DejaVuSansMono-31" x="1926.5625"/>
     <use xlink:href="#DejaVuSansMono-2e" x="1986.767578"/>
     <use xlink:href="#DejaVuSansMono-31" x="2046.972656"/>
     <use xlink:href="#DejaVuSansMono-33" x="2107.177734"/>
     <use xlink:href="#DejaVuSansMono-64" x="2167.382812"/>
     <use xlink:href="#DejaVuSansMono-67" x="2227.587891"/>
     <use xlink:href="#DejaVuSansMono-2c" x="2287.792969"/>
     <use xlink:href="#DejaVuSansMono-20" x="2347.998047"/>
     <use xlink:href="#DejaVuSansMono-2d" x="2408.203125"/>
     <use xlink:href="#DejaVuSansMono-37" x="2468.408203"/>
     <use xlink:href="#DejaVuSansMono-32" x="2528.613281"/>
     <use xlink:href="#DejaVuSansMono-2e" x="2588.818359"/>
     <use xlink:href="#DejaVuSansMono-30" x="2649.023438"/>
     <use xlink:href="#DejaVuSansMono-39" x="2709.228516"/>
     <use xlink:href="#DejaVuSansMono-64" x="2769.433594"/>
     <use xlink:href="#DejaVuSansMono-67" x="2829.638672"/>
     <use xlink:href="#DejaVuSansMono-2c" x="2889.84375"/>
     <use xlink:href="#DejaVuSansMono-20" x="2950.048828"/>
     <use xlink:href="#DejaVuSansMono-31" x="3010.253906"/>
     <use xlink:href="#DejaVuSansMono-37" x="3070.458984"/>
     <use xlink:href="#DejaVuSansMono-2e" x="3130.664062"/>
     <use xlink:href="#DejaVuSansMono-34" x="3190.869141"/>
     <use xlink:href="#DejaVuSansMono-6b" x="3251.074219"/>
     <use xlink:href="#DejaVuSansMono-6d" x="3311.279297"/>
     <use xlink:href="#DejaVuSansMono-20" x="3371.484375"/>
    </g>
   </g>
  </g>
 </g>
 <defs>
  <clipPath id="p80a3ab109a">
   <rect x="54" y="21.6" width="291.6" height="234.72"/>
  </clipPath>
 </defs>
</svg>
