<?xml version="1.0" encoding="utf-8" standalone="no"?>
<!DOCTYPE svg PUBLIC "-//W3C//DTD SVG 1.1//EN"
  "http://www.w3.org/Graphics/SVG/1.1/DTD/svg11.dtd">
<svg xmlns:xlink="http://www.w3.org/1999/xlink" width="504pt" height="288pt" viewBox="0 0 504 288" xmlns="http://www.w3.org/2000/svg" version="1.1">
 <metadata>
  <rdf:RDF xmlns:dc="http://purl.org/dc/elements/1.1/" xmlns:cc="http://creativecommons.org/ns#" xmlns:rdf="http://www.w3.org/1999/02/22-rdf-syntax-ns#">
   <cc:Work>
    <dc:type rdf:resource="http://purl.org/dc/dcmitype/StillImage"/>
    <dc:date>2023-03-16T19:50:50.100790</dc:date>
    <dc:format>image/svg+xml</dc:format>
    <dc:creator>
     <cc:Agent>
      <dc:title>Matplotlib v3.6.2, https://matplotlib.org/</dc:title>
     </cc:Agent>
    </dc:creator>
   </cc:Work>
  </rdf:RDF>
 </metadata>
 <defs>
  <style type="text/css">*{stroke-linejoin: round; stroke-linecap: butt}</style>
 </defs>
 <g id="figure_1">
  <g id="patch_1">
   <path d="M 0 288 
L 504 288 
L 504 0 
L 0 0 
z
" style="fill: #ffffff"/>
  </g>
  <g id="axes_1">
   <g id="patch_2">
    <path d="M 50.4 105.6 
L 453.6 105.6 
L 453.6 43.2 
L 50.4 43.2 
z
" style="fill: #ffffff"/>
   </g>
   <g id="matplotlib.axis_1">
    <g id="xtick_1"/>
    <g id="xtick_2"/>
    <g id="xtick_3"/>
    <g id="text_1">
     <!-- 2015-Sep-16 -->
     <g transform="translate(387.376563 116.251563) scale(0.1 -0.1)">
      <defs>
       <path id="DejaVuSansMono-32" d="M 1166 531 
L 3309 531 
L 3309 0 
L 475 0 
L 475 531 
Q 1059 1147 1496 1619 
Q 1934 2091 2100 2284 
Q 2413 2666 2522 2902 
Q 2631 3138 2631 3384 
Q 2631 3775 2401 3997 
Q 2172 4219 1772 4219 
Q 1488 4219 1175 4116 
Q 863 4013 513 3803 
L 513 4441 
Q 834 4594 1145 4672 
Q 1456 4750 1759 4750 
Q 2444 4750 2861 4386 
Q 3278 4022 3278 3431 
Q 3278 3131 3139 2831 
Q 3000 2531 2688 2169 
Q 2513 1966 2180 1606 
Q 1847 1247 1166 531 
z
" transform="scale(0.015625)"/>
       <path id="DejaVuSansMono-30" d="M 1509 2344 
Q 1509 2516 1629 2641 
Q 1750 2766 1919 2766 
Q 2094 2766 2219 2641 
Q 2344 2516 2344 2344 
Q 2344 2169 2220 2047 
Q 2097 1925 1919 1925 
Q 1744 1925 1626 2044 
Q 1509 2163 1509 2344 
z
M 1925 4250 
Q 1484 4250 1267 3775 
Q 1050 3300 1050 2328 
Q 1050 1359 1267 884 
Q 1484 409 1925 409 
Q 2369 409 2586 884 
Q 2803 1359 2803 2328 
Q 2803 3300 2586 3775 
Q 2369 4250 1925 4250 
z
M 1925 4750 
Q 2672 4750 3055 4137 
Q 3438 3525 3438 2328 
Q 3438 1134 3055 521 
Q 2672 -91 1925 -91 
Q 1178 -91 797 521 
Q 416 1134 416 2328 
Q 416 3525 797 4137 
Q 1178 4750 1925 4750 
z
" transform="scale(0.015625)"/>
       <path id="DejaVuSansMono-31" d="M 844 531 
L 1825 531 
L 1825 4097 
L 769 3859 
L 769 4434 
L 1819 4666 
L 2450 4666 
L 2450 531 
L 3419 531 
L 3419 0 
L 844 0 
L 844 531 
z
" transform="scale(0.015625)"/>
       <path id="DejaVuSansMono-35" d="M 647 4666 
L 3009 4666 
L 3009 4134 
L 1222 4134 
L 1222 2988 
Q 1356 3038 1492 3061 
Q 1628 3084 1766 3084 
Q 2491 3084 2916 2656 
Q 3341 2228 3341 1497 
Q 3341 759 2895 334 
Q 2450 -91 1678 -91 
Q 1306 -91 998 -41 
Q 691 9 447 109 
L 447 750 
Q 734 594 1025 517 
Q 1316 441 1619 441 
Q 2141 441 2423 716 
Q 2706 991 2706 1497 
Q 2706 1997 2414 2275 
Q 2122 2553 1600 2553 
Q 1347 2553 1106 2495 
Q 866 2438 647 2322 
L 647 4666 
z
" transform="scale(0.015625)"/>
       <path id="DejaVuSansMono-2d" d="M 1113 2009 
L 2741 2009 
L 2741 1497 
L 1113 1497 
L 1113 2009 
z
" transform="scale(0.015625)"/>
       <path id="DejaVuSansMono-53" d="M 3163 4506 
L 3163 3866 
Q 2875 4050 2586 4144 
Q 2297 4238 2003 4238 
Q 1556 4238 1297 4030 
Q 1038 3822 1038 3469 
Q 1038 3159 1208 2996 
Q 1378 2834 1844 2725 
L 2175 2650 
Q 2831 2497 3131 2169 
Q 3431 1841 3431 1275 
Q 3431 609 3018 259 
Q 2606 -91 1819 -91 
Q 1491 -91 1159 -20 
Q 828 50 494 191 
L 494 863 
Q 853 634 1173 528 
Q 1494 422 1819 422 
Q 2297 422 2562 636 
Q 2828 850 2828 1234 
Q 2828 1584 2645 1768 
Q 2463 1953 2009 2053 
L 1672 2131 
Q 1022 2278 728 2575 
Q 434 2872 434 3372 
Q 434 3997 854 4373 
Q 1275 4750 1972 4750 
Q 2241 4750 2537 4689 
Q 2834 4628 3163 4506 
z
" transform="scale(0.015625)"/>
       <path id="DejaVuSansMono-65" d="M 3475 1894 
L 3475 1613 
L 984 1613 
L 984 1594 
Q 984 1022 1282 709 
Q 1581 397 2125 397 
Q 2400 397 2700 484 
Q 3000 572 3341 750 
L 3341 178 
Q 3013 44 2708 -23 
Q 2403 -91 2119 -91 
Q 1303 -91 843 398 
Q 384 888 384 1747 
Q 384 2584 834 3084 
Q 1284 3584 2034 3584 
Q 2703 3584 3089 3131 
Q 3475 2678 3475 1894 
z
M 2900 2063 
Q 2888 2569 2661 2833 
Q 2434 3097 2009 3097 
Q 1594 3097 1325 2822 
Q 1056 2547 1006 2059 
L 2900 2063 
z
" transform="scale(0.015625)"/>
       <path id="DejaVuSansMono-70" d="M 1172 441 
L 1172 -1331 
L 594 -1331 
L 594 3500 
L 1172 3500 
L 1172 3053 
Q 1316 3313 1555 3448 
Q 1794 3584 2106 3584 
Q 2741 3584 3102 3093 
Q 3463 2603 3463 1734 
Q 3463 881 3100 395 
Q 2738 -91 2106 -91 
Q 1788 -91 1548 45 
Q 1309 181 1172 441 
z
M 2859 1747 
Q 2859 2416 2648 2756 
Q 2438 3097 2022 3097 
Q 1603 3097 1387 2755 
Q 1172 2413 1172 1747 
Q 1172 1084 1387 740 
Q 1603 397 2022 397 
Q 2438 397 2648 737 
Q 2859 1078 2859 1747 
z
" transform="scale(0.015625)"/>
       <path id="DejaVuSansMono-36" d="M 3097 4563 
L 3097 3981 
Q 2900 4097 2678 4158 
Q 2456 4219 2216 4219 
Q 1616 4219 1306 3767 
Q 997 3316 997 2438 
Q 1147 2750 1412 2917 
Q 1678 3084 2022 3084 
Q 2697 3084 3067 2670 
Q 3438 2256 3438 1497 
Q 3438 741 3056 325 
Q 2675 -91 1984 -91 
Q 1172 -91 794 492 
Q 416 1075 416 2328 
Q 416 3509 870 4129 
Q 1325 4750 2188 4750 
Q 2419 4750 2650 4701 
Q 2881 4653 3097 4563 
z
M 1972 2591 
Q 1569 2591 1337 2300 
Q 1106 2009 1106 1497 
Q 1106 984 1337 693 
Q 1569 403 1972 403 
Q 2391 403 2603 679 
Q 2816 956 2816 1497 
Q 2816 2041 2603 2316 
Q 2391 2591 1972 2591 
z
" transform="scale(0.015625)"/>
      </defs>
      <use xlink:href="#DejaVuSansMono-32"/>
      <use xlink:href="#DejaVuSansMono-30" x="60.205078"/>
      <use xlink:href="#DejaVuSansMono-31" x="120.410156"/>
      <use xlink:href="#DejaVuSansMono-35" x="180.615234"/>
      <use xlink:href="#DejaVuSansMono-2d" x="240.820312"/>
      <use xlink:href="#DejaVuSansMono-53" x="301.025391"/>
      <use xlink:href="#DejaVuSansMono-65" x="361.230469"/>
      <use xlink:href="#DejaVuSansMono-70" x="421.435547"/>
      <use xlink:href="#DejaVuSansMono-2d" x="481.640625"/>
      <use xlink:href="#DejaVuSansMono-31" x="541.845703"/>
      <use xlink:href="#DejaVuSansMono-36" x="602.050781"/>
     </g>
    </g>
   </g>
   <g id="matplotlib.axis_2">
    <g id="ytick_1"/>
    <g id="ytick_2"/>
    <g id="ytick_3"/>
   </g>
   <g id="line2d_1">
    <path d="M 49.9968 71.922503 
L 98.3808 71.557441 
L 112.0896 71.747233 
L 127.008 72.038876 
L 148.3776 72.245679 
L 158.4576 72.056002 
L 180.2304 71.417892 
L 183.8592 71.479927 
L 188.2944 71.629151 
L 189.9072 71.480509 
L 191.52 71.102772 
L 193.1328 70.460653 
L 195.1488 69.34153 
L 197.9712 67.673009 
L 199.1808 67.18576 
L 199.9872 67.018963 
L 200.7936 67.019434 
L 201.6 67.20705 
L 202.4064 67.604632 
L 203.2128 68.220877 
L 204.0192 69.052805 
L 205.2288 70.663522 
L 206.8416 73.280192 
L 209.2608 77.206238 
L 210.4704 78.661215 
L 211.2768 79.309718 
L 212.0832 79.660292 
L 212.8896 79.689897 
L 213.696 79.412669 
L 214.5024 78.83946 
L 215.3088 78.006811 
L 216.5184 76.379896 
L 220.9536 69.759338 
L 222.1632 68.634229 
L 222.9696 68.166576 
L 223.776 67.930116 
L 224.5824 67.918319 
L 225.3888 68.100023 
L 226.5984 68.671165 
L 228.2112 69.780712 
L 231.0336 71.823952 
L 232.2432 72.476902 
L 233.4528 72.905118 
L 234.6624 73.086789 
L 235.872 73.027826 
L 237.4848 72.654707 
L 242.7264 71.074092 
L 244.3392 70.99431 
L 245.952 71.153339 
L 252.4032 72.125228 
L 254.016 72.006362 
L 256.032 71.593061 
L 259.2576 70.601997 
L 261.2736 70.083691 
L 262.8864 69.915461 
L 264.096 69.989985 
L 265.3056 70.24577 
L 266.9184 70.835973 
L 269.3376 72.044923 
L 271.7568 73.225751 
L 273.3696 73.786907 
L 274.9824 74.092893 
L 276.5952 74.138836 
L 278.208 73.952117 
L 280.224 73.47725 
L 287.4816 71.526231 
L 288.6912 71.420916 
L 289.9008 71.508932 
L 291.1104 71.828579 
L 292.32 72.379829 
L 293.9328 73.391398 
L 296.7552 75.248553 
L 297.9648 75.720441 
L 298.7712 75.807923 
L 299.5776 75.671479 
L 300.384 75.268089 
L 301.1904 74.574899 
L 301.9968 73.581073 
L 302.8032 72.291348 
L 304.0128 69.853844 
L 305.6256 65.91916 
L 308.0448 59.871122 
L 308.8512 58.246701 
L 309.6576 57.019601 
L 310.464 56.307645 
L 310.8672 56.184604 
L 311.2704 56.2337 
L 311.6736 56.44975 
L 312.0768 56.855745 
L 312.8832 58.243581 
L 313.6896 60.398589 
L 314.496 63.272723 
L 315.7056 68.691456 
L 319.7376 88.581332 
L 320.544 91.319316 
L 321.3504 93.252079 
L 321.7536 93.886965 
L 322.1568 94.292303 
L 322.56 94.452689 
L 322.9632 94.376119 
L 323.3664 94.077566 
L 323.7696 93.545117 
L 324.576 91.828714 
L 325.3824 89.332218 
L 326.592 84.444743 
L 329.0112 72.860626 
L 330.2208 67.476238 
L 331.4304 63.125827 
L 332.2368 61.002782 
L 333.0432 59.587289 
L 333.4464 59.153572 
L 333.8496 58.899308 
L 334.2528 58.838641 
L 334.656 58.932249 
L 335.0592 59.18807 
L 335.8656 60.131298 
L 336.672 61.540795 
L 337.8816 64.205065 
L 339.8976 68.822024 
L 341.1072 70.964329 
L 341.9136 71.943763 
L 342.72 72.521174 
L 343.5264 72.695963 
L 344.3328 72.520158 
L 345.1392 72.054522 
L 346.3488 71.018652 
L 348.3648 69.240171 
L 349.1712 68.776145 
L 349.9776 68.550502 
L 350.784 68.609368 
L 351.5904 68.955775 
L 352.3968 69.585686 
L 353.2032 70.468106 
L 354.4128 72.140476 
L 356.832 75.620336 
L 357.6384 76.411101 
L 358.4448 76.832667 
L 359.2512 76.777892 
L 359.6544 76.557929 
L 360.4608 75.696073 
L 361.2672 74.261531 
L 362.0736 72.273575 
L 363.2832 68.387459 
L 364.896 62.084512 
L 366.912 54.141674 
L 367.7184 51.527582 
L 368.5248 49.507449 
L 369.3312 48.235598 
L 369.7344 47.915149 
L 370.1376 47.847756 
L 370.5408 47.990418 
L 370.944 48.377376 
L 371.3472 49.005481 
L 372.1536 50.965773 
L 372.96 53.805742 
L 373.7664 57.414655 
L 374.976 63.938434 
L 379.4112 89.487278 
L 380.2176 92.779137 
L 381.024 95.292095 
L 381.8304 96.955761 
L 382.2336 97.459827 
L 382.6368 97.749291 
L 383.04 97.8 
L 383.4432 97.669072 
L 383.8464 97.333211 
L 384.6528 96.114211 
L 385.4592 94.273536 
L 386.6688 90.687423 
L 389.8944 80.39247 
L 390.7008 78.4693 
L 391.5072 77.009846 
L 392.3136 76.057802 
L 393.12 75.619016 
L 393.9264 75.683869 
L 394.7328 76.177298 
L 395.5392 77.021844 
L 396.7488 78.707891 
L 398.7648 81.606908 
L 399.5712 82.453601 
L 400.3776 82.980038 
L 400.7808 83.105705 
L 401.5872 83.037829 
L 402.3936 82.557227 
L 403.2 81.66862 
L 404.0064 80.408754 
L 405.216 77.952979 
L 406.8288 74.032353 
L 408.8448 69.097224 
L 410.0544 66.637911 
L 410.8608 65.352498 
L 411.6672 64.40223 
L 412.4736 63.80802 
L 413.28 63.568906 
L 414.0864 63.665971 
L 414.8928 64.051172 
L 415.6992 64.669208 
L 417.312 66.318329 
L 418.9248 68.002904 
L 420.1344 68.94033 
L 420.9408 69.301576 
L 421.7472 69.398413 
L 422.5536 69.221652 
L 423.36 68.749558 
L 424.1664 67.992681 
L 424.9728 66.976864 
L 426.1824 65.073095 
L 429.408 59.600145 
L 430.2144 58.60569 
L 431.0208 57.903954 
L 431.8272 57.53617 
L 432.6336 57.532038 
L 433.44 57.877236 
L 434.2464 58.554954 
L 435.0528 59.51701 
L 436.2624 61.340049 
L 438.6816 65.188582 
L 439.488 66.14515 
L 440.2944 66.772749 
L 441.1008 66.98846 
L 441.504 66.930125 
L 442.3104 66.457719 
L 443.1168 65.511162 
L 443.9232 64.123235 
L 445.1328 61.359906 
L 447.1488 55.800522 
L 448.7616 51.657569 
L 449.568 50.057068 
L 450.3744 48.926533 
L 451.1808 48.349657 
L 451.584 48.302975 
L 451.9872 48.395763 
L 452.3904 48.647413 
L 453.1968 49.605318 
L 454.0032 51.111076 
L 454.0032 51.111076 
" clip-path="url(#p866985ddc8)" style="fill: none; stroke: #000000; stroke-linecap: square"/>
   </g>
   <g id="line2d_2">
    <path d="M 49.9968 79.008679 
L 55.6416 78.68955 
L 61.2864 78.140306 
L 66.9312 77.369483 
L 73.3824 76.258662 
L 83.4624 74.248542 
L 91.9296 72.64464 
L 97.1712 71.87535 
L 101.6064 71.449018 
L 105.6384 71.293086 
L 109.2672 71.375967 
L 112.896 71.695041 
L 116.1216 72.190702 
L 119.3472 72.895564 
L 122.5728 73.815377 
L 126.2016 75.104041 
L 129.8304 76.640275 
L 133.8624 78.59879 
L 138.2976 81.019727 
L 143.5392 84.161129 
L 150.3936 88.242646 
L 156.8448 91.743684 
L 160.8768 93.773229 
L 162.8928 94.575254 
L 164.9088 95.113302 
L 166.5216 95.321557 
L 168.5376 95.3525 
L 173.376 95.284729 
L 175.7952 95.594655 
L 177.408 95.778381 
L 179.0208 95.759321 
L 179.8272 95.517055 
L 180.6336 95.152007 
L 181.44 94.555751 
L 182.2464 93.794095 
L 183.456 92.243285 
L 184.6656 90.326553 
L 187.8912 84.972434 
L 189.1008 83.596962 
L 189.504 83.278561 
L 190.3104 82.997301 
L 191.1168 82.859295 
L 191.52 82.864828 
L 193.1328 83.291449 
L 194.7456 83.176 
L 195.1488 82.724049 
L 195.9552 81.086922 
L 196.3584 80.002855 
L 197.1648 76.363932 
L 197.9712 71.322471 
L 198.7776 64.028012 
L 199.584 54.91435 
L 200.7936 36.817367 
L 202.0032 14.225086 
L 202.733453 -1 
M 214.679726 -1 
L 218.1312 114.570536 
L 219.3408 144.859753 
L 220.1472 159.013635 
L 220.9536 170.002267 
L 221.3568 172.198607 
L 222.1632 172.65396 
L 222.9696 172.806958 
L 223.3728 171.274232 
L 223.776 167.536186 
L 224.9856 152.461677 
L 226.5984 126.24954 
L 228.6144 92.748753 
L 229.4208 81.647732 
L 230.2272 72.177927 
L 231.0336 65.467605 
L 231.84 60.507086 
L 232.2432 59.14386 
L 232.6464 58.975613 
L 233.0496 59.160679 
L 233.856 59.964055 
L 234.2592 60.727407 
L 234.6624 62.508497 
L 235.872 70.498096 
L 237.0816 80.917374 
L 238.6944 96.666831 
L 241.5168 123.731335 
L 242.7264 133.367942 
L 243.936 141.200801 
L 244.7424 145.41052 
L 245.952 149.856046 
L 246.3552 150.87887 
L 246.7584 151.430723 
L 247.5648 152.037238 
L 247.968 152.199049 
L 248.3712 152.212886 
L 248.7744 151.863879 
L 249.5808 150.398302 
L 250.3872 148.479975 
L 251.5968 144.372092 
L 253.2096 137.773098 
L 255.6288 127.698792 
L 256.8384 123.503101 
L 257.6448 121.154797 
L 258.8544 118.42317 
L 259.6608 117.109615 
L 260.4672 116.100214 
L 261.2736 115.355867 
L 263.2896 114.028282 
L 264.4992 113.157621 
L 265.7088 111.940344 
L 266.9184 110.224788 
L 268.128 108.068524 
L 270.9504 102.177376 
L 272.16 99.856179 
L 273.3696 97.943619 
L 274.5792 96.573588 
L 275.3856 95.929025 
L 276.9984 95.056412 
L 278.6112 94.267554 
L 279.4176 93.667071 
L 280.224 92.845903 
L 281.0304 91.667727 
L 281.8368 90.179547 
L 283.0464 87.178049 
L 284.256 83.351908 
L 285.4656 78.869887 
L 287.8848 68.7336 
L 290.304 58.705553 
L 291.5136 54.423694 
L 292.32 52.020279 
L 293.5296 49.403786 
L 293.9328 48.962638 
L 294.336 48.943852 
L 295.1424 49.279854 
L 295.5456 49.567195 
L 295.9488 50.094225 
L 296.352 51.272689 
L 297.1584 54.771945 
L 297.9648 59.544903 
L 299.1744 69.696968 
L 300.384 83.112671 
L 302.4 108.897731 
L 303.2064 118.863544 
L 304.416 129.257591 
L 304.8192 131.492421 
L 305.2224 132.134502 
L 305.6256 131.28184 
L 306.0288 129.399158 
L 306.8352 123.569416 
L 307.2384 117.718076 
L 308.0448 98.945874 
L 308.8512 74.305838 
L 309.6576 40.619238 
L 310.494386 -1 
M 325.318218 -1 
L 326.592 109.458926 
L 327.8016 197.182146 
L 328.608 244.321739 
L 329.715849 289 
M 333.325818 289 
L 334.2528 265.210938 
L 337.4784 167.354886 
L 338.2848 148.641484 
L 339.0912 134.27568 
L 339.4944 128.536986 
L 339.8976 124.761605 
L 340.704 120.559851 
L 341.1072 119.245762 
L 341.5104 118.769633 
L 341.9136 119.507299 
L 342.3168 121.328951 
L 343.1232 126.262721 
L 343.9296 132.955443 
L 346.3488 155.51236 
L 347.5584 164.465327 
L 348.3648 168.90493 
L 349.5744 174.113813 
L 351.1872 179.934391 
L 351.9936 183.765508 
L 352.8 188.899313 
L 353.6064 196.396396 
L 354.4128 206.16622 
L 355.2192 219.356549 
L 356.0256 235.319614 
L 357.2352 265.614382 
L 358.040617 289 
M 368.943545 289 
L 370.1376 199.606561 
L 372.1536 23.731456 
L 372.425048 -1 
M 386.924588 -1 
L 387.8784 50.510178 
L 389.088 106.666862 
L 390.2976 151.201985 
L 391.5072 183.394161 
L 392.3136 198.535742 
L 393.12 209.897445 
L 393.9264 217.342749 
L 394.7328 222.32547 
L 395.136 224.064183 
L 395.9424 226.25194 
L 397.9584 230.364611 
L 398.3616 231.396524 
L 399.168 234.460039 
L 399.9744 238.748606 
L 400.7808 244.660932 
L 401.9904 256.474991 
L 403.2 271.705008 
L 404.387069 289 
M 415.366685 289 
L 416.5056 256.031627 
L 418.1184 200.84615 
L 420.5376 107.170665 
L 423.242523 -1 
L 423.242523 -1 
" clip-path="url(#p866985ddc8)" style="fill: none; stroke: #ff0000; stroke-linecap: square"/>
   </g>
   <g id="text_2">
    <g id="patch_3">
     <path d="M 30.299688 84.305469 
L 44.32 84.305469 
L 44.32 66.574219 
L 30.299688 66.574219 
L 30.299688 84.305469 
z
" style="fill: none"/>
    </g>
    <!-- N -->
    <g transform="translate(34.299688 78.225781) scale(0.1 -0.1)">
     <defs>
      <path id="DejaVuSansMono-4e" d="M 434 4666 
L 1234 4666 
L 2809 825 
L 2809 4666 
L 3419 4666 
L 3419 0 
L 2619 0 
L 1044 3841 
L 1044 0 
L 434 0 
L 434 4666 
z
" transform="scale(0.015625)"/>
     </defs>
     <use xlink:href="#DejaVuSansMono-4e"/>
    </g>
   </g>
   <g id="text_3">
    <g id="patch_4">
     <path d="M 46.4049 52.829494 
L 106.681514 52.829494 
L 106.681514 39.2049 
L 46.4049 39.2049 
L 46.4049 52.829494 
z
" style="fill: none"/>
    </g>
    <!-- A: 1.8601e-06 m -->
    <g transform="translate(50.4 47.630255) scale(0.0579 -0.0579)">
     <defs>
      <path id="DejaVuSansMono-41" d="M 1925 4109 
L 1259 1722 
L 2591 1722 
L 1925 4109 
z
M 1544 4666 
L 2309 4666 
L 3738 0 
L 3084 0 
L 2741 1216 
L 1106 1216 
L 769 0 
L 116 0 
L 1544 4666 
z
" transform="scale(0.015625)"/>
      <path id="DejaVuSansMono-3a" d="M 1528 3322 
L 2316 3322 
L 2316 2375 
L 1528 2375 
L 1528 3322 
z
M 1528 953 
L 2316 953 
L 2316 0 
L 1528 0 
L 1528 953 
z
" transform="scale(0.015625)"/>
      <path id="DejaVuSansMono-20" transform="scale(0.015625)"/>
      <path id="DejaVuSansMono-2e" d="M 1528 953 
L 2316 953 
L 2316 0 
L 1528 0 
L 1528 953 
z
" transform="scale(0.015625)"/>
      <path id="DejaVuSansMono-38" d="M 1925 2216 
Q 1503 2216 1273 1980 
Q 1044 1744 1044 1313 
Q 1044 881 1276 642 
Q 1509 403 1925 403 
Q 2350 403 2579 639 
Q 2809 875 2809 1313 
Q 2809 1741 2576 1978 
Q 2344 2216 1925 2216 
z
M 1375 2478 
Q 972 2581 745 2862 
Q 519 3144 519 3541 
Q 519 4097 897 4423 
Q 1275 4750 1925 4750 
Q 2578 4750 2956 4423 
Q 3334 4097 3334 3541 
Q 3334 3144 3107 2862 
Q 2881 2581 2478 2478 
Q 2947 2375 3195 2062 
Q 3444 1750 3444 1253 
Q 3444 622 3041 265 
Q 2638 -91 1925 -91 
Q 1213 -91 811 264 
Q 409 619 409 1247 
Q 409 1747 657 2061 
Q 906 2375 1375 2478 
z
M 1147 3481 
Q 1147 3106 1347 2909 
Q 1547 2713 1925 2713 
Q 2306 2713 2506 2909 
Q 2706 3106 2706 3481 
Q 2706 3863 2507 4063 
Q 2309 4263 1925 4263 
Q 1547 4263 1347 4061 
Q 1147 3859 1147 3481 
z
" transform="scale(0.015625)"/>
      <path id="DejaVuSansMono-6d" d="M 2113 3144 
Q 2219 3369 2383 3476 
Q 2547 3584 2778 3584 
Q 3200 3584 3373 3257 
Q 3547 2931 3547 2028 
L 3547 0 
L 3022 0 
L 3022 2003 
Q 3022 2744 2939 2923 
Q 2856 3103 2638 3103 
Q 2388 3103 2295 2911 
Q 2203 2719 2203 2003 
L 2203 0 
L 1678 0 
L 1678 2003 
Q 1678 2753 1589 2928 
Q 1500 3103 1269 3103 
Q 1041 3103 952 2911 
Q 863 2719 863 2003 
L 863 0 
L 341 0 
L 341 3500 
L 863 3500 
L 863 3200 
Q 966 3388 1120 3486 
Q 1275 3584 1472 3584 
Q 1709 3584 1867 3475 
Q 2025 3366 2113 3144 
z
" transform="scale(0.015625)"/>
     </defs>
     <use xlink:href="#DejaVuSansMono-41"/>
     <use xlink:href="#DejaVuSansMono-3a" x="60.205078"/>
     <use xlink:href="#DejaVuSansMono-20" x="120.410156"/>
     <use xlink:href="#DejaVuSansMono-31" x="180.615234"/>
     <use xlink:href="#DejaVuSansMono-2e" x="240.820312"/>
     <use xlink:href="#DejaVuSansMono-38" x="301.025391"/>
     <use xlink:href="#DejaVuSansMono-36" x="361.230469"/>
     <use xlink:href="#DejaVuSansMono-30" x="421.435547"/>
     <use xlink:href="#DejaVuSansMono-31" x="481.640625"/>
     <use xlink:href="#DejaVuSansMono-65" x="541.845703"/>
     <use xlink:href="#DejaVuSansMono-2d" x="602.050781"/>
     <use xlink:href="#DejaVuSansMono-30" x="662.255859"/>
     <use xlink:href="#DejaVuSansMono-36" x="722.460938"/>
     <use xlink:href="#DejaVuSansMono-20" x="782.666016"/>
     <use xlink:href="#DejaVuSansMono-6d" x="842.871094"/>
    </g>
   </g>
   <g id="text_4">
    <g id="patch_5">
     <path d="M 46.4 37.857727 
L 373.476562 37.857727 
L 373.476562 8.78054 
L 46.4 8.78054 
L 46.4 37.857727 
z
" style="fill: none"/>
    </g>
    <!-- 2015-09-16 22:55:22  Loc: -31.13dg, -72.09dg, 17.35km -->
    <g transform="translate(50.4 20.447727) scale(0.1 -0.1)">
     <defs>
      <path id="DejaVuSansMono-39" d="M 1863 2069 
Q 2266 2069 2495 2359 
Q 2725 2650 2725 3163 
Q 2725 3675 2495 3965 
Q 2266 4256 1863 4256 
Q 1444 4256 1231 3979 
Q 1019 3703 1019 3163 
Q 1019 2619 1230 2344 
Q 1441 2069 1863 2069 
z
M 738 97 
L 738 678 
Q 934 563 1156 502 
Q 1378 441 1619 441 
Q 2219 441 2526 892 
Q 2834 1344 2834 2222 
Q 2688 1909 2422 1742 
Q 2156 1575 1813 1575 
Q 1138 1575 767 1990 
Q 397 2406 397 3169 
Q 397 3922 776 4336 
Q 1156 4750 1850 4750 
Q 2663 4750 3041 4165 
Q 3419 3581 3419 2328 
Q 3419 1150 2964 529 
Q 2509 -91 1644 -91 
Q 1416 -91 1184 -42 
Q 953 6 738 97 
z
" transform="scale(0.015625)"/>
      <path id="DejaVuSansMono-4c" d="M 672 4666 
L 1306 4666 
L 1306 531 
L 3559 531 
L 3559 0 
L 672 0 
L 672 4666 
z
" transform="scale(0.015625)"/>
      <path id="DejaVuSansMono-6f" d="M 1925 3097 
Q 1488 3097 1263 2756 
Q 1038 2416 1038 1747 
Q 1038 1081 1263 739 
Q 1488 397 1925 397 
Q 2366 397 2591 739 
Q 2816 1081 2816 1747 
Q 2816 2416 2591 2756 
Q 2366 3097 1925 3097 
z
M 1925 3584 
Q 2653 3584 3039 3112 
Q 3425 2641 3425 1747 
Q 3425 850 3040 379 
Q 2656 -91 1925 -91 
Q 1197 -91 812 379 
Q 428 850 428 1747 
Q 428 2641 812 3112 
Q 1197 3584 1925 3584 
z
" transform="scale(0.015625)"/>
      <path id="DejaVuSansMono-63" d="M 3316 178 
Q 3084 44 2839 -23 
Q 2594 -91 2338 -91 
Q 1525 -91 1067 396 
Q 609 884 609 1747 
Q 609 2609 1067 3096 
Q 1525 3584 2338 3584 
Q 2591 3584 2831 3518 
Q 3072 3453 3316 3316 
L 3316 2713 
Q 3088 2916 2858 3006 
Q 2628 3097 2338 3097 
Q 1797 3097 1506 2747 
Q 1216 2397 1216 1747 
Q 1216 1100 1508 748 
Q 1800 397 2338 397 
Q 2638 397 2875 489 
Q 3113 581 3316 775 
L 3316 178 
z
" transform="scale(0.015625)"/>
      <path id="DejaVuSansMono-33" d="M 2425 2497 
Q 2884 2375 3128 2064 
Q 3372 1753 3372 1288 
Q 3372 644 2939 276 
Q 2506 -91 1741 -91 
Q 1419 -91 1084 -31 
Q 750 28 428 141 
L 428 769 
Q 747 603 1056 522 
Q 1366 441 1672 441 
Q 2191 441 2469 675 
Q 2747 909 2747 1350 
Q 2747 1756 2469 1995 
Q 2191 2234 1716 2234 
L 1234 2234 
L 1234 2753 
L 1716 2753 
Q 2150 2753 2394 2943 
Q 2638 3134 2638 3475 
Q 2638 3834 2411 4026 
Q 2184 4219 1766 4219 
Q 1488 4219 1191 4156 
Q 894 4094 569 3969 
L 569 4550 
Q 947 4650 1242 4700 
Q 1538 4750 1766 4750 
Q 2447 4750 2855 4408 
Q 3263 4066 3263 3500 
Q 3263 3116 3048 2859 
Q 2834 2603 2425 2497 
z
" transform="scale(0.015625)"/>
      <path id="DejaVuSansMono-64" d="M 2681 3053 
L 2681 4863 
L 3256 4863 
L 3256 0 
L 2681 0 
L 2681 441 
Q 2538 181 2298 45 
Q 2059 -91 1747 -91 
Q 1113 -91 748 401 
Q 384 894 384 1759 
Q 384 2613 750 3098 
Q 1116 3584 1747 3584 
Q 2063 3584 2303 3448 
Q 2544 3313 2681 3053 
z
M 991 1747 
Q 991 1078 1203 737 
Q 1416 397 1831 397 
Q 2247 397 2464 740 
Q 2681 1084 2681 1747 
Q 2681 2413 2464 2755 
Q 2247 3097 1831 3097 
Q 1416 3097 1203 2756 
Q 991 2416 991 1747 
z
" transform="scale(0.015625)"/>
      <path id="DejaVuSansMono-67" d="M 2681 1778 
Q 2681 2425 2470 2761 
Q 2259 3097 1856 3097 
Q 1434 3097 1212 2761 
Q 991 2425 991 1778 
Q 991 1131 1214 792 
Q 1438 453 1863 453 
Q 2259 453 2470 793 
Q 2681 1134 2681 1778 
z
M 3256 225 
Q 3256 -563 2884 -969 
Q 2513 -1375 1791 -1375 
Q 1553 -1375 1293 -1331 
Q 1034 -1288 775 -1203 
L 775 -634 
Q 1081 -778 1331 -847 
Q 1581 -916 1791 -916 
Q 2256 -916 2468 -662 
Q 2681 -409 2681 141 
L 2681 166 
L 2681 556 
Q 2544 263 2306 119 
Q 2069 -25 1728 -25 
Q 1116 -25 750 465 
Q 384 956 384 1778 
Q 384 2603 750 3093 
Q 1116 3584 1728 3584 
Q 2066 3584 2300 3450 
Q 2534 3316 2681 3034 
L 2681 3488 
L 3256 3488 
L 3256 225 
z
" transform="scale(0.015625)"/>
      <path id="DejaVuSansMono-2c" d="M 1569 947 
L 2356 947 
L 2356 300 
L 1741 -897 
L 1259 -897 
L 1569 300 
L 1569 947 
z
" transform="scale(0.015625)"/>
      <path id="DejaVuSansMono-37" d="M 434 4666 
L 3372 4666 
L 3372 4397 
L 1703 0 
L 1044 0 
L 2669 4134 
L 434 4134 
L 434 4666 
z
" transform="scale(0.015625)"/>
      <path id="DejaVuSansMono-6b" d="M 738 4863 
L 1331 4863 
L 1331 2047 
L 2841 3500 
L 3541 3500 
L 2163 2181 
L 3756 0 
L 3053 0 
L 1759 1806 
L 1331 1403 
L 1331 0 
L 738 0 
L 738 4863 
z
" transform="scale(0.015625)"/>
     </defs>
     <use xlink:href="#DejaVuSansMono-32"/>
     <use xlink:href="#DejaVuSansMono-30" x="60.205078"/>
     <use xlink:href="#DejaVuSansMono-31" x="120.410156"/>
     <use xlink:href="#DejaVuSansMono-35" x="180.615234"/>
     <use xlink:href="#DejaVuSansMono-2d" x="240.820312"/>
     <use xlink:href="#DejaVuSansMono-30" x="301.025391"/>
     <use xlink:href="#DejaVuSansMono-39" x="361.230469"/>
     <use xlink:href="#DejaVuSansMono-2d" x="421.435547"/>
     <use xlink:href="#DejaVuSansMono-31" x="481.640625"/>
     <use xlink:href="#DejaVuSansMono-36" x="541.845703"/>
     <use xlink:href="#DejaVuSansMono-20" x="602.050781"/>
     <use xlink:href="#DejaVuSansMono-32" x="662.255859"/>
     <use xlink:href="#DejaVuSansMono-32" x="722.460938"/>
     <use xlink:href="#DejaVuSansMono-3a" x="782.666016"/>
     <use xlink:href="#DejaVuSansMono-35" x="842.871094"/>
     <use xlink:href="#DejaVuSansMono-35" x="903.076172"/>
     <use xlink:href="#DejaVuSansMono-3a" x="963.28125"/>
     <use xlink:href="#DejaVuSansMono-32" x="1023.486328"/>
     <use xlink:href="#DejaVuSansMono-32" x="1083.691406"/>
     <use xlink:href="#DejaVuSansMono-20" x="1143.896484"/>
     <use xlink:href="#DejaVuSansMono-20" x="1204.101562"/>
     <use xlink:href="#DejaVuSansMono-4c" x="1264.306641"/>
     <use xlink:href="#DejaVuSansMono-6f" x="1324.511719"/>
     <use xlink:href="#DejaVuSansMono-63" x="1384.716797"/>
     <use xlink:href="#DejaVuSansMono-3a" x="1444.921875"/>
     <use xlink:href="#DejaVuSansMono-20" x="1505.126953"/>
     <use xlink:href="#DejaVuSansMono-2d" x="1565.332031"/>
     <use xlink:href="#DejaVuSansMono-33" x="1625.537109"/>
     <use xlink:href="#DejaVuSansMono-31" x="1685.742188"/>
     <use xlink:href="#DejaVuSansMono-2e" x="1745.947266"/>
     <use xlink:href="#DejaVuSansMono-31" x="1806.152344"/>
     <use xlink:href="#DejaVuSansMono-33" x="1866.357422"/>
     <use xlink:href="#DejaVuSansMono-64" x="1926.5625"/>
     <use xlink:href="#DejaVuSansMono-67" x="1986.767578"/>
     <use xlink:href="#DejaVuSansMono-2c" x="2046.972656"/>
     <use xlink:href="#DejaVuSansMono-20" x="2107.177734"/>
     <use xlink:href="#DejaVuSansMono-2d" x="2167.382812"/>
     <use xlink:href="#DejaVuSansMono-37" x="2227.587891"/>
     <use xlink:href="#DejaVuSansMono-32" x="2287.792969"/>
     <use xlink:href="#DejaVuSansMono-2e" x="2347.998047"/>
     <use xlink:href="#DejaVuSansMono-30" x="2408.203125"/>
     <use xlink:href="#DejaVuSansMono-39" x="2468.408203"/>
     <use xlink:href="#DejaVuSansMono-64" x="2528.613281"/>
     <use xlink:href="#DejaVuSansMono-67" x="2588.818359"/>
     <use xlink:href="#DejaVuSansMono-2c" x="2649.023438"/>
     <use xlink:href="#DejaVuSansMono-20" x="2709.228516"/>
     <use xlink:href="#DejaVuSansMono-31" x="2769.433594"/>
     <use xlink:href="#DejaVuSansMono-37" x="2829.638672"/>
     <use xlink:href="#DejaVuSansMono-2e" x="2889.84375"/>
     <use xlink:href="#DejaVuSansMono-33" x="2950.048828"/>
     <use xlink:href="#DejaVuSansMono-35" x="3010.253906"/>
     <use xlink:href="#DejaVuSansMono-6b" x="3070.458984"/>
     <use xlink:href="#DejaVuSansMono-6d" x="3130.664062"/>
    </g>
    <!-- II.BFO - - BP: [40s, 300s] -->
    <g transform="translate(50.4 31.77804) scale(0.1 -0.1)">
     <defs>
      <path id="DejaVuSansMono-49" d="M 628 4666 
L 3219 4666 
L 3219 4134 
L 2241 4134 
L 2241 531 
L 3219 531 
L 3219 0 
L 628 0 
L 628 531 
L 1606 531 
L 1606 4134 
L 628 4134 
L 628 4666 
z
" transform="scale(0.015625)"/>
      <path id="DejaVuSansMono-42" d="M 1153 2228 
L 1153 519 
L 1900 519 
Q 2450 519 2684 711 
Q 2919 903 2919 1344 
Q 2919 1800 2672 2014 
Q 2425 2228 1900 2228 
L 1153 2228 
z
M 1153 4147 
L 1153 2741 
L 1888 2741 
Q 2344 2741 2548 2916 
Q 2753 3091 2753 3481 
Q 2753 3834 2551 3990 
Q 2350 4147 1888 4147 
L 1153 4147 
z
M 519 4666 
L 1900 4666 
Q 2616 4666 3003 4356 
Q 3391 4047 3391 3481 
Q 3391 3053 3186 2806 
Q 2981 2559 2572 2497 
Q 3031 2428 3292 2104 
Q 3553 1781 3553 1281 
Q 3553 647 3137 323 
Q 2722 0 1900 0 
L 519 0 
L 519 4666 
z
" transform="scale(0.015625)"/>
      <path id="DejaVuSansMono-46" d="M 728 4666 
L 3475 4666 
L 3475 4134 
L 1363 4134 
L 1363 2759 
L 3278 2759 
L 3278 2228 
L 1363 2228 
L 1363 0 
L 728 0 
L 728 4666 
z
" transform="scale(0.015625)"/>
      <path id="DejaVuSansMono-4f" d="M 2828 2328 
Q 2828 3356 2617 3797 
Q 2406 4238 1925 4238 
Q 1447 4238 1236 3797 
Q 1025 3356 1025 2328 
Q 1025 1303 1236 862 
Q 1447 422 1925 422 
Q 2406 422 2617 861 
Q 2828 1300 2828 2328 
z
M 3488 2328 
Q 3488 1109 3102 509 
Q 2716 -91 1925 -91 
Q 1134 -91 750 506 
Q 366 1103 366 2328 
Q 366 3550 752 4150 
Q 1138 4750 1925 4750 
Q 2716 4750 3102 4150 
Q 3488 3550 3488 2328 
z
" transform="scale(0.015625)"/>
      <path id="DejaVuSansMono-50" d="M 1247 4147 
L 1247 2394 
L 1978 2394 
Q 2416 2394 2661 2625 
Q 2906 2856 2906 3272 
Q 2906 3688 2662 3917 
Q 2419 4147 1978 4147 
L 1247 4147 
z
M 616 4666 
L 1978 4666 
Q 2759 4666 3162 4311 
Q 3566 3956 3566 3272 
Q 3566 2581 3164 2228 
Q 2763 1875 1978 1875 
L 1247 1875 
L 1247 0 
L 616 0 
L 616 4666 
z
" transform="scale(0.015625)"/>
      <path id="DejaVuSansMono-5b" d="M 1447 4863 
L 2772 4863 
L 2772 4416 
L 2022 4416 
L 2022 -397 
L 2772 -397 
L 2772 -844 
L 1447 -844 
L 1447 4863 
z
" transform="scale(0.015625)"/>
      <path id="DejaVuSansMono-34" d="M 2297 4091 
L 825 1625 
L 2297 1625 
L 2297 4091 
z
M 2194 4666 
L 2925 4666 
L 2925 1625 
L 3547 1625 
L 3547 1113 
L 2925 1113 
L 2925 0 
L 2297 0 
L 2297 1113 
L 319 1113 
L 319 1709 
L 2194 4666 
z
" transform="scale(0.015625)"/>
      <path id="DejaVuSansMono-73" d="M 3041 3378 
L 3041 2816 
Q 2794 2959 2544 3031 
Q 2294 3103 2034 3103 
Q 1644 3103 1451 2976 
Q 1259 2850 1259 2591 
Q 1259 2356 1403 2240 
Q 1547 2125 2119 2016 
L 2350 1972 
Q 2778 1891 2998 1647 
Q 3219 1403 3219 1013 
Q 3219 494 2850 201 
Q 2481 -91 1825 -91 
Q 1566 -91 1281 -36 
Q 997 19 666 128 
L 666 722 
Q 988 556 1281 473 
Q 1575 391 1838 391 
Q 2219 391 2428 545 
Q 2638 700 2638 978 
Q 2638 1378 1872 1531 
L 1847 1538 
L 1631 1581 
Q 1134 1678 906 1908 
Q 678 2138 678 2534 
Q 678 3038 1018 3311 
Q 1359 3584 1991 3584 
Q 2272 3584 2531 3532 
Q 2791 3481 3041 3378 
z
" transform="scale(0.015625)"/>
      <path id="DejaVuSansMono-5d" d="M 2406 4863 
L 2406 -844 
L 1081 -844 
L 1081 -397 
L 1831 -397 
L 1831 4416 
L 1081 4416 
L 1081 4863 
L 2406 4863 
z
" transform="scale(0.015625)"/>
     </defs>
     <use xlink:href="#DejaVuSansMono-49"/>
     <use xlink:href="#DejaVuSansMono-49" x="60.205078"/>
     <use xlink:href="#DejaVuSansMono-2e" x="120.410156"/>
     <use xlink:href="#DejaVuSansMono-42" x="180.615234"/>
     <use xlink:href="#DejaVuSansMono-46" x="240.820312"/>
     <use xlink:href="#DejaVuSansMono-4f" x="301.025391"/>
     <use xlink:href="#DejaVuSansMono-20" x="361.230469"/>
     <use xlink:href="#DejaVuSansMono-2d" x="421.435547"/>
     <use xlink:href="#DejaVuSansMono-2d" x="481.640625"/>
     <use xlink:href="#DejaVuSansMono-20" x="541.845703"/>
     <use xlink:href="#DejaVuSansMono-42" x="602.050781"/>
     <use xlink:href="#DejaVuSansMono-50" x="662.255859"/>
     <use xlink:href="#DejaVuSansMono-3a" x="722.460938"/>
     <use xlink:href="#DejaVuSansMono-20" x="782.666016"/>
     <use xlink:href="#DejaVuSansMono-5b" x="842.871094"/>
     <use xlink:href="#DejaVuSansMono-34" x="903.076172"/>
     <use xlink:href="#DejaVuSansMono-30" x="963.28125"/>
     <use xlink:href="#DejaVuSansMono-73" x="1023.486328"/>
     <use xlink:href="#DejaVuSansMono-2c" x="1083.691406"/>
     <use xlink:href="#DejaVuSansMono-20" x="1143.896484"/>
     <use xlink:href="#DejaVuSansMono-33" x="1204.101562"/>
     <use xlink:href="#DejaVuSansMono-30" x="1264.306641"/>
     <use xlink:href="#DejaVuSansMono-30" x="1324.511719"/>
     <use xlink:href="#DejaVuSansMono-73" x="1384.716797"/>
     <use xlink:href="#DejaVuSansMono-5d" x="1444.921875"/>
    </g>
   </g>
   <g id="legend_1">
    <g id="line2d_3">
     <path d="M 323.582353 52.327184 
L 330.522353 52.327184 
L 337.462353 52.327184 
" style="fill: none; stroke: #000000; stroke-linecap: square"/>
    </g>
    <g id="text_5">
     <!-- Observed -->
     <g transform="translate(343.014353 54.756184) scale(0.0694 -0.0694)">
      <defs>
       <path id="DejaVuSansMono-62" d="M 2869 1747 
Q 2869 2416 2656 2756 
Q 2444 3097 2028 3097 
Q 1609 3097 1393 2755 
Q 1178 2413 1178 1747 
Q 1178 1084 1393 740 
Q 1609 397 2028 397 
Q 2444 397 2656 737 
Q 2869 1078 2869 1747 
z
M 1178 3053 
Q 1316 3309 1558 3446 
Q 1800 3584 2119 3584 
Q 2750 3584 3112 3098 
Q 3475 2613 3475 1759 
Q 3475 894 3111 401 
Q 2747 -91 2113 -91 
Q 1800 -91 1561 45 
Q 1322 181 1178 441 
L 1178 0 
L 603 0 
L 603 4863 
L 1178 4863 
L 1178 3053 
z
" transform="scale(0.015625)"/>
       <path id="DejaVuSansMono-72" d="M 3609 2778 
Q 3425 2922 3234 2987 
Q 3044 3053 2816 3053 
Q 2278 3053 1993 2715 
Q 1709 2378 1709 1741 
L 1709 0 
L 1131 0 
L 1131 3500 
L 1709 3500 
L 1709 2816 
Q 1853 3188 2151 3386 
Q 2450 3584 2859 3584 
Q 3072 3584 3256 3531 
Q 3441 3478 3609 3366 
L 3609 2778 
z
" transform="scale(0.015625)"/>
       <path id="DejaVuSansMono-76" d="M 313 3500 
L 909 3500 
L 1925 563 
L 2944 3500 
L 3541 3500 
L 2297 0 
L 1556 0 
L 313 3500 
z
" transform="scale(0.015625)"/>
      </defs>
      <use xlink:href="#DejaVuSansMono-4f"/>
      <use xlink:href="#DejaVuSansMono-62" x="60.205078"/>
      <use xlink:href="#DejaVuSansMono-73" x="120.410156"/>
      <use xlink:href="#DejaVuSansMono-65" x="180.615234"/>
      <use xlink:href="#DejaVuSansMono-72" x="240.820312"/>
      <use xlink:href="#DejaVuSansMono-76" x="301.025391"/>
      <use xlink:href="#DejaVuSansMono-65" x="361.230469"/>
      <use xlink:href="#DejaVuSansMono-64" x="421.435547"/>
     </g>
    </g>
    <g id="line2d_4">
     <path d="M 390.319128 52.327184 
L 397.259128 52.327184 
L 404.199128 52.327184 
" style="fill: none; stroke: #ff0000; stroke-linecap: square"/>
    </g>
    <g id="text_6">
     <!-- Synthetic -->
     <g transform="translate(409.751128 54.756184) scale(0.0694 -0.0694)">
      <defs>
       <path id="DejaVuSansMono-79" d="M 2681 1125 
Q 2538 759 2316 163 
Q 2006 -663 1900 -844 
Q 1756 -1088 1540 -1209 
Q 1325 -1331 1038 -1331 
L 575 -1331 
L 575 -850 
L 916 -850 
Q 1169 -850 1312 -703 
Q 1456 -556 1678 56 
L 325 3500 
L 934 3500 
L 1972 763 
L 2994 3500 
L 3603 3500 
L 2681 1125 
z
" transform="scale(0.015625)"/>
       <path id="DejaVuSansMono-6e" d="M 3284 2169 
L 3284 0 
L 2706 0 
L 2706 2169 
Q 2706 2641 2540 2862 
Q 2375 3084 2022 3084 
Q 1619 3084 1401 2798 
Q 1184 2513 1184 1978 
L 1184 0 
L 609 0 
L 609 3500 
L 1184 3500 
L 1184 2975 
Q 1338 3275 1600 3429 
Q 1863 3584 2222 3584 
Q 2756 3584 3020 3232 
Q 3284 2881 3284 2169 
z
" transform="scale(0.015625)"/>
       <path id="DejaVuSansMono-74" d="M 1919 4494 
L 1919 3500 
L 3225 3500 
L 3225 3053 
L 1919 3053 
L 1919 1153 
Q 1919 766 2066 612 
Q 2213 459 2578 459 
L 3225 459 
L 3225 0 
L 2522 0 
Q 1875 0 1609 259 
Q 1344 519 1344 1153 
L 1344 3053 
L 409 3053 
L 409 3500 
L 1344 3500 
L 1344 4494 
L 1919 4494 
z
" transform="scale(0.015625)"/>
       <path id="DejaVuSansMono-68" d="M 3284 2169 
L 3284 0 
L 2706 0 
L 2706 2169 
Q 2706 2641 2540 2862 
Q 2375 3084 2022 3084 
Q 1619 3084 1401 2798 
Q 1184 2513 1184 1978 
L 1184 0 
L 609 0 
L 609 4863 
L 1184 4863 
L 1184 2975 
Q 1338 3275 1600 3429 
Q 1863 3584 2222 3584 
Q 2756 3584 3020 3232 
Q 3284 2881 3284 2169 
z
" transform="scale(0.015625)"/>
       <path id="DejaVuSansMono-69" d="M 800 3500 
L 2272 3500 
L 2272 447 
L 3413 447 
L 3413 0 
L 556 0 
L 556 447 
L 1697 447 
L 1697 3053 
L 800 3053 
L 800 3500 
z
M 1697 4863 
L 2272 4863 
L 2272 4134 
L 1697 4134 
L 1697 4863 
z
" transform="scale(0.015625)"/>
      </defs>
      <use xlink:href="#DejaVuSansMono-53"/>
      <use xlink:href="#DejaVuSansMono-79" x="60.205078"/>
      <use xlink:href="#DejaVuSansMono-6e" x="120.410156"/>
      <use xlink:href="#DejaVuSansMono-74" x="180.615234"/>
      <use xlink:href="#DejaVuSansMono-68" x="240.820312"/>
      <use xlink:href="#DejaVuSansMono-65" x="301.025391"/>
      <use xlink:href="#DejaVuSansMono-74" x="361.230469"/>
      <use xlink:href="#DejaVuSansMono-69" x="421.435547"/>
      <use xlink:href="#DejaVuSansMono-63" x="481.640625"/>
     </g>
    </g>
   </g>
  </g>
  <g id="axes_2">
   <g id="patch_6">
    <path d="M 50.4 168 
L 453.6 168 
L 453.6 105.6 
L 50.4 105.6 
z
" style="fill: #ffffff"/>
   </g>
   <g id="matplotlib.axis_3">
    <g id="xtick_4"/>
    <g id="xtick_5"/>
    <g id="xtick_6"/>
    <g id="text_7">
     <!-- 2015-Sep-16 -->
     <g transform="translate(387.376563 178.651563) scale(0.1 -0.1)">
      <use xlink:href="#DejaVuSansMono-32"/>
      <use xlink:href="#DejaVuSansMono-30" x="60.205078"/>
      <use xlink:href="#DejaVuSansMono-31" x="120.410156"/>
      <use xlink:href="#DejaVuSansMono-35" x="180.615234"/>
      <use xlink:href="#DejaVuSansMono-2d" x="240.820312"/>
      <use xlink:href="#DejaVuSansMono-53" x="301.025391"/>
      <use xlink:href="#DejaVuSansMono-65" x="361.230469"/>
      <use xlink:href="#DejaVuSansMono-70" x="421.435547"/>
      <use xlink:href="#DejaVuSansMono-2d" x="481.640625"/>
      <use xlink:href="#DejaVuSansMono-31" x="541.845703"/>
      <use xlink:href="#DejaVuSansMono-36" x="602.050781"/>
     </g>
    </g>
   </g>
   <g id="matplotlib.axis_4">
    <g id="ytick_4"/>
    <g id="ytick_5"/>
    <g id="ytick_6"/>
   </g>
   <g id="line2d_5">
    <path d="M 49.9968 134.280008 
L 70.56 134.307319 
L 114.5088 134.017682 
L 158.4576 134.605242 
L 172.9728 134.34948 
L 179.424 134.005703 
L 183.0528 133.920453 
L 189.1008 133.912795 
L 190.7136 133.635664 
L 192.3264 133.108711 
L 193.9392 132.317624 
L 196.3584 130.786442 
L 198.3744 129.554676 
L 199.584 129.048148 
L 200.3904 128.877659 
L 201.1968 128.882491 
L 202.0032 129.082263 
L 202.8096 129.499219 
L 203.616 130.140992 
L 204.8256 131.510824 
L 206.0352 133.294115 
L 210.4704 140.428263 
L 211.2768 141.274357 
L 212.0832 141.854724 
L 212.8896 142.14637 
L 213.696 142.132404 
L 214.5024 141.829614 
L 215.3088 141.25362 
L 216.1152 140.440199 
L 217.3248 138.880306 
L 221.76 132.641092 
L 222.9696 131.537548 
L 223.776 131.039437 
L 224.5824 130.735699 
L 225.3888 130.619813 
L 226.1952 130.677495 
L 227.4048 131.04095 
L 228.6144 131.66246 
L 230.6304 133.018453 
L 233.4528 134.901737 
L 235.0656 135.662966 
L 236.2752 136.008938 
L 237.4848 136.15552 
L 239.0976 136.073768 
L 240.7104 135.758695 
L 243.5328 134.936823 
L 247.1616 133.912367 
L 249.984 133.358917 
L 252.4032 133.110959 
L 255.2256 133.05981 
L 261.2736 133.258843 
L 264.096 133.543417 
L 267.3216 134.136561 
L 270.5472 134.691572 
L 272.5632 134.778822 
L 274.5792 134.595117 
L 276.9984 134.118694 
L 280.6272 133.382306 
L 282.6432 133.19051 
L 285.0624 133.203366 
L 287.0784 133.401108 
L 288.6912 133.751924 
L 290.304 134.360151 
L 291.9168 135.246847 
L 296.7552 138.297913 
L 297.5616 138.536745 
L 298.368 138.584372 
L 299.1744 138.410119 
L 299.9808 137.970728 
L 300.7872 137.243959 
L 301.5936 136.218932 
L 302.4 134.900154 
L 303.6096 132.421889 
L 305.2224 128.430274 
L 307.6416 122.239249 
L 308.8512 119.818169 
L 309.6576 118.725048 
L 310.464 118.177803 
L 310.8672 118.168921 
L 311.2704 118.302987 
L 311.6736 118.630665 
L 312.0768 119.1477 
L 312.8832 120.763244 
L 313.6896 123.144202 
L 314.496 126.23338 
L 315.7056 131.944686 
L 319.7376 152.809237 
L 320.544 155.813225 
L 321.3504 158.039728 
L 322.1568 159.389174 
L 322.56 159.719084 
L 322.9632 159.78545 
L 323.3664 159.640707 
L 323.7696 159.255382 
L 324.1728 158.6398 
L 324.9792 156.760675 
L 325.7856 154.112662 
L 326.9952 149.032485 
L 331.4304 128.553695 
L 332.2368 125.985777 
L 333.0432 124.071825 
L 333.8496 122.857337 
L 334.2528 122.513898 
L 334.656 122.340977 
L 335.0592 122.350818 
L 335.4624 122.494601 
L 336.2688 123.216454 
L 337.0752 124.400581 
L 338.2848 126.748554 
L 340.704 131.799818 
L 341.9136 133.731064 
L 342.72 134.632072 
L 343.5264 135.196392 
L 344.3328 135.437454 
L 345.1392 135.386178 
L 345.9456 135.114177 
L 347.5584 134.20367 
L 349.1712 133.316531 
L 350.3808 132.952367 
L 351.1872 132.916922 
L 351.9936 133.047588 
L 353.2032 133.530682 
L 355.2192 134.746531 
L 356.4288 135.360114 
L 357.2352 135.553529 
L 358.0416 135.473543 
L 358.848 135.05923 
L 359.6544 134.254623 
L 360.4608 133.029111 
L 361.2672 131.376959 
L 362.4768 128.152076 
L 363.6864 124.20856 
L 366.912 113.025609 
L 367.7184 110.871684 
L 368.5248 109.277676 
L 369.3312 108.365851 
L 369.7344 108.2 
L 370.1376 108.245895 
L 370.5408 108.482732 
L 370.944 108.935831 
L 371.7504 110.471002 
L 372.5568 112.814844 
L 373.3632 115.898492 
L 374.5728 121.680506 
L 376.1856 130.806498 
L 378.6048 144.736538 
L 379.8144 150.525345 
L 380.6208 153.613235 
L 381.4272 155.970994 
L 382.2336 157.545008 
L 382.6368 158.032532 
L 383.04 158.324072 
L 383.4432 158.406474 
L 383.8464 158.313905 
L 384.2496 158.042635 
L 385.056 157.001791 
L 385.8624 155.393167 
L 387.072 152.208697 
L 390.2976 142.821012 
L 391.104 141.030785 
L 391.9104 139.671672 
L 392.7168 138.799951 
L 393.5232 138.439794 
L 394.3296 138.58768 
L 395.136 139.190422 
L 395.9424 140.178091 
L 397.152 142.16008 
L 399.5712 146.459882 
L 400.3776 147.572966 
L 401.184 148.372704 
L 401.9904 148.801845 
L 402.7968 148.81826 
L 403.6032 148.429414 
L 404.4096 147.640016 
L 405.216 146.483764 
L 406.4256 144.166579 
L 408.0384 140.319177 
L 411.264 132.244921 
L 412.4736 129.792711 
L 413.6832 127.905279 
L 414.4896 126.998404 
L 415.296 126.379449 
L 416.1024 126.039548 
L 416.9088 125.964787 
L 417.7152 126.11082 
L 418.5216 126.45189 
L 419.7312 127.225958 
L 423.36 129.888611 
L 424.5696 130.377472 
L 425.376 130.508667 
L 426.5856 130.404384 
L 427.7952 129.995227 
L 429.408 129.133861 
L 432.2304 127.50144 
L 433.44 127.03544 
L 434.6496 126.822278 
L 435.8592 126.872248 
L 437.472 127.210244 
L 439.0848 127.512891 
L 439.8912 127.494217 
L 440.6976 127.284533 
L 441.504 126.829254 
L 442.3104 126.090722 
L 443.1168 125.049061 
L 443.9232 123.705355 
L 445.1328 121.183461 
L 447.1488 116.16648 
L 448.7616 112.331572 
L 449.568 110.803613 
L 450.3744 109.683829 
L 451.1808 109.054954 
L 451.584 108.945292 
L 451.9872 108.979316 
L 452.3904 109.141363 
L 453.1968 109.872273 
L 454.0032 111.07897 
L 454.0032 111.07897 
" clip-path="url(#p3a2a017750)" style="fill: none; stroke: #000000; stroke-linecap: square"/>
   </g>
   <g id="line2d_6">
    <path d="M 49.9968 141.389386 
L 55.6416 141.117569 
L 61.2864 140.62228 
L 66.9312 139.907995 
L 73.3824 138.858305 
L 82.2528 137.15603 
L 92.736 135.182615 
L 97.9776 134.420518 
L 102.4128 133.99018 
L 106.4448 133.825231 
L 110.0736 133.88674 
L 113.7024 134.178447 
L 116.928 134.642289 
L 120.1536 135.309843 
L 123.3792 136.187368 
L 127.008 137.421093 
L 130.6368 138.894028 
L 134.6688 140.776737 
L 138.7008 142.899096 
L 143.9424 145.942893 
L 150.7968 149.914419 
L 161.28 155.578003 
L 163.296 156.406844 
L 164.9088 156.873344 
L 166.5216 157.14604 
L 168.5376 157.269175 
L 172.1664 157.448083 
L 173.7792 157.746519 
L 175.7952 158.336366 
L 177.8112 158.897125 
L 178.6176 159.006699 
L 179.8272 158.870942 
L 180.6336 158.636973 
L 181.44 158.113751 
L 182.2464 157.423761 
L 183.456 155.957321 
L 184.6656 154.127688 
L 187.488 149.732439 
L 188.2944 148.873173 
L 189.1008 148.258088 
L 189.504 148.07197 
L 190.3104 148.091543 
L 191.52 148.496335 
L 193.536 149.885856 
L 194.3424 150.136149 
L 194.7456 150.074621 
L 195.1488 149.660546 
L 195.9552 148.109874 
L 196.3584 147.026142 
L 196.7616 145.317898 
L 197.568 140.558279 
L 198.3744 133.919743 
L 199.1808 124.848349 
L 199.9872 113.496518 
L 201.1968 92.058464 
L 202.8096 56.619445 
L 205.204307 -1 
M 212.516367 -1 
L 213.696 36.717467 
L 215.712 112.772556 
L 217.3248 172.430837 
L 218.5344 209.654293 
L 219.3408 229.869447 
L 220.1472 243.727711 
L 220.9536 254.007635 
L 221.3568 255.875486 
L 221.76 255.711834 
L 222.1632 255.193821 
L 222.9696 253.348864 
L 223.3728 250.735004 
L 224.1792 240.085929 
L 224.9856 227.636619 
L 226.5984 197.003121 
L 228.6144 158.726847 
L 229.824 140.424782 
L 230.6304 130.79032 
L 231.84 121.132648 
L 232.2432 119.34538 
L 232.6464 118.924419 
L 233.4528 118.663736 
L 233.856 118.611783 
L 234.2592 118.85603 
L 234.6624 120.24308 
L 235.872 127.217746 
L 236.6784 133.313119 
L 238.2912 147.540054 
L 241.92 180.881214 
L 243.1296 190.092758 
L 244.3392 197.470453 
L 245.1456 201.147101 
L 245.952 204.067431 
L 246.3552 205.049033 
L 246.7584 205.357336 
L 247.968 205.447598 
L 248.3712 205.411998 
L 248.7744 204.797037 
L 249.5808 202.26392 
L 250.3872 199.175238 
L 251.5968 192.897363 
L 253.2096 182.811988 
L 256.032 164.86117 
L 257.2416 158.632154 
L 258.4512 153.854778 
L 259.2576 151.471984 
L 260.064 149.759271 
L 260.8704 148.598548 
L 261.6768 147.92955 
L 262.08 147.707705 
L 262.8864 147.625802 
L 264.9024 147.722991 
L 266.112 147.777144 
L 267.7248 147.517293 
L 270.9504 146.437092 
L 272.16 146.362741 
L 272.9664 146.623199 
L 273.7728 147.036081 
L 274.9824 148.072282 
L 278.208 151.102145 
L 279.4176 151.289911 
L 279.8208 151.307131 
L 280.224 151.196565 
L 281.0304 150.406671 
L 281.8368 149.309701 
L 282.6432 147.680766 
L 283.8528 144.682071 
L 287.8848 133.329009 
L 288.6912 131.620928 
L 289.0944 130.953666 
L 289.9008 130.119161 
L 290.7072 129.617301 
L 291.1104 129.612544 
L 291.5136 129.815975 
L 292.32 130.631762 
L 292.7232 131.18194 
L 293.5296 133.171263 
L 294.336 135.905775 
L 295.1424 139.711955 
L 295.9488 144.484668 
L 296.7552 150.577584 
L 297.5616 157.810652 
L 298.7712 171.24332 
L 299.9808 187.274387 
L 303.2064 232.316518 
L 304.0128 238.719633 
L 304.416 241.239949 
L 304.8192 242.967105 
L 305.2224 243.433484 
L 305.6256 241.983496 
L 306.0288 238.851448 
L 306.8352 229.720629 
L 307.2384 222.119549 
L 308.0448 199.437196 
L 308.8512 170.200408 
L 310.0608 109.833921 
L 311.2704 32.70626 
L 311.753348 -1 
M 324.068269 -1 
L 326.592 252.66351 
L 327.010556 289 
M 336.65275 289 
L 337.8816 242.34231 
L 338.688 217.848458 
L 339.4944 197.565128 
L 340.3008 183.923908 
L 341.1072 174.039051 
L 341.5104 172.233598 
L 342.3168 171.708193 
L 343.1232 171.547309 
L 343.5264 172.731111 
L 344.3328 178.468552 
L 345.5424 187.903257 
L 346.752 197.409487 
L 347.9616 205.406729 
L 349.1712 211.271664 
L 349.9776 214.342234 
L 351.1872 218.672764 
L 351.9936 222.154551 
L 352.8 226.763812 
L 353.6064 233.444448 
L 354.4128 242.201472 
L 355.2192 254.14995 
L 356.0256 268.700223 
L 356.926659 289 
M 368.23322 289 
L 368.928 236.39747 
L 370.5408 89.887638 
L 371.442168 -1 
M 387.398753 -1 
L 388.6848 73.128714 
L 389.8944 129.191454 
L 390.7008 159.15148 
L 391.5072 183.937889 
L 392.3136 203.514061 
L 393.12 219.020176 
L 393.9264 231.127716 
L 395.136 244.810305 
L 396.3456 255.819921 
L 397.9584 270.977872 
L 398.7648 280.039086 
L 399.445304 289 
M 421.624118 289 
L 424.1664 201.970904 
L 426.1824 140.45885 
L 427.7952 98.782693 
L 429.0048 73.329346 
L 429.8112 59.351117 
L 431.0208 43.820305 
L 431.424 40.34351 
L 432.2304 36.471941 
L 432.6336 35.129373 
L 433.0368 34.427608 
L 433.44 34.6489 
L 433.8432 35.930303 
L 434.6496 40.196978 
L 435.0528 42.813941 
L 435.8592 50.494648 
L 439.0848 83.690758 
L 439.488 85.436096 
L 440.2944 86.454633 
L 440.6976 86.733854 
L 441.1008 86.819167 
L 441.504 85.282395 
L 441.9072 81.652184 
L 442.7136 71.77435 
L 443.52 57.899992 
L 444.7296 30.717598 
L 445.915264 -1 
L 445.915264 -1 
" clip-path="url(#p3a2a017750)" style="fill: none; stroke: #ff0000; stroke-linecap: square"/>
   </g>
   <g id="text_8">
    <g id="patch_7">
     <path d="M 30.299688 146.705469 
L 44.32 146.705469 
L 44.32 128.974219 
L 30.299688 128.974219 
L 30.299688 146.705469 
z
" style="fill: none"/>
    </g>
    <!-- E -->
    <g transform="translate(34.299688 140.625781) scale(0.1 -0.1)">
     <defs>
      <path id="DejaVuSansMono-45" d="M 616 4666 
L 3384 4666 
L 3384 4134 
L 1247 4134 
L 1247 2753 
L 3291 2753 
L 3291 2222 
L 1247 2222 
L 1247 531 
L 3444 531 
L 3444 0 
L 616 0 
L 616 4666 
z
" transform="scale(0.015625)"/>
     </defs>
     <use xlink:href="#DejaVuSansMono-45"/>
    </g>
   </g>
   <g id="text_9">
    <g id="patch_8">
     <path d="M 46.4049 115.229494 
L 106.681514 115.229494 
L 106.681514 101.6049 
L 46.4049 101.6049 
L 46.4049 115.229494 
z
" style="fill: none"/>
    </g>
    <!-- A: 3.0051e-06 m -->
    <g transform="translate(50.4 110.030255) scale(0.0579 -0.0579)">
     <use xlink:href="#DejaVuSansMono-41"/>
     <use xlink:href="#DejaVuSansMono-3a" x="60.205078"/>
     <use xlink:href="#DejaVuSansMono-20" x="120.410156"/>
     <use xlink:href="#DejaVuSansMono-33" x="180.615234"/>
     <use xlink:href="#DejaVuSansMono-2e" x="240.820312"/>
     <use xlink:href="#DejaVuSansMono-30" x="301.025391"/>
     <use xlink:href="#DejaVuSansMono-30" x="361.230469"/>
     <use xlink:href="#DejaVuSansMono-35" x="421.435547"/>
     <use xlink:href="#DejaVuSansMono-31" x="481.640625"/>
     <use xlink:href="#DejaVuSansMono-65" x="541.845703"/>
     <use xlink:href="#DejaVuSansMono-2d" x="602.050781"/>
     <use xlink:href="#DejaVuSansMono-30" x="662.255859"/>
     <use xlink:href="#DejaVuSansMono-36" x="722.460938"/>
     <use xlink:href="#DejaVuSansMono-20" x="782.666016"/>
     <use xlink:href="#DejaVuSansMono-6d" x="842.871094"/>
    </g>
   </g>
  </g>
  <g id="axes_3">
   <g id="patch_9">
    <path d="M 50.4 230.4 
L 453.6 230.4 
L 453.6 168 
L 50.4 168 
z
" style="fill: #ffffff"/>
   </g>
   <g id="matplotlib.axis_5">
    <g id="xtick_7">
     <g id="line2d_7">
      <defs>
       <path id="m6f0146eb1c" d="M 0 0 
L 0 3.5 
" style="stroke: #000000; stroke-width: 0.8"/>
      </defs>
      <g>
       <use xlink:href="#m6f0146eb1c" x="101.64672" y="230.4" style="stroke: #000000; stroke-width: 0.8"/>
      </g>
     </g>
     <g id="text_10">
      <!-- 23:05 -->
      <g transform="translate(74.538158 259.077229) rotate(-30) scale(0.1 -0.1)">
       <use xlink:href="#DejaVuSansMono-32"/>
       <use xlink:href="#DejaVuSansMono-33" x="60.205078"/>
       <use xlink:href="#DejaVuSansMono-3a" x="120.410156"/>
       <use xlink:href="#DejaVuSansMono-30" x="180.615234"/>
       <use xlink:href="#DejaVuSansMono-35" x="240.820312"/>
      </g>
     </g>
    </g>
    <g id="xtick_8">
     <g id="line2d_8">
      <g>
       <use xlink:href="#m6f0146eb1c" x="222.60672" y="230.4" style="stroke: #000000; stroke-width: 0.8"/>
      </g>
     </g>
     <g id="text_11">
      <!-- 23:10 -->
      <g transform="translate(195.498158 259.077229) rotate(-30) scale(0.1 -0.1)">
       <use xlink:href="#DejaVuSansMono-32"/>
       <use xlink:href="#DejaVuSansMono-33" x="60.205078"/>
       <use xlink:href="#DejaVuSansMono-3a" x="120.410156"/>
       <use xlink:href="#DejaVuSansMono-31" x="180.615234"/>
       <use xlink:href="#DejaVuSansMono-30" x="240.820312"/>
      </g>
     </g>
    </g>
    <g id="xtick_9">
     <g id="line2d_9">
      <g>
       <use xlink:href="#m6f0146eb1c" x="343.56672" y="230.4" style="stroke: #000000; stroke-width: 0.8"/>
      </g>
     </g>
     <g id="text_12">
      <!-- 23:15 -->
      <g transform="translate(316.458158 259.077229) rotate(-30) scale(0.1 -0.1)">
       <use xlink:href="#DejaVuSansMono-32"/>
       <use xlink:href="#DejaVuSansMono-33" x="60.205078"/>
       <use xlink:href="#DejaVuSansMono-3a" x="120.410156"/>
       <use xlink:href="#DejaVuSansMono-31" x="180.615234"/>
       <use xlink:href="#DejaVuSansMono-35" x="240.820312"/>
      </g>
     </g>
    </g>
    <g id="text_13">
     <!-- Time -->
     <g transform="translate(239.959375 272.529853) scale(0.1 -0.1)">
      <defs>
       <path id="DejaVuSansMono-54" d="M 147 4666 
L 3706 4666 
L 3706 4134 
L 2247 4134 
L 2247 0 
L 1613 0 
L 1613 4134 
L 147 4134 
L 147 4666 
z
" transform="scale(0.015625)"/>
      </defs>
      <use xlink:href="#DejaVuSansMono-54"/>
      <use xlink:href="#DejaVuSansMono-69" x="60.205078"/>
      <use xlink:href="#DejaVuSansMono-6d" x="120.410156"/>
      <use xlink:href="#DejaVuSansMono-65" x="180.615234"/>
     </g>
    </g>
    <g id="text_14">
     <!-- 2015-Sep-16 -->
     <g transform="translate(387.376563 271.529853) scale(0.1 -0.1)">
      <use xlink:href="#DejaVuSansMono-32"/>
      <use xlink:href="#DejaVuSansMono-30" x="60.205078"/>
      <use xlink:href="#DejaVuSansMono-31" x="120.410156"/>
      <use xlink:href="#DejaVuSansMono-35" x="180.615234"/>
      <use xlink:href="#DejaVuSansMono-2d" x="240.820312"/>
      <use xlink:href="#DejaVuSansMono-53" x="301.025391"/>
      <use xlink:href="#DejaVuSansMono-65" x="361.230469"/>
      <use xlink:href="#DejaVuSansMono-70" x="421.435547"/>
      <use xlink:href="#DejaVuSansMono-2d" x="481.640625"/>
      <use xlink:href="#DejaVuSansMono-31" x="541.845703"/>
      <use xlink:href="#DejaVuSansMono-36" x="602.050781"/>
     </g>
    </g>
   </g>
   <g id="matplotlib.axis_6">
    <g id="ytick_7"/>
    <g id="ytick_8"/>
    <g id="ytick_9"/>
   </g>
   <g id="line2d_10">
    <path d="M 49.9968 196.70139 
L 73.7856 196.547704 
L 100.3968 196.395663 
L 111.2832 196.507435 
L 146.3616 197.0198 
L 158.0544 196.921857 
L 175.392 196.347679 
L 181.44 195.932132 
L 184.2624 196.011583 
L 187.488 196.130209 
L 189.1008 195.967584 
L 190.3104 195.646927 
L 191.52 195.111568 
L 192.7296 194.346612 
L 194.3424 193.007621 
L 198.3744 189.385899 
L 199.1808 188.963608 
L 199.9872 188.763228 
L 200.7936 188.840673 
L 201.6 189.229288 
L 202.4064 189.961985 
L 203.2128 191.051905 
L 204.0192 192.491955 
L 205.2288 195.235659 
L 206.8416 199.636846 
L 208.8576 205.238485 
L 210.0672 208.007944 
L 210.8736 209.414477 
L 211.68 210.392464 
L 212.4864 210.902177 
L 212.8896 210.966689 
L 213.2928 210.913346 
L 214.0992 210.447838 
L 214.9056 209.522235 
L 215.712 208.188111 
L 216.9216 205.579045 
L 218.9376 200.372923 
L 220.5504 196.303289 
L 221.76 193.740885 
L 222.5664 192.373594 
L 223.3728 191.317778 
L 224.1792 190.586865 
L 224.9856 190.177961 
L 225.792 190.08158 
L 226.5984 190.252516 
L 227.4048 190.666341 
L 228.6144 191.633663 
L 230.2272 193.301668 
L 232.6464 195.817075 
L 233.856 196.788445 
L 235.0656 197.452951 
L 236.2752 197.781216 
L 237.4848 197.789211 
L 238.6944 197.534574 
L 240.3072 196.919324 
L 244.3392 195.180623 
L 245.952 194.796511 
L 247.5648 194.696413 
L 249.1776 194.86827 
L 250.7904 195.268665 
L 256.032 196.814172 
L 257.2416 196.890384 
L 258.8544 196.737275 
L 260.8704 196.245901 
L 263.2896 195.640682 
L 264.9024 195.495722 
L 266.112 195.58715 
L 267.7248 195.964349 
L 269.7408 196.712021 
L 273.3696 198.090783 
L 275.3856 198.5511 
L 276.9984 198.707875 
L 278.6112 198.678995 
L 280.6272 198.397652 
L 282.6432 197.870189 
L 285.0624 196.973455 
L 287.8848 195.901856 
L 289.0944 195.638449 
L 290.304 195.607288 
L 291.5136 195.853773 
L 292.7232 196.381982 
L 294.336 197.431445 
L 297.1584 199.429947 
L 297.9648 199.801623 
L 298.7712 199.982811 
L 299.5776 199.912288 
L 300.384 199.549872 
L 301.1904 198.856246 
L 301.9968 197.811228 
L 302.8032 196.413398 
L 304.0128 193.70274 
L 305.6256 189.213215 
L 308.448 181.041775 
L 309.2544 179.253353 
L 310.0608 177.971802 
L 310.464 177.563962 
L 310.8672 177.327375 
L 311.2704 177.311609 
L 311.6736 177.462798 
L 312.0768 177.835352 
L 312.48 178.42347 
L 313.2864 180.252134 
L 314.0928 182.922513 
L 314.8992 186.35026 
L 316.1088 192.600217 
L 320.1408 214.885249 
L 320.9472 218.088459 
L 321.7536 220.497451 
L 322.56 222.019309 
L 322.9632 222.432121 
L 323.3664 222.6 
L 323.7696 222.530061 
L 324.1728 222.243588 
L 324.576 221.72965 
L 325.3824 220.081935 
L 326.1888 217.712892 
L 327.3984 213.151222 
L 331.4304 196.358554 
L 332.2368 193.899362 
L 333.0432 192.009283 
L 333.8496 190.736582 
L 334.656 190.085025 
L 335.0592 189.987473 
L 335.4624 190.029146 
L 336.2688 190.472651 
L 337.0752 191.32452 
L 338.2848 193.084115 
L 340.3008 196.179551 
L 341.1072 197.121529 
L 341.9136 197.758811 
L 342.72 198.041443 
L 343.5264 197.942879 
L 344.3328 197.487251 
L 345.1392 196.714227 
L 346.3488 195.115621 
L 349.1712 190.949788 
L 349.9776 190.057662 
L 350.784 189.43193 
L 351.5904 189.116683 
L 352.3968 189.146997 
L 353.2032 189.513149 
L 354.0096 190.199396 
L 354.816 191.158645 
L 356.0256 192.951457 
L 358.4448 196.622857 
L 359.2512 197.493072 
L 360.0576 198.029087 
L 360.4608 198.149626 
L 361.2672 198.043142 
L 362.0736 197.464034 
L 362.88 196.394929 
L 363.6864 194.85735 
L 364.896 191.804541 
L 366.912 185.62041 
L 368.5248 180.988509 
L 369.3312 179.204753 
L 370.1376 177.956752 
L 370.5408 177.566172 
L 370.944 177.340651 
L 371.3472 177.316956 
L 371.7504 177.446097 
L 372.1536 177.767568 
L 372.5568 178.272847 
L 373.3632 179.823383 
L 374.1696 182.053273 
L 374.976 184.886026 
L 376.1856 190.028284 
L 380.6208 210.520127 
L 381.4272 213.24633 
L 382.2336 215.393271 
L 383.04 216.912461 
L 383.8464 217.786596 
L 384.2496 217.987415 
L 384.6528 218.013662 
L 385.056 217.912794 
L 385.4592 217.663778 
L 386.2656 216.777001 
L 387.072 215.447499 
L 388.2816 212.853776 
L 391.9104 204.277017 
L 393.12 202.188572 
L 393.9264 201.161581 
L 394.7328 200.432478 
L 395.5392 199.98188 
L 396.3456 199.772319 
L 397.5552 199.798568 
L 400.7808 200.315492 
L 401.5872 200.228024 
L 402.3936 199.974786 
L 403.2 199.545129 
L 404.4096 198.57455 
L 405.6192 197.252441 
L 407.232 195.077092 
L 410.8608 189.880316 
L 412.0704 188.567634 
L 413.28 187.662253 
L 414.0864 187.315227 
L 414.8928 187.181868 
L 415.6992 187.258206 
L 416.5056 187.530816 
L 417.7152 188.263475 
L 418.9248 189.295449 
L 423.36 193.518631 
L 424.5696 194.206768 
L 425.376 194.464176 
L 426.1824 194.553858 
L 427.392 194.399268 
L 428.6016 193.9584 
L 430.6176 192.882707 
L 432.2304 192.09559 
L 433.44 191.791056 
L 434.2464 191.80302 
L 435.0528 192.010258 
L 435.8592 192.424103 
L 436.6656 193.035555 
L 437.8752 194.2661 
L 439.8912 196.798076 
L 441.9072 199.26456 
L 443.1168 200.426781 
L 444.3264 201.220734 
L 445.1328 201.516168 
L 445.9392 201.617305 
L 446.7456 201.536001 
L 447.9552 201.112259 
L 449.1648 200.414649 
L 454.0032 197.217189 
L 454.0032 197.217189 
" clip-path="url(#p25577631c3)" style="fill: none; stroke: #000000; stroke-linecap: square"/>
   </g>
   <g id="line2d_11">
    <path d="M 49.9968 203.401487 
L 55.2384 202.766671 
L 60.8832 201.86239 
L 67.7376 200.520003 
L 86.2848 196.715182 
L 90.72 196.100776 
L 94.752 195.753514 
L 98.3808 195.653945 
L 102.0096 195.783598 
L 105.2352 196.114847 
L 108.4608 196.661494 
L 111.6864 197.429899 
L 114.912 198.420359 
L 118.1376 199.62946 
L 121.7664 201.241851 
L 125.3952 203.09688 
L 129.8304 205.619039 
L 136.2816 209.576635 
L 145.9584 215.556057 
L 148.7808 217.003479 
L 152.0064 218.388549 
L 156.8448 220.159699 
L 159.6672 221.020978 
L 161.28 221.338951 
L 163.296 221.417703 
L 164.9088 221.163423 
L 166.5216 220.613643 
L 168.9408 219.436345 
L 171.36 218.316271 
L 172.5696 217.939103 
L 174.1824 217.680041 
L 177.408 217.419558 
L 178.6176 216.954114 
L 179.424 216.398913 
L 180.2304 215.571428 
L 181.0368 214.458044 
L 182.2464 212.218875 
L 183.456 209.341428 
L 187.488 199.010707 
L 188.2944 197.79995 
L 189.1008 197.036998 
L 189.504 196.814244 
L 189.9072 196.776044 
L 190.7136 197.103626 
L 191.52 197.641944 
L 192.7296 198.930538 
L 193.536 198.933971 
L 194.3424 198.732441 
L 194.7456 198.426025 
L 195.1488 197.358613 
L 195.9552 193.690846 
L 196.3584 191.338708 
L 197.1648 183.91317 
L 197.9712 173.946482 
L 198.7776 160.1242 
L 199.584 143.311346 
L 200.7936 111.217067 
L 202.0032 72.804007 
L 204.123995 -1 
M 212.147516 -1 
L 213.2928 59.465807 
L 214.9056 158.059213 
L 217.025573 289 
M 230.323263 289 
L 231.0336 277.135716 
L 231.84 266.02447 
L 232.6464 258.011997 
L 233.4528 252.112342 
L 233.856 250.142007 
L 234.6624 248.043489 
L 235.0656 247.332503 
L 235.4688 246.96406 
L 235.872 247.012532 
L 236.2752 247.364068 
L 237.4848 249.139397 
L 239.904 254.057437 
L 240.7104 254.982503 
L 241.5168 255.583526 
L 241.92 255.683479 
L 242.3232 255.586242 
L 243.1296 254.951567 
L 243.5328 254.526737 
L 243.936 253.926376 
L 244.7424 252.09489 
L 245.5488 249.837649 
L 246.7584 245.385161 
L 247.968 239.879671 
L 249.1776 233.523491 
L 251.1936 221.616013 
L 254.4192 202.605817 
L 256.032 194.839354 
L 257.2416 190.210076 
L 258.4512 186.607627 
L 259.6608 183.791349 
L 263.2896 176.570108 
L 264.4992 173.247306 
L 265.7088 169.044649 
L 266.9184 164.007247 
L 270.9504 146.462539 
L 271.7568 143.959296 
L 272.5632 142.325312 
L 272.9664 141.677864 
L 273.3696 141.307235 
L 273.7728 141.297607 
L 274.176 141.475323 
L 274.9824 142.159576 
L 275.3856 142.686895 
L 276.192 144.79811 
L 277.4016 149.073789 
L 279.0144 156.581171 
L 281.8368 171.872654 
L 285.0624 189.158054 
L 287.0784 198.90068 
L 288.6912 205.594328 
L 289.9008 209.642329 
L 290.7072 211.841906 
L 291.5136 213.517089 
L 292.32 214.841679 
L 293.1264 215.798583 
L 294.336 217.070187 
L 295.1424 218.057777 
L 295.9488 219.4901 
L 296.7552 221.834586 
L 297.5616 225.118048 
L 298.368 230.0026 
L 299.1744 236.180251 
L 300.384 248.583858 
L 301.5936 263.716524 
L 303.626821 289 
M 307.092945 289 
L 307.2384 286.928701 
L 308.0448 267.657612 
L 308.8512 242.059022 
L 309.6576 206.427098 
L 310.464 163.887321 
L 311.6736 85.840994 
L 312.845654 -1 
M 324.019231 -1 
L 326.939374 289 
M 367.351032 289 
L 368.5248 231.307785 
L 369.7344 155.349949 
L 370.944 67.583962 
L 371.82906 -1 
M 387.786954 -1 
L 389.088 70.129191 
L 390.2976 128.177614 
L 391.5072 176.703281 
L 392.7168 215.591105 
L 393.5232 236.699207 
L 394.7328 261.504791 
L 395.5392 274.48994 
L 396.660475 289 
M 418.808429 289 
L 420.9408 223.927101 
L 422.1504 191.982251 
L 423.36 164.977718 
L 424.5696 143.442033 
L 425.376 132.029956 
L 426.1824 122.710341 
L 426.9888 115.543687 
L 427.7952 110.032574 
L 428.6016 106.290305 
L 429.408 103.631395 
L 429.8112 102.839352 
L 430.6176 102.406249 
L 431.424 102.238851 
L 431.8272 102.310208 
L 432.2304 102.740015 
L 433.44 104.939997 
L 434.2464 106.936357 
L 435.456 110.496088 
L 437.0688 116.148078 
L 439.0848 124.239997 
L 441.1008 133.241047 
L 443.1168 143.240275 
L 444.7296 152.214436 
L 446.3424 162.383622 
L 447.9552 174.133035 
L 449.568 187.959561 
L 450.7776 200.095694 
L 451.9872 214.166503 
L 453.1968 230.63029 
L 454.0032 243.125854 
L 454.0032 243.125854 
" clip-path="url(#p25577631c3)" style="fill: none; stroke: #ff0000; stroke-linecap: square"/>
   </g>
   <g id="patch_10">
    <path d="M 50.4 230.4 
L 453.6 230.4 
" style="fill: none; stroke: #000000; stroke-width: 0.8; stroke-linejoin: miter; stroke-linecap: square"/>
   </g>
   <g id="text_15">
    <g id="patch_11">
     <path d="M 30.299688 209.105469 
L 44.32 209.105469 
L 44.32 191.374219 
L 30.299688 191.374219 
L 30.299688 209.105469 
z
" style="fill: none"/>
    </g>
    <!-- Z -->
    <g transform="translate(34.299688 203.025781) scale(0.1 -0.1)">
     <defs>
      <path id="DejaVuSansMono-5a" d="M 556 4666 
L 3584 4666 
L 3584 4184 
L 1147 531 
L 3653 531 
L 3653 0 
L 488 0 
L 488 481 
L 2859 4134 
L 556 4134 
L 556 4666 
z
" transform="scale(0.015625)"/>
     </defs>
     <use xlink:href="#DejaVuSansMono-5a"/>
    </g>
   </g>
   <g id="text_16">
    <g id="patch_12">
     <path d="M 46.4049 177.629494 
L 106.681514 177.629494 
L 106.681514 164.0049 
L 46.4049 164.0049 
L 46.4049 177.629494 
z
" style="fill: none"/>
    </g>
    <!-- A: 4.9579e-06 m -->
    <g transform="translate(50.4 172.430255) scale(0.0579 -0.0579)">
     <use xlink:href="#DejaVuSansMono-41"/>
     <use xlink:href="#DejaVuSansMono-3a" x="60.205078"/>
     <use xlink:href="#DejaVuSansMono-20" x="120.410156"/>
     <use xlink:href="#DejaVuSansMono-34" x="180.615234"/>
     <use xlink:href="#DejaVuSansMono-2e" x="240.820312"/>
     <use xlink:href="#DejaVuSansMono-39" x="301.025391"/>
     <use xlink:href="#DejaVuSansMono-35" x="361.230469"/>
     <use xlink:href="#DejaVuSansMono-37" x="421.435547"/>
     <use xlink:href="#DejaVuSansMono-39" x="481.640625"/>
     <use xlink:href="#DejaVuSansMono-65" x="541.845703"/>
     <use xlink:href="#DejaVuSansMono-2d" x="602.050781"/>
     <use xlink:href="#DejaVuSansMono-30" x="662.255859"/>
     <use xlink:href="#DejaVuSansMono-36" x="722.460938"/>
     <use xlink:href="#DejaVuSansMono-20" x="782.666016"/>
     <use xlink:href="#DejaVuSansMono-6d" x="842.871094"/>
    </g>
   </g>
  </g>
 </g>
 <defs>
  <clipPath id="p866985ddc8">
   <rect x="50.4" y="43.2" width="403.2" height="62.4"/>
  </clipPath>
  <clipPath id="p3a2a017750">
   <rect x="50.4" y="105.6" width="403.2" height="62.4"/>
  </clipPath>
  <clipPath id="p25577631c3">
   <rect x="50.4" y="168" width="403.2" height="62.4"/>
  </clipPath>
 </defs>
</svg>
