<?xml version="1.0" encoding="utf-8" standalone="no"?>
<!DOCTYPE svg PUBLIC "-//W3C//DTD SVG 1.1//EN"
  "http://www.w3.org/Graphics/SVG/1.1/DTD/svg11.dtd">
<svg xmlns:xlink="http://www.w3.org/1999/xlink" width="504pt" height="288pt" viewBox="0 0 504 288" xmlns="http://www.w3.org/2000/svg" version="1.1">
 <metadata>
  <rdf:RDF xmlns:dc="http://purl.org/dc/elements/1.1/" xmlns:cc="http://creativecommons.org/ns#" xmlns:rdf="http://www.w3.org/1999/02/22-rdf-syntax-ns#">
   <cc:Work>
    <dc:type rdf:resource="http://purl.org/dc/dcmitype/StillImage"/>
    <dc:date>2023-07-18T02:25:11.133345</dc:date>
    <dc:format>image/svg+xml</dc:format>
    <dc:creator>
     <cc:Agent>
      <dc:title>Matplotlib v3.6.2, https://matplotlib.org/</dc:title>
     </cc:Agent>
    </dc:creator>
   </cc:Work>
  </rdf:RDF>
 </metadata>
 <defs>
  <style type="text/css">*{stroke-linejoin: round; stroke-linecap: butt}</style>
 </defs>
 <g id="figure_1">
  <g id="patch_1">
   <path d="M 0 288 
L 504 288 
L 504 0 
L 0 0 
z
" style="fill: #ffffff"/>
  </g>
  <g id="axes_1">
   <g id="patch_2">
    <path d="M 50.4 105.6 
L 453.6 105.6 
L 453.6 43.2 
L 50.4 43.2 
z
" style="fill: #ffffff"/>
   </g>
   <g id="matplotlib.axis_1">
    <g id="xtick_1"/>
    <g id="xtick_2"/>
    <g id="xtick_3"/>
    <g id="text_1">
     <!-- 2015-Sep-16 -->
     <g transform="translate(387.376563 116.251563) scale(0.1 -0.1)">
      <defs>
       <path id="DejaVuSansMono-32" d="M 1166 531 
L 3309 531 
L 3309 0 
L 475 0 
L 475 531 
Q 1059 1147 1496 1619 
Q 1934 2091 2100 2284 
Q 2413 2666 2522 2902 
Q 2631 3138 2631 3384 
Q 2631 3775 2401 3997 
Q 2172 4219 1772 4219 
Q 1488 4219 1175 4116 
Q 863 4013 513 3803 
L 513 4441 
Q 834 4594 1145 4672 
Q 1456 4750 1759 4750 
Q 2444 4750 2861 4386 
Q 3278 4022 3278 3431 
Q 3278 3131 3139 2831 
Q 3000 2531 2688 2169 
Q 2513 1966 2180 1606 
Q 1847 1247 1166 531 
z
" transform="scale(0.015625)"/>
       <path id="DejaVuSansMono-30" d="M 1509 2344 
Q 1509 2516 1629 2641 
Q 1750 2766 1919 2766 
Q 2094 2766 2219 2641 
Q 2344 2516 2344 2344 
Q 2344 2169 2220 2047 
Q 2097 1925 1919 1925 
Q 1744 1925 1626 2044 
Q 1509 2163 1509 2344 
z
M 1925 4250 
Q 1484 4250 1267 3775 
Q 1050 3300 1050 2328 
Q 1050 1359 1267 884 
Q 1484 409 1925 409 
Q 2369 409 2586 884 
Q 2803 1359 2803 2328 
Q 2803 3300 2586 3775 
Q 2369 4250 1925 4250 
z
M 1925 4750 
Q 2672 4750 3055 4137 
Q 3438 3525 3438 2328 
Q 3438 1134 3055 521 
Q 2672 -91 1925 -91 
Q 1178 -91 797 521 
Q 416 1134 416 2328 
Q 416 3525 797 4137 
Q 1178 4750 1925 4750 
z
" transform="scale(0.015625)"/>
       <path id="DejaVuSansMono-31" d="M 844 531 
L 1825 531 
L 1825 4097 
L 769 3859 
L 769 4434 
L 1819 4666 
L 2450 4666 
L 2450 531 
L 3419 531 
L 3419 0 
L 844 0 
L 844 531 
z
" transform="scale(0.015625)"/>
       <path id="DejaVuSansMono-35" d="M 647 4666 
L 3009 4666 
L 3009 4134 
L 1222 4134 
L 1222 2988 
Q 1356 3038 1492 3061 
Q 1628 3084 1766 3084 
Q 2491 3084 2916 2656 
Q 3341 2228 3341 1497 
Q 3341 759 2895 334 
Q 2450 -91 1678 -91 
Q 1306 -91 998 -41 
Q 691 9 447 109 
L 447 750 
Q 734 594 1025 517 
Q 1316 441 1619 441 
Q 2141 441 2423 716 
Q 2706 991 2706 1497 
Q 2706 1997 2414 2275 
Q 2122 2553 1600 2553 
Q 1347 2553 1106 2495 
Q 866 2438 647 2322 
L 647 4666 
z
" transform="scale(0.015625)"/>
       <path id="DejaVuSansMono-2d" d="M 1113 2009 
L 2741 2009 
L 2741 1497 
L 1113 1497 
L 1113 2009 
z
" transform="scale(0.015625)"/>
       <path id="DejaVuSansMono-53" d="M 3163 4506 
L 3163 3866 
Q 2875 4050 2586 4144 
Q 2297 4238 2003 4238 
Q 1556 4238 1297 4030 
Q 1038 3822 1038 3469 
Q 1038 3159 1208 2996 
Q 1378 2834 1844 2725 
L 2175 2650 
Q 2831 2497 3131 2169 
Q 3431 1841 3431 1275 
Q 3431 609 3018 259 
Q 2606 -91 1819 -91 
Q 1491 -91 1159 -20 
Q 828 50 494 191 
L 494 863 
Q 853 634 1173 528 
Q 1494 422 1819 422 
Q 2297 422 2562 636 
Q 2828 850 2828 1234 
Q 2828 1584 2645 1768 
Q 2463 1953 2009 2053 
L 1672 2131 
Q 1022 2278 728 2575 
Q 434 2872 434 3372 
Q 434 3997 854 4373 
Q 1275 4750 1972 4750 
Q 2241 4750 2537 4689 
Q 2834 4628 3163 4506 
z
" transform="scale(0.015625)"/>
       <path id="DejaVuSansMono-65" d="M 3475 1894 
L 3475 1613 
L 984 1613 
L 984 1594 
Q 984 1022 1282 709 
Q 1581 397 2125 397 
Q 2400 397 2700 484 
Q 3000 572 3341 750 
L 3341 178 
Q 3013 44 2708 -23 
Q 2403 -91 2119 -91 
Q 1303 -91 843 398 
Q 384 888 384 1747 
Q 384 2584 834 3084 
Q 1284 3584 2034 3584 
Q 2703 3584 3089 3131 
Q 3475 2678 3475 1894 
z
M 2900 2063 
Q 2888 2569 2661 2833 
Q 2434 3097 2009 3097 
Q 1594 3097 1325 2822 
Q 1056 2547 1006 2059 
L 2900 2063 
z
" transform="scale(0.015625)"/>
       <path id="DejaVuSansMono-70" d="M 1172 441 
L 1172 -1331 
L 594 -1331 
L 594 3500 
L 1172 3500 
L 1172 3053 
Q 1316 3313 1555 3448 
Q 1794 3584 2106 3584 
Q 2741 3584 3102 3093 
Q 3463 2603 3463 1734 
Q 3463 881 3100 395 
Q 2738 -91 2106 -91 
Q 1788 -91 1548 45 
Q 1309 181 1172 441 
z
M 2859 1747 
Q 2859 2416 2648 2756 
Q 2438 3097 2022 3097 
Q 1603 3097 1387 2755 
Q 1172 2413 1172 1747 
Q 1172 1084 1387 740 
Q 1603 397 2022 397 
Q 2438 397 2648 737 
Q 2859 1078 2859 1747 
z
" transform="scale(0.015625)"/>
       <path id="DejaVuSansMono-36" d="M 3097 4563 
L 3097 3981 
Q 2900 4097 2678 4158 
Q 2456 4219 2216 4219 
Q 1616 4219 1306 3767 
Q 997 3316 997 2438 
Q 1147 2750 1412 2917 
Q 1678 3084 2022 3084 
Q 2697 3084 3067 2670 
Q 3438 2256 3438 1497 
Q 3438 741 3056 325 
Q 2675 -91 1984 -91 
Q 1172 -91 794 492 
Q 416 1075 416 2328 
Q 416 3509 870 4129 
Q 1325 4750 2188 4750 
Q 2419 4750 2650 4701 
Q 2881 4653 3097 4563 
z
M 1972 2591 
Q 1569 2591 1337 2300 
Q 1106 2009 1106 1497 
Q 1106 984 1337 693 
Q 1569 403 1972 403 
Q 2391 403 2603 679 
Q 2816 956 2816 1497 
Q 2816 2041 2603 2316 
Q 2391 2591 1972 2591 
z
" transform="scale(0.015625)"/>
      </defs>
      <use xlink:href="#DejaVuSansMono-32"/>
      <use xlink:href="#DejaVuSansMono-30" x="60.205078"/>
      <use xlink:href="#DejaVuSansMono-31" x="120.410156"/>
      <use xlink:href="#DejaVuSansMono-35" x="180.615234"/>
      <use xlink:href="#DejaVuSansMono-2d" x="240.820312"/>
      <use xlink:href="#DejaVuSansMono-53" x="301.025391"/>
      <use xlink:href="#DejaVuSansMono-65" x="361.230469"/>
      <use xlink:href="#DejaVuSansMono-70" x="421.435547"/>
      <use xlink:href="#DejaVuSansMono-2d" x="481.640625"/>
      <use xlink:href="#DejaVuSansMono-31" x="541.845703"/>
      <use xlink:href="#DejaVuSansMono-36" x="602.050781"/>
     </g>
    </g>
   </g>
   <g id="matplotlib.axis_2">
    <g id="ytick_1"/>
    <g id="ytick_2"/>
    <g id="ytick_3"/>
   </g>
   <g id="line2d_1">
    <path d="M 49.9968 72.018897 
L 65.7216 72.096096 
L 80.2368 71.973136 
L 97.1712 71.511996 
L 112.4928 71.247553 
L 122.1696 71.323268 
L 134.6688 71.646653 
L 166.1184 72.675535 
L 177.0048 72.532411 
L 192.7296 71.981912 
L 194.7456 71.656374 
L 196.7616 71.099975 
L 198.7776 70.313485 
L 203.616 68.232348 
L 204.8256 67.938945 
L 206.0352 67.843889 
L 207.2448 67.977108 
L 208.4544 68.353257 
L 209.664 68.954242 
L 211.2768 70.024994 
L 215.712 73.19525 
L 216.9216 73.768216 
L 218.1312 74.122267 
L 219.3408 74.246931 
L 220.5504 74.158474 
L 222.1632 73.776203 
L 224.9856 72.754549 
L 227.4048 71.975725 
L 229.0176 71.659181 
L 230.6304 71.532114 
L 232.6464 71.601687 
L 240.7104 72.232127 
L 243.936 72.036897 
L 248.3712 71.78992 
L 252.4032 71.851452 
L 256.4352 71.88984 
L 259.2576 71.683237 
L 262.4832 71.180441 
L 266.5152 70.527455 
L 268.5312 70.394378 
L 270.5472 70.463273 
L 272.9664 70.794707 
L 276.5952 71.577131 
L 280.224 72.311922 
L 283.0464 72.659414 
L 285.8688 72.781058 
L 290.304 72.670318 
L 292.7232 72.723446 
L 294.7392 73.010725 
L 296.7552 73.567083 
L 302.4 75.405272 
L 303.6096 75.416299 
L 304.8192 75.131156 
L 305.6256 74.750037 
L 306.8352 73.872261 
L 308.0448 72.634503 
L 309.2544 71.085891 
L 311.6736 67.491575 
L 313.2864 65.257829 
L 314.496 63.999143 
L 315.3024 63.462396 
L 316.1088 63.217209 
L 316.9152 63.300078 
L 317.7216 63.713321 
L 318.528 64.455644 
L 319.3344 65.504164 
L 320.544 67.561961 
L 322.1568 70.907912 
L 324.576 76.077038 
L 325.7856 78.216518 
L 326.592 79.345937 
L 327.3984 80.193434 
L 328.2048 80.738007 
L 329.0112 80.975848 
L 329.8176 80.909034 
L 330.624 80.571184 
L 331.4304 79.994688 
L 332.64 78.785474 
L 335.0592 75.809623 
L 336.672 73.988758 
L 337.8816 72.932516 
L 339.0912 72.206466 
L 340.3008 71.803393 
L 341.5104 71.66433 
L 343.5264 71.765211 
L 345.9456 71.865581 
L 347.5584 71.682931 
L 349.5744 71.16392 
L 352.8 70.264487 
L 354.0096 70.139067 
L 355.2192 70.21629 
L 356.4288 70.506642 
L 358.0416 71.166633 
L 360.864 72.434019 
L 362.0736 72.666264 
L 362.88 72.607312 
L 363.6864 72.338319 
L 364.4928 71.830368 
L 365.2992 71.067215 
L 366.1056 70.045356 
L 367.3152 68.054647 
L 368.5248 65.606622 
L 372.96 55.902837 
L 373.7664 54.626516 
L 374.5728 53.659011 
L 375.3792 53.042043 
L 376.1856 52.80528 
L 376.992 52.958567 
L 377.7984 53.496855 
L 378.6048 54.401872 
L 379.4112 55.639383 
L 380.6208 58.013684 
L 382.2336 61.828616 
L 385.4592 69.695863 
L 386.6688 72.139872 
L 387.8784 74.128034 
L 389.088 75.640322 
L 390.2976 76.720824 
L 391.5072 77.463481 
L 393.12 78.146029 
L 395.5392 79.142436 
L 396.7488 79.853563 
L 397.9584 80.775304 
L 399.5712 82.309618 
L 404.0064 86.906015 
L 405.216 87.781421 
L 406.4256 88.338444 
L 407.232 88.514411 
L 408.0384 88.527735 
L 409.248 88.266424 
L 410.4576 87.704979 
L 412.0704 86.61993 
L 416.9088 83.044427 
L 418.5216 82.251955 
L 420.1344 81.707146 
L 424.5696 80.468939 
L 425.7792 79.864402 
L 426.9888 79.029859 
L 428.1984 77.942241 
L 429.8112 76.123405 
L 431.8272 73.440228 
L 435.0528 69.134778 
L 436.6656 67.393879 
L 437.8752 66.358357 
L 439.488 65.313665 
L 443.9232 62.926245 
L 445.1328 61.865958 
L 446.3424 60.445716 
L 447.552 58.628056 
L 448.7616 56.427797 
L 450.3744 53.024778 
L 454.0032 44.971099 
L 454.0032 44.971099 
" clip-path="url(#p2614755f28)" style="fill: none; stroke: #000000; stroke-linecap: square"/>
   </g>
   <g id="line2d_2">
    <path d="M -1 74.4 
L 505 74.4 
" clip-path="url(#p2614755f28)" style="fill: none; stroke-dasharray: 3.7,1.6; stroke-dashoffset: 0; stroke: #000000"/>
   </g>
   <g id="line2d_3">
    <path d="M 49.9968 77.078949 
L 79.4304 76.924164 
L 110.88 76.783519 
L 127.8144 76.951223 
L 149.5872 77.423554 
L 167.7312 77.721249 
L 183.0528 77.620631 
L 191.9232 77.233297 
L 195.552 77.199309 
L 197.1648 76.978645 
L 198.7776 76.49418 
L 200.3904 75.679803 
L 202.0032 74.537775 
L 204.8256 72.096427 
L 206.4384 70.817159 
L 207.2448 70.303343 
L 208.4544 69.853782 
L 209.2608 69.754794 
L 210.4704 69.997256 
L 211.2768 70.351687 
L 212.4864 71.328679 
L 213.696 72.669833 
L 215.3088 74.79503 
L 218.1312 78.480191 
L 219.3408 79.656138 
L 220.1472 80.229941 
L 221.3568 80.753185 
L 222.1632 80.799081 
L 223.3728 80.665543 
L 224.1792 80.380799 
L 225.792 79.465808 
L 229.4208 77.175048 
L 231.0336 76.534145 
L 232.6464 76.277027 
L 234.2592 76.380137 
L 235.4688 76.632297 
L 237.888 77.454243 
L 242.3232 79.094049 
L 244.3392 79.606836 
L 246.3552 79.902393 
L 247.968 79.942295 
L 249.984 79.84682 
L 252.8064 79.453226 
L 257.6448 78.733876 
L 260.8704 78.520014 
L 269.3376 78.123016 
L 274.9824 77.755125 
L 282.6432 77.44247 
L 286.272 76.94465 
L 292.7232 75.979305 
L 295.1424 75.905439 
L 296.7552 76.049524 
L 298.368 76.433086 
L 299.9808 77.053504 
L 304.416 79.023739 
L 305.6256 79.166518 
L 306.432 78.96808 
L 307.2384 78.585055 
L 308.0448 77.875558 
L 308.8512 76.890987 
L 309.6576 75.578421 
L 310.8672 73.112526 
L 312.48 69.043606 
L 314.8992 62.570274 
L 316.1088 59.892732 
L 316.9152 58.6649 
L 317.7216 57.739254 
L 318.1248 57.547911 
L 318.9312 57.697789 
L 319.7376 58.113217 
L 320.1408 58.506877 
L 320.9472 60.009771 
L 321.7536 61.877533 
L 322.9632 65.543809 
L 324.576 71.230513 
L 326.592 78.253809 
L 327.8016 81.715538 
L 328.608 83.567993 
L 329.4144 84.878095 
L 330.2208 85.845371 
L 330.624 86.11452 
L 331.4304 86.130192 
L 332.64 85.925487 
L 333.4464 85.244947 
L 335.0592 83.400139 
L 337.0752 80.966186 
L 338.2848 79.805053 
L 339.4944 79.032252 
L 340.3008 78.754704 
L 341.9136 78.672329 
L 342.72 78.812377 
L 345.5424 79.800436 
L 347.5584 80.432467 
L 349.5744 80.809684 
L 352.8 81.397235 
L 354.0096 81.870712 
L 355.2192 82.585415 
L 356.4288 83.58226 
L 358.0416 85.3221 
L 362.0736 90.219712 
L 363.2832 91.116128 
L 363.6864 91.309056 
L 364.4928 91.32808 
L 365.7024 90.951666 
L 366.1056 90.629953 
L 366.912 89.560581 
L 367.7184 88.196069 
L 368.928 85.366628 
L 370.1376 81.793041 
L 371.7504 76.321094 
L 374.5728 66.763049 
L 375.7824 63.531457 
L 376.5888 61.848613 
L 377.7984 60.090293 
L 378.2016 59.868052 
L 379.8144 59.876298 
L 380.2176 60.038419 
L 381.024 61.02522 
L 381.8304 62.24478 
L 383.04 64.676803 
L 384.6528 68.482046 
L 387.4752 75.141934 
L 389.088 78.176825 
L 390.2976 79.911649 
L 391.5072 81.169965 
L 392.3136 81.783432 
L 393.5232 82.383549 
L 394.7328 82.702881 
L 396.3456 82.896027 
L 399.168 83.180289 
L 400.7808 83.581277 
L 402.3936 84.233953 
L 404.4096 85.337203 
L 407.6352 87.169506 
L 409.248 87.767225 
L 410.0544 87.857072 
L 411.6672 87.782852 
L 412.4736 87.492529 
L 413.6832 86.812343 
L 414.8928 85.809219 
L 416.1024 84.512168 
L 417.7152 82.431942 
L 419.7312 79.446897 
L 425.7792 70.207167 
L 427.7952 67.619098 
L 429.408 65.912269 
L 430.6176 64.910802 
L 431.8272 64.17018 
L 433.0368 63.721209 
L 433.8432 63.648414 
L 435.456 63.698097 
L 437.0688 64.14216 
L 439.488 64.875 
L 440.6976 64.909768 
L 441.9072 64.831687 
L 443.1168 64.321637 
L 444.3264 63.526737 
L 445.9392 62.16309 
L 448.3584 60.12632 
L 449.568 59.406233 
L 450.7776 58.963796 
L 454.0032 58.348972 
L 454.0032 58.348972 
" clip-path="url(#p2614755f28)" style="fill: none; stroke: #ff0000; stroke-linecap: square"/>
   </g>
   <g id="text_2">
    <g id="patch_3">
     <path d="M 30.299688 84.305469 
L 44.32 84.305469 
L 44.32 66.574219 
L 30.299688 66.574219 
L 30.299688 84.305469 
z
" style="fill: none"/>
    </g>
    <!-- N -->
    <g transform="translate(34.299688 78.225781) scale(0.1 -0.1)">
     <defs>
      <path id="DejaVuSansMono-4e" d="M 434 4666 
L 1234 4666 
L 2809 825 
L 2809 4666 
L 3419 4666 
L 3419 0 
L 2619 0 
L 1044 3841 
L 1044 0 
L 434 0 
L 434 4666 
z
" transform="scale(0.015625)"/>
     </defs>
     <use xlink:href="#DejaVuSansMono-4e"/>
    </g>
   </g>
   <g id="text_3">
    <g id="patch_4">
     <path d="M 46.4049 52.829494 
L 106.681514 52.829494 
L 106.681514 39.2049 
L 46.4049 39.2049 
L 46.4049 52.829494 
z
" style="fill: none"/>
    </g>
    <!-- A: 4.7367e-05 m -->
    <g transform="translate(50.4 47.630255) scale(0.0579 -0.0579)">
     <defs>
      <path id="DejaVuSansMono-41" d="M 1925 4109 
L 1259 1722 
L 2591 1722 
L 1925 4109 
z
M 1544 4666 
L 2309 4666 
L 3738 0 
L 3084 0 
L 2741 1216 
L 1106 1216 
L 769 0 
L 116 0 
L 1544 4666 
z
" transform="scale(0.015625)"/>
      <path id="DejaVuSansMono-3a" d="M 1528 3322 
L 2316 3322 
L 2316 2375 
L 1528 2375 
L 1528 3322 
z
M 1528 953 
L 2316 953 
L 2316 0 
L 1528 0 
L 1528 953 
z
" transform="scale(0.015625)"/>
      <path id="DejaVuSansMono-20" transform="scale(0.015625)"/>
      <path id="DejaVuSansMono-34" d="M 2297 4091 
L 825 1625 
L 2297 1625 
L 2297 4091 
z
M 2194 4666 
L 2925 4666 
L 2925 1625 
L 3547 1625 
L 3547 1113 
L 2925 1113 
L 2925 0 
L 2297 0 
L 2297 1113 
L 319 1113 
L 319 1709 
L 2194 4666 
z
" transform="scale(0.015625)"/>
      <path id="DejaVuSansMono-2e" d="M 1528 953 
L 2316 953 
L 2316 0 
L 1528 0 
L 1528 953 
z
" transform="scale(0.015625)"/>
      <path id="DejaVuSansMono-37" d="M 434 4666 
L 3372 4666 
L 3372 4397 
L 1703 0 
L 1044 0 
L 2669 4134 
L 434 4134 
L 434 4666 
z
" transform="scale(0.015625)"/>
      <path id="DejaVuSansMono-33" d="M 2425 2497 
Q 2884 2375 3128 2064 
Q 3372 1753 3372 1288 
Q 3372 644 2939 276 
Q 2506 -91 1741 -91 
Q 1419 -91 1084 -31 
Q 750 28 428 141 
L 428 769 
Q 747 603 1056 522 
Q 1366 441 1672 441 
Q 2191 441 2469 675 
Q 2747 909 2747 1350 
Q 2747 1756 2469 1995 
Q 2191 2234 1716 2234 
L 1234 2234 
L 1234 2753 
L 1716 2753 
Q 2150 2753 2394 2943 
Q 2638 3134 2638 3475 
Q 2638 3834 2411 4026 
Q 2184 4219 1766 4219 
Q 1488 4219 1191 4156 
Q 894 4094 569 3969 
L 569 4550 
Q 947 4650 1242 4700 
Q 1538 4750 1766 4750 
Q 2447 4750 2855 4408 
Q 3263 4066 3263 3500 
Q 3263 3116 3048 2859 
Q 2834 2603 2425 2497 
z
" transform="scale(0.015625)"/>
      <path id="DejaVuSansMono-6d" d="M 2113 3144 
Q 2219 3369 2383 3476 
Q 2547 3584 2778 3584 
Q 3200 3584 3373 3257 
Q 3547 2931 3547 2028 
L 3547 0 
L 3022 0 
L 3022 2003 
Q 3022 2744 2939 2923 
Q 2856 3103 2638 3103 
Q 2388 3103 2295 2911 
Q 2203 2719 2203 2003 
L 2203 0 
L 1678 0 
L 1678 2003 
Q 1678 2753 1589 2928 
Q 1500 3103 1269 3103 
Q 1041 3103 952 2911 
Q 863 2719 863 2003 
L 863 0 
L 341 0 
L 341 3500 
L 863 3500 
L 863 3200 
Q 966 3388 1120 3486 
Q 1275 3584 1472 3584 
Q 1709 3584 1867 3475 
Q 2025 3366 2113 3144 
z
" transform="scale(0.015625)"/>
     </defs>
     <use xlink:href="#DejaVuSansMono-41"/>
     <use xlink:href="#DejaVuSansMono-3a" x="60.205078"/>
     <use xlink:href="#DejaVuSansMono-20" x="120.410156"/>
     <use xlink:href="#DejaVuSansMono-34" x="180.615234"/>
     <use xlink:href="#DejaVuSansMono-2e" x="240.820312"/>
     <use xlink:href="#DejaVuSansMono-37" x="301.025391"/>
     <use xlink:href="#DejaVuSansMono-33" x="361.230469"/>
     <use xlink:href="#DejaVuSansMono-36" x="421.435547"/>
     <use xlink:href="#DejaVuSansMono-37" x="481.640625"/>
     <use xlink:href="#DejaVuSansMono-65" x="541.845703"/>
     <use xlink:href="#DejaVuSansMono-2d" x="602.050781"/>
     <use xlink:href="#DejaVuSansMono-30" x="662.255859"/>
     <use xlink:href="#DejaVuSansMono-35" x="722.460938"/>
     <use xlink:href="#DejaVuSansMono-20" x="782.666016"/>
     <use xlink:href="#DejaVuSansMono-6d" x="842.871094"/>
    </g>
   </g>
   <g id="text_4">
    <g id="patch_5">
     <path d="M 46.4 37.857727 
L 373.476562 37.857727 
L 373.476562 8.78054 
L 46.4 8.78054 
L 46.4 37.857727 
z
" style="fill: none"/>
    </g>
    <!-- 2015-09-16 22:55:22  Loc: -31.13dg, -72.09dg, 17.35km -->
    <g transform="translate(50.4 20.447727) scale(0.1 -0.1)">
     <defs>
      <path id="DejaVuSansMono-39" d="M 1863 2069 
Q 2266 2069 2495 2359 
Q 2725 2650 2725 3163 
Q 2725 3675 2495 3965 
Q 2266 4256 1863 4256 
Q 1444 4256 1231 3979 
Q 1019 3703 1019 3163 
Q 1019 2619 1230 2344 
Q 1441 2069 1863 2069 
z
M 738 97 
L 738 678 
Q 934 563 1156 502 
Q 1378 441 1619 441 
Q 2219 441 2526 892 
Q 2834 1344 2834 2222 
Q 2688 1909 2422 1742 
Q 2156 1575 1813 1575 
Q 1138 1575 767 1990 
Q 397 2406 397 3169 
Q 397 3922 776 4336 
Q 1156 4750 1850 4750 
Q 2663 4750 3041 4165 
Q 3419 3581 3419 2328 
Q 3419 1150 2964 529 
Q 2509 -91 1644 -91 
Q 1416 -91 1184 -42 
Q 953 6 738 97 
z
" transform="scale(0.015625)"/>
      <path id="DejaVuSansMono-4c" d="M 672 4666 
L 1306 4666 
L 1306 531 
L 3559 531 
L 3559 0 
L 672 0 
L 672 4666 
z
" transform="scale(0.015625)"/>
      <path id="DejaVuSansMono-6f" d="M 1925 3097 
Q 1488 3097 1263 2756 
Q 1038 2416 1038 1747 
Q 1038 1081 1263 739 
Q 1488 397 1925 397 
Q 2366 397 2591 739 
Q 2816 1081 2816 1747 
Q 2816 2416 2591 2756 
Q 2366 3097 1925 3097 
z
M 1925 3584 
Q 2653 3584 3039 3112 
Q 3425 2641 3425 1747 
Q 3425 850 3040 379 
Q 2656 -91 1925 -91 
Q 1197 -91 812 379 
Q 428 850 428 1747 
Q 428 2641 812 3112 
Q 1197 3584 1925 3584 
z
" transform="scale(0.015625)"/>
      <path id="DejaVuSansMono-63" d="M 3316 178 
Q 3084 44 2839 -23 
Q 2594 -91 2338 -91 
Q 1525 -91 1067 396 
Q 609 884 609 1747 
Q 609 2609 1067 3096 
Q 1525 3584 2338 3584 
Q 2591 3584 2831 3518 
Q 3072 3453 3316 3316 
L 3316 2713 
Q 3088 2916 2858 3006 
Q 2628 3097 2338 3097 
Q 1797 3097 1506 2747 
Q 1216 2397 1216 1747 
Q 1216 1100 1508 748 
Q 1800 397 2338 397 
Q 2638 397 2875 489 
Q 3113 581 3316 775 
L 3316 178 
z
" transform="scale(0.015625)"/>
      <path id="DejaVuSansMono-64" d="M 2681 3053 
L 2681 4863 
L 3256 4863 
L 3256 0 
L 2681 0 
L 2681 441 
Q 2538 181 2298 45 
Q 2059 -91 1747 -91 
Q 1113 -91 748 401 
Q 384 894 384 1759 
Q 384 2613 750 3098 
Q 1116 3584 1747 3584 
Q 2063 3584 2303 3448 
Q 2544 3313 2681 3053 
z
M 991 1747 
Q 991 1078 1203 737 
Q 1416 397 1831 397 
Q 2247 397 2464 740 
Q 2681 1084 2681 1747 
Q 2681 2413 2464 2755 
Q 2247 3097 1831 3097 
Q 1416 3097 1203 2756 
Q 991 2416 991 1747 
z
" transform="scale(0.015625)"/>
      <path id="DejaVuSansMono-67" d="M 2681 1778 
Q 2681 2425 2470 2761 
Q 2259 3097 1856 3097 
Q 1434 3097 1212 2761 
Q 991 2425 991 1778 
Q 991 1131 1214 792 
Q 1438 453 1863 453 
Q 2259 453 2470 793 
Q 2681 1134 2681 1778 
z
M 3256 225 
Q 3256 -563 2884 -969 
Q 2513 -1375 1791 -1375 
Q 1553 -1375 1293 -1331 
Q 1034 -1288 775 -1203 
L 775 -634 
Q 1081 -778 1331 -847 
Q 1581 -916 1791 -916 
Q 2256 -916 2468 -662 
Q 2681 -409 2681 141 
L 2681 166 
L 2681 556 
Q 2544 263 2306 119 
Q 2069 -25 1728 -25 
Q 1116 -25 750 465 
Q 384 956 384 1778 
Q 384 2603 750 3093 
Q 1116 3584 1728 3584 
Q 2066 3584 2300 3450 
Q 2534 3316 2681 3034 
L 2681 3488 
L 3256 3488 
L 3256 225 
z
" transform="scale(0.015625)"/>
      <path id="DejaVuSansMono-2c" d="M 1569 947 
L 2356 947 
L 2356 300 
L 1741 -897 
L 1259 -897 
L 1569 300 
L 1569 947 
z
" transform="scale(0.015625)"/>
      <path id="DejaVuSansMono-6b" d="M 738 4863 
L 1331 4863 
L 1331 2047 
L 2841 3500 
L 3541 3500 
L 2163 2181 
L 3756 0 
L 3053 0 
L 1759 1806 
L 1331 1403 
L 1331 0 
L 738 0 
L 738 4863 
z
" transform="scale(0.015625)"/>
     </defs>
     <use xlink:href="#DejaVuSansMono-32"/>
     <use xlink:href="#DejaVuSansMono-30" x="60.205078"/>
     <use xlink:href="#DejaVuSansMono-31" x="120.410156"/>
     <use xlink:href="#DejaVuSansMono-35" x="180.615234"/>
     <use xlink:href="#DejaVuSansMono-2d" x="240.820312"/>
     <use xlink:href="#DejaVuSansMono-30" x="301.025391"/>
     <use xlink:href="#DejaVuSansMono-39" x="361.230469"/>
     <use xlink:href="#DejaVuSansMono-2d" x="421.435547"/>
     <use xlink:href="#DejaVuSansMono-31" x="481.640625"/>
     <use xlink:href="#DejaVuSansMono-36" x="541.845703"/>
     <use xlink:href="#DejaVuSansMono-20" x="602.050781"/>
     <use xlink:href="#DejaVuSansMono-32" x="662.255859"/>
     <use xlink:href="#DejaVuSansMono-32" x="722.460938"/>
     <use xlink:href="#DejaVuSansMono-3a" x="782.666016"/>
     <use xlink:href="#DejaVuSansMono-35" x="842.871094"/>
     <use xlink:href="#DejaVuSansMono-35" x="903.076172"/>
     <use xlink:href="#DejaVuSansMono-3a" x="963.28125"/>
     <use xlink:href="#DejaVuSansMono-32" x="1023.486328"/>
     <use xlink:href="#DejaVuSansMono-32" x="1083.691406"/>
     <use xlink:href="#DejaVuSansMono-20" x="1143.896484"/>
     <use xlink:href="#DejaVuSansMono-20" x="1204.101562"/>
     <use xlink:href="#DejaVuSansMono-4c" x="1264.306641"/>
     <use xlink:href="#DejaVuSansMono-6f" x="1324.511719"/>
     <use xlink:href="#DejaVuSansMono-63" x="1384.716797"/>
     <use xlink:href="#DejaVuSansMono-3a" x="1444.921875"/>
     <use xlink:href="#DejaVuSansMono-20" x="1505.126953"/>
     <use xlink:href="#DejaVuSansMono-2d" x="1565.332031"/>
     <use xlink:href="#DejaVuSansMono-33" x="1625.537109"/>
     <use xlink:href="#DejaVuSansMono-31" x="1685.742188"/>
     <use xlink:href="#DejaVuSansMono-2e" x="1745.947266"/>
     <use xlink:href="#DejaVuSansMono-31" x="1806.152344"/>
     <use xlink:href="#DejaVuSansMono-33" x="1866.357422"/>
     <use xlink:href="#DejaVuSansMono-64" x="1926.5625"/>
     <use xlink:href="#DejaVuSansMono-67" x="1986.767578"/>
     <use xlink:href="#DejaVuSansMono-2c" x="2046.972656"/>
     <use xlink:href="#DejaVuSansMono-20" x="2107.177734"/>
     <use xlink:href="#DejaVuSansMono-2d" x="2167.382812"/>
     <use xlink:href="#DejaVuSansMono-37" x="2227.587891"/>
     <use xlink:href="#DejaVuSansMono-32" x="2287.792969"/>
     <use xlink:href="#DejaVuSansMono-2e" x="2347.998047"/>
     <use xlink:href="#DejaVuSansMono-30" x="2408.203125"/>
     <use xlink:href="#DejaVuSansMono-39" x="2468.408203"/>
     <use xlink:href="#DejaVuSansMono-64" x="2528.613281"/>
     <use xlink:href="#DejaVuSansMono-67" x="2588.818359"/>
     <use xlink:href="#DejaVuSansMono-2c" x="2649.023438"/>
     <use xlink:href="#DejaVuSansMono-20" x="2709.228516"/>
     <use xlink:href="#DejaVuSansMono-31" x="2769.433594"/>
     <use xlink:href="#DejaVuSansMono-37" x="2829.638672"/>
     <use xlink:href="#DejaVuSansMono-2e" x="2889.84375"/>
     <use xlink:href="#DejaVuSansMono-33" x="2950.048828"/>
     <use xlink:href="#DejaVuSansMono-35" x="3010.253906"/>
     <use xlink:href="#DejaVuSansMono-6b" x="3070.458984"/>
     <use xlink:href="#DejaVuSansMono-6d" x="3130.664062"/>
    </g>
    <!-- II.BFO  -->
    <g transform="translate(50.4 31.77804) scale(0.1 -0.1)">
     <defs>
      <path id="DejaVuSansMono-49" d="M 628 4666 
L 3219 4666 
L 3219 4134 
L 2241 4134 
L 2241 531 
L 3219 531 
L 3219 0 
L 628 0 
L 628 531 
L 1606 531 
L 1606 4134 
L 628 4134 
L 628 4666 
z
" transform="scale(0.015625)"/>
      <path id="DejaVuSansMono-42" d="M 1153 2228 
L 1153 519 
L 1900 519 
Q 2450 519 2684 711 
Q 2919 903 2919 1344 
Q 2919 1800 2672 2014 
Q 2425 2228 1900 2228 
L 1153 2228 
z
M 1153 4147 
L 1153 2741 
L 1888 2741 
Q 2344 2741 2548 2916 
Q 2753 3091 2753 3481 
Q 2753 3834 2551 3990 
Q 2350 4147 1888 4147 
L 1153 4147 
z
M 519 4666 
L 1900 4666 
Q 2616 4666 3003 4356 
Q 3391 4047 3391 3481 
Q 3391 3053 3186 2806 
Q 2981 2559 2572 2497 
Q 3031 2428 3292 2104 
Q 3553 1781 3553 1281 
Q 3553 647 3137 323 
Q 2722 0 1900 0 
L 519 0 
L 519 4666 
z
" transform="scale(0.015625)"/>
      <path id="DejaVuSansMono-46" d="M 728 4666 
L 3475 4666 
L 3475 4134 
L 1363 4134 
L 1363 2759 
L 3278 2759 
L 3278 2228 
L 1363 2228 
L 1363 0 
L 728 0 
L 728 4666 
z
" transform="scale(0.015625)"/>
      <path id="DejaVuSansMono-4f" d="M 2828 2328 
Q 2828 3356 2617 3797 
Q 2406 4238 1925 4238 
Q 1447 4238 1236 3797 
Q 1025 3356 1025 2328 
Q 1025 1303 1236 862 
Q 1447 422 1925 422 
Q 2406 422 2617 861 
Q 2828 1300 2828 2328 
z
M 3488 2328 
Q 3488 1109 3102 509 
Q 2716 -91 1925 -91 
Q 1134 -91 750 506 
Q 366 1103 366 2328 
Q 366 3550 752 4150 
Q 1138 4750 1925 4750 
Q 2716 4750 3102 4150 
Q 3488 3550 3488 2328 
z
" transform="scale(0.015625)"/>
     </defs>
     <use xlink:href="#DejaVuSansMono-49"/>
     <use xlink:href="#DejaVuSansMono-49" x="60.205078"/>
     <use xlink:href="#DejaVuSansMono-2e" x="120.410156"/>
     <use xlink:href="#DejaVuSansMono-42" x="180.615234"/>
     <use xlink:href="#DejaVuSansMono-46" x="240.820312"/>
     <use xlink:href="#DejaVuSansMono-4f" x="301.025391"/>
     <use xlink:href="#DejaVuSansMono-20" x="361.230469"/>
    </g>
   </g>
   <g id="legend_1">
    <g id="line2d_4">
     <path d="M 323.582353 52.327184 
L 330.522353 52.327184 
L 337.462353 52.327184 
" style="fill: none; stroke: #000000; stroke-linecap: square"/>
    </g>
    <g id="text_5">
     <!-- Observed -->
     <g transform="translate(343.014353 54.756184) scale(0.0694 -0.0694)">
      <defs>
       <path id="DejaVuSansMono-62" d="M 2869 1747 
Q 2869 2416 2656 2756 
Q 2444 3097 2028 3097 
Q 1609 3097 1393 2755 
Q 1178 2413 1178 1747 
Q 1178 1084 1393 740 
Q 1609 397 2028 397 
Q 2444 397 2656 737 
Q 2869 1078 2869 1747 
z
M 1178 3053 
Q 1316 3309 1558 3446 
Q 1800 3584 2119 3584 
Q 2750 3584 3112 3098 
Q 3475 2613 3475 1759 
Q 3475 894 3111 401 
Q 2747 -91 2113 -91 
Q 1800 -91 1561 45 
Q 1322 181 1178 441 
L 1178 0 
L 603 0 
L 603 4863 
L 1178 4863 
L 1178 3053 
z
" transform="scale(0.015625)"/>
       <path id="DejaVuSansMono-73" d="M 3041 3378 
L 3041 2816 
Q 2794 2959 2544 3031 
Q 2294 3103 2034 3103 
Q 1644 3103 1451 2976 
Q 1259 2850 1259 2591 
Q 1259 2356 1403 2240 
Q 1547 2125 2119 2016 
L 2350 1972 
Q 2778 1891 2998 1647 
Q 3219 1403 3219 1013 
Q 3219 494 2850 201 
Q 2481 -91 1825 -91 
Q 1566 -91 1281 -36 
Q 997 19 666 128 
L 666 722 
Q 988 556 1281 473 
Q 1575 391 1838 391 
Q 2219 391 2428 545 
Q 2638 700 2638 978 
Q 2638 1378 1872 1531 
L 1847 1538 
L 1631 1581 
Q 1134 1678 906 1908 
Q 678 2138 678 2534 
Q 678 3038 1018 3311 
Q 1359 3584 1991 3584 
Q 2272 3584 2531 3532 
Q 2791 3481 3041 3378 
z
" transform="scale(0.015625)"/>
       <path id="DejaVuSansMono-72" d="M 3609 2778 
Q 3425 2922 3234 2987 
Q 3044 3053 2816 3053 
Q 2278 3053 1993 2715 
Q 1709 2378 1709 1741 
L 1709 0 
L 1131 0 
L 1131 3500 
L 1709 3500 
L 1709 2816 
Q 1853 3188 2151 3386 
Q 2450 3584 2859 3584 
Q 3072 3584 3256 3531 
Q 3441 3478 3609 3366 
L 3609 2778 
z
" transform="scale(0.015625)"/>
       <path id="DejaVuSansMono-76" d="M 313 3500 
L 909 3500 
L 1925 563 
L 2944 3500 
L 3541 3500 
L 2297 0 
L 1556 0 
L 313 3500 
z
" transform="scale(0.015625)"/>
      </defs>
      <use xlink:href="#DejaVuSansMono-4f"/>
      <use xlink:href="#DejaVuSansMono-62" x="60.205078"/>
      <use xlink:href="#DejaVuSansMono-73" x="120.410156"/>
      <use xlink:href="#DejaVuSansMono-65" x="180.615234"/>
      <use xlink:href="#DejaVuSansMono-72" x="240.820312"/>
      <use xlink:href="#DejaVuSansMono-76" x="301.025391"/>
      <use xlink:href="#DejaVuSansMono-65" x="361.230469"/>
      <use xlink:href="#DejaVuSansMono-64" x="421.435547"/>
     </g>
    </g>
    <g id="line2d_5">
     <path d="M 390.319128 52.327184 
L 397.259128 52.327184 
L 404.199128 52.327184 
" style="fill: none; stroke: #ff0000; stroke-linecap: square"/>
    </g>
    <g id="text_6">
     <!-- Synthetic -->
     <g transform="translate(409.751128 54.756184) scale(0.0694 -0.0694)">
      <defs>
       <path id="DejaVuSansMono-79" d="M 2681 1125 
Q 2538 759 2316 163 
Q 2006 -663 1900 -844 
Q 1756 -1088 1540 -1209 
Q 1325 -1331 1038 -1331 
L 575 -1331 
L 575 -850 
L 916 -850 
Q 1169 -850 1312 -703 
Q 1456 -556 1678 56 
L 325 3500 
L 934 3500 
L 1972 763 
L 2994 3500 
L 3603 3500 
L 2681 1125 
z
" transform="scale(0.015625)"/>
       <path id="DejaVuSansMono-6e" d="M 3284 2169 
L 3284 0 
L 2706 0 
L 2706 2169 
Q 2706 2641 2540 2862 
Q 2375 3084 2022 3084 
Q 1619 3084 1401 2798 
Q 1184 2513 1184 1978 
L 1184 0 
L 609 0 
L 609 3500 
L 1184 3500 
L 1184 2975 
Q 1338 3275 1600 3429 
Q 1863 3584 2222 3584 
Q 2756 3584 3020 3232 
Q 3284 2881 3284 2169 
z
" transform="scale(0.015625)"/>
       <path id="DejaVuSansMono-74" d="M 1919 4494 
L 1919 3500 
L 3225 3500 
L 3225 3053 
L 1919 3053 
L 1919 1153 
Q 1919 766 2066 612 
Q 2213 459 2578 459 
L 3225 459 
L 3225 0 
L 2522 0 
Q 1875 0 1609 259 
Q 1344 519 1344 1153 
L 1344 3053 
L 409 3053 
L 409 3500 
L 1344 3500 
L 1344 4494 
L 1919 4494 
z
" transform="scale(0.015625)"/>
       <path id="DejaVuSansMono-68" d="M 3284 2169 
L 3284 0 
L 2706 0 
L 2706 2169 
Q 2706 2641 2540 2862 
Q 2375 3084 2022 3084 
Q 1619 3084 1401 2798 
Q 1184 2513 1184 1978 
L 1184 0 
L 609 0 
L 609 4863 
L 1184 4863 
L 1184 2975 
Q 1338 3275 1600 3429 
Q 1863 3584 2222 3584 
Q 2756 3584 3020 3232 
Q 3284 2881 3284 2169 
z
" transform="scale(0.015625)"/>
       <path id="DejaVuSansMono-69" d="M 800 3500 
L 2272 3500 
L 2272 447 
L 3413 447 
L 3413 0 
L 556 0 
L 556 447 
L 1697 447 
L 1697 3053 
L 800 3053 
L 800 3500 
z
M 1697 4863 
L 2272 4863 
L 2272 4134 
L 1697 4134 
L 1697 4863 
z
" transform="scale(0.015625)"/>
      </defs>
      <use xlink:href="#DejaVuSansMono-53"/>
      <use xlink:href="#DejaVuSansMono-79" x="60.205078"/>
      <use xlink:href="#DejaVuSansMono-6e" x="120.410156"/>
      <use xlink:href="#DejaVuSansMono-74" x="180.615234"/>
      <use xlink:href="#DejaVuSansMono-68" x="240.820312"/>
      <use xlink:href="#DejaVuSansMono-65" x="301.025391"/>
      <use xlink:href="#DejaVuSansMono-74" x="361.230469"/>
      <use xlink:href="#DejaVuSansMono-69" x="421.435547"/>
      <use xlink:href="#DejaVuSansMono-63" x="481.640625"/>
     </g>
    </g>
   </g>
  </g>
  <g id="axes_2">
   <g id="patch_6">
    <path d="M 50.4 168 
L 453.6 168 
L 453.6 105.6 
L 50.4 105.6 
z
" style="fill: #ffffff"/>
   </g>
   <g id="matplotlib.axis_3">
    <g id="xtick_4"/>
    <g id="xtick_5"/>
    <g id="xtick_6"/>
    <g id="text_7">
     <!-- 2015-Sep-16 -->
     <g transform="translate(387.376563 178.651563) scale(0.1 -0.1)">
      <use xlink:href="#DejaVuSansMono-32"/>
      <use xlink:href="#DejaVuSansMono-30" x="60.205078"/>
      <use xlink:href="#DejaVuSansMono-31" x="120.410156"/>
      <use xlink:href="#DejaVuSansMono-35" x="180.615234"/>
      <use xlink:href="#DejaVuSansMono-2d" x="240.820312"/>
      <use xlink:href="#DejaVuSansMono-53" x="301.025391"/>
      <use xlink:href="#DejaVuSansMono-65" x="361.230469"/>
      <use xlink:href="#DejaVuSansMono-70" x="421.435547"/>
      <use xlink:href="#DejaVuSansMono-2d" x="481.640625"/>
      <use xlink:href="#DejaVuSansMono-31" x="541.845703"/>
      <use xlink:href="#DejaVuSansMono-36" x="602.050781"/>
     </g>
    </g>
   </g>
   <g id="matplotlib.axis_4">
    <g id="ytick_4"/>
    <g id="ytick_5"/>
    <g id="ytick_6"/>
   </g>
   <g id="line2d_6">
    <path d="M 49.9968 134.104844 
L 91.1232 134.382734 
L 104.832 134.064528 
L 120.96 133.716094 
L 131.4432 133.75709 
L 141.5232 134.003627 
L 153.6192 134.54881 
L 167.7312 135.150381 
L 176.6016 135.309929 
L 182.6496 135.17811 
L 192.3264 134.77477 
L 194.3424 134.406136 
L 195.9552 133.914435 
L 197.568 133.225138 
L 199.584 132.118326 
L 203.616 129.760155 
L 204.8256 129.279983 
L 206.0352 129.022503 
L 207.2448 129.037908 
L 208.4544 129.346163 
L 209.664 129.939661 
L 210.8736 130.777817 
L 212.8896 132.526924 
L 215.712 135.018213 
L 217.3248 136.093195 
L 218.5344 136.6269 
L 219.744 136.903781 
L 220.9536 136.931868 
L 222.1632 136.746316 
L 223.776 136.253097 
L 229.4208 134.184006 
L 231.0336 133.909071 
L 232.6464 133.847729 
L 234.6624 134.033822 
L 237.4848 134.598161 
L 241.5168 135.422704 
L 243.936 135.699421 
L 246.3552 135.770809 
L 249.1776 135.633912 
L 253.2096 135.180418 
L 263.2896 133.966083 
L 266.9184 133.762849 
L 270.144 133.826175 
L 277.4016 134.140506 
L 280.224 133.983082 
L 285.4656 133.394214 
L 289.0944 133.087378 
L 291.1104 133.10796 
L 292.7232 133.305858 
L 294.336 133.705833 
L 295.9488 134.310908 
L 298.368 135.485561 
L 300.7872 136.58896 
L 301.9968 136.909384 
L 303.2064 136.950659 
L 304.0128 136.783532 
L 304.8192 136.435949 
L 305.6256 135.894713 
L 306.432 135.153939 
L 307.6416 133.678094 
L 308.8512 131.816374 
L 310.8672 128.179521 
L 312.8832 124.630837 
L 314.0928 122.991573 
L 314.8992 122.246458 
L 315.7056 121.84489 
L 316.512 121.837792 
L 317.3184 122.234431 
L 318.1248 123.047974 
L 318.9312 124.261417 
L 319.7376 125.839884 
L 320.9472 128.77386 
L 322.9632 134.562808 
L 324.9792 140.316697 
L 326.1888 143.211207 
L 327.3984 145.421662 
L 328.2048 146.450174 
L 329.0112 147.103496 
L 329.8176 147.387412 
L 330.624 147.312732 
L 331.4304 146.926533 
L 332.2368 146.272058 
L 333.4464 144.915065 
L 337.8816 139.296861 
L 339.0912 138.310183 
L 340.3008 137.688264 
L 341.5104 137.398392 
L 342.72 137.364818 
L 344.736 137.599384 
L 347.1552 137.84125 
L 349.1712 137.759717 
L 354.816 137.200913 
L 356.832 137.401349 
L 359.6544 137.737524 
L 360.864 137.616016 
L 361.6704 137.349779 
L 362.4768 136.890729 
L 363.2832 136.205506 
L 364.0896 135.267922 
L 364.896 134.061507 
L 366.1056 131.741741 
L 367.3152 128.854079 
L 368.928 124.33459 
L 372.1536 114.896179 
L 373.3632 111.996631 
L 374.1696 110.450273 
L 374.976 109.277731 
L 375.7824 108.519326 
L 376.5888 108.2 
L 377.3952 108.334487 
L 378.2016 108.905282 
L 379.008 109.891362 
L 379.8144 111.251926 
L 381.024 113.873607 
L 382.6368 118.097723 
L 385.8624 126.873776 
L 387.072 129.639464 
L 388.2816 131.918027 
L 389.4912 133.680598 
L 390.7008 134.968551 
L 391.9104 135.88144 
L 393.5232 136.760406 
L 395.5392 137.841765 
L 396.7488 138.72767 
L 397.9584 139.899772 
L 399.168 141.383176 
L 400.7808 143.784618 
L 406.0224 152.116497 
L 407.232 153.45343 
L 408.4416 154.384856 
L 409.248 154.76343 
L 410.0544 154.947498 
L 410.8608 154.938899 
L 411.6672 154.756856 
L 412.8768 154.192698 
L 414.0864 153.349275 
L 415.6992 151.942941 
L 419.7312 148.242987 
L 421.344 147.052146 
L 422.9568 146.09529 
L 425.376 144.968526 
L 428.6016 143.473969 
L 430.6176 142.256493 
L 432.6336 140.762253 
L 436.6656 137.359339 
L 440.6976 134.152814 
L 442.7136 132.37042 
L 443.9232 131.035971 
L 445.1328 129.388877 
L 446.3424 127.353732 
L 447.552 124.889969 
L 449.1648 120.962003 
L 451.1808 115.299284 
L 454.0032 107.206245 
L 454.0032 107.206245 
" clip-path="url(#pe6170d2a2a)" style="fill: none; stroke: #000000; stroke-linecap: square"/>
   </g>
   <g id="line2d_7">
    <path d="M -1 136.8 
L 505 136.8 
" clip-path="url(#pe6170d2a2a)" style="fill: none; stroke-dasharray: 3.7,1.6; stroke-dashoffset: 0; stroke: #000000"/>
   </g>
   <g id="line2d_8">
    <path d="M 49.9968 139.493194 
L 76.608 139.346674 
L 111.2832 139.144857 
L 127.008 139.307228 
L 144.7488 139.729292 
L 166.5216 140.232117 
L 183.0528 140.201325 
L 190.7136 139.809252 
L 195.552 139.858079 
L 197.1648 139.579146 
L 198.3744 139.146219 
L 199.584 138.464693 
L 200.7936 137.534649 
L 202.4064 135.951877 
L 206.8416 131.29449 
L 207.648 130.818979 
L 208.8576 130.455423 
L 209.664 130.522236 
L 210.8736 131.086342 
L 211.68 131.824211 
L 212.8896 133.335505 
L 214.5024 135.967079 
L 217.728 141.577576 
L 218.9376 143.181143 
L 219.744 144.018794 
L 220.5504 144.52505 
L 221.3568 144.858607 
L 222.1632 144.888603 
L 223.3728 144.580354 
L 224.1792 144.13703 
L 225.792 142.837391 
L 229.0176 139.993958 
L 230.2272 139.21214 
L 231.4368 138.687049 
L 232.6464 138.409257 
L 234.2592 138.465876 
L 235.0656 138.594569 
L 237.0816 139.271044 
L 243.936 142.015422 
L 245.5488 142.364257 
L 247.1616 142.512051 
L 249.1776 142.415637 
L 251.1936 142.012211 
L 254.4192 141.059378 
L 257.2416 140.303125 
L 259.2576 139.9652 
L 261.6768 139.801741 
L 266.5152 139.792043 
L 275.3856 139.825458 
L 280.224 139.949561 
L 282.6432 139.789428 
L 291.1104 138.944282 
L 293.1264 139.055455 
L 295.1424 139.412722 
L 296.7552 139.922228 
L 298.368 140.668708 
L 300.384 141.914573 
L 303.6096 143.9617 
L 304.8192 144.1966 
L 305.6256 144.236144 
L 306.0288 144.125312 
L 306.8352 143.594116 
L 307.6416 142.812286 
L 308.448 141.562407 
L 309.2544 139.994261 
L 310.464 136.892732 
L 311.6736 133.06685 
L 315.7056 119.594248 
L 316.512 117.735008 
L 317.3184 116.546492 
L 317.7216 116.108215 
L 318.1248 115.903489 
L 318.528 115.971238 
L 319.3344 116.584491 
L 319.7376 117.024735 
L 320.1408 117.66365 
L 320.9472 119.828667 
L 321.7536 122.478815 
L 322.9632 127.559131 
L 324.9792 137.266012 
L 326.592 144.680733 
L 327.3984 147.874704 
L 328.608 151.583551 
L 329.4144 153.179549 
L 330.2208 154.257956 
L 330.624 154.550905 
L 331.0272 154.581595 
L 331.8336 154.303686 
L 332.64 153.783067 
L 333.4464 152.626841 
L 335.0592 149.621572 
L 337.4784 144.917417 
L 338.688 143.06342 
L 339.8976 141.759947 
L 340.704 141.256928 
L 341.5104 140.919812 
L 342.3168 140.879229 
L 343.9296 141.082382 
L 349.1712 142.767159 
L 353.2032 143.636262 
L 354.4128 144.226649 
L 355.6224 145.108611 
L 356.832 146.299723 
L 358.4448 148.318436 
L 361.2672 152.093714 
L 362.0736 152.968099 
L 362.88 153.427342 
L 363.6864 153.696785 
L 364.0896 153.726044 
L 364.4928 153.594226 
L 365.2992 152.927746 
L 365.7024 152.503879 
L 366.5088 151.115358 
L 367.3152 149.228822 
L 368.1216 146.802222 
L 369.3312 142.35324 
L 370.944 135.200556 
L 373.7664 122.002402 
L 374.976 117.179593 
L 376.1856 113.444214 
L 376.992 111.827905 
L 377.7984 110.651147 
L 378.2016 110.421579 
L 379.008 110.571798 
L 379.8144 110.975952 
L 380.2176 111.384575 
L 381.024 112.935281 
L 381.8304 114.811756 
L 383.04 118.387307 
L 385.056 125.198372 
L 387.072 131.849861 
L 388.2816 135.263441 
L 389.4912 138.103731 
L 390.7008 140.337466 
L 391.9104 141.976084 
L 393.12 143.129925 
L 394.3296 143.93836 
L 396.3456 144.863981 
L 398.3616 145.773889 
L 399.5712 146.494848 
L 401.184 147.756584 
L 402.7968 149.367365 
L 405.216 152.207577 
L 407.6352 154.986908 
L 408.8448 156.095202 
L 409.6512 156.683733 
L 410.8608 157.251175 
L 411.6672 157.353506 
L 412.8768 157.217248 
L 413.6832 156.926525 
L 414.8928 156.055863 
L 416.1024 154.807322 
L 417.312 153.261025 
L 418.9248 150.851515 
L 426.1824 139.452642 
L 427.7952 137.50019 
L 429.0048 136.30535 
L 430.2144 135.371391 
L 431.424 134.744247 
L 432.2304 134.573508 
L 433.8432 134.524559 
L 435.0528 134.887478 
L 436.2624 135.429969 
L 439.0848 136.771291 
L 439.8912 136.947354 
L 441.504 136.83564 
L 442.3104 136.492536 
L 443.52 135.588704 
L 444.7296 134.300169 
L 447.1488 131.224922 
L 448.3584 129.835067 
L 449.568 128.730697 
L 450.7776 127.958757 
L 453.6 126.419 
L 454.0032 126.051476 
L 454.0032 126.051476 
" clip-path="url(#pe6170d2a2a)" style="fill: none; stroke: #ff0000; stroke-linecap: square"/>
   </g>
   <g id="text_8">
    <g id="patch_7">
     <path d="M 30.299688 146.705469 
L 44.32 146.705469 
L 44.32 128.974219 
L 30.299688 128.974219 
L 30.299688 146.705469 
z
" style="fill: none"/>
    </g>
    <!-- E -->
    <g transform="translate(34.299688 140.625781) scale(0.1 -0.1)">
     <defs>
      <path id="DejaVuSansMono-45" d="M 616 4666 
L 3384 4666 
L 3384 4134 
L 1247 4134 
L 1247 2753 
L 3291 2753 
L 3291 2222 
L 1247 2222 
L 1247 531 
L 3444 531 
L 3444 0 
L 616 0 
L 616 4666 
z
" transform="scale(0.015625)"/>
     </defs>
     <use xlink:href="#DejaVuSansMono-45"/>
    </g>
   </g>
   <g id="text_9">
    <g id="patch_8">
     <path d="M 46.4049 115.229494 
L 106.681514 115.229494 
L 106.681514 101.6049 
L 46.4049 101.6049 
L 46.4049 115.229494 
z
" style="fill: none"/>
    </g>
    <!-- A: 6.4093e-05 m -->
    <g transform="translate(50.4 110.030255) scale(0.0579 -0.0579)">
     <use xlink:href="#DejaVuSansMono-41"/>
     <use xlink:href="#DejaVuSansMono-3a" x="60.205078"/>
     <use xlink:href="#DejaVuSansMono-20" x="120.410156"/>
     <use xlink:href="#DejaVuSansMono-36" x="180.615234"/>
     <use xlink:href="#DejaVuSansMono-2e" x="240.820312"/>
     <use xlink:href="#DejaVuSansMono-34" x="301.025391"/>
     <use xlink:href="#DejaVuSansMono-30" x="361.230469"/>
     <use xlink:href="#DejaVuSansMono-39" x="421.435547"/>
     <use xlink:href="#DejaVuSansMono-33" x="481.640625"/>
     <use xlink:href="#DejaVuSansMono-65" x="541.845703"/>
     <use xlink:href="#DejaVuSansMono-2d" x="602.050781"/>
     <use xlink:href="#DejaVuSansMono-30" x="662.255859"/>
     <use xlink:href="#DejaVuSansMono-35" x="722.460938"/>
     <use xlink:href="#DejaVuSansMono-20" x="782.666016"/>
     <use xlink:href="#DejaVuSansMono-6d" x="842.871094"/>
    </g>
   </g>
  </g>
  <g id="axes_3">
   <g id="patch_9">
    <path d="M 50.4 230.4 
L 453.6 230.4 
L 453.6 168 
L 50.4 168 
z
" style="fill: #ffffff"/>
   </g>
   <g id="matplotlib.axis_5">
    <g id="xtick_7">
     <g id="line2d_9">
      <defs>
       <path id="m1dd35f4eac" d="M 0 0 
L 0 3.5 
" style="stroke: #000000; stroke-width: 0.8"/>
      </defs>
      <g>
       <use xlink:href="#m1dd35f4eac" x="101.64672" y="230.4" style="stroke: #000000; stroke-width: 0.8"/>
      </g>
     </g>
     <g id="text_10">
      <!-- 23:05 -->
      <g transform="translate(74.538158 259.077229) rotate(-30) scale(0.1 -0.1)">
       <use xlink:href="#DejaVuSansMono-32"/>
       <use xlink:href="#DejaVuSansMono-33" x="60.205078"/>
       <use xlink:href="#DejaVuSansMono-3a" x="120.410156"/>
       <use xlink:href="#DejaVuSansMono-30" x="180.615234"/>
       <use xlink:href="#DejaVuSansMono-35" x="240.820312"/>
      </g>
     </g>
    </g>
    <g id="xtick_8">
     <g id="line2d_10">
      <g>
       <use xlink:href="#m1dd35f4eac" x="222.60672" y="230.4" style="stroke: #000000; stroke-width: 0.8"/>
      </g>
     </g>
     <g id="text_11">
      <!-- 23:10 -->
      <g transform="translate(195.498158 259.077229) rotate(-30) scale(0.1 -0.1)">
       <use xlink:href="#DejaVuSansMono-32"/>
       <use xlink:href="#DejaVuSansMono-33" x="60.205078"/>
       <use xlink:href="#DejaVuSansMono-3a" x="120.410156"/>
       <use xlink:href="#DejaVuSansMono-31" x="180.615234"/>
       <use xlink:href="#DejaVuSansMono-30" x="240.820312"/>
      </g>
     </g>
    </g>
    <g id="xtick_9">
     <g id="line2d_11">
      <g>
       <use xlink:href="#m1dd35f4eac" x="343.56672" y="230.4" style="stroke: #000000; stroke-width: 0.8"/>
      </g>
     </g>
     <g id="text_12">
      <!-- 23:15 -->
      <g transform="translate(316.458158 259.077229) rotate(-30) scale(0.1 -0.1)">
       <use xlink:href="#DejaVuSansMono-32"/>
       <use xlink:href="#DejaVuSansMono-33" x="60.205078"/>
       <use xlink:href="#DejaVuSansMono-3a" x="120.410156"/>
       <use xlink:href="#DejaVuSansMono-31" x="180.615234"/>
       <use xlink:href="#DejaVuSansMono-35" x="240.820312"/>
      </g>
     </g>
    </g>
    <g id="text_13">
     <!-- Time -->
     <g transform="translate(239.959375 272.529853) scale(0.1 -0.1)">
      <defs>
       <path id="DejaVuSansMono-54" d="M 147 4666 
L 3706 4666 
L 3706 4134 
L 2247 4134 
L 2247 0 
L 1613 0 
L 1613 4134 
L 147 4134 
L 147 4666 
z
" transform="scale(0.015625)"/>
      </defs>
      <use xlink:href="#DejaVuSansMono-54"/>
      <use xlink:href="#DejaVuSansMono-69" x="60.205078"/>
      <use xlink:href="#DejaVuSansMono-6d" x="120.410156"/>
      <use xlink:href="#DejaVuSansMono-65" x="180.615234"/>
     </g>
    </g>
    <g id="text_14">
     <!-- 2015-Sep-16 -->
     <g transform="translate(387.376563 271.529853) scale(0.1 -0.1)">
      <use xlink:href="#DejaVuSansMono-32"/>
      <use xlink:href="#DejaVuSansMono-30" x="60.205078"/>
      <use xlink:href="#DejaVuSansMono-31" x="120.410156"/>
      <use xlink:href="#DejaVuSansMono-35" x="180.615234"/>
      <use xlink:href="#DejaVuSansMono-2d" x="240.820312"/>
      <use xlink:href="#DejaVuSansMono-53" x="301.025391"/>
      <use xlink:href="#DejaVuSansMono-65" x="361.230469"/>
      <use xlink:href="#DejaVuSansMono-70" x="421.435547"/>
      <use xlink:href="#DejaVuSansMono-2d" x="481.640625"/>
      <use xlink:href="#DejaVuSansMono-31" x="541.845703"/>
      <use xlink:href="#DejaVuSansMono-36" x="602.050781"/>
     </g>
    </g>
   </g>
   <g id="matplotlib.axis_6">
    <g id="ytick_7"/>
    <g id="ytick_8"/>
    <g id="ytick_9"/>
   </g>
   <g id="line2d_12">
    <path d="M 49.9968 196.754565 
L 66.1248 196.907896 
L 79.4304 196.808405 
L 94.752 196.422011 
L 114.912 195.921523 
L 123.3792 195.995115 
L 132.2496 196.301456 
L 142.3296 196.896497 
L 161.6832 198.068499 
L 169.344 198.208289 
L 175.392 198.138561 
L 179.424 197.863684 
L 191.1168 196.676415 
L 192.7296 196.229062 
L 193.9392 195.702022 
L 195.1488 194.970311 
L 196.3584 194.013709 
L 197.9712 192.398396 
L 199.9872 189.983026 
L 202.4064 187.088879 
L 203.616 185.96312 
L 204.4224 185.435002 
L 205.2288 185.132631 
L 206.0352 185.096151 
L 206.8416 185.338158 
L 207.648 185.878468 
L 208.4544 186.713051 
L 209.2608 187.82533 
L 210.4704 189.945292 
L 212.0832 193.370242 
L 215.3088 200.500468 
L 216.5184 202.660294 
L 217.728 204.29901 
L 218.5344 205.060777 
L 219.3408 205.547684 
L 220.1472 205.766877 
L 220.9536 205.726049 
L 221.76 205.461061 
L 222.5664 205.001286 
L 223.776 204.031066 
L 225.792 202.011264 
L 228.2112 199.657197 
L 229.4208 198.735713 
L 230.6304 198.055831 
L 231.84 197.629774 
L 233.0496 197.44016 
L 234.6624 197.483352 
L 236.6784 197.811967 
L 239.5008 198.280825 
L 241.1136 198.36091 
L 242.7264 198.251216 
L 244.7424 197.86585 
L 247.968 196.933665 
L 250.7904 196.18258 
L 252.8064 195.860727 
L 254.8224 195.758082 
L 258.4512 195.880874 
L 260.8704 195.862652 
L 263.2896 195.600213 
L 268.5312 194.837228 
L 270.5472 194.848299 
L 272.5632 195.121973 
L 274.9824 195.736528 
L 283.0464 198.141019 
L 285.0624 198.388607 
L 287.0784 198.376612 
L 289.4976 198.076288 
L 292.32 197.696726 
L 293.9328 197.7045 
L 295.1424 197.894551 
L 296.7552 198.417959 
L 298.7712 199.409872 
L 300.7872 200.432307 
L 301.9968 200.818695 
L 302.8032 200.884903 
L 303.6096 200.755082 
L 304.416 200.380326 
L 305.2224 199.728829 
L 306.0288 198.776101 
L 306.8352 197.509773 
L 308.0448 195.03166 
L 309.2544 191.936344 
L 311.2704 185.917653 
L 313.2864 180.028066 
L 314.496 177.253439 
L 315.3024 175.934969 
L 316.1088 175.136336 
L 316.512 174.946952 
L 316.9152 174.928623 
L 317.3184 175.038109 
L 317.7216 175.308674 
L 318.528 176.306288 
L 319.3344 177.888195 
L 320.1408 180.002383 
L 321.3504 184.002158 
L 322.9632 190.349376 
L 325.7856 201.61842 
L 326.9952 205.558801 
L 328.2048 208.591942 
L 329.0112 210.050292 
L 329.8176 211.049642 
L 330.624 211.608147 
L 331.4304 211.756168 
L 332.2368 211.56468 
L 333.0432 211.088594 
L 334.2528 210.016653 
L 337.4784 206.86907 
L 338.688 206.129649 
L 339.4944 205.842927 
L 340.704 205.706791 
L 341.9136 205.837104 
L 345.1392 206.406985 
L 346.3488 206.280859 
L 347.1552 206.011154 
L 348.3648 205.3065 
L 349.5744 204.267125 
L 351.1872 202.502943 
L 354.0096 199.244144 
L 355.2192 198.145245 
L 356.4288 197.379751 
L 357.2352 197.076292 
L 358.0416 196.933902 
L 359.2512 196.981932 
L 361.2672 197.429443 
L 362.4768 197.626612 
L 363.2832 197.595128 
L 364.0896 197.368368 
L 364.896 196.890711 
L 365.7024 196.120665 
L 366.5088 195.032129 
L 367.3152 193.617268 
L 368.5248 190.915523 
L 369.7344 187.638539 
L 374.1696 174.800028 
L 374.976 173.101171 
L 375.7824 171.800732 
L 376.5888 170.954363 
L 377.3952 170.6 
L 377.7984 170.622613 
L 378.2016 170.761016 
L 379.008 171.425372 
L 379.8144 172.574155 
L 380.6208 174.165396 
L 381.8304 177.25212 
L 383.4432 182.286268 
L 387.4752 195.511681 
L 388.6848 198.741894 
L 389.8944 201.407909 
L 391.104 203.498176 
L 392.3136 205.065597 
L 393.5232 206.210297 
L 394.7328 207.057204 
L 396.7488 208.143047 
L 399.9744 209.879808 
L 403.2 211.694987 
L 404.4096 212.176878 
L 405.6192 212.436647 
L 406.8288 212.410863 
L 407.6352 212.214351 
L 408.8448 211.63088 
L 410.0544 210.70133 
L 411.264 209.452949 
L 412.8768 207.389862 
L 415.6992 203.225641 
L 418.1184 199.820879 
L 419.7312 197.940888 
L 420.9408 196.802299 
L 422.1504 195.901571 
L 423.7632 195.02404 
L 425.7792 194.264552 
L 428.6016 193.262514 
L 430.2144 192.475643 
L 431.8272 191.462423 
L 434.6496 189.343448 
L 436.6656 187.974863 
L 437.8752 187.399161 
L 439.0848 187.088088 
L 440.2944 187.076414 
L 441.504 187.362345 
L 442.7136 187.916848 
L 444.3264 188.975625 
L 449.568 192.842852 
L 451.1808 193.605016 
L 452.7936 194.065924 
L 454.0032 194.242798 
L 454.0032 194.242798 
" clip-path="url(#pce96d5efe0)" style="fill: none; stroke: #000000; stroke-linecap: square"/>
   </g>
   <g id="line2d_13">
    <path d="M -1 199.2 
L 505 199.2 
" clip-path="url(#pce96d5efe0)" style="fill: none; stroke-dasharray: 3.7,1.6; stroke-dashoffset: 0; stroke: #000000"/>
   </g>
   <g id="line2d_14">
    <path d="M 49.9968 201.903243 
L 73.3824 201.638849 
L 97.5744 201.404173 
L 110.88 201.504588 
L 123.7824 201.82869 
L 143.9424 202.611785 
L 156.0384 202.965447 
L 164.5056 203.053451 
L 179.424 202.741719 
L 182.2464 202.470713 
L 186.2784 201.794477 
L 188.6976 201.513803 
L 191.1168 201.512163 
L 194.3424 201.594421 
L 195.552 201.417284 
L 196.7616 200.917242 
L 197.568 200.343653 
L 198.3744 199.595211 
L 199.584 198.01831 
L 200.7936 195.955144 
L 202.0032 193.493123 
L 205.632 185.624907 
L 206.8416 183.761791 
L 207.2448 183.339059 
L 208.0512 183.160741 
L 209.2608 183.141255 
L 209.664 183.44902 
L 210.4704 184.713164 
L 211.2768 186.32938 
L 212.4864 189.788638 
L 213.696 194.14188 
L 215.712 202.265086 
L 217.3248 208.513952 
L 218.5344 212.459492 
L 219.744 215.431484 
L 220.5504 216.696458 
L 221.3568 217.610315 
L 221.76 217.770515 
L 222.9696 217.606212 
L 223.3728 217.495513 
L 223.776 217.245304 
L 224.5824 216.287652 
L 225.792 214.537765 
L 229.4208 208.586426 
L 230.6304 207.066805 
L 231.84 205.949215 
L 232.6464 205.409199 
L 233.856 204.913582 
L 234.6624 204.779767 
L 236.2752 204.725884 
L 238.6944 205.020163 
L 241.1136 205.247031 
L 243.1296 205.231766 
L 245.1456 204.972001 
L 247.1616 204.498613 
L 249.5808 203.697902 
L 256.4352 201.244174 
L 258.8544 200.755691 
L 266.112 199.586148 
L 272.5632 197.969459 
L 274.176 197.898893 
L 275.7888 198.050187 
L 277.8048 198.512389 
L 281.0304 199.583277 
L 286.6752 201.493127 
L 289.4976 202.226671 
L 291.9168 202.59997 
L 297.1584 203.190687 
L 298.368 203.61381 
L 299.5776 204.257284 
L 301.1904 205.44387 
L 303.6096 207.442979 
L 304.8192 208.012331 
L 305.6256 208.152315 
L 306.432 207.852961 
L 307.2384 207.259772 
L 307.6416 206.758377 
L 308.448 205.263841 
L 309.2544 203.335518 
L 310.464 199.357433 
L 311.6736 194.29107 
L 313.2864 186.553481 
L 315.3024 177.079684 
L 316.1088 173.833207 
L 316.9152 171.446481 
L 317.7216 169.55883 
L 318.1248 169.163323 
L 318.9312 169.306657 
L 319.7376 169.744771 
L 320.1408 170.301811 
L 320.9472 172.784558 
L 321.7536 175.919221 
L 322.9632 182.24284 
L 324.576 192.323954 
L 326.9952 207.740095 
L 328.2048 214.096444 
L 329.0112 217.598876 
L 330.2208 221.40135 
L 330.624 222.29084 
L 331.4304 223.391891 
L 331.8336 223.796706 
L 332.2368 224.025394 
L 332.64 224.030543 
L 333.4464 223.694937 
L 334.2528 223.13621 
L 335.0592 222.127458 
L 338.2848 217.764852 
L 339.4944 216.698888 
L 340.3008 216.260153 
L 341.5104 215.995869 
L 342.3168 215.999231 
L 344.3328 216.404075 
L 345.1392 216.51138 
L 347.1552 216.411294 
L 348.3648 215.833711 
L 349.1712 215.243495 
L 350.3808 214.11298 
L 354.4128 209.793956 
L 355.6224 208.978064 
L 356.4288 208.832948 
L 358.0416 208.870453 
L 358.848 209.288637 
L 360.0576 210.110205 
L 362.0736 211.639715 
L 362.88 211.908937 
L 364.0896 212.060045 
L 364.4928 211.920345 
L 365.2992 211.219664 
L 366.1056 210.178049 
L 366.912 208.491236 
L 367.7184 206.37841 
L 368.928 202.186754 
L 370.1376 196.991491 
L 371.7504 189.103151 
L 374.5728 175.302414 
L 375.7824 170.55509 
L 376.5888 168.031479 
L 377.7984 165.327297 
L 378.2016 164.89649 
L 379.4112 164.56323 
L 379.8144 164.535848 
L 380.2176 164.72972 
L 380.6208 165.251503 
L 381.8304 167.553006 
L 383.04 170.968155 
L 384.2496 175.137165 
L 386.6688 184.464334 
L 388.6848 191.958437 
L 390.2976 197.051603 
L 391.5072 200.174024 
L 392.7168 202.688528 
L 393.9264 204.636348 
L 395.136 206.085541 
L 396.3456 207.178636 
L 398.3616 208.583461 
L 400.3776 209.998023 
L 401.9904 211.411462 
L 403.6032 213.129137 
L 407.6352 217.632271 
L 408.8448 218.501656 
L 409.6512 218.869553 
L 410.8608 218.829786 
L 411.6672 218.686503 
L 412.4736 218.130458 
L 413.6832 216.878387 
L 414.8928 215.115731 
L 416.5056 212.174705 
L 421.7472 201.817875 
L 422.9568 199.975525 
L 424.1664 198.466645 
L 425.376 197.296422 
L 426.5856 196.453175 
L 427.7952 195.890103 
L 429.0048 195.554162 
L 430.2144 195.387547 
L 432.6336 195.451694 
L 435.456 195.914669 
L 439.0848 196.800445 
L 443.1168 198.025312 
L 445.9392 199.086765 
L 448.3584 200.225407 
L 450.3744 201.416876 
L 451.9872 202.59739 
L 453.6 204.05132 
L 454.0032 204.464835 
L 454.0032 204.464835 
" clip-path="url(#pce96d5efe0)" style="fill: none; stroke: #ff0000; stroke-linecap: square"/>
   </g>
   <g id="patch_10">
    <path d="M 50.4 230.4 
L 453.6 230.4 
" style="fill: none; stroke: #000000; stroke-width: 0.8; stroke-linejoin: miter; stroke-linecap: square"/>
   </g>
   <g id="text_15">
    <g id="patch_11">
     <path d="M 30.299688 209.105469 
L 44.32 209.105469 
L 44.32 191.374219 
L 30.299688 191.374219 
L 30.299688 209.105469 
z
" style="fill: none"/>
    </g>
    <!-- Z -->
    <g transform="translate(34.299688 203.025781) scale(0.1 -0.1)">
     <defs>
      <path id="DejaVuSansMono-5a" d="M 556 4666 
L 3584 4666 
L 3584 4184 
L 1147 531 
L 3653 531 
L 3653 0 
L 488 0 
L 488 481 
L 2859 4134 
L 556 4134 
L 556 4666 
z
" transform="scale(0.015625)"/>
     </defs>
     <use xlink:href="#DejaVuSansMono-5a"/>
    </g>
   </g>
   <g id="text_16">
    <g id="patch_12">
     <path d="M 46.4049 177.629494 
L 106.681514 177.629494 
L 106.681514 164.0049 
L 46.4049 164.0049 
L 46.4049 177.629494 
z
" style="fill: none"/>
    </g>
    <!-- A: 7.6918e-05 m -->
    <g transform="translate(50.4 172.430255) scale(0.0579 -0.0579)">
     <defs>
      <path id="DejaVuSansMono-38" d="M 1925 2216 
Q 1503 2216 1273 1980 
Q 1044 1744 1044 1313 
Q 1044 881 1276 642 
Q 1509 403 1925 403 
Q 2350 403 2579 639 
Q 2809 875 2809 1313 
Q 2809 1741 2576 1978 
Q 2344 2216 1925 2216 
z
M 1375 2478 
Q 972 2581 745 2862 
Q 519 3144 519 3541 
Q 519 4097 897 4423 
Q 1275 4750 1925 4750 
Q 2578 4750 2956 4423 
Q 3334 4097 3334 3541 
Q 3334 3144 3107 2862 
Q 2881 2581 2478 2478 
Q 2947 2375 3195 2062 
Q 3444 1750 3444 1253 
Q 3444 622 3041 265 
Q 2638 -91 1925 -91 
Q 1213 -91 811 264 
Q 409 619 409 1247 
Q 409 1747 657 2061 
Q 906 2375 1375 2478 
z
M 1147 3481 
Q 1147 3106 1347 2909 
Q 1547 2713 1925 2713 
Q 2306 2713 2506 2909 
Q 2706 3106 2706 3481 
Q 2706 3863 2507 4063 
Q 2309 4263 1925 4263 
Q 1547 4263 1347 4061 
Q 1147 3859 1147 3481 
z
" transform="scale(0.015625)"/>
     </defs>
     <use xlink:href="#DejaVuSansMono-41"/>
     <use xlink:href="#DejaVuSansMono-3a" x="60.205078"/>
     <use xlink:href="#DejaVuSansMono-20" x="120.410156"/>
     <use xlink:href="#DejaVuSansMono-37" x="180.615234"/>
     <use xlink:href="#DejaVuSansMono-2e" x="240.820312"/>
     <use xlink:href="#DejaVuSansMono-36" x="301.025391"/>
     <use xlink:href="#DejaVuSansMono-39" x="361.230469"/>
     <use xlink:href="#DejaVuSansMono-31" x="421.435547"/>
     <use xlink:href="#DejaVuSansMono-38" x="481.640625"/>
     <use xlink:href="#DejaVuSansMono-65" x="541.845703"/>
     <use xlink:href="#DejaVuSansMono-2d" x="602.050781"/>
     <use xlink:href="#DejaVuSansMono-30" x="662.255859"/>
     <use xlink:href="#DejaVuSansMono-35" x="722.460938"/>
     <use xlink:href="#DejaVuSansMono-20" x="782.666016"/>
     <use xlink:href="#DejaVuSansMono-6d" x="842.871094"/>
    </g>
   </g>
  </g>
 </g>
 <defs>
  <clipPath id="p2614755f28">
   <rect x="50.4" y="43.2" width="403.2" height="62.4"/>
  </clipPath>
  <clipPath id="pe6170d2a2a">
   <rect x="50.4" y="105.6" width="403.2" height="62.4"/>
  </clipPath>
  <clipPath id="pce96d5efe0">
   <rect x="50.4" y="168" width="403.2" height="62.4"/>
  </clipPath>
 </defs>
</svg>
