<?xml version="1.0" encoding="utf-8" standalone="no"?>
<!DOCTYPE svg PUBLIC "-//W3C//DTD SVG 1.1//EN"
  "http://www.w3.org/Graphics/SVG/1.1/DTD/svg11.dtd">
<svg xmlns:xlink="http://www.w3.org/1999/xlink" width="432pt" height="288pt" viewBox="0 0 432 288" xmlns="http://www.w3.org/2000/svg" version="1.1">
 <metadata>
  <rdf:RDF xmlns:dc="http://purl.org/dc/elements/1.1/" xmlns:cc="http://creativecommons.org/ns#" xmlns:rdf="http://www.w3.org/1999/02/22-rdf-syntax-ns#">
   <cc:Work>
    <dc:type rdf:resource="http://purl.org/dc/dcmitype/StillImage"/>
    <dc:date>2023-03-16T19:50:54.238961</dc:date>
    <dc:format>image/svg+xml</dc:format>
    <dc:creator>
     <cc:Agent>
      <dc:title>Matplotlib v3.6.2, https://matplotlib.org/</dc:title>
     </cc:Agent>
    </dc:creator>
   </cc:Work>
  </rdf:RDF>
 </metadata>
 <defs>
  <style type="text/css">*{stroke-linejoin: round; stroke-linecap: butt}</style>
 </defs>
 <g id="figure_1">
  <g id="patch_1">
   <path d="M 0 288 
L 432 288 
L 432 0 
L 0 0 
z
" style="fill: #ffffff"/>
  </g>
  <g id="axes_1">
   <g id="patch_2">
    <path d="M 54 256.32 
L 345.6 256.32 
L 345.6 21.6 
L 54 21.6 
z
" style="fill: #ffffff"/>
   </g>
   <g id="axes_2">
    <g id="patch_3">
     <path d="M 345.6 256.32 
L 345.6 256.32 
L 345.6 21.6 
L 345.6 21.6 
z
" style="fill: #ffffff"/>
    </g>
    <g id="matplotlib.axis_1"/>
    <g id="matplotlib.axis_2">
     <g id="ytick_1">
      <g id="text_1">
       <!-- D: 73.56 A:331.02 -->
       <g transform="translate(352.6 137.391915) scale(0.0694 -0.0694)">
        <defs>
         <path id="DejaVuSansMono-44" d="M 1363 519 
Q 2159 519 2475 911 
Q 2791 1303 2791 2328 
Q 2791 3363 2477 3755 
Q 2163 4147 1363 4147 
L 1063 4147 
L 1063 519 
L 1363 519 
z
M 1375 4666 
Q 2444 4666 2950 4097 
Q 3456 3528 3456 2328 
Q 3456 1134 2950 567 
Q 2444 0 1375 0 
L 428 0 
L 428 4666 
L 1375 4666 
z
" transform="scale(0.015625)"/>
         <path id="DejaVuSansMono-3a" d="M 1528 3322 
L 2316 3322 
L 2316 2375 
L 1528 2375 
L 1528 3322 
z
M 1528 953 
L 2316 953 
L 2316 0 
L 1528 0 
L 1528 953 
z
" transform="scale(0.015625)"/>
         <path id="DejaVuSansMono-20" transform="scale(0.015625)"/>
         <path id="DejaVuSansMono-37" d="M 434 4666 
L 3372 4666 
L 3372 4397 
L 1703 0 
L 1044 0 
L 2669 4134 
L 434 4134 
L 434 4666 
z
" transform="scale(0.015625)"/>
         <path id="DejaVuSansMono-33" d="M 2425 2497 
Q 2884 2375 3128 2064 
Q 3372 1753 3372 1288 
Q 3372 644 2939 276 
Q 2506 -91 1741 -91 
Q 1419 -91 1084 -31 
Q 750 28 428 141 
L 428 769 
Q 747 603 1056 522 
Q 1366 441 1672 441 
Q 2191 441 2469 675 
Q 2747 909 2747 1350 
Q 2747 1756 2469 1995 
Q 2191 2234 1716 2234 
L 1234 2234 
L 1234 2753 
L 1716 2753 
Q 2150 2753 2394 2943 
Q 2638 3134 2638 3475 
Q 2638 3834 2411 4026 
Q 2184 4219 1766 4219 
Q 1488 4219 1191 4156 
Q 894 4094 569 3969 
L 569 4550 
Q 947 4650 1242 4700 
Q 1538 4750 1766 4750 
Q 2447 4750 2855 4408 
Q 3263 4066 3263 3500 
Q 3263 3116 3048 2859 
Q 2834 2603 2425 2497 
z
" transform="scale(0.015625)"/>
         <path id="DejaVuSansMono-2e" d="M 1528 953 
L 2316 953 
L 2316 0 
L 1528 0 
L 1528 953 
z
" transform="scale(0.015625)"/>
         <path id="DejaVuSansMono-35" d="M 647 4666 
L 3009 4666 
L 3009 4134 
L 1222 4134 
L 1222 2988 
Q 1356 3038 1492 3061 
Q 1628 3084 1766 3084 
Q 2491 3084 2916 2656 
Q 3341 2228 3341 1497 
Q 3341 759 2895 334 
Q 2450 -91 1678 -91 
Q 1306 -91 998 -41 
Q 691 9 447 109 
L 447 750 
Q 734 594 1025 517 
Q 1316 441 1619 441 
Q 2141 441 2423 716 
Q 2706 991 2706 1497 
Q 2706 1997 2414 2275 
Q 2122 2553 1600 2553 
Q 1347 2553 1106 2495 
Q 866 2438 647 2322 
L 647 4666 
z
" transform="scale(0.015625)"/>
         <path id="DejaVuSansMono-36" d="M 3097 4563 
L 3097 3981 
Q 2900 4097 2678 4158 
Q 2456 4219 2216 4219 
Q 1616 4219 1306 3767 
Q 997 3316 997 2438 
Q 1147 2750 1412 2917 
Q 1678 3084 2022 3084 
Q 2697 3084 3067 2670 
Q 3438 2256 3438 1497 
Q 3438 741 3056 325 
Q 2675 -91 1984 -91 
Q 1172 -91 794 492 
Q 416 1075 416 2328 
Q 416 3509 870 4129 
Q 1325 4750 2188 4750 
Q 2419 4750 2650 4701 
Q 2881 4653 3097 4563 
z
M 1972 2591 
Q 1569 2591 1337 2300 
Q 1106 2009 1106 1497 
Q 1106 984 1337 693 
Q 1569 403 1972 403 
Q 2391 403 2603 679 
Q 2816 956 2816 1497 
Q 2816 2041 2603 2316 
Q 2391 2591 1972 2591 
z
" transform="scale(0.015625)"/>
         <path id="DejaVuSansMono-41" d="M 1925 4109 
L 1259 1722 
L 2591 1722 
L 1925 4109 
z
M 1544 4666 
L 2309 4666 
L 3738 0 
L 3084 0 
L 2741 1216 
L 1106 1216 
L 769 0 
L 116 0 
L 1544 4666 
z
" transform="scale(0.015625)"/>
         <path id="DejaVuSansMono-31" d="M 844 531 
L 1825 531 
L 1825 4097 
L 769 3859 
L 769 4434 
L 1819 4666 
L 2450 4666 
L 2450 531 
L 3419 531 
L 3419 0 
L 844 0 
L 844 531 
z
" transform="scale(0.015625)"/>
         <path id="DejaVuSansMono-30" d="M 1509 2344 
Q 1509 2516 1629 2641 
Q 1750 2766 1919 2766 
Q 2094 2766 2219 2641 
Q 2344 2516 2344 2344 
Q 2344 2169 2220 2047 
Q 2097 1925 1919 1925 
Q 1744 1925 1626 2044 
Q 1509 2163 1509 2344 
z
M 1925 4250 
Q 1484 4250 1267 3775 
Q 1050 3300 1050 2328 
Q 1050 1359 1267 884 
Q 1484 409 1925 409 
Q 2369 409 2586 884 
Q 2803 1359 2803 2328 
Q 2803 3300 2586 3775 
Q 2369 4250 1925 4250 
z
M 1925 4750 
Q 2672 4750 3055 4137 
Q 3438 3525 3438 2328 
Q 3438 1134 3055 521 
Q 2672 -91 1925 -91 
Q 1178 -91 797 521 
Q 416 1134 416 2328 
Q 416 3525 797 4137 
Q 1178 4750 1925 4750 
z
" transform="scale(0.015625)"/>
         <path id="DejaVuSansMono-32" d="M 1166 531 
L 3309 531 
L 3309 0 
L 475 0 
L 475 531 
Q 1059 1147 1496 1619 
Q 1934 2091 2100 2284 
Q 2413 2666 2522 2902 
Q 2631 3138 2631 3384 
Q 2631 3775 2401 3997 
Q 2172 4219 1772 4219 
Q 1488 4219 1175 4116 
Q 863 4013 513 3803 
L 513 4441 
Q 834 4594 1145 4672 
Q 1456 4750 1759 4750 
Q 2444 4750 2861 4386 
Q 3278 4022 3278 3431 
Q 3278 3131 3139 2831 
Q 3000 2531 2688 2169 
Q 2513 1966 2180 1606 
Q 1847 1247 1166 531 
z
" transform="scale(0.015625)"/>
        </defs>
        <use xlink:href="#DejaVuSansMono-44"/>
        <use xlink:href="#DejaVuSansMono-3a" x="60.205078"/>
        <use xlink:href="#DejaVuSansMono-20" x="120.410156"/>
        <use xlink:href="#DejaVuSansMono-37" x="180.615234"/>
        <use xlink:href="#DejaVuSansMono-33" x="240.820312"/>
        <use xlink:href="#DejaVuSansMono-2e" x="301.025391"/>
        <use xlink:href="#DejaVuSansMono-35" x="361.230469"/>
        <use xlink:href="#DejaVuSansMono-36" x="421.435547"/>
        <use xlink:href="#DejaVuSansMono-20" x="481.640625"/>
        <use xlink:href="#DejaVuSansMono-41" x="541.845703"/>
        <use xlink:href="#DejaVuSansMono-3a" x="602.050781"/>
        <use xlink:href="#DejaVuSansMono-33" x="662.255859"/>
        <use xlink:href="#DejaVuSansMono-33" x="722.460938"/>
        <use xlink:href="#DejaVuSansMono-31" x="782.666016"/>
        <use xlink:href="#DejaVuSansMono-2e" x="842.871094"/>
        <use xlink:href="#DejaVuSansMono-30" x="903.076172"/>
        <use xlink:href="#DejaVuSansMono-32" x="963.28125"/>
       </g>
      </g>
     </g>
     <g id="ytick_2">
      <g id="text_2">
       <!-- D: 73.64 A:  0.41 -->
       <g transform="translate(352.6 129.733424) scale(0.0694 -0.0694)">
        <defs>
         <path id="DejaVuSansMono-34" d="M 2297 4091 
L 825 1625 
L 2297 1625 
L 2297 4091 
z
M 2194 4666 
L 2925 4666 
L 2925 1625 
L 3547 1625 
L 3547 1113 
L 2925 1113 
L 2925 0 
L 2297 0 
L 2297 1113 
L 319 1113 
L 319 1709 
L 2194 4666 
z
" transform="scale(0.015625)"/>
        </defs>
        <use xlink:href="#DejaVuSansMono-44"/>
        <use xlink:href="#DejaVuSansMono-3a" x="60.205078"/>
        <use xlink:href="#DejaVuSansMono-20" x="120.410156"/>
        <use xlink:href="#DejaVuSansMono-37" x="180.615234"/>
        <use xlink:href="#DejaVuSansMono-33" x="240.820312"/>
        <use xlink:href="#DejaVuSansMono-2e" x="301.025391"/>
        <use xlink:href="#DejaVuSansMono-36" x="361.230469"/>
        <use xlink:href="#DejaVuSansMono-34" x="421.435547"/>
        <use xlink:href="#DejaVuSansMono-20" x="481.640625"/>
        <use xlink:href="#DejaVuSansMono-41" x="541.845703"/>
        <use xlink:href="#DejaVuSansMono-3a" x="602.050781"/>
        <use xlink:href="#DejaVuSansMono-20" x="662.255859"/>
        <use xlink:href="#DejaVuSansMono-20" x="722.460938"/>
        <use xlink:href="#DejaVuSansMono-30" x="782.666016"/>
        <use xlink:href="#DejaVuSansMono-2e" x="842.871094"/>
        <use xlink:href="#DejaVuSansMono-34" x="903.076172"/>
        <use xlink:href="#DejaVuSansMono-31" x="963.28125"/>
       </g>
      </g>
     </g>
     <g id="ytick_3">
      <g id="text_3">
       <!-- D:106.95 A: 43.40 -->
       <g transform="translate(352.6 122.074932) scale(0.0694 -0.0694)">
        <defs>
         <path id="DejaVuSansMono-39" d="M 1863 2069 
Q 2266 2069 2495 2359 
Q 2725 2650 2725 3163 
Q 2725 3675 2495 3965 
Q 2266 4256 1863 4256 
Q 1444 4256 1231 3979 
Q 1019 3703 1019 3163 
Q 1019 2619 1230 2344 
Q 1441 2069 1863 2069 
z
M 738 97 
L 738 678 
Q 934 563 1156 502 
Q 1378 441 1619 441 
Q 2219 441 2526 892 
Q 2834 1344 2834 2222 
Q 2688 1909 2422 1742 
Q 2156 1575 1813 1575 
Q 1138 1575 767 1990 
Q 397 2406 397 3169 
Q 397 3922 776 4336 
Q 1156 4750 1850 4750 
Q 2663 4750 3041 4165 
Q 3419 3581 3419 2328 
Q 3419 1150 2964 529 
Q 2509 -91 1644 -91 
Q 1416 -91 1184 -42 
Q 953 6 738 97 
z
" transform="scale(0.015625)"/>
        </defs>
        <use xlink:href="#DejaVuSansMono-44"/>
        <use xlink:href="#DejaVuSansMono-3a" x="60.205078"/>
        <use xlink:href="#DejaVuSansMono-31" x="120.410156"/>
        <use xlink:href="#DejaVuSansMono-30" x="180.615234"/>
        <use xlink:href="#DejaVuSansMono-36" x="240.820312"/>
        <use xlink:href="#DejaVuSansMono-2e" x="301.025391"/>
        <use xlink:href="#DejaVuSansMono-39" x="361.230469"/>
        <use xlink:href="#DejaVuSansMono-35" x="421.435547"/>
        <use xlink:href="#DejaVuSansMono-20" x="481.640625"/>
        <use xlink:href="#DejaVuSansMono-41" x="541.845703"/>
        <use xlink:href="#DejaVuSansMono-3a" x="602.050781"/>
        <use xlink:href="#DejaVuSansMono-20" x="662.255859"/>
        <use xlink:href="#DejaVuSansMono-34" x="722.460938"/>
        <use xlink:href="#DejaVuSansMono-33" x="782.666016"/>
        <use xlink:href="#DejaVuSansMono-2e" x="842.871094"/>
        <use xlink:href="#DejaVuSansMono-34" x="903.076172"/>
        <use xlink:href="#DejaVuSansMono-30" x="963.28125"/>
       </g>
      </g>
     </g>
    </g>
   </g>
   <g id="matplotlib.axis_3">
    <g id="xtick_1">
     <g id="line2d_1">
      <defs>
       <path id="m003695728e" d="M 0 0 
L 0 3.5 
" style="stroke: #000000; stroke-width: 0.8"/>
      </defs>
      <g>
       <use xlink:href="#m003695728e" x="80.4951" y="256.32" style="stroke: #000000; stroke-width: 0.8"/>
      </g>
     </g>
     <g id="text_4">
      <!-- 23:00 -->
      <g transform="translate(65.444319 270.971563) scale(0.1 -0.1)">
       <use xlink:href="#DejaVuSansMono-32"/>
       <use xlink:href="#DejaVuSansMono-33" x="60.205078"/>
       <use xlink:href="#DejaVuSansMono-3a" x="120.410156"/>
       <use xlink:href="#DejaVuSansMono-30" x="180.615234"/>
       <use xlink:href="#DejaVuSansMono-30" x="240.820312"/>
      </g>
     </g>
    </g>
    <g id="xtick_2">
     <g id="line2d_2">
      <g>
       <use xlink:href="#m003695728e" x="129.0951" y="256.32" style="stroke: #000000; stroke-width: 0.8"/>
      </g>
     </g>
     <g id="text_5">
      <!-- 23:10 -->
      <g transform="translate(114.044319 270.971563) scale(0.1 -0.1)">
       <use xlink:href="#DejaVuSansMono-32"/>
       <use xlink:href="#DejaVuSansMono-33" x="60.205078"/>
       <use xlink:href="#DejaVuSansMono-3a" x="120.410156"/>
       <use xlink:href="#DejaVuSansMono-31" x="180.615234"/>
       <use xlink:href="#DejaVuSansMono-30" x="240.820312"/>
      </g>
     </g>
    </g>
    <g id="xtick_3">
     <g id="line2d_3">
      <g>
       <use xlink:href="#m003695728e" x="177.6951" y="256.32" style="stroke: #000000; stroke-width: 0.8"/>
      </g>
     </g>
     <g id="text_6">
      <!-- 23:20 -->
      <g transform="translate(162.644319 270.971563) scale(0.1 -0.1)">
       <use xlink:href="#DejaVuSansMono-32"/>
       <use xlink:href="#DejaVuSansMono-33" x="60.205078"/>
       <use xlink:href="#DejaVuSansMono-3a" x="120.410156"/>
       <use xlink:href="#DejaVuSansMono-32" x="180.615234"/>
       <use xlink:href="#DejaVuSansMono-30" x="240.820312"/>
      </g>
     </g>
    </g>
    <g id="xtick_4">
     <g id="line2d_4">
      <g>
       <use xlink:href="#m003695728e" x="226.2951" y="256.32" style="stroke: #000000; stroke-width: 0.8"/>
      </g>
     </g>
     <g id="text_7">
      <!-- 23:30 -->
      <g transform="translate(211.244319 270.971563) scale(0.1 -0.1)">
       <use xlink:href="#DejaVuSansMono-32"/>
       <use xlink:href="#DejaVuSansMono-33" x="60.205078"/>
       <use xlink:href="#DejaVuSansMono-3a" x="120.410156"/>
       <use xlink:href="#DejaVuSansMono-33" x="180.615234"/>
       <use xlink:href="#DejaVuSansMono-30" x="240.820312"/>
      </g>
     </g>
    </g>
    <g id="xtick_5">
     <g id="line2d_5">
      <g>
       <use xlink:href="#m003695728e" x="274.8951" y="256.32" style="stroke: #000000; stroke-width: 0.8"/>
      </g>
     </g>
     <g id="text_8">
      <!-- 23:40 -->
      <g transform="translate(259.844319 270.971563) scale(0.1 -0.1)">
       <use xlink:href="#DejaVuSansMono-32"/>
       <use xlink:href="#DejaVuSansMono-33" x="60.205078"/>
       <use xlink:href="#DejaVuSansMono-3a" x="120.410156"/>
       <use xlink:href="#DejaVuSansMono-34" x="180.615234"/>
       <use xlink:href="#DejaVuSansMono-30" x="240.820312"/>
      </g>
     </g>
    </g>
    <g id="xtick_6">
     <g id="line2d_6">
      <g>
       <use xlink:href="#m003695728e" x="323.4951" y="256.32" style="stroke: #000000; stroke-width: 0.8"/>
      </g>
     </g>
     <g id="text_9">
      <!-- 23:50 -->
      <g transform="translate(308.444319 270.971563) scale(0.1 -0.1)">
       <use xlink:href="#DejaVuSansMono-32"/>
       <use xlink:href="#DejaVuSansMono-33" x="60.205078"/>
       <use xlink:href="#DejaVuSansMono-3a" x="120.410156"/>
       <use xlink:href="#DejaVuSansMono-35" x="180.615234"/>
       <use xlink:href="#DejaVuSansMono-30" x="240.820312"/>
      </g>
     </g>
    </g>
    <g id="text_10">
     <!-- Time -->
     <g transform="translate(187.759375 284.702812) scale(0.1 -0.1)">
      <defs>
       <path id="DejaVuSansMono-54" d="M 147 4666 
L 3706 4666 
L 3706 4134 
L 2247 4134 
L 2247 0 
L 1613 0 
L 1613 4134 
L 147 4134 
L 147 4666 
z
" transform="scale(0.015625)"/>
       <path id="DejaVuSansMono-69" d="M 800 3500 
L 2272 3500 
L 2272 447 
L 3413 447 
L 3413 0 
L 556 0 
L 556 447 
L 1697 447 
L 1697 3053 
L 800 3053 
L 800 3500 
z
M 1697 4863 
L 2272 4863 
L 2272 4134 
L 1697 4134 
L 1697 4863 
z
" transform="scale(0.015625)"/>
       <path id="DejaVuSansMono-6d" d="M 2113 3144 
Q 2219 3369 2383 3476 
Q 2547 3584 2778 3584 
Q 3200 3584 3373 3257 
Q 3547 2931 3547 2028 
L 3547 0 
L 3022 0 
L 3022 2003 
Q 3022 2744 2939 2923 
Q 2856 3103 2638 3103 
Q 2388 3103 2295 2911 
Q 2203 2719 2203 2003 
L 2203 0 
L 1678 0 
L 1678 2003 
Q 1678 2753 1589 2928 
Q 1500 3103 1269 3103 
Q 1041 3103 952 2911 
Q 863 2719 863 2003 
L 863 0 
L 341 0 
L 341 3500 
L 863 3500 
L 863 3200 
Q 966 3388 1120 3486 
Q 1275 3584 1472 3584 
Q 1709 3584 1867 3475 
Q 2025 3366 2113 3144 
z
" transform="scale(0.015625)"/>
       <path id="DejaVuSansMono-65" d="M 3475 1894 
L 3475 1613 
L 984 1613 
L 984 1594 
Q 984 1022 1282 709 
Q 1581 397 2125 397 
Q 2400 397 2700 484 
Q 3000 572 3341 750 
L 3341 178 
Q 3013 44 2708 -23 
Q 2403 -91 2119 -91 
Q 1303 -91 843 398 
Q 384 888 384 1747 
Q 384 2584 834 3084 
Q 1284 3584 2034 3584 
Q 2703 3584 3089 3131 
Q 3475 2678 3475 1894 
z
M 2900 2063 
Q 2888 2569 2661 2833 
Q 2434 3097 2009 3097 
Q 1594 3097 1325 2822 
Q 1056 2547 1006 2059 
L 2900 2063 
z
" transform="scale(0.015625)"/>
      </defs>
      <use xlink:href="#DejaVuSansMono-54"/>
      <use xlink:href="#DejaVuSansMono-69" x="60.205078"/>
      <use xlink:href="#DejaVuSansMono-6d" x="120.410156"/>
      <use xlink:href="#DejaVuSansMono-65" x="180.615234"/>
     </g>
    </g>
    <g id="text_11">
     <!-- 2015-Sep-16 -->
     <g transform="translate(279.376563 283.702812) scale(0.1 -0.1)">
      <defs>
       <path id="DejaVuSansMono-2d" d="M 1113 2009 
L 2741 2009 
L 2741 1497 
L 1113 1497 
L 1113 2009 
z
" transform="scale(0.015625)"/>
       <path id="DejaVuSansMono-53" d="M 3163 4506 
L 3163 3866 
Q 2875 4050 2586 4144 
Q 2297 4238 2003 4238 
Q 1556 4238 1297 4030 
Q 1038 3822 1038 3469 
Q 1038 3159 1208 2996 
Q 1378 2834 1844 2725 
L 2175 2650 
Q 2831 2497 3131 2169 
Q 3431 1841 3431 1275 
Q 3431 609 3018 259 
Q 2606 -91 1819 -91 
Q 1491 -91 1159 -20 
Q 828 50 494 191 
L 494 863 
Q 853 634 1173 528 
Q 1494 422 1819 422 
Q 2297 422 2562 636 
Q 2828 850 2828 1234 
Q 2828 1584 2645 1768 
Q 2463 1953 2009 2053 
L 1672 2131 
Q 1022 2278 728 2575 
Q 434 2872 434 3372 
Q 434 3997 854 4373 
Q 1275 4750 1972 4750 
Q 2241 4750 2537 4689 
Q 2834 4628 3163 4506 
z
" transform="scale(0.015625)"/>
       <path id="DejaVuSansMono-70" d="M 1172 441 
L 1172 -1331 
L 594 -1331 
L 594 3500 
L 1172 3500 
L 1172 3053 
Q 1316 3313 1555 3448 
Q 1794 3584 2106 3584 
Q 2741 3584 3102 3093 
Q 3463 2603 3463 1734 
Q 3463 881 3100 395 
Q 2738 -91 2106 -91 
Q 1788 -91 1548 45 
Q 1309 181 1172 441 
z
M 2859 1747 
Q 2859 2416 2648 2756 
Q 2438 3097 2022 3097 
Q 1603 3097 1387 2755 
Q 1172 2413 1172 1747 
Q 1172 1084 1387 740 
Q 1603 397 2022 397 
Q 2438 397 2648 737 
Q 2859 1078 2859 1747 
z
" transform="scale(0.015625)"/>
      </defs>
      <use xlink:href="#DejaVuSansMono-32"/>
      <use xlink:href="#DejaVuSansMono-30" x="60.205078"/>
      <use xlink:href="#DejaVuSansMono-31" x="120.410156"/>
      <use xlink:href="#DejaVuSansMono-35" x="180.615234"/>
      <use xlink:href="#DejaVuSansMono-2d" x="240.820312"/>
      <use xlink:href="#DejaVuSansMono-53" x="301.025391"/>
      <use xlink:href="#DejaVuSansMono-65" x="361.230469"/>
      <use xlink:href="#DejaVuSansMono-70" x="421.435547"/>
      <use xlink:href="#DejaVuSansMono-2d" x="481.640625"/>
      <use xlink:href="#DejaVuSansMono-31" x="541.845703"/>
      <use xlink:href="#DejaVuSansMono-36" x="602.050781"/>
     </g>
    </g>
   </g>
   <g id="matplotlib.axis_4">
    <g id="ytick_4">
     <g id="text_12">
      <!-- IU.ANMO -->
      <g transform="translate(11.895558 137.779161) scale(0.0833 -0.0833)">
       <defs>
        <path id="DejaVuSansMono-49" d="M 628 4666 
L 3219 4666 
L 3219 4134 
L 2241 4134 
L 2241 531 
L 3219 531 
L 3219 0 
L 628 0 
L 628 531 
L 1606 531 
L 1606 4134 
L 628 4134 
L 628 4666 
z
" transform="scale(0.015625)"/>
        <path id="DejaVuSansMono-55" d="M 459 1791 
L 459 4666 
L 1094 4666 
L 1094 1503 
Q 1094 1163 1112 1017 
Q 1131 872 1178 794 
Q 1278 609 1467 515 
Q 1656 422 1925 422 
Q 2197 422 2384 515 
Q 2572 609 2675 794 
Q 2722 872 2740 1015 
Q 2759 1159 2759 1497 
L 2759 4666 
L 3391 4666 
L 3391 1791 
Q 3391 1075 3302 773 
Q 3213 472 2994 275 
Q 2788 91 2522 0 
Q 2256 -91 1925 -91 
Q 1597 -91 1331 0 
Q 1066 91 856 275 
Q 641 469 550 776 
Q 459 1084 459 1791 
z
" transform="scale(0.015625)"/>
        <path id="DejaVuSansMono-4e" d="M 434 4666 
L 1234 4666 
L 2809 825 
L 2809 4666 
L 3419 4666 
L 3419 0 
L 2619 0 
L 1044 3841 
L 1044 0 
L 434 0 
L 434 4666 
z
" transform="scale(0.015625)"/>
        <path id="DejaVuSansMono-4d" d="M 269 4666 
L 1113 4666 
L 1919 2291 
L 2731 4666 
L 3578 4666 
L 3578 0 
L 2994 0 
L 2994 4122 
L 2163 1663 
L 1684 1663 
L 850 4122 
L 850 0 
L 269 0 
L 269 4666 
z
" transform="scale(0.015625)"/>
        <path id="DejaVuSansMono-4f" d="M 2828 2328 
Q 2828 3356 2617 3797 
Q 2406 4238 1925 4238 
Q 1447 4238 1236 3797 
Q 1025 3356 1025 2328 
Q 1025 1303 1236 862 
Q 1447 422 1925 422 
Q 2406 422 2617 861 
Q 2828 1300 2828 2328 
z
M 3488 2328 
Q 3488 1109 3102 509 
Q 2716 -91 1925 -91 
Q 1134 -91 750 506 
Q 366 1103 366 2328 
Q 366 3550 752 4150 
Q 1138 4750 1925 4750 
Q 2716 4750 3102 4150 
Q 3488 3550 3488 2328 
z
" transform="scale(0.015625)"/>
       </defs>
       <use xlink:href="#DejaVuSansMono-49"/>
       <use xlink:href="#DejaVuSansMono-55" x="60.205078"/>
       <use xlink:href="#DejaVuSansMono-2e" x="120.410156"/>
       <use xlink:href="#DejaVuSansMono-41" x="180.615234"/>
       <use xlink:href="#DejaVuSansMono-4e" x="240.820312"/>
       <use xlink:href="#DejaVuSansMono-4d" x="301.025391"/>
       <use xlink:href="#DejaVuSansMono-4f" x="361.230469"/>
      </g>
     </g>
    </g>
    <g id="ytick_5">
     <g id="text_13">
      <!-- IU.HRV -->
      <g transform="translate(16.910478 130.120669) scale(0.0833 -0.0833)">
       <defs>
        <path id="DejaVuSansMono-48" d="M 428 4666 
L 1063 4666 
L 1063 2753 
L 2791 2753 
L 2791 4666 
L 3425 4666 
L 3425 0 
L 2791 0 
L 2791 2222 
L 1063 2222 
L 1063 0 
L 428 0 
L 428 4666 
z
" transform="scale(0.015625)"/>
        <path id="DejaVuSansMono-52" d="M 2375 2203 
Q 2619 2141 2791 1967 
Q 2963 1794 3219 1275 
L 3853 0 
L 3175 0 
L 2619 1178 
Q 2378 1681 2186 1826 
Q 1994 1972 1684 1972 
L 1081 1972 
L 1081 0 
L 447 0 
L 447 4666 
L 1747 4666 
Q 2516 4666 2925 4319 
Q 3334 3972 3334 3316 
Q 3334 2853 3082 2561 
Q 2831 2269 2375 2203 
z
M 1081 4147 
L 1081 2491 
L 1772 2491 
Q 2225 2491 2447 2694 
Q 2669 2897 2669 3316 
Q 2669 3719 2433 3933 
Q 2197 4147 1747 4147 
L 1081 4147 
z
" transform="scale(0.015625)"/>
        <path id="DejaVuSansMono-56" d="M 1925 531 
L 3022 4666 
L 3675 4666 
L 2309 0 
L 1544 0 
L 178 4666 
L 831 4666 
L 1925 531 
z
" transform="scale(0.015625)"/>
       </defs>
       <use xlink:href="#DejaVuSansMono-49"/>
       <use xlink:href="#DejaVuSansMono-55" x="60.205078"/>
       <use xlink:href="#DejaVuSansMono-2e" x="120.410156"/>
       <use xlink:href="#DejaVuSansMono-48" x="180.615234"/>
       <use xlink:href="#DejaVuSansMono-52" x="240.820312"/>
       <use xlink:href="#DejaVuSansMono-56" x="301.025391"/>
      </g>
     </g>
    </g>
    <g id="ytick_6">
     <g id="text_14">
      <!-- II.BFO -->
      <g transform="translate(16.910478 122.462177) scale(0.0833 -0.0833)">
       <defs>
        <path id="DejaVuSansMono-42" d="M 1153 2228 
L 1153 519 
L 1900 519 
Q 2450 519 2684 711 
Q 2919 903 2919 1344 
Q 2919 1800 2672 2014 
Q 2425 2228 1900 2228 
L 1153 2228 
z
M 1153 4147 
L 1153 2741 
L 1888 2741 
Q 2344 2741 2548 2916 
Q 2753 3091 2753 3481 
Q 2753 3834 2551 3990 
Q 2350 4147 1888 4147 
L 1153 4147 
z
M 519 4666 
L 1900 4666 
Q 2616 4666 3003 4356 
Q 3391 4047 3391 3481 
Q 3391 3053 3186 2806 
Q 2981 2559 2572 2497 
Q 3031 2428 3292 2104 
Q 3553 1781 3553 1281 
Q 3553 647 3137 323 
Q 2722 0 1900 0 
L 519 0 
L 519 4666 
z
" transform="scale(0.015625)"/>
        <path id="DejaVuSansMono-46" d="M 728 4666 
L 3475 4666 
L 3475 4134 
L 1363 4134 
L 1363 2759 
L 3278 2759 
L 3278 2228 
L 1363 2228 
L 1363 0 
L 728 0 
L 728 4666 
z
" transform="scale(0.015625)"/>
       </defs>
       <use xlink:href="#DejaVuSansMono-49"/>
       <use xlink:href="#DejaVuSansMono-49" x="60.205078"/>
       <use xlink:href="#DejaVuSansMono-2e" x="120.410156"/>
       <use xlink:href="#DejaVuSansMono-42" x="180.615234"/>
       <use xlink:href="#DejaVuSansMono-46" x="240.820312"/>
       <use xlink:href="#DejaVuSansMono-4f" x="301.025391"/>
      </g>
     </g>
    </g>
   </g>
   <g id="line2d_7">
    <path d="M 54 135.458588 
L 110.781 135.359877 
L 111.591 135.370762 
L 112.401 135.638551 
L 113.211 135.848674 
L 113.778 135.727752 
L 115.479 135.114515 
L 116.208 135.29251 
L 117.261 135.562966 
L 118.152 135.525087 
L 119.934 135.415888 
L 125.199 135.358166 
L 126.09 135.403743 
L 128.034 135.695761 
L 130.302 135.338754 
L 132.327 135.497468 
L 135.486 135.418444 
L 136.944 135.638345 
L 138.078 135.48592 
L 139.455 135.371162 
L 141.075 135.503124 
L 142.29 135.50122 
L 144.396 135.401372 
L 147.231 135.531437 
L 150.714 135.422931 
L 152.415 135.400828 
L 154.359 135.38262 
L 156.627 135.244632 
L 157.761 135.544233 
L 158.814 135.727513 
L 160.191 135.698083 
L 160.92 135.479569 
L 162.054 135.048457 
L 162.459 135.158445 
L 162.945 135.592691 
L 163.998 136.735965 
L 164.322 136.761237 
L 164.646 136.538321 
L 165.132 135.822901 
L 166.023 134.382425 
L 166.428 134.127109 
L 166.752 134.158008 
L 167.238 134.472663 
L 168.291 135.246999 
L 169.02 135.45579 
L 171.045 135.683798 
L 175.338 135.544164 
L 176.796 135.433338 
L 177.606 135.697982 
L 178.497 135.94581 
L 179.064 135.843869 
L 179.631 135.496132 
L 181.008 134.513668 
L 181.413 134.572023 
L 181.818 134.904021 
L 182.547 135.933402 
L 183.033 136.480935 
L 183.357 136.592664 
L 183.681 136.454259 
L 184.086 135.965977 
L 185.22 134.312917 
L 185.544 134.215543 
L 185.868 134.358031 
L 186.354 134.911157 
L 187.245 136.027973 
L 187.65 136.215324 
L 188.055 136.143272 
L 188.703 135.714368 
L 189.432 135.295985 
L 189.999 135.239114 
L 190.809 135.439889 
L 191.781 135.611607 
L 192.834 135.50529 
L 194.616 135.317741 
L 195.426 135.489836 
L 196.722 135.858046 
L 197.208 135.743458 
L 197.856 135.315992 
L 198.828 134.622347 
L 199.233 134.580887 
L 199.638 134.777784 
L 200.205 135.38935 
L 201.096 136.357363 
L 201.501 136.467116 
L 201.906 136.323141 
L 202.635 135.72363 
L 203.364 135.231077 
L 204.093 135.029925 
L 204.984 135.020214 
L 206.847 135.295682 
L 207.333 135.58377 
L 208.062 136.352187 
L 208.629 136.837524 
L 208.953 136.867534 
L 209.277 136.655058 
L 209.682 136.083059 
L 210.816 134.27461 
L 211.14 134.139873 
L 211.464 134.221809 
L 212.112 134.721448 
L 212.76 135.121837 
L 214.218 135.536263 
L 214.785 135.589005 
L 215.271 135.388422 
L 216.648 134.580332 
L 217.053 134.741882 
L 217.539 135.251991 
L 218.835 136.849147 
L 219.321 137.038772 
L 219.969 137.000035 
L 220.698 136.757697 
L 221.184 136.39676 
L 221.67 135.769431 
L 223.128 133.639097 
L 223.452 133.645916 
L 223.776 133.921861 
L 224.262 134.71688 
L 225.072 136.053192 
L 225.396 136.217469 
L 225.72 136.080754 
L 226.125 135.574885 
L 226.854 134.614256 
L 227.097 134.551531 
L 227.34 134.691904 
L 227.664 135.197501 
L 228.312 136.846454 
L 228.798 137.824683 
L 229.041 137.967647 
L 229.284 137.799263 
L 229.527 137.29674 
L 229.932 135.805622 
L 230.985 131.510776 
L 231.228 131.352229 
L 231.39 131.539534 
L 231.633 132.280071 
L 232.038 134.548507 
L 232.929 140.186332 
L 233.172 140.736663 
L 233.334 140.686628 
L 233.496 140.296319 
L 233.739 139.088999 
L 234.144 135.789603 
L 234.954 128.880336 
L 235.278 127.826509 
L 235.44 127.85486 
L 235.602 128.23087 
L 235.926 129.857616 
L 237.141 137.278474 
L 237.546 138.149477 
L 238.275 139.358349 
L 239.085 141.05939 
L 239.328 141.115317 
L 239.571 140.832659 
L 239.895 140.01653 
L 242.163 133.157606 
L 242.406 132.931643 
L 242.649 133.010935 
L 242.973 133.457933 
L 243.54 134.245468 
L 243.783 134.292437 
L 244.107 134.06069 
L 245.241 132.840712 
L 245.565 132.866268 
L 245.889 133.195567 
L 246.375 134.14174 
L 246.861 134.983543 
L 247.185 135.162497 
L 247.509 135.055928 
L 248.319 134.655397 
L 248.643 134.771635 
L 249.048 135.236357 
L 250.182 136.853385 
L 250.506 136.885834 
L 250.992 136.636545 
L 251.721 136.264089 
L 252.126 136.358406 
L 253.098 136.805347 
L 253.503 136.601276 
L 254.961 135.481802 
L 255.528 135.618555 
L 256.176 135.738607 
L 256.662 135.59719 
L 257.715 135.174735 
L 259.011 134.91758 
L 259.659 134.777831 
L 260.064 134.91419 
L 261.279 135.553212 
L 261.765 135.435193 
L 262.98 134.934731 
L 263.466 135.050052 
L 265.005 135.657005 
L 265.491 135.467993 
L 266.706 134.791534 
L 267.111 134.941132 
L 267.678 135.488984 
L 268.326 136.04463 
L 268.731 136.075524 
L 269.217 135.798975 
L 269.946 135.34886 
L 270.351 135.355319 
L 270.918 135.654564 
L 271.566 135.952098 
L 272.052 135.886792 
L 273.267 135.496957 
L 273.834 135.694109 
L 274.482 135.900015 
L 274.968 135.804037 
L 276.507 135.18697 
L 277.398 135.380118 
L 278.046 135.403914 
L 279.909 135.19613 
L 281.286 135.458265 
L 283.554 135.498038 
L 284.445 135.458978 
L 285.579 135.393363 
L 287.928 135.469786 
L 294.813 135.563231 
L 295.704 135.203064 
L 296.271 135.078777 
L 296.838 135.208867 
L 298.053 135.614337 
L 298.62 135.498596 
L 299.592 135.251027 
L 300.24 135.394322 
L 301.05 135.555628 
L 302.832 135.570071 
L 303.561 135.667058 
L 304.209 135.497447 
L 305.1 135.257272 
L 305.667 135.363278 
L 306.72 135.620856 
L 307.449 135.453109 
L 308.178 135.343698 
L 309.069 135.498945 
L 309.798 135.536338 
L 311.58 135.407279 
L 312.957 135.495772 
L 322.92 135.443003 
L 324.702 135.518435 
L 326.484 135.423946 
L 328.023 135.468497 
L 329.157 135.511106 
L 330.21 135.539038 
L 332.478 135.38124 
L 333.612 135.491026 
L 335.313 135.434622 
L 336.933 135.558413 
L 339.039 135.436503 
L 341.388 135.40783 
L 343.413 135.58598 
L 345.519 135.463109 
L 345.519 135.463109 
" clip-path="url(#p059cf22f7b)" style="fill: none; stroke: #000000; stroke-width: 0.75; stroke-linecap: square"/>
   </g>
   <g id="line2d_8">
    <path d="M 54 135.455871 
L 103.491 135.320928 
L 109.242 135.183238 
L 110.295 135.249027 
L 110.862 134.978708 
L 112.158 134.149871 
L 112.482 134.36648 
L 112.725 134.726302 
L 113.211 135.958072 
L 114.426 139.364999 
L 114.831 139.46453 
L 114.993 139.391736 
L 115.398 138.611762 
L 116.856 135.072301 
L 117.261 134.83813 
L 117.747 134.947073 
L 118.638 135.309569 
L 119.124 135.240743 
L 119.772 134.840168 
L 120.663 134.29102 
L 121.23 134.193219 
L 121.959 134.324628 
L 123.417 134.656038 
L 124.065 134.560819 
L 124.632 134.240273 
L 126.171 133.110135 
L 126.576 133.203863 
L 126.981 133.723318 
L 127.548 134.990394 
L 128.682 137.607834 
L 129.087 137.935724 
L 129.411 137.889578 
L 129.816 137.591335 
L 131.031 136.359165 
L 131.436 136.292086 
L 131.841 136.372083 
L 133.137 136.815788 
L 133.542 136.666979 
L 133.947 136.30824 
L 134.595 135.41603 
L 135.405 134.364148 
L 135.81 134.166358 
L 136.134 134.213097 
L 136.539 134.51059 
L 137.349 135.601976 
L 137.997 136.352351 
L 138.402 136.581944 
L 138.888 136.611164 
L 139.536 136.366674 
L 140.751 135.877379 
L 142.371 135.44706 
L 143.181 134.877311 
L 144.396 134.004428 
L 145.044 133.829604 
L 145.935 133.943965 
L 146.826 134.334793 
L 147.798 135.01198 
L 149.661 136.380689 
L 150.957 136.925705 
L 152.01 137.198168 
L 152.658 137.147416 
L 153.306 136.840181 
L 154.035 136.235177 
L 154.764 135.357377 
L 155.412 134.194502 
L 155.979 132.696999 
L 156.789 129.817027 
L 157.518 127.471459 
L 157.761 127.137569 
L 158.166 127.246763 
L 158.328 127.620707 
L 158.733 129.466569 
L 159.3 133.728412 
L 160.191 140.524004 
L 160.515 141.631924 
L 160.758 141.472134 
L 161.001 140.988863 
L 161.325 138.986957 
L 162.54 130.458071 
L 162.783 130.615961 
L 162.945 130.87163 
L 163.188 132.68306 
L 163.593 137.596093 
L 164.889 155.984953 
L 165.213 157.254319 
L 165.294 157.312864 
L 165.456 156.877463 
L 165.78 154.773938 
L 166.266 148.708553 
L 167.319 134.381647 
L 167.805 130.617988 
L 168.21 129.071189 
L 168.534 128.505175 
L 169.749 127.171298 
L 170.64 125.723076 
L 170.883 125.596628 
L 171.288 125.67532 
L 171.612 126.063625 
L 172.422 127.376567 
L 173.151 128.231867 
L 173.88 129.119745 
L 174.285 129.988928 
L 174.852 131.801833 
L 176.553 137.813675 
L 179.064 143.990675 
L 179.226 144.034787 
L 179.469 143.799733 
L 179.712 143.274136 
L 180.117 141.305209 
L 180.684 136.903147 
L 181.494 130.700665 
L 181.818 130.028652 
L 181.98 129.960778 
L 182.142 130.494732 
L 182.466 132.711711 
L 182.952 138.617093 
L 183.762 149.149387 
L 184.005 150.44525 
L 184.329 150.828006 
L 184.41 150.668977 
L 184.653 148.710959 
L 184.977 144.656767 
L 186.273 125.005348 
L 186.597 123.460742 
L 186.759 123.304163 
L 186.921 123.658199 
L 187.245 125.06961 
L 188.298 131.737504 
L 188.622 132.545652 
L 188.865 132.575048 
L 189.189 132.429392 
L 189.594 132.043805 
L 189.918 131.982347 
L 190.08 132.14459 
L 190.485 133.040708 
L 191.862 137.16408 
L 192.267 137.387869 
L 192.51 137.284361 
L 193.077 136.710006 
L 193.968 135.827718 
L 194.778 135.365635 
L 195.183 135.301968 
L 195.588 135.465893 
L 195.993 136.089864 
L 196.479 137.490632 
L 197.451 140.664501 
L 197.775 140.862602 
L 197.937 140.755737 
L 198.261 139.66573 
L 198.666 137.119391 
L 199.881 128.387592 
L 200.205 127.970012 
L 200.286 128.050466 
L 200.529 129.058891 
L 200.853 131.319463 
L 202.311 144.08087 
L 202.554 144.806638 
L 202.797 144.760897 
L 203.04 144.543528 
L 203.283 143.782158 
L 206.604 131.634985 
L 207.09 130.599093 
L 207.414 130.277356 
L 207.819 130.227332 
L 208.143 130.534684 
L 208.548 131.222461 
L 209.196 132.818637 
L 210.006 134.704195 
L 210.249 134.868717 
L 210.573 134.900654 
L 210.816 134.506046 
L 211.14 133.57527 
L 211.707 130.939253 
L 212.679 126.34978 
L 213.003 125.600495 
L 213.327 125.314602 
L 213.651 125.481277 
L 213.894 125.756394 
L 215.595 128.71351 
L 216 130.027846 
L 216.486 132.405965 
L 217.539 139.188626 
L 218.187 142.445761 
L 218.754 144.251143 
L 220.617 148.752544 
L 221.103 149.499778 
L 221.346 149.574994 
L 221.751 149.474757 
L 222.156 148.835513 
L 222.723 147.336891 
L 224.505 142.067697 
L 225.234 140.982636 
L 225.882 139.959796 
L 226.449 138.564367 
L 227.907 134.550168 
L 228.393 134.047495 
L 229.284 133.416872 
L 229.689 132.54947 
L 230.256 130.494412 
L 230.823 128.710209 
L 231.147 128.537155 
L 231.228 128.586189 
L 231.39 129.131378 
L 231.714 131.077197 
L 232.281 137.07562 
L 232.848 142.368465 
L 233.091 143.104809 
L 233.172 143.134507 
L 233.334 142.119848 
L 233.658 137.338866 
L 234.063 125.034226 
L 234.63 98.345521 
L 235.602 51.195488 
L 235.926 42.291402 
L 236.25 39.473493 
L 236.331 39.320247 
L 236.412 39.691563 
L 236.655 43.644613 
L 236.898 49.909428 
L 237.384 70.45885 
L 238.194 117.249954 
L 239.814 212.660047 
L 240.381 234.150783 
L 240.786 242.8744 
L 241.029 245.498942 
L 241.11 245.650909 
L 241.272 245.283951 
L 241.515 243.969457 
L 241.758 240.278883 
L 242.244 228.407451 
L 242.892 206.382784 
L 245.16 124.486764 
L 245.97 103.149315 
L 246.618 91.310068 
L 247.104 85.982486 
L 247.509 83.746119 
L 247.833 83.142041 
L 247.995 83.250077 
L 248.319 83.889248 
L 248.724 85.642144 
L 249.291 89.228404 
L 250.02 95.505121 
L 250.911 105.606229 
L 253.098 131.655372 
L 254.151 140.942073 
L 255.123 147.771954 
L 255.933 152.043048 
L 256.5 154.099909 
L 256.986 155.144742 
L 257.31 155.485244 
L 257.715 155.445515 
L 257.958 155.267523 
L 258.444 154.464471 
L 259.092 152.877393 
L 260.064 149.860201 
L 261.036 146.131309 
L 263.142 137.599983 
L 264.681 132.90191 
L 265.896 129.625054 
L 266.625 128.221426 
L 267.192 127.563394 
L 267.678 127.34446 
L 268.245 127.440111 
L 268.893 127.903751 
L 270.189 129.198552 
L 272.457 131.688496 
L 273.51 133.152623 
L 274.563 135.042023 
L 275.94 138.032358 
L 276.993 140.175099 
L 277.398 140.586416 
L 277.722 140.645803 
L 278.127 140.36896 
L 278.613 139.521195 
L 279.99 136.751307 
L 280.476 136.389324 
L 280.962 136.349278 
L 282.987 136.647828 
L 284.04 136.370425 
L 285.417 135.723379 
L 286.713 135.209373 
L 287.928 135.000397 
L 290.52 134.680472 
L 291.33 134.211967 
L 292.221 133.699906 
L 292.788 133.680118 
L 293.274 133.952462 
L 293.922 134.647257 
L 295.137 136.038141 
L 295.542 136.228807 
L 296.028 136.211366 
L 296.595 135.827471 
L 297.81 134.862409 
L 298.377 134.837921 
L 299.106 135.171173 
L 299.835 135.443113 
L 300.645 135.359561 
L 301.455 135.234426 
L 301.941 135.378958 
L 302.589 135.884733 
L 303.804 136.922722 
L 304.29 137.01237 
L 304.776 136.846985 
L 305.505 136.218646 
L 306.558 135.250606 
L 307.206 134.976077 
L 307.854 134.948421 
L 310.365 135.234714 
L 311.661 135.546908 
L 312.309 135.449798 
L 313.443 135.196849 
L 314.172 135.33873 
L 315.792 135.843098 
L 317.655 135.847549 
L 318.546 135.748325 
L 319.842 135.323991 
L 321.219 134.980726 
L 322.839 134.774665 
L 325.35 134.892684 
L 325.917 135.113324 
L 326.565 135.638745 
L 327.699 136.643921 
L 328.104 136.751623 
L 328.671 136.65903 
L 330.453 135.97231 
L 331.182 135.659359 
L 331.992 135.022207 
L 332.721 134.521164 
L 333.288 134.425827 
L 334.017 134.605511 
L 336.528 135.620039 
L 337.905 136.465971 
L 338.553 136.480514 
L 339.201 136.216535 
L 342.198 134.596372 
L 342.684 134.649699 
L 343.17 134.895423 
L 344.628 135.826135 
L 345.195 135.765755 
L 345.519 135.62575 
L 345.519 135.62575 
" clip-path="url(#p059cf22f7b)" style="fill: none; stroke: #ff0000; stroke-width: 0.75; stroke-linecap: square"/>
   </g>
   <g id="line2d_9">
    <path d="M 54 127.799957 
L 110.376 127.69855 
L 111.429 127.642989 
L 112.158 127.846703 
L 113.211 128.189007 
L 113.778 128.119146 
L 114.831 127.658864 
L 115.479 127.510447 
L 116.208 127.605639 
L 117.666 127.884267 
L 119.61 127.77397 
L 122.121 127.826063 
L 123.579 127.826058 
L 125.766 127.713566 
L 127.953 127.957097 
L 130.383 127.770921 
L 132.165 127.810651 
L 134.514 127.722718 
L 136.458 127.865375 
L 139.536 127.795508 
L 142.371 127.768205 
L 143.829 127.812712 
L 145.449 127.82814 
L 148.203 127.827365 
L 152.577 127.762198 
L 156.465 127.707642 
L 157.923 127.778087 
L 158.976 127.831018 
L 159.867 128.1836 
L 160.596 128.378562 
L 161.163 128.290139 
L 164.646 127.21923 
L 165.132 127.343794 
L 166.671 127.960575 
L 167.238 127.799005 
L 168.21 127.502064 
L 168.777 127.596414 
L 170.64 128.145115 
L 171.612 128.062993 
L 174.123 127.671775 
L 175.986 127.823329 
L 177.849 127.786547 
L 181.089 127.97473 
L 183.033 127.333873 
L 183.681 127.571551 
L 184.491 127.851149 
L 185.058 127.807525 
L 186.435 127.517164 
L 187.002 127.728701 
L 188.055 128.189284 
L 188.622 128.177522 
L 190.647 127.902606 
L 192.348 127.884499 
L 194.94 127.517572 
L 196.803 127.536221 
L 197.694 127.868816 
L 198.828 128.264009 
L 199.557 128.283757 
L 200.529 128.046838 
L 202.149 127.703477 
L 203.931 127.447834 
L 204.741 127.587081 
L 206.766 128.146255 
L 207.333 127.909728 
L 208.629 127.252833 
L 209.115 127.293016 
L 209.844 127.609307 
L 211.95 128.669196 
L 212.355 128.548578 
L 212.922 128.081702 
L 213.813 127.290782 
L 214.299 127.165616 
L 214.785 127.28085 
L 215.757 127.571274 
L 216.243 127.433191 
L 217.296 126.98398 
L 217.701 127.133115 
L 218.187 127.641798 
L 219.483 129.268547 
L 219.888 129.367101 
L 220.293 129.195679 
L 220.86 128.634397 
L 222.318 126.709375 
L 223.128 125.752264 
L 223.452 125.655577 
L 223.695 125.775288 
L 224.019 126.232144 
L 224.505 127.480348 
L 225.477 130.184561 
L 225.801 130.506077 
L 226.044 130.462531 
L 226.368 130.078338 
L 227.502 128.250955 
L 227.745 128.23769 
L 228.069 128.465218 
L 228.717 128.98488 
L 228.96 128.858892 
L 229.203 128.42147 
L 229.527 127.330035 
L 230.742 122.271708 
L 230.904 122.205893 
L 231.066 122.384961 
L 231.309 123.122419 
L 231.714 125.320992 
L 232.524 129.846938 
L 232.767 130.329606 
L 232.929 130.329041 
L 233.172 129.901345 
L 233.577 128.444382 
L 234.063 126.80248 
L 234.306 126.52486 
L 234.468 126.618305 
L 234.711 127.164371 
L 235.116 128.831959 
L 235.683 131.084075 
L 235.926 131.468336 
L 236.088 131.456167 
L 236.331 131.073311 
L 236.736 129.782202 
L 237.303 128.058984 
L 237.546 127.765295 
L 237.789 127.796798 
L 238.113 128.195752 
L 238.68 128.895792 
L 238.923 128.852568 
L 239.166 128.539322 
L 239.733 127.210849 
L 240.138 126.511009 
L 240.381 126.433724 
L 240.624 126.624561 
L 241.191 127.603698 
L 241.515 127.988551 
L 241.758 128.008807 
L 242.001 127.785307 
L 242.487 126.893428 
L 242.973 126.161887 
L 243.216 126.073729 
L 243.459 126.186459 
L 243.864 126.684626 
L 244.512 127.47738 
L 244.917 127.610468 
L 245.484 127.466579 
L 245.97 127.42602 
L 246.456 127.641646 
L 247.266 128.055029 
L 247.833 128.026943 
L 248.724 127.955979 
L 250.506 128.27883 
L 251.316 128.361514 
L 253.665 127.918405 
L 254.475 127.797269 
L 255.852 127.847279 
L 256.662 127.699814 
L 258.039 127.848683 
L 259.092 127.468888 
L 259.983 127.589746 
L 260.793 127.603969 
L 262.332 127.442142 
L 263.547 127.914572 
L 267.597 127.897941 
L 269.055 128.117097 
L 269.622 127.959764 
L 270.594 127.614972 
L 271.242 127.713502 
L 272.538 127.953977 
L 273.753 127.963022 
L 277.803 127.628211 
L 278.775 127.80684 
L 279.504 127.85824 
L 281.124 127.805255 
L 282.258 127.75264 
L 283.473 127.750112 
L 284.85 127.81783 
L 286.065 127.816799 
L 287.766 127.907041 
L 290.844 127.730995 
L 293.598 127.801763 
L 295.056 127.763731 
L 296.433 127.786395 
L 298.458 127.855181 
L 299.349 127.81235 
L 300.645 127.695732 
L 301.698 127.924122 
L 302.427 127.941357 
L 304.695 127.763597 
L 308.745 127.775464 
L 310.527 127.768759 
L 313.119 127.789399 
L 314.982 127.854533 
L 316.602 127.825295 
L 318.87 127.825211 
L 320.976 127.826111 
L 323.811 127.724916 
L 326.808 127.757362 
L 327.78 127.790893 
L 328.995 127.865757 
L 330.777 127.793559 
L 331.911 127.863404 
L 334.26 127.759236 
L 335.637 127.93691 
L 337.338 127.81468 
L 339.768 127.689488 
L 342.441 127.837664 
L 343.899 127.751841 
L 345.519 127.864305 
L 345.519 127.864305 
" clip-path="url(#p059cf22f7b)" style="fill: none; stroke: #000000; stroke-width: 0.75; stroke-linecap: square"/>
   </g>
   <g id="line2d_10">
    <path d="M 54 127.800244 
L 106.164 127.900672 
L 107.541 127.924175 
L 108.918 127.807364 
L 109.566 128.020116 
L 110.133 128.13799 
L 110.457 127.991098 
L 110.7 127.734146 
L 111.105 126.922619 
L 112.482 123.372609 
L 112.725 123.502157 
L 112.968 123.857773 
L 113.292 125.113149 
L 113.778 127.8974 
L 114.588 132.457214 
L 114.831 133.214158 
L 115.155 133.326642 
L 115.317 133.316488 
L 115.479 132.992151 
L 116.046 130.941424 
L 116.856 128.015756 
L 117.261 127.315972 
L 117.666 127.156757 
L 118.071 127.338384 
L 119.124 127.882142 
L 119.691 127.83225 
L 122.364 127.2308 
L 122.931 127.323838 
L 124.389 127.708309 
L 124.632 127.609349 
L 125.118 127.102478 
L 125.685 126.118676 
L 126.414 124.899878 
L 126.819 124.669168 
L 127.143 124.853753 
L 127.386 125.179129 
L 127.953 126.516324 
L 129.006 129.029306 
L 129.411 129.442805 
L 129.735 129.488231 
L 130.221 129.346288 
L 131.031 128.969043 
L 131.517 128.97973 
L 132.003 129.145064 
L 132.732 129.379023 
L 133.218 129.274142 
L 133.704 128.852044 
L 135.405 126.928723 
L 135.729 126.941116 
L 136.134 127.130774 
L 137.673 128.262952 
L 138.159 128.287553 
L 138.888 128.114807 
L 139.941 127.880055 
L 140.994 127.913506 
L 142.209 127.928353 
L 142.938 127.7031 
L 144.963 126.90458 
L 145.935 126.915602 
L 146.826 127.172182 
L 147.798 127.724442 
L 149.094 128.441119 
L 150.066 128.666448 
L 152.577 128.969041 
L 153.306 128.733161 
L 154.602 128.081164 
L 155.169 127.578001 
L 155.655 126.843349 
L 156.222 125.50345 
L 157.113 122.579747 
L 157.761 120.711593 
L 158.085 120.157086 
L 158.571 120.14226 
L 158.733 120.343292 
L 159.219 121.566622 
L 159.867 124.108372 
L 160.758 128.623676 
L 161.487 133.454231 
L 162.621 141.369268 
L 162.864 142.239691 
L 163.107 142.20543 
L 163.35 141.975532 
L 163.593 140.745473 
L 164.079 136.841439 
L 165.132 128.08866 
L 165.456 127.15522 
L 165.699 126.931877 
L 165.942 127.168912 
L 166.671 128.113371 
L 166.914 128.135614 
L 167.076 127.867865 
L 167.481 126.555152 
L 168.696 121.401199 
L 168.939 121.141679 
L 169.344 121.149418 
L 169.668 121.752716 
L 171.288 125.106528 
L 171.936 125.616466 
L 173.718 126.579868 
L 174.366 126.711056 
L 176.391 126.8325 
L 176.958 127.257393 
L 178.092 128.202805 
L 178.497 128.278214 
L 179.064 128.115955 
L 179.631 127.975093 
L 179.955 128.134132 
L 180.198 128.447326 
L 180.603 129.428197 
L 181.17 131.671222 
L 182.304 136.548384 
L 182.709 137.272428 
L 182.952 137.202288 
L 183.195 136.955233 
L 183.438 136.251876 
L 183.843 134.435167 
L 184.41 130.751902 
L 185.949 119.918223 
L 186.354 118.575891 
L 186.678 118.240204 
L 186.84 118.313631 
L 187.164 118.926852 
L 187.569 120.371915 
L 189.108 126.480739 
L 189.594 127.396864 
L 190.242 128.074279 
L 191.214 129.080179 
L 192.591 130.721618 
L 193.077 130.868122 
L 193.563 130.735028 
L 194.94 130.086084 
L 195.426 130.148108 
L 196.317 130.270496 
L 196.722 130.014415 
L 197.127 129.449387 
L 197.694 128.200516 
L 198.828 125.592238 
L 199.152 125.24396 
L 199.476 125.132795 
L 199.881 125.37137 
L 200.286 125.991731 
L 201.015 127.626677 
L 201.906 129.476962 
L 202.311 129.893443 
L 202.635 129.982189 
L 202.959 129.779293 
L 203.283 129.344299 
L 203.931 128.017422 
L 204.579 126.774724 
L 204.984 126.364298 
L 205.47 126.282232 
L 206.523 126.463502 
L 206.766 126.336011 
L 207.252 125.749774 
L 208.467 123.99815 
L 208.872 123.917656 
L 209.115 123.978168 
L 209.763 124.580298 
L 210.573 125.329475 
L 211.221 125.584141 
L 211.95 125.872578 
L 212.436 126.326184 
L 213.084 127.276568 
L 213.975 128.581364 
L 214.542 129.051357 
L 215.271 129.317305 
L 216.567 129.55488 
L 217.215 129.419009 
L 218.187 129.108042 
L 218.592 129.294575 
L 218.997 129.912774 
L 219.483 131.240585 
L 220.455 134.960956 
L 221.022 136.713295 
L 221.265 137.041448 
L 221.67 136.961252 
L 221.832 136.605877 
L 222.237 134.733279 
L 222.642 131.430038 
L 223.209 124.546703 
L 224.343 110.216433 
L 224.505 110.005214 
L 224.829 110.093735 
L 224.991 111.288706 
L 225.396 118.291147 
L 225.882 132.5729 
L 227.097 171.652491 
L 227.34 173.847385 
L 227.583 174.635743 
L 227.664 174.400951 
L 227.907 170.816244 
L 228.231 162.978945 
L 230.094 106.941103 
L 230.742 98.89399 
L 231.471 89.115546 
L 232.443 75.467991 
L 232.686 73.967814 
L 232.767 73.858751 
L 232.929 74.229352 
L 233.172 75.552207 
L 233.415 78.533535 
L 233.982 89.391225 
L 236.898 152.689588 
L 237.465 160.662877 
L 237.951 164.817335 
L 238.356 166.714722 
L 238.68 167.467123 
L 239.166 167.416919 
L 239.409 166.82272 
L 239.733 165.527696 
L 240.219 162.357404 
L 240.867 156.374057 
L 244.188 122.88867 
L 245.241 114.606988 
L 245.97 110.424545 
L 246.537 108.285934 
L 246.942 107.448437 
L 247.266 107.279433 
L 247.59 107.329631 
L 247.995 107.861757 
L 248.643 109.276343 
L 249.453 111.614586 
L 250.182 114.433781 
L 251.154 119.264001 
L 252.126 123.770275 
L 252.936 126.464828 
L 254.313 130.919181 
L 255.528 134.997921 
L 256.095 136.238734 
L 256.662 136.946509 
L 257.148 137.232422 
L 257.634 137.304263 
L 258.201 137.224101 
L 258.768 136.941448 
L 259.335 136.413338 
L 259.983 135.472181 
L 260.955 133.573075 
L 262.089 130.921457 
L 263.061 128.019123 
L 263.952 125.457546 
L 264.438 124.67343 
L 264.843 124.548327 
L 265.086 124.621533 
L 265.896 125.42016 
L 266.22 125.586916 
L 266.625 125.572495 
L 267.03 125.148592 
L 268.488 123.023675 
L 269.055 123.111151 
L 269.622 123.79926 
L 271.08 125.741327 
L 271.971 126.42626 
L 275.535 128.692909 
L 276.183 128.691511 
L 276.912 128.338973 
L 277.641 127.981078 
L 278.208 127.988727 
L 278.775 128.327636 
L 280.152 129.309236 
L 280.638 129.318088 
L 281.286 129.09509 
L 282.582 128.609982 
L 284.202 128.322953 
L 285.093 128.378574 
L 286.713 128.529395 
L 288.657 128.317197 
L 289.224 128.039187 
L 289.953 127.38459 
L 290.844 126.59845 
L 291.33 126.438721 
L 291.816 126.487316 
L 292.545 126.814879 
L 294.246 127.619926 
L 295.056 127.808384 
L 295.785 127.691976 
L 296.676 127.253368 
L 297.567 126.908205 
L 298.215 126.871263 
L 299.025 126.991446 
L 300.888 127.482985 
L 301.698 127.923231 
L 303.399 129.010017 
L 304.047 128.923128 
L 305.91 128.118803 
L 307.854 128.16454 
L 308.826 127.990571 
L 309.393 128.093679 
L 310.77 128.482917 
L 311.256 128.353846 
L 311.985 127.864061 
L 312.957 127.241652 
L 313.524 127.131588 
L 314.253 127.206407 
L 315.468 127.367261 
L 318.141 127.434533 
L 320.166 128.039112 
L 320.814 127.864403 
L 322.515 127.248211 
L 323.163 127.394337 
L 327.375 128.857697 
L 327.942 128.624867 
L 329.4 127.815281 
L 329.967 127.828685 
L 331.02 127.875634 
L 331.668 127.602621 
L 333.045 126.881184 
L 333.612 126.893586 
L 334.341 127.150707 
L 335.475 127.489462 
L 336.771 127.784805 
L 337.581 128.292576 
L 338.553 128.882934 
L 339.039 128.949843 
L 339.444 128.874204 
L 340.011 128.560013 
L 341.955 127.224301 
L 342.522 127.369822 
L 343.98 128.222476 
L 344.385 128.017906 
L 344.871 127.386243 
L 345.519 126.449383 
L 345.519 126.449383 
" clip-path="url(#p059cf22f7b)" style="fill: none; stroke: #ff0000; stroke-width: 0.75; stroke-linecap: square"/>
   </g>
   <g id="line2d_11">
    <path d="M 54 120.141496 
L 126.657 120.253088 
L 127.872 120.232481 
L 130.221 120.092612 
L 133.704 120.125585 
L 143.667 120.154669 
L 145.449 120.114905 
L 147.312 119.991477 
L 148.446 120.254269 
L 149.418 120.379436 
L 150.39 120.2453 
L 151.686 120.080812 
L 158.328 120.007895 
L 159.381 119.987542 
L 160.839 120.269228 
L 161.892 120.331274 
L 168.372 120.067896 
L 174.204 120.185829 
L 180.522 120.18774 
L 181.899 120.333681 
L 183.357 120.175272 
L 184.653 120.141638 
L 186.678 120.130313 
L 190.566 119.922515 
L 192.591 120.305759 
L 193.644 120.040412 
L 194.373 119.95787 
L 195.102 120.106467 
L 197.046 120.644862 
L 197.694 120.571663 
L 198.585 120.198854 
L 199.476 119.898235 
L 200.286 119.889925 
L 202.554 120.025069 
L 203.85 120.194049 
L 204.822 120.210387 
L 208.224 119.993118 
L 209.844 120.149035 
L 212.193 120.442594 
L 213.57 120.328967 
L 218.754 119.670267 
L 219.483 119.87632 
L 220.293 120.349106 
L 221.67 121.196526 
L 222.156 121.247103 
L 222.642 121.088682 
L 223.29 120.598704 
L 224.829 119.281829 
L 225.315 119.176741 
L 225.882 119.291494 
L 227.259 119.933724 
L 228.555 120.421141 
L 229.203 120.437216 
L 230.175 120.175319 
L 230.985 120.052802 
L 231.795 120.187872 
L 232.929 120.37111 
L 233.82 120.23148 
L 234.954 120.07709 
L 236.898 120.151 
L 237.87 120.41988 
L 238.842 120.631686 
L 239.49 120.508362 
L 240.462 120.005165 
L 241.272 119.677948 
L 242.082 119.618757 
L 243.297 119.803294 
L 245.97 120.319836 
L 247.509 120.229196 
L 250.02 120.164145 
L 253.26 120.2123 
L 255.123 119.788978 
L 255.771 119.947679 
L 257.553 120.591871 
L 258.201 120.473085 
L 260.712 119.732084 
L 261.684 119.713202 
L 262.332 119.925005 
L 263.709 120.524501 
L 264.357 120.475657 
L 267.354 119.908165 
L 268.002 120.084725 
L 269.379 120.579125 
L 269.865 120.436789 
L 270.594 119.914819 
L 271.161 119.592486 
L 271.566 119.578186 
L 272.052 119.823996 
L 273.267 120.613675 
L 273.753 120.561562 
L 275.454 120.036459 
L 276.993 120.337763 
L 277.641 119.979123 
L 278.37 119.610344 
L 278.856 119.621731 
L 279.504 119.920008 
L 280.476 120.370453 
L 281.124 120.408583 
L 283.797 120.218242 
L 285.903 120.146983 
L 287.361 120.109577 
L 289.467 120.151991 
L 291.411 120.022682 
L 292.707 120.184156 
L 293.598 119.961833 
L 294.246 119.882566 
L 294.813 120.029055 
L 296.352 120.587741 
L 296.838 120.477891 
L 297.486 120.08342 
L 298.377 119.534469 
L 298.863 119.513274 
L 299.349 119.770597 
L 300.807 120.870976 
L 301.212 120.786154 
L 301.698 120.409772 
L 302.508 119.744888 
L 302.832 119.717826 
L 303.237 119.949063 
L 304.128 120.669508 
L 304.371 120.619839 
L 304.695 120.262738 
L 305.181 119.20291 
L 305.829 117.840388 
L 306.072 117.732745 
L 306.234 117.852932 
L 306.477 118.356296 
L 306.801 119.59379 
L 308.097 125.49425 
L 308.259 125.590739 
L 308.421 125.456861 
L 308.664 124.825274 
L 309.069 122.861112 
L 310.041 117.641026 
L 310.365 116.984339 
L 310.527 116.93658 
L 310.77 117.151573 
L 311.175 117.998998 
L 311.742 119.115423 
L 311.985 119.266829 
L 312.228 119.164343 
L 312.552 118.693433 
L 313.524 116.960528 
L 313.767 116.902276 
L 314.01 117.064541 
L 314.334 117.579718 
L 315.144 119.515583 
L 315.873 120.954958 
L 316.602 121.91249 
L 317.25 122.424187 
L 317.655 122.507823 
L 318.141 122.363941 
L 319.275 121.895921 
L 319.842 121.993903 
L 320.49 122.103779 
L 320.895 121.951877 
L 321.381 121.461515 
L 322.191 120.195814 
L 322.92 119.19542 
L 323.406 118.889985 
L 323.892 118.896939 
L 324.621 118.975392 
L 325.026 118.772876 
L 326.16 117.98775 
L 326.565 118.121242 
L 327.942 118.921363 
L 328.509 119.187203 
L 329.076 119.755485 
L 329.886 120.573505 
L 330.534 120.869843 
L 331.425 121.010512 
L 332.721 121.023846 
L 333.936 121.468553 
L 334.584 121.258914 
L 335.637 120.671157 
L 336.528 120.10614 
L 337.014 120.107462 
L 338.31 120.343867 
L 339.12 120.162647 
L 339.768 119.803632 
L 340.578 119.332508 
L 341.064 119.318569 
L 342.279 119.691548 
L 343.17 119.796427 
L 345.114 119.749492 
L 345.519 119.902174 
L 345.519 119.902174 
" clip-path="url(#p059cf22f7b)" style="fill: none; stroke: #000000; stroke-width: 0.75; stroke-linecap: square"/>
   </g>
   <g id="line2d_12">
    <path d="M 54 120.140385 
L 112.644 120.241104 
L 118.395 120.307858 
L 122.121 120.108561 
L 124.227 119.821855 
L 124.713 119.297614 
L 126.171 117.425506 
L 126.495 117.443472 
L 126.819 117.851114 
L 127.224 118.752395 
L 128.601 122.235697 
L 128.925 122.452975 
L 129.249 122.475814 
L 129.654 122.150354 
L 131.031 120.745571 
L 131.598 120.592202 
L 134.676 120.367487 
L 136.62 119.928258 
L 140.265 119.652205 
L 144.801 120.658595 
L 145.773 121.142427 
L 146.016 121.087669 
L 146.34 120.79794 
L 146.745 119.967191 
L 147.393 117.829179 
L 148.122 115.652138 
L 148.365 115.522187 
L 148.689 115.541645 
L 148.932 116.090582 
L 149.337 117.526545 
L 150.633 122.71084 
L 150.957 123.235868 
L 151.443 123.283499 
L 151.767 123.000659 
L 152.739 122.200186 
L 153.144 122.146602 
L 154.359 122.112334 
L 155.007 121.689741 
L 155.817 121.167317 
L 156.303 121.142845 
L 157.032 121.501849 
L 157.437 121.619425 
L 157.842 121.484095 
L 158.166 121.032092 
L 158.571 120.061692 
L 159.3 117.543562 
L 160.029 115.333353 
L 160.434 114.787131 
L 160.677 114.791636 
L 161.001 115.015752 
L 161.406 115.797005 
L 163.35 120.33093 
L 163.917 120.858467 
L 166.914 122.664101 
L 167.319 122.522181 
L 167.805 122.05504 
L 169.911 119.468829 
L 170.559 119.234942 
L 171.288 119.203914 
L 172.665 119.390769 
L 174.366 119.795905 
L 175.257 120.222321 
L 175.986 120.812635 
L 177.687 122.42252 
L 178.092 122.271999 
L 178.497 121.601598 
L 179.064 119.970555 
L 179.955 117.266135 
L 180.36 116.752448 
L 180.684 116.899976 
L 180.927 117.234962 
L 181.413 118.665158 
L 182.547 122.393903 
L 182.871 122.837582 
L 183.195 122.9631 
L 183.519 122.727434 
L 183.843 122.287344 
L 184.653 121.213925 
L 184.977 121.212032 
L 185.301 121.382551 
L 185.868 122.363384 
L 186.678 123.792489 
L 187.083 123.927872 
L 187.245 123.866552 
L 187.65 123.293398 
L 188.298 121.655048 
L 189.351 119.058618 
L 190.566 116.504677 
L 191.052 114.669776 
L 191.7 111.261431 
L 192.51 107.257747 
L 192.753 106.83381 
L 193.077 106.721236 
L 193.239 107.03502 
L 193.644 108.936098 
L 194.211 113.464386 
L 195.183 121.219316 
L 195.507 122.541586 
L 195.831 123.113451 
L 196.155 123.010797 
L 196.398 122.799929 
L 196.641 122.577515 
L 197.046 122.69055 
L 197.208 122.998598 
L 197.613 124.649815 
L 198.261 129.046805 
L 198.909 133.103191 
L 199.233 133.879615 
L 199.476 134.002957 
L 199.719 133.4758 
L 200.043 132.22106 
L 201.582 124.622057 
L 202.149 123.273087 
L 203.607 120.640658 
L 204.093 120.098721 
L 204.498 120.041865 
L 204.741 120.098061 
L 205.875 120.793407 
L 206.28 120.630042 
L 206.685 119.961323 
L 207.171 118.53712 
L 207.9 115.46357 
L 209.115 110.255787 
L 209.601 108.997275 
L 209.925 108.620888 
L 210.168 108.53203 
L 210.411 108.6897 
L 210.735 109.168679 
L 211.221 110.596147 
L 211.788 113.085169 
L 213.732 122.469153 
L 214.299 123.808381 
L 215.109 125.006155 
L 216 126.445968 
L 216.648 127.296637 
L 216.891 127.396496 
L 217.134 127.221986 
L 217.377 126.83405 
L 217.701 125.712724 
L 218.106 123.370133 
L 218.592 119.119757 
L 219.402 109.493233 
L 220.131 101.357582 
L 220.455 99.271501 
L 220.779 98.981328 
L 220.86 98.972606 
L 221.022 99.674788 
L 221.346 102.886525 
L 221.751 109.950129 
L 222.399 126.718076 
L 223.452 154.3615 
L 223.857 159.792057 
L 224.019 160.635745 
L 224.181 160.408435 
L 224.424 159.403279 
L 224.586 157.723308 
L 225.072 148.227782 
L 226.692 109.657902 
L 227.016 106.83337 
L 227.178 106.198487 
L 227.34 106.282415 
L 227.583 106.76291 
L 227.745 107.456238 
L 228.879 114.267672 
L 229.122 114.740925 
L 229.284 114.71292 
L 229.608 114.071046 
L 229.932 112.708454 
L 231.309 106.603581 
L 231.552 106.285044 
L 231.795 106.429874 
L 232.038 106.811831 
L 232.362 108.075434 
L 232.767 110.449878 
L 234.306 120.463368 
L 234.63 121.001004 
L 234.792 121.039826 
L 235.035 120.686233 
L 235.359 119.818782 
L 236.412 116.286705 
L 236.736 115.858309 
L 237.141 115.941772 
L 237.384 116.282368 
L 237.951 117.61197 
L 238.518 119.547726 
L 238.923 121.644041 
L 239.328 124.833417 
L 239.814 130.558905 
L 241.191 148.675011 
L 241.434 149.232779 
L 241.515 149.232522 
L 241.677 148.190769 
L 242.001 143.84306 
L 242.487 131.97777 
L 243.54 103.416847 
L 243.864 99.436291 
L 244.107 99.538375 
L 244.269 99.717706 
L 244.431 101.001943 
L 245.079 111.889052 
L 245.646 120.258372 
L 245.889 121.577155 
L 246.213 121.452931 
L 246.294 121.339712 
L 246.456 120.238582 
L 247.428 111.58523 
L 247.833 111.495889 
L 247.914 111.654016 
L 248.157 113.542446 
L 248.643 118.935512 
L 249.291 125.743972 
L 249.534 126.737952 
L 249.777 127.127547 
L 249.858 127.122289 
L 250.02 126.647798 
L 250.425 124.352726 
L 251.235 118.942295 
L 251.559 117.973476 
L 251.802 117.705754 
L 251.964 117.833786 
L 252.288 118.525209 
L 252.855 120.73015 
L 253.746 124.126483 
L 254.232 125.171164 
L 254.556 125.35834 
L 254.718 125.257898 
L 255.042 124.505017 
L 255.366 122.949126 
L 255.771 119.990319 
L 257.067 109.488101 
L 257.31 108.995374 
L 257.391 108.984494 
L 257.553 109.469072 
L 257.877 111.576084 
L 258.363 117.696102 
L 259.335 131.544206 
L 259.74 133.858127 
L 259.902 133.657571 
L 260.145 132.807373 
L 260.388 130.703166 
L 261.117 120.738983 
L 261.684 114.122392 
L 262.089 112.050441 
L 262.251 112.056652 
L 262.575 112.386905 
L 262.98 113.912064 
L 263.385 115.200418 
L 263.709 115.608749 
L 263.871 115.515263 
L 264.195 115.013319 
L 264.843 113.602208 
L 265.086 113.632928 
L 265.329 113.853962 
L 265.572 114.624635 
L 266.058 117.132852 
L 267.03 122.389001 
L 267.273 123.024175 
L 267.678 123.146023 
L 267.84 122.949165 
L 268.245 121.678721 
L 269.298 117.706978 
L 269.622 117.551833 
L 269.703 117.563193 
L 269.865 117.94754 
L 270.27 119.942037 
L 271.08 126.42525 
L 271.485 128.940302 
L 271.647 129.383072 
L 271.89 129.281676 
L 272.052 129.116513 
L 272.214 128.485711 
L 272.7 124.664697 
L 273.429 118.547522 
L 273.672 117.752271 
L 274.077 117.79144 
L 274.239 118.484759 
L 274.968 123.926369 
L 275.454 126.885723 
L 275.616 127.28578 
L 276.021 127.173803 
L 276.183 126.782129 
L 277.155 122.883575 
L 277.479 122.844743 
L 277.641 122.858296 
L 277.803 123.211253 
L 278.856 126.515867 
L 279.18 126.594801 
L 279.342 126.387632 
L 279.747 124.916378 
L 281.043 119.025554 
L 281.367 118.462824 
L 281.61 118.288226 
L 282.582 118.048852 
L 282.906 117.588421 
L 283.392 116.266667 
L 285.012 110.905254 
L 285.336 110.609437 
L 285.66 110.570917 
L 286.146 110.933043 
L 286.794 111.491405 
L 287.199 111.606072 
L 288.09 111.658665 
L 288.414 112.03386 
L 288.738 112.837919 
L 289.143 114.487726 
L 289.872 118.69508 
L 290.601 122.282016 
L 290.925 122.953303 
L 291.168 123.074292 
L 291.411 122.818759 
L 291.654 122.352338 
L 293.193 118.1824 
L 293.517 118.042879 
L 293.76 118.200978 
L 294.084 118.630844 
L 294.651 120.000257 
L 295.218 121.964956 
L 296.028 125.704378 
L 296.919 129.752963 
L 297.162 130.19423 
L 297.486 130.362589 
L 297.648 130.018277 
L 297.972 128.592569 
L 298.377 125.222497 
L 299.754 110.996559 
L 299.835 110.87098 
L 299.997 111.273236 
L 300.24 112.837379 
L 300.483 116.566957 
L 300.888 126.957616 
L 302.265 170.101572 
L 302.508 170.631083 
L 302.589 170.68538 
L 302.67 170.340566 
L 302.832 166.583036 
L 303.237 149.552365 
L 303.885 105.743732 
L 304.614 59.353691 
L 304.938 48.746961 
L 305.019 48.403944 
L 305.181 48.966121 
L 305.424 51.116695 
L 305.667 59.99693 
L 306.234 92.864243 
L 307.206 152.114807 
L 307.692 169.08659 
L 308.097 176.541832 
L 308.502 180.235458 
L 308.907 181.914173 
L 309.069 181.923666 
L 309.312 181.660051 
L 309.474 181.091996 
L 309.798 177.736445 
L 310.122 171.226936 
L 310.527 158.205019 
L 311.094 132.017948 
L 312.39 68.627068 
L 312.957 50.689671 
L 313.524 39.11396 
L 314.01 33.462572 
L 314.253 32.573813 
L 314.496 32.269091 
L 314.577 32.347246 
L 314.739 33.228252 
L 315.063 36.337865 
L 315.549 44.607645 
L 316.278 62.48759 
L 317.331 94.964047 
L 320.247 191.371964 
L 320.814 201.507438 
L 321.3 206.728086 
L 321.624 208.468418 
L 321.786 208.460801 
L 322.029 208.201954 
L 322.191 207.623309 
L 322.515 204.826888 
L 322.92 199.200764 
L 323.487 187.566924 
L 324.297 165.237719 
L 327.213 78.624952 
L 327.861 68.312353 
L 328.347 63.534691 
L 328.752 61.231427 
L 329.157 60.37329 
L 329.319 60.427618 
L 329.643 61.081487 
L 329.967 62.694617 
L 330.372 65.848164 
L 330.939 72.253094 
L 331.749 84.438782 
L 334.989 136.887999 
L 335.718 144.157269 
L 336.285 147.741264 
L 336.69 149.10846 
L 337.014 149.38846 
L 337.176 149.410615 
L 337.338 149.210458 
L 337.743 148.146101 
L 338.31 145.491737 
L 339.039 140.796171 
L 340.254 131.3308 
L 341.955 117.965741 
L 342.603 114.73591 
L 343.251 112.66852 
L 343.98 110.355815 
L 345.114 106.353462 
L 345.438 106.475787 
L 345.519 106.562614 
L 345.519 106.562614 
" clip-path="url(#p059cf22f7b)" style="fill: none; stroke: #ff0000; stroke-width: 0.75; stroke-linecap: square"/>
   </g>
   <g id="patch_4">
    <path d="M 54 256.32 
L 345.6 256.32 
" style="fill: none; stroke: #000000; stroke-width: 0.8; stroke-linejoin: miter; stroke-linecap: square"/>
   </g>
   <g id="text_15">
    <g id="patch_5">
     <path d="M 241.303194 260.3184 
L 349.5984 260.3184 
L 349.5984 243.9916 
L 241.303194 243.9916 
L 241.303194 260.3184 
z
" style="fill: none"/>
    </g>
    <!-- max|u|: 0.00015915 m -->
    <g transform="translate(245.301594 254.355942) scale(0.0833 -0.0833)">
     <defs>
      <path id="DejaVuSansMono-61" d="M 2194 1759 
L 2003 1759 
Q 1500 1759 1245 1582 
Q 991 1406 991 1056 
Q 991 741 1181 566 
Q 1372 391 1709 391 
Q 2184 391 2456 720 
Q 2728 1050 2731 1631 
L 2731 1759 
L 2194 1759 
z
M 3309 1997 
L 3309 0 
L 2731 0 
L 2731 519 
Q 2547 206 2267 57 
Q 1988 -91 1588 -91 
Q 1053 -91 734 211 
Q 416 513 416 1019 
Q 416 1603 808 1906 
Q 1200 2209 1959 2209 
L 2731 2209 
L 2731 2300 
Q 2728 2719 2518 2908 
Q 2309 3097 1850 3097 
Q 1556 3097 1256 3012 
Q 956 2928 672 2766 
L 672 3341 
Q 991 3463 1283 3523 
Q 1575 3584 1850 3584 
Q 2284 3584 2592 3456 
Q 2900 3328 3091 3072 
Q 3209 2916 3259 2686 
Q 3309 2456 3309 1997 
z
" transform="scale(0.015625)"/>
      <path id="DejaVuSansMono-78" d="M 3494 3500 
L 2241 1825 
L 3616 0 
L 2950 0 
L 1925 1403 
L 903 0 
L 238 0 
L 1613 1825 
L 359 3500 
L 997 3500 
L 1925 2234 
L 2847 3500 
L 3494 3500 
z
" transform="scale(0.015625)"/>
      <path id="DejaVuSansMono-7c" d="M 2194 4891 
L 2194 -1509 
L 1656 -1509 
L 1656 4891 
L 2194 4891 
z
" transform="scale(0.015625)"/>
      <path id="DejaVuSansMono-75" d="M 609 1325 
L 609 3494 
L 1184 3494 
L 1184 1325 
Q 1184 853 1351 631 
Q 1519 409 1869 409 
Q 2275 409 2490 695 
Q 2706 981 2706 1516 
L 2706 3494 
L 3284 3494 
L 3284 0 
L 2706 0 
L 2706 525 
Q 2553 222 2289 65 
Q 2025 -91 1672 -91 
Q 1134 -91 871 261 
Q 609 613 609 1325 
z
" transform="scale(0.015625)"/>
     </defs>
     <use xlink:href="#DejaVuSansMono-6d"/>
     <use xlink:href="#DejaVuSansMono-61" x="60.205078"/>
     <use xlink:href="#DejaVuSansMono-78" x="120.410156"/>
     <use xlink:href="#DejaVuSansMono-7c" x="180.615234"/>
     <use xlink:href="#DejaVuSansMono-75" x="240.820312"/>
     <use xlink:href="#DejaVuSansMono-7c" x="301.025391"/>
     <use xlink:href="#DejaVuSansMono-3a" x="361.230469"/>
     <use xlink:href="#DejaVuSansMono-20" x="421.435547"/>
     <use xlink:href="#DejaVuSansMono-30" x="481.640625"/>
     <use xlink:href="#DejaVuSansMono-2e" x="541.845703"/>
     <use xlink:href="#DejaVuSansMono-30" x="602.050781"/>
     <use xlink:href="#DejaVuSansMono-30" x="662.255859"/>
     <use xlink:href="#DejaVuSansMono-30" x="722.460938"/>
     <use xlink:href="#DejaVuSansMono-31" x="782.666016"/>
     <use xlink:href="#DejaVuSansMono-35" x="842.871094"/>
     <use xlink:href="#DejaVuSansMono-39" x="903.076172"/>
     <use xlink:href="#DejaVuSansMono-31" x="963.28125"/>
     <use xlink:href="#DejaVuSansMono-35" x="1023.486328"/>
     <use xlink:href="#DejaVuSansMono-20" x="1083.691406"/>
     <use xlink:href="#DejaVuSansMono-6d" x="1143.896484"/>
    </g>
   </g>
   <g id="text_16">
    <g id="patch_6">
     <path d="M 50 35.278125 
L 64.020313 35.278125 
L 64.020313 17.6 
L 50 17.6 
L 50 35.278125 
z
" style="fill: none"/>
    </g>
    <!-- Z -->
    <g transform="translate(54 29.198437) scale(0.1 -0.1)">
     <defs>
      <path id="DejaVuSansMono-Bold-5a" d="M 428 4666 
L 3584 4666 
L 3584 3903 
L 1422 813 
L 3628 813 
L 3628 0 
L 359 0 
L 359 763 
L 2456 3853 
L 428 3853 
L 428 4666 
z
" transform="scale(0.015625)"/>
     </defs>
     <use xlink:href="#DejaVuSansMono-Bold-5a"/>
    </g>
   </g>
   <g id="text_17">
    <!-- Wed Sep 16 22:55:22 2015 Loc: -31.13dg, -72.09dg, 17.4km - BP: [40s, 300s] -->
    <g transform="translate(54 15.6) scale(0.0833 -0.0833)">
     <defs>
      <path id="DejaVuSansMono-57" d="M 0 4666 
L 616 4666 
L 1063 878 
L 1594 3384 
L 2253 3384 
L 2791 872 
L 3238 4666 
L 3853 4666 
L 3156 0 
L 2559 0 
L 1925 2772 
L 1294 0 
L 697 0 
L 0 4666 
z
" transform="scale(0.015625)"/>
      <path id="DejaVuSansMono-64" d="M 2681 3053 
L 2681 4863 
L 3256 4863 
L 3256 0 
L 2681 0 
L 2681 441 
Q 2538 181 2298 45 
Q 2059 -91 1747 -91 
Q 1113 -91 748 401 
Q 384 894 384 1759 
Q 384 2613 750 3098 
Q 1116 3584 1747 3584 
Q 2063 3584 2303 3448 
Q 2544 3313 2681 3053 
z
M 991 1747 
Q 991 1078 1203 737 
Q 1416 397 1831 397 
Q 2247 397 2464 740 
Q 2681 1084 2681 1747 
Q 2681 2413 2464 2755 
Q 2247 3097 1831 3097 
Q 1416 3097 1203 2756 
Q 991 2416 991 1747 
z
" transform="scale(0.015625)"/>
      <path id="DejaVuSansMono-4c" d="M 672 4666 
L 1306 4666 
L 1306 531 
L 3559 531 
L 3559 0 
L 672 0 
L 672 4666 
z
" transform="scale(0.015625)"/>
      <path id="DejaVuSansMono-6f" d="M 1925 3097 
Q 1488 3097 1263 2756 
Q 1038 2416 1038 1747 
Q 1038 1081 1263 739 
Q 1488 397 1925 397 
Q 2366 397 2591 739 
Q 2816 1081 2816 1747 
Q 2816 2416 2591 2756 
Q 2366 3097 1925 3097 
z
M 1925 3584 
Q 2653 3584 3039 3112 
Q 3425 2641 3425 1747 
Q 3425 850 3040 379 
Q 2656 -91 1925 -91 
Q 1197 -91 812 379 
Q 428 850 428 1747 
Q 428 2641 812 3112 
Q 1197 3584 1925 3584 
z
" transform="scale(0.015625)"/>
      <path id="DejaVuSansMono-63" d="M 3316 178 
Q 3084 44 2839 -23 
Q 2594 -91 2338 -91 
Q 1525 -91 1067 396 
Q 609 884 609 1747 
Q 609 2609 1067 3096 
Q 1525 3584 2338 3584 
Q 2591 3584 2831 3518 
Q 3072 3453 3316 3316 
L 3316 2713 
Q 3088 2916 2858 3006 
Q 2628 3097 2338 3097 
Q 1797 3097 1506 2747 
Q 1216 2397 1216 1747 
Q 1216 1100 1508 748 
Q 1800 397 2338 397 
Q 2638 397 2875 489 
Q 3113 581 3316 775 
L 3316 178 
z
" transform="scale(0.015625)"/>
      <path id="DejaVuSansMono-67" d="M 2681 1778 
Q 2681 2425 2470 2761 
Q 2259 3097 1856 3097 
Q 1434 3097 1212 2761 
Q 991 2425 991 1778 
Q 991 1131 1214 792 
Q 1438 453 1863 453 
Q 2259 453 2470 793 
Q 2681 1134 2681 1778 
z
M 3256 225 
Q 3256 -563 2884 -969 
Q 2513 -1375 1791 -1375 
Q 1553 -1375 1293 -1331 
Q 1034 -1288 775 -1203 
L 775 -634 
Q 1081 -778 1331 -847 
Q 1581 -916 1791 -916 
Q 2256 -916 2468 -662 
Q 2681 -409 2681 141 
L 2681 166 
L 2681 556 
Q 2544 263 2306 119 
Q 2069 -25 1728 -25 
Q 1116 -25 750 465 
Q 384 956 384 1778 
Q 384 2603 750 3093 
Q 1116 3584 1728 3584 
Q 2066 3584 2300 3450 
Q 2534 3316 2681 3034 
L 2681 3488 
L 3256 3488 
L 3256 225 
z
" transform="scale(0.015625)"/>
      <path id="DejaVuSansMono-2c" d="M 1569 947 
L 2356 947 
L 2356 300 
L 1741 -897 
L 1259 -897 
L 1569 300 
L 1569 947 
z
" transform="scale(0.015625)"/>
      <path id="DejaVuSansMono-6b" d="M 738 4863 
L 1331 4863 
L 1331 2047 
L 2841 3500 
L 3541 3500 
L 2163 2181 
L 3756 0 
L 3053 0 
L 1759 1806 
L 1331 1403 
L 1331 0 
L 738 0 
L 738 4863 
z
" transform="scale(0.015625)"/>
      <path id="DejaVuSansMono-50" d="M 1247 4147 
L 1247 2394 
L 1978 2394 
Q 2416 2394 2661 2625 
Q 2906 2856 2906 3272 
Q 2906 3688 2662 3917 
Q 2419 4147 1978 4147 
L 1247 4147 
z
M 616 4666 
L 1978 4666 
Q 2759 4666 3162 4311 
Q 3566 3956 3566 3272 
Q 3566 2581 3164 2228 
Q 2763 1875 1978 1875 
L 1247 1875 
L 1247 0 
L 616 0 
L 616 4666 
z
" transform="scale(0.015625)"/>
      <path id="DejaVuSansMono-5b" d="M 1447 4863 
L 2772 4863 
L 2772 4416 
L 2022 4416 
L 2022 -397 
L 2772 -397 
L 2772 -844 
L 1447 -844 
L 1447 4863 
z
" transform="scale(0.015625)"/>
      <path id="DejaVuSansMono-73" d="M 3041 3378 
L 3041 2816 
Q 2794 2959 2544 3031 
Q 2294 3103 2034 3103 
Q 1644 3103 1451 2976 
Q 1259 2850 1259 2591 
Q 1259 2356 1403 2240 
Q 1547 2125 2119 2016 
L 2350 1972 
Q 2778 1891 2998 1647 
Q 3219 1403 3219 1013 
Q 3219 494 2850 201 
Q 2481 -91 1825 -91 
Q 1566 -91 1281 -36 
Q 997 19 666 128 
L 666 722 
Q 988 556 1281 473 
Q 1575 391 1838 391 
Q 2219 391 2428 545 
Q 2638 700 2638 978 
Q 2638 1378 1872 1531 
L 1847 1538 
L 1631 1581 
Q 1134 1678 906 1908 
Q 678 2138 678 2534 
Q 678 3038 1018 3311 
Q 1359 3584 1991 3584 
Q 2272 3584 2531 3532 
Q 2791 3481 3041 3378 
z
" transform="scale(0.015625)"/>
      <path id="DejaVuSansMono-5d" d="M 2406 4863 
L 2406 -844 
L 1081 -844 
L 1081 -397 
L 1831 -397 
L 1831 4416 
L 1081 4416 
L 1081 4863 
L 2406 4863 
z
" transform="scale(0.015625)"/>
     </defs>
     <use xlink:href="#DejaVuSansMono-57"/>
     <use xlink:href="#DejaVuSansMono-65" x="60.205078"/>
     <use xlink:href="#DejaVuSansMono-64" x="120.410156"/>
     <use xlink:href="#DejaVuSansMono-20" x="180.615234"/>
     <use xlink:href="#DejaVuSansMono-53" x="240.820312"/>
     <use xlink:href="#DejaVuSansMono-65" x="301.025391"/>
     <use xlink:href="#DejaVuSansMono-70" x="361.230469"/>
     <use xlink:href="#DejaVuSansMono-20" x="421.435547"/>
     <use xlink:href="#DejaVuSansMono-31" x="481.640625"/>
     <use xlink:href="#DejaVuSansMono-36" x="541.845703"/>
     <use xlink:href="#DejaVuSansMono-20" x="602.050781"/>
     <use xlink:href="#DejaVuSansMono-32" x="662.255859"/>
     <use xlink:href="#DejaVuSansMono-32" x="722.460938"/>
     <use xlink:href="#DejaVuSansMono-3a" x="782.666016"/>
     <use xlink:href="#DejaVuSansMono-35" x="842.871094"/>
     <use xlink:href="#DejaVuSansMono-35" x="903.076172"/>
     <use xlink:href="#DejaVuSansMono-3a" x="963.28125"/>
     <use xlink:href="#DejaVuSansMono-32" x="1023.486328"/>
     <use xlink:href="#DejaVuSansMono-32" x="1083.691406"/>
     <use xlink:href="#DejaVuSansMono-20" x="1143.896484"/>
     <use xlink:href="#DejaVuSansMono-32" x="1204.101562"/>
     <use xlink:href="#DejaVuSansMono-30" x="1264.306641"/>
     <use xlink:href="#DejaVuSansMono-31" x="1324.511719"/>
     <use xlink:href="#DejaVuSansMono-35" x="1384.716797"/>
     <use xlink:href="#DejaVuSansMono-20" x="1444.921875"/>
     <use xlink:href="#DejaVuSansMono-4c" x="1505.126953"/>
     <use xlink:href="#DejaVuSansMono-6f" x="1565.332031"/>
     <use xlink:href="#DejaVuSansMono-63" x="1625.537109"/>
     <use xlink:href="#DejaVuSansMono-3a" x="1685.742188"/>
     <use xlink:href="#DejaVuSansMono-20" x="1745.947266"/>
     <use xlink:href="#DejaVuSansMono-2d" x="1806.152344"/>
     <use xlink:href="#DejaVuSansMono-33" x="1866.357422"/>
     <use xlink:href="#DejaVuSansMono-31" x="1926.5625"/>
     <use xlink:href="#DejaVuSansMono-2e" x="1986.767578"/>
     <use xlink:href="#DejaVuSansMono-31" x="2046.972656"/>
     <use xlink:href="#DejaVuSansMono-33" x="2107.177734"/>
     <use xlink:href="#DejaVuSansMono-64" x="2167.382812"/>
     <use xlink:href="#DejaVuSansMono-67" x="2227.587891"/>
     <use xlink:href="#DejaVuSansMono-2c" x="2287.792969"/>
     <use xlink:href="#DejaVuSansMono-20" x="2347.998047"/>
     <use xlink:href="#DejaVuSansMono-2d" x="2408.203125"/>
     <use xlink:href="#DejaVuSansMono-37" x="2468.408203"/>
     <use xlink:href="#DejaVuSansMono-32" x="2528.613281"/>
     <use xlink:href="#DejaVuSansMono-2e" x="2588.818359"/>
     <use xlink:href="#DejaVuSansMono-30" x="2649.023438"/>
     <use xlink:href="#DejaVuSansMono-39" x="2709.228516"/>
     <use xlink:href="#DejaVuSansMono-64" x="2769.433594"/>
     <use xlink:href="#DejaVuSansMono-67" x="2829.638672"/>
     <use xlink:href="#DejaVuSansMono-2c" x="2889.84375"/>
     <use xlink:href="#DejaVuSansMono-20" x="2950.048828"/>
     <use xlink:href="#DejaVuSansMono-31" x="3010.253906"/>
     <use xlink:href="#DejaVuSansMono-37" x="3070.458984"/>
     <use xlink:href="#DejaVuSansMono-2e" x="3130.664062"/>
     <use xlink:href="#DejaVuSansMono-34" x="3190.869141"/>
     <use xlink:href="#DejaVuSansMono-6b" x="3251.074219"/>
     <use xlink:href="#DejaVuSansMono-6d" x="3311.279297"/>
     <use xlink:href="#DejaVuSansMono-20" x="3371.484375"/>
     <use xlink:href="#DejaVuSansMono-2d" x="3431.689453"/>
     <use xlink:href="#DejaVuSansMono-20" x="3491.894531"/>
     <use xlink:href="#DejaVuSansMono-42" x="3552.099609"/>
     <use xlink:href="#DejaVuSansMono-50" x="3612.304688"/>
     <use xlink:href="#DejaVuSansMono-3a" x="3672.509766"/>
     <use xlink:href="#DejaVuSansMono-20" x="3732.714844"/>
     <use xlink:href="#DejaVuSansMono-5b" x="3792.919922"/>
     <use xlink:href="#DejaVuSansMono-34" x="3853.125"/>
     <use xlink:href="#DejaVuSansMono-30" x="3913.330078"/>
     <use xlink:href="#DejaVuSansMono-73" x="3973.535156"/>
     <use xlink:href="#DejaVuSansMono-2c" x="4033.740234"/>
     <use xlink:href="#DejaVuSansMono-20" x="4093.945312"/>
     <use xlink:href="#DejaVuSansMono-33" x="4154.150391"/>
     <use xlink:href="#DejaVuSansMono-30" x="4214.355469"/>
     <use xlink:href="#DejaVuSansMono-30" x="4274.560547"/>
     <use xlink:href="#DejaVuSansMono-73" x="4334.765625"/>
     <use xlink:href="#DejaVuSansMono-5d" x="4394.970703"/>
    </g>
   </g>
  </g>
 </g>
 <defs>
  <clipPath id="p059cf22f7b">
   <rect x="54" y="21.6" width="291.6" height="234.72"/>
  </clipPath>
 </defs>
</svg>
