<?xml version="1.0" encoding="utf-8" standalone="no"?>
<!DOCTYPE svg PUBLIC "-//W3C//DTD SVG 1.1//EN"
  "http://www.w3.org/Graphics/SVG/1.1/DTD/svg11.dtd">
<svg xmlns:xlink="http://www.w3.org/1999/xlink" width="504pt" height="288pt" viewBox="0 0 504 288" xmlns="http://www.w3.org/2000/svg" version="1.1">
 <metadata>
  <rdf:RDF xmlns:dc="http://purl.org/dc/elements/1.1/" xmlns:cc="http://creativecommons.org/ns#" xmlns:rdf="http://www.w3.org/1999/02/22-rdf-syntax-ns#">
   <cc:Work>
    <dc:type rdf:resource="http://purl.org/dc/dcmitype/StillImage"/>
    <dc:date>2023-07-18T15:56:57.830381</dc:date>
    <dc:format>image/svg+xml</dc:format>
    <dc:creator>
     <cc:Agent>
      <dc:title>Matplotlib v3.6.2, https://matplotlib.org/</dc:title>
     </cc:Agent>
    </dc:creator>
   </cc:Work>
  </rdf:RDF>
 </metadata>
 <defs>
  <style type="text/css">*{stroke-linejoin: round; stroke-linecap: butt}</style>
 </defs>
 <g id="figure_1">
  <g id="patch_1">
   <path d="M 0 288 
L 504 288 
L 504 0 
L 0 0 
z
" style="fill: #ffffff"/>
  </g>
  <g id="axes_1">
   <g id="patch_2">
    <path d="M 50.4 105.6 
L 453.6 105.6 
L 453.6 43.2 
L 50.4 43.2 
z
" style="fill: #ffffff"/>
   </g>
   <g id="matplotlib.axis_1">
    <g id="xtick_1"/>
    <g id="xtick_2"/>
    <g id="xtick_3"/>
    <g id="xtick_4"/>
    <g id="xtick_5"/>
    <g id="xtick_6"/>
    <g id="text_1">
     <!-- 2015-Sep-16 -->
     <g transform="translate(387.376563 116.251563) scale(0.1 -0.1)">
      <defs>
       <path id="DejaVuSansMono-32" d="M 1166 531 
L 3309 531 
L 3309 0 
L 475 0 
L 475 531 
Q 1059 1147 1496 1619 
Q 1934 2091 2100 2284 
Q 2413 2666 2522 2902 
Q 2631 3138 2631 3384 
Q 2631 3775 2401 3997 
Q 2172 4219 1772 4219 
Q 1488 4219 1175 4116 
Q 863 4013 513 3803 
L 513 4441 
Q 834 4594 1145 4672 
Q 1456 4750 1759 4750 
Q 2444 4750 2861 4386 
Q 3278 4022 3278 3431 
Q 3278 3131 3139 2831 
Q 3000 2531 2688 2169 
Q 2513 1966 2180 1606 
Q 1847 1247 1166 531 
z
" transform="scale(0.015625)"/>
       <path id="DejaVuSansMono-30" d="M 1509 2344 
Q 1509 2516 1629 2641 
Q 1750 2766 1919 2766 
Q 2094 2766 2219 2641 
Q 2344 2516 2344 2344 
Q 2344 2169 2220 2047 
Q 2097 1925 1919 1925 
Q 1744 1925 1626 2044 
Q 1509 2163 1509 2344 
z
M 1925 4250 
Q 1484 4250 1267 3775 
Q 1050 3300 1050 2328 
Q 1050 1359 1267 884 
Q 1484 409 1925 409 
Q 2369 409 2586 884 
Q 2803 1359 2803 2328 
Q 2803 3300 2586 3775 
Q 2369 4250 1925 4250 
z
M 1925 4750 
Q 2672 4750 3055 4137 
Q 3438 3525 3438 2328 
Q 3438 1134 3055 521 
Q 2672 -91 1925 -91 
Q 1178 -91 797 521 
Q 416 1134 416 2328 
Q 416 3525 797 4137 
Q 1178 4750 1925 4750 
z
" transform="scale(0.015625)"/>
       <path id="DejaVuSansMono-31" d="M 844 531 
L 1825 531 
L 1825 4097 
L 769 3859 
L 769 4434 
L 1819 4666 
L 2450 4666 
L 2450 531 
L 3419 531 
L 3419 0 
L 844 0 
L 844 531 
z
" transform="scale(0.015625)"/>
       <path id="DejaVuSansMono-35" d="M 647 4666 
L 3009 4666 
L 3009 4134 
L 1222 4134 
L 1222 2988 
Q 1356 3038 1492 3061 
Q 1628 3084 1766 3084 
Q 2491 3084 2916 2656 
Q 3341 2228 3341 1497 
Q 3341 759 2895 334 
Q 2450 -91 1678 -91 
Q 1306 -91 998 -41 
Q 691 9 447 109 
L 447 750 
Q 734 594 1025 517 
Q 1316 441 1619 441 
Q 2141 441 2423 716 
Q 2706 991 2706 1497 
Q 2706 1997 2414 2275 
Q 2122 2553 1600 2553 
Q 1347 2553 1106 2495 
Q 866 2438 647 2322 
L 647 4666 
z
" transform="scale(0.015625)"/>
       <path id="DejaVuSansMono-2d" d="M 1113 2009 
L 2741 2009 
L 2741 1497 
L 1113 1497 
L 1113 2009 
z
" transform="scale(0.015625)"/>
       <path id="DejaVuSansMono-53" d="M 3163 4506 
L 3163 3866 
Q 2875 4050 2586 4144 
Q 2297 4238 2003 4238 
Q 1556 4238 1297 4030 
Q 1038 3822 1038 3469 
Q 1038 3159 1208 2996 
Q 1378 2834 1844 2725 
L 2175 2650 
Q 2831 2497 3131 2169 
Q 3431 1841 3431 1275 
Q 3431 609 3018 259 
Q 2606 -91 1819 -91 
Q 1491 -91 1159 -20 
Q 828 50 494 191 
L 494 863 
Q 853 634 1173 528 
Q 1494 422 1819 422 
Q 2297 422 2562 636 
Q 2828 850 2828 1234 
Q 2828 1584 2645 1768 
Q 2463 1953 2009 2053 
L 1672 2131 
Q 1022 2278 728 2575 
Q 434 2872 434 3372 
Q 434 3997 854 4373 
Q 1275 4750 1972 4750 
Q 2241 4750 2537 4689 
Q 2834 4628 3163 4506 
z
" transform="scale(0.015625)"/>
       <path id="DejaVuSansMono-65" d="M 3475 1894 
L 3475 1613 
L 984 1613 
L 984 1594 
Q 984 1022 1282 709 
Q 1581 397 2125 397 
Q 2400 397 2700 484 
Q 3000 572 3341 750 
L 3341 178 
Q 3013 44 2708 -23 
Q 2403 -91 2119 -91 
Q 1303 -91 843 398 
Q 384 888 384 1747 
Q 384 2584 834 3084 
Q 1284 3584 2034 3584 
Q 2703 3584 3089 3131 
Q 3475 2678 3475 1894 
z
M 2900 2063 
Q 2888 2569 2661 2833 
Q 2434 3097 2009 3097 
Q 1594 3097 1325 2822 
Q 1056 2547 1006 2059 
L 2900 2063 
z
" transform="scale(0.015625)"/>
       <path id="DejaVuSansMono-70" d="M 1172 441 
L 1172 -1331 
L 594 -1331 
L 594 3500 
L 1172 3500 
L 1172 3053 
Q 1316 3313 1555 3448 
Q 1794 3584 2106 3584 
Q 2741 3584 3102 3093 
Q 3463 2603 3463 1734 
Q 3463 881 3100 395 
Q 2738 -91 2106 -91 
Q 1788 -91 1548 45 
Q 1309 181 1172 441 
z
M 2859 1747 
Q 2859 2416 2648 2756 
Q 2438 3097 2022 3097 
Q 1603 3097 1387 2755 
Q 1172 2413 1172 1747 
Q 1172 1084 1387 740 
Q 1603 397 2022 397 
Q 2438 397 2648 737 
Q 2859 1078 2859 1747 
z
" transform="scale(0.015625)"/>
       <path id="DejaVuSansMono-36" d="M 3097 4563 
L 3097 3981 
Q 2900 4097 2678 4158 
Q 2456 4219 2216 4219 
Q 1616 4219 1306 3767 
Q 997 3316 997 2438 
Q 1147 2750 1412 2917 
Q 1678 3084 2022 3084 
Q 2697 3084 3067 2670 
Q 3438 2256 3438 1497 
Q 3438 741 3056 325 
Q 2675 -91 1984 -91 
Q 1172 -91 794 492 
Q 416 1075 416 2328 
Q 416 3509 870 4129 
Q 1325 4750 2188 4750 
Q 2419 4750 2650 4701 
Q 2881 4653 3097 4563 
z
M 1972 2591 
Q 1569 2591 1337 2300 
Q 1106 2009 1106 1497 
Q 1106 984 1337 693 
Q 1569 403 1972 403 
Q 2391 403 2603 679 
Q 2816 956 2816 1497 
Q 2816 2041 2603 2316 
Q 2391 2591 1972 2591 
z
" transform="scale(0.015625)"/>
      </defs>
      <use xlink:href="#DejaVuSansMono-32"/>
      <use xlink:href="#DejaVuSansMono-30" x="60.205078"/>
      <use xlink:href="#DejaVuSansMono-31" x="120.410156"/>
      <use xlink:href="#DejaVuSansMono-35" x="180.615234"/>
      <use xlink:href="#DejaVuSansMono-2d" x="240.820312"/>
      <use xlink:href="#DejaVuSansMono-53" x="301.025391"/>
      <use xlink:href="#DejaVuSansMono-65" x="361.230469"/>
      <use xlink:href="#DejaVuSansMono-70" x="421.435547"/>
      <use xlink:href="#DejaVuSansMono-2d" x="481.640625"/>
      <use xlink:href="#DejaVuSansMono-31" x="541.845703"/>
      <use xlink:href="#DejaVuSansMono-36" x="602.050781"/>
     </g>
    </g>
   </g>
   <g id="matplotlib.axis_2">
    <g id="ytick_1"/>
    <g id="ytick_2"/>
    <g id="ytick_3"/>
   </g>
   <g id="line2d_1">
    <path d="M 50.4 74.397465 
L 84.784 74.40139 
L 122.304 74.387366 
L 152.88 74.455828 
L 155.568 74.4044 
L 160.832 74.401608 
L 174.832 74.444245 
L 177.856 74.432175 
L 180.88 74.21611 
L 182.56 74.507089 
L 183.904 74.629679 
L 185.472 74.500394 
L 187.376 74.396586 
L 194.432 74.306223 
L 197.232 73.933796 
L 198.464 74.125336 
L 200.704 74.515268 
L 206.304 74.803649 
L 212.8 74.385176 
L 215.152 74.207938 
L 217.056 74.015108 
L 220.304 73.534475 
L 221.984 73.558173 
L 222.88 73.808672 
L 223.776 74.308741 
L 225.456 75.321996 
L 226.128 75.473903 
L 226.912 75.404096 
L 229.152 74.966185 
L 230.272 75.149871 
L 231.28 75.26227 
L 231.952 75.110521 
L 232.736 74.658615 
L 234.416 73.520353 
L 234.976 73.423428 
L 235.536 73.551285 
L 236.208 73.952718 
L 237.776 75.016738 
L 238.448 75.170525 
L 239.12 75.104298 
L 240.016 74.761373 
L 240.912 74.177816 
L 243.04 72.581316 
L 243.488 72.548876 
L 243.936 72.714809 
L 244.496 73.180383 
L 246.624 75.335672 
L 247.072 75.374993 
L 247.632 75.153296 
L 249.76 73.910469 
L 250.432 73.974729 
L 251.888 74.460671 
L 253.568 74.868604 
L 256.368 75.393899 
L 257.152 75.137309 
L 259.056 74.330189 
L 259.728 74.330251 
L 260.512 74.557748 
L 262.416 75.260046 
L 263.088 75.196595 
L 263.76 74.874565 
L 264.544 74.218402 
L 266.448 72.460921 
L 267.12 72.213432 
L 267.792 72.247565 
L 268.576 72.541714 
L 273.616 75.087364 
L 274.96 76.204622 
L 276.192 77.548022 
L 277.2 78.583411 
L 277.76 78.853416 
L 278.208 78.787905 
L 278.656 78.418082 
L 279.104 77.723177 
L 279.664 76.421623 
L 280.56 73.614491 
L 281.904 69.358924 
L 282.464 68.188364 
L 282.912 67.666143 
L 283.248 67.545333 
L 283.584 67.66399 
L 283.92 68.023466 
L 284.368 68.857787 
L 285.04 70.742199 
L 287.168 77.367336 
L 287.616 78.0334 
L 288.064 78.310683 
L 288.4 78.277258 
L 288.848 77.969203 
L 289.52 77.159226 
L 290.528 75.973219 
L 291.088 75.627295 
L 291.76 75.510421 
L 293.44 75.427942 
L 294.448 75.041781 
L 296.016 74.444347 
L 297.136 74.299701 
L 299.6 74.110055 
L 303.072 73.272108 
L 303.856 72.84182 
L 304.752 72.077494 
L 306.208 70.784287 
L 306.768 70.602088 
L 307.216 70.686729 
L 307.664 70.999038 
L 308.224 71.701944 
L 309.008 73.150234 
L 311.584 78.405641 
L 312.144 79.033403 
L 312.592 79.28321 
L 313.04 79.288577 
L 313.488 79.056426 
L 314.048 78.482414 
L 316.176 75.855909 
L 316.624 75.733155 
L 317.072 75.819221 
L 317.856 76.262765 
L 318.528 76.584139 
L 318.976 76.600229 
L 319.424 76.398691 
L 319.984 75.842335 
L 320.768 74.653548 
L 322.448 71.978506 
L 323.232 71.193352 
L 323.904 70.818917 
L 324.688 70.652544 
L 327.488 70.371154 
L 328.384 70.21428 
L 328.944 70.325125 
L 329.504 70.712385 
L 330.064 71.426347 
L 330.736 72.694498 
L 333.2 77.9128 
L 333.648 78.252718 
L 334.096 78.29356 
L 334.544 78.07185 
L 335.216 77.398989 
L 337.568 74.691633 
L 338.464 74.048475 
L 339.024 73.902505 
L 339.472 74.001164 
L 339.92 74.321868 
L 340.48 75.021581 
L 341.376 76.610711 
L 344.96 83.373228 
L 345.632 84.204468 
L 345.968 84.379017 
L 346.304 84.325694 
L 346.64 84.003773 
L 346.976 83.376032 
L 347.424 82.02401 
L 347.984 79.493432 
L 348.656 75.351525 
L 349.776 66.762877 
L 351.344 54.934212 
L 352.128 50.718522 
L 352.688 48.92013 
L 353.024 48.444719 
L 353.248 48.41613 
L 353.472 48.626093 
L 353.808 49.426211 
L 354.256 51.435504 
L 354.816 55.468654 
L 355.488 62.310507 
L 356.608 76.622153 
L 357.728 90.248978 
L 358.4 96.095464 
L 358.848 98.586729 
L 359.184 99.653047 
L 359.52 100.03392 
L 359.744 99.923859 
L 359.968 99.54368 
L 360.304 98.516233 
L 360.864 95.826537 
L 361.76 90.094906 
L 363.552 78.646448 
L 364.672 72.812753 
L 365.456 69.756552 
L 366.016 68.372615 
L 366.464 67.812154 
L 366.8 67.695904 
L 367.136 67.79684 
L 367.696 68.291355 
L 368.816 69.37209 
L 369.264 69.514179 
L 369.824 69.417781 
L 370.944 69.058367 
L 371.392 69.200337 
L 371.84 69.617106 
L 372.512 70.653501 
L 373.408 72.034806 
L 373.856 72.331088 
L 374.192 72.279638 
L 374.528 71.988826 
L 374.976 71.284532 
L 376.32 68.813854 
L 376.656 68.627068 
L 376.88 68.685132 
L 377.216 69.072819 
L 377.664 70.149643 
L 378.224 72.220464 
L 379.568 77.477593 
L 380.016 78.336037 
L 380.352 78.531782 
L 380.688 78.372547 
L 381.136 77.739616 
L 382.256 75.816882 
L 382.592 75.618959 
L 382.928 75.718798 
L 383.264 76.105558 
L 383.824 77.220996 
L 384.72 79.101378 
L 385.168 79.523398 
L 385.504 79.480249 
L 385.84 79.130118 
L 386.288 78.266464 
L 388.192 73.921685 
L 388.64 73.507417 
L 389.088 73.383986 
L 389.536 73.50394 
L 390.096 73.916633 
L 392.112 75.776558 
L 392.56 75.806427 
L 393.12 75.600278 
L 394.24 75.119808 
L 394.688 75.182712 
L 395.36 75.57102 
L 396.144 75.992732 
L 396.592 75.947557 
L 397.04 75.611174 
L 397.6 74.848008 
L 398.944 72.875378 
L 399.392 72.594511 
L 399.84 72.597172 
L 400.288 72.861754 
L 400.96 73.582953 
L 401.744 74.392007 
L 402.192 74.549419 
L 402.528 74.439376 
L 402.976 73.964383 
L 403.536 72.937919 
L 404.88 70.247047 
L 405.328 69.777518 
L 405.776 69.578431 
L 406.336 69.579624 
L 407.568 69.655571 
L 408.8 69.59197 
L 409.36 69.847762 
L 409.92 70.413053 
L 410.592 71.497522 
L 411.376 73.277243 
L 412.16 75.623855 
L 413.952 81.427099 
L 414.4 82.165147 
L 414.736 82.393404 
L 415.072 82.358258 
L 415.52 82.005999 
L 416.64 80.926178 
L 416.976 80.877209 
L 417.424 81.071804 
L 418.544 81.772661 
L 418.88 81.619478 
L 419.216 81.164104 
L 419.664 80.094427 
L 419.888 79.398664 
L 419.888 79.398664 
" clip-path="url(#p08a6cc575e)" style="fill: none; stroke: #000000; stroke-width: 0.25; stroke-linecap: square"/>
   </g>
   <g id="line2d_2">
    <path d="M 50.4 74.4 
L 419.888 74.4 
" clip-path="url(#p08a6cc575e)" style="fill: none; stroke-dasharray: 0.925,0.4; stroke-dashoffset: 0; stroke: #000000; stroke-width: 0.25"/>
   </g>
   <g id="line2d_3">
    <path d="M 50.4 74.399839 
L 149.072 74.2964 
L 151.088 74.228076 
L 155.792 74.423642 
L 158.256 74.399439 
L 163.072 74.451607 
L 173.824 74.385127 
L 178.976 74.270581 
L 180.88 73.910798 
L 181.776 73.999064 
L 184.688 74.611925 
L 190.176 74.503765 
L 192.304 74.666511 
L 193.984 74.764751 
L 195.104 74.572345 
L 197.568 73.963675 
L 198.8 74.077008 
L 201.6 74.534898 
L 206.976 74.668606 
L 208.88 74.482494 
L 212.576 74.071723 
L 219.52 73.784961 
L 220.304 73.452944 
L 221.76 72.691252 
L 222.432 72.724492 
L 222.992 73.179557 
L 223.664 74.173496 
L 225.232 76.801243 
L 225.568 77.076 
L 226.128 77.171939 
L 226.464 77.014578 
L 227.136 76.37357 
L 228.256 75.253316 
L 228.928 75.115488 
L 229.376 75.322524 
L 229.824 75.696741 
L 230.944 76.702622 
L 231.504 76.721166 
L 231.728 76.6802 
L 232.176 76.236529 
L 232.736 75.365003 
L 234.192 72.88503 
L 234.64 72.54915 
L 234.976 72.476704 
L 235.536 72.662687 
L 236.208 73.272997 
L 237.44 74.467837 
L 238.224 74.919596 
L 239.12 75.189428 
L 239.904 75.202969 
L 240.352 75.030449 
L 240.8 74.658949 
L 241.248 74.034501 
L 241.92 72.606947 
L 243.488 69.009974 
L 243.712 68.879788 
L 244.272 69.008986 
L 244.496 69.348606 
L 245.056 70.839624 
L 246.848 76.72198 
L 247.184 77.027891 
L 247.52 77.142378 
L 247.744 77.008637 
L 248.304 76.156643 
L 249.648 73.503963 
L 250.208 73.068628 
L 250.656 73.133764 
L 251.104 73.384716 
L 252.56 74.620089 
L 253.792 75.171353 
L 254.464 75.601863 
L 255.36 76.482341 
L 256.144 77.207471 
L 256.592 77.338242 
L 257.04 77.307557 
L 257.6 76.86961 
L 258.72 75.387299 
L 259.28 74.802813 
L 259.616 74.644579 
L 260.288 74.758652 
L 260.848 75.350223 
L 262.528 77.550359 
L 262.864 77.700689 
L 263.312 77.57787 
L 263.648 77.323997 
L 264.208 76.463928 
L 265.104 74.489794 
L 266.336 71.826248 
L 267.008 70.889117 
L 267.568 70.479452 
L 268.016 70.409546 
L 268.688 70.519001 
L 270.144 71.329755 
L 273.056 73.072626 
L 273.84 73.969189 
L 274.736 75.36792 
L 277.536 80.126179 
L 278.096 80.531437 
L 278.432 80.549879 
L 278.88 80.395122 
L 279.216 79.981701 
L 279.664 79.074473 
L 280.224 77.214681 
L 280.896 73.878829 
L 281.792 68.103176 
L 282.688 62.72076 
L 283.136 61.003126 
L 283.472 60.757695 
L 283.808 60.735729 
L 284.032 61.341408 
L 284.48 63.458929 
L 285.152 68.563185 
L 286.496 79.607325 
L 286.944 81.852829 
L 287.392 82.77264 
L 287.616 82.893318 
L 287.84 82.678682 
L 288.288 81.761712 
L 290.192 76.042314 
L 290.64 75.626176 
L 290.976 75.551271 
L 291.648 75.724899 
L 292.656 76.132637 
L 293.552 76.239916 
L 295.008 76.162001 
L 295.68 75.903744 
L 296.352 75.391646 
L 298.032 73.940781 
L 298.704 73.889328 
L 299.376 74.237402 
L 300.608 75.066947 
L 301.168 75.132302 
L 301.616 75.048112 
L 302.512 74.491205 
L 304.08 73.439842 
L 304.976 72.809983 
L 305.536 72.155013 
L 306.208 70.989109 
L 307.664 68.210133 
L 307.888 68.062349 
L 308.336 68.193686 
L 308.56 68.388273 
L 308.896 69.199538 
L 309.344 70.792041 
L 310.128 74.730779 
L 311.136 79.748645 
L 311.696 81.282989 
L 312.256 81.382627 
L 312.368 81.333171 
L 312.592 80.888138 
L 313.264 78.691391 
L 314.496 74.235694 
L 314.944 73.357958 
L 315.392 73.253792 
L 315.728 73.326438 
L 316.288 74.121491 
L 317.184 75.45642 
L 317.744 75.766884 
L 318.192 75.628556 
L 318.64 75.271604 
L 320.096 73.761289 
L 320.88 73.362245 
L 322 72.849143 
L 322.784 72.183307 
L 324.464 70.567438 
L 325.024 70.317735 
L 325.696 70.257321 
L 326.816 70.449593 
L 328.72 70.946504 
L 329.168 71.302717 
L 329.616 71.893604 
L 330.176 73.058875 
L 330.848 75.101873 
L 332.976 82.306037 
L 333.424 82.867184 
L 333.76 82.982883 
L 334.208 82.707765 
L 334.544 82.247838 
L 335.328 80.56381 
L 337.008 76.791166 
L 337.792 75.613007 
L 338.464 74.95589 
L 339.136 74.635485 
L 339.92 74.687455 
L 340.592 75.099575 
L 341.376 75.908846 
L 342.384 77.339127 
L 344.288 80.124858 
L 344.848 80.581578 
L 345.296 80.720658 
L 346.08 80.625572 
L 347.088 80.006216 
L 347.76 79.349055 
L 348.208 78.632001 
L 348.656 77.480788 
L 349.104 75.643636 
L 349.552 72.878346 
L 350.112 67.967423 
L 350.784 60.073186 
L 352.576 37.556391 
L 353.024 34.5851 
L 353.36 33.391418 
L 353.472 33.33774 
L 353.696 33.60759 
L 354.032 34.50811 
L 354.368 36.736476 
L 354.928 42.438529 
L 355.6 51.974811 
L 356.608 69.790785 
L 358.848 110.61055 
L 359.52 118.152009 
L 359.968 120.818305 
L 360.192 120.805873 
L 360.528 120.370813 
L 360.64 120.087136 
L 360.864 118.539781 
L 361.424 112.141162 
L 362.208 98.664539 
L 363.664 72.483892 
L 364.224 66.631873 
L 364.448 65.574246 
L 364.784 64.971032 
L 365.008 64.896011 
L 365.232 65.631344 
L 365.792 69.189106 
L 367.024 78.618334 
L 367.36 79.448832 
L 367.696 79.752342 
L 367.808 79.641666 
L 368.032 78.800937 
L 368.48 76.079118 
L 369.6 65.647292 
L 370.16 61.62335 
L 370.384 60.688359 
L 370.608 60.61326 
L 371.056 60.646876 
L 371.28 61.443201 
L 372.064 66.272841 
L 372.848 70.725167 
L 373.184 71.645804 
L 373.52 71.54102 
L 373.744 71.37057 
L 373.968 70.778055 
L 374.752 66.830012 
L 375.424 63.916204 
L 375.872 63.18249 
L 375.984 63.17592 
L 376.208 63.511481 
L 376.656 64.90794 
L 377.44 69.28821 
L 378.112 72.722416 
L 378.56 74.116408 
L 378.784 74.318034 
L 379.232 74.426719 
L 379.456 74.254128 
L 380.352 73.054888 
L 380.912 72.965864 
L 381.136 73.187395 
L 381.696 74.325367 
L 383.04 77.754629 
L 383.6 78.410564 
L 384.272 78.489811 
L 384.944 78.167314 
L 386.512 77.148116 
L 387.52 76.062047 
L 388.08 75.551113 
L 388.528 75.406099 
L 388.752 75.47165 
L 389.2 75.923453 
L 389.648 76.828449 
L 390.32 78.723161 
L 391.328 81.619518 
L 391.776 82.440825 
L 392.224 82.523938 
L 392.448 82.519168 
L 392.672 82.221358 
L 393.12 81.090687 
L 393.68 78.811565 
L 395.808 68.771348 
L 396.144 68.270753 
L 396.368 68.279336 
L 396.704 68.726613 
L 396.928 69.199692 
L 397.488 71.35682 
L 398.832 77.237869 
L 399.28 78.177933 
L 399.504 78.393325 
L 399.728 78.339908 
L 400.176 77.909545 
L 400.624 76.851301 
L 402.304 72.726995 
L 402.976 71.933286 
L 403.76 71.087758 
L 404.32 70.110833 
L 404.992 68.398715 
L 406.336 64.815047 
L 406.672 64.352404 
L 407.232 64.195722 
L 407.456 64.349922 
L 407.904 65.045316 
L 408.464 66.461466 
L 409.472 69.816432 
L 411.488 76.543315 
L 412.496 79.165749 
L 413.28 80.693693 
L 414.064 81.773274 
L 414.848 82.49033 
L 415.744 83.002308 
L 416.528 83.233191 
L 417.424 83.168054 
L 418.096 82.778867 
L 418.656 82.186735 
L 419.328 81.146327 
L 419.888 80.029349 
L 419.888 80.029349 
" clip-path="url(#p08a6cc575e)" style="fill: none; stroke: #ff0000; stroke-width: 0.25; stroke-linecap: square"/>
   </g>
   <g id="text_2">
    <g id="patch_3">
     <path d="M 30.299688 84.305469 
L 44.32 84.305469 
L 44.32 66.574219 
L 30.299688 66.574219 
L 30.299688 84.305469 
z
" style="fill: none"/>
    </g>
    <!-- N -->
    <g transform="translate(34.299688 78.225781) scale(0.1 -0.1)">
     <defs>
      <path id="DejaVuSansMono-4e" d="M 434 4666 
L 1234 4666 
L 2809 825 
L 2809 4666 
L 3419 4666 
L 3419 0 
L 2619 0 
L 1044 3841 
L 1044 0 
L 434 0 
L 434 4666 
z
" transform="scale(0.015625)"/>
     </defs>
     <use xlink:href="#DejaVuSansMono-4e"/>
    </g>
   </g>
   <g id="text_3">
    <g id="patch_4">
     <path d="M 46.4049 52.829494 
L 103.195753 52.829494 
L 103.195753 39.2049 
L 46.4049 39.2049 
L 46.4049 52.829494 
z
" style="fill: none"/>
    </g>
    <!-- A: 0.0018918 m -->
    <g transform="translate(50.4 47.630255) scale(0.0579 -0.0579)">
     <defs>
      <path id="DejaVuSansMono-41" d="M 1925 4109 
L 1259 1722 
L 2591 1722 
L 1925 4109 
z
M 1544 4666 
L 2309 4666 
L 3738 0 
L 3084 0 
L 2741 1216 
L 1106 1216 
L 769 0 
L 116 0 
L 1544 4666 
z
" transform="scale(0.015625)"/>
      <path id="DejaVuSansMono-3a" d="M 1528 3322 
L 2316 3322 
L 2316 2375 
L 1528 2375 
L 1528 3322 
z
M 1528 953 
L 2316 953 
L 2316 0 
L 1528 0 
L 1528 953 
z
" transform="scale(0.015625)"/>
      <path id="DejaVuSansMono-20" transform="scale(0.015625)"/>
      <path id="DejaVuSansMono-2e" d="M 1528 953 
L 2316 953 
L 2316 0 
L 1528 0 
L 1528 953 
z
" transform="scale(0.015625)"/>
      <path id="DejaVuSansMono-38" d="M 1925 2216 
Q 1503 2216 1273 1980 
Q 1044 1744 1044 1313 
Q 1044 881 1276 642 
Q 1509 403 1925 403 
Q 2350 403 2579 639 
Q 2809 875 2809 1313 
Q 2809 1741 2576 1978 
Q 2344 2216 1925 2216 
z
M 1375 2478 
Q 972 2581 745 2862 
Q 519 3144 519 3541 
Q 519 4097 897 4423 
Q 1275 4750 1925 4750 
Q 2578 4750 2956 4423 
Q 3334 4097 3334 3541 
Q 3334 3144 3107 2862 
Q 2881 2581 2478 2478 
Q 2947 2375 3195 2062 
Q 3444 1750 3444 1253 
Q 3444 622 3041 265 
Q 2638 -91 1925 -91 
Q 1213 -91 811 264 
Q 409 619 409 1247 
Q 409 1747 657 2061 
Q 906 2375 1375 2478 
z
M 1147 3481 
Q 1147 3106 1347 2909 
Q 1547 2713 1925 2713 
Q 2306 2713 2506 2909 
Q 2706 3106 2706 3481 
Q 2706 3863 2507 4063 
Q 2309 4263 1925 4263 
Q 1547 4263 1347 4061 
Q 1147 3859 1147 3481 
z
" transform="scale(0.015625)"/>
      <path id="DejaVuSansMono-39" d="M 1863 2069 
Q 2266 2069 2495 2359 
Q 2725 2650 2725 3163 
Q 2725 3675 2495 3965 
Q 2266 4256 1863 4256 
Q 1444 4256 1231 3979 
Q 1019 3703 1019 3163 
Q 1019 2619 1230 2344 
Q 1441 2069 1863 2069 
z
M 738 97 
L 738 678 
Q 934 563 1156 502 
Q 1378 441 1619 441 
Q 2219 441 2526 892 
Q 2834 1344 2834 2222 
Q 2688 1909 2422 1742 
Q 2156 1575 1813 1575 
Q 1138 1575 767 1990 
Q 397 2406 397 3169 
Q 397 3922 776 4336 
Q 1156 4750 1850 4750 
Q 2663 4750 3041 4165 
Q 3419 3581 3419 2328 
Q 3419 1150 2964 529 
Q 2509 -91 1644 -91 
Q 1416 -91 1184 -42 
Q 953 6 738 97 
z
" transform="scale(0.015625)"/>
      <path id="DejaVuSansMono-6d" d="M 2113 3144 
Q 2219 3369 2383 3476 
Q 2547 3584 2778 3584 
Q 3200 3584 3373 3257 
Q 3547 2931 3547 2028 
L 3547 0 
L 3022 0 
L 3022 2003 
Q 3022 2744 2939 2923 
Q 2856 3103 2638 3103 
Q 2388 3103 2295 2911 
Q 2203 2719 2203 2003 
L 2203 0 
L 1678 0 
L 1678 2003 
Q 1678 2753 1589 2928 
Q 1500 3103 1269 3103 
Q 1041 3103 952 2911 
Q 863 2719 863 2003 
L 863 0 
L 341 0 
L 341 3500 
L 863 3500 
L 863 3200 
Q 966 3388 1120 3486 
Q 1275 3584 1472 3584 
Q 1709 3584 1867 3475 
Q 2025 3366 2113 3144 
z
" transform="scale(0.015625)"/>
     </defs>
     <use xlink:href="#DejaVuSansMono-41"/>
     <use xlink:href="#DejaVuSansMono-3a" x="60.205078"/>
     <use xlink:href="#DejaVuSansMono-20" x="120.410156"/>
     <use xlink:href="#DejaVuSansMono-30" x="180.615234"/>
     <use xlink:href="#DejaVuSansMono-2e" x="240.820312"/>
     <use xlink:href="#DejaVuSansMono-30" x="301.025391"/>
     <use xlink:href="#DejaVuSansMono-30" x="361.230469"/>
     <use xlink:href="#DejaVuSansMono-31" x="421.435547"/>
     <use xlink:href="#DejaVuSansMono-38" x="481.640625"/>
     <use xlink:href="#DejaVuSansMono-39" x="541.845703"/>
     <use xlink:href="#DejaVuSansMono-31" x="602.050781"/>
     <use xlink:href="#DejaVuSansMono-38" x="662.255859"/>
     <use xlink:href="#DejaVuSansMono-20" x="722.460938"/>
     <use xlink:href="#DejaVuSansMono-6d" x="782.666016"/>
    </g>
   </g>
   <g id="text_4">
    <g id="patch_5">
     <path d="M 46.4 37.857727 
L 373.476562 37.857727 
L 373.476562 8.78054 
L 46.4 8.78054 
L 46.4 37.857727 
z
" style="fill: none"/>
    </g>
    <!-- 2015-09-16 22:55:22  Loc: -31.13dg, -72.09dg, 17.35km -->
    <g transform="translate(50.4 20.447727) scale(0.1 -0.1)">
     <defs>
      <path id="DejaVuSansMono-4c" d="M 672 4666 
L 1306 4666 
L 1306 531 
L 3559 531 
L 3559 0 
L 672 0 
L 672 4666 
z
" transform="scale(0.015625)"/>
      <path id="DejaVuSansMono-6f" d="M 1925 3097 
Q 1488 3097 1263 2756 
Q 1038 2416 1038 1747 
Q 1038 1081 1263 739 
Q 1488 397 1925 397 
Q 2366 397 2591 739 
Q 2816 1081 2816 1747 
Q 2816 2416 2591 2756 
Q 2366 3097 1925 3097 
z
M 1925 3584 
Q 2653 3584 3039 3112 
Q 3425 2641 3425 1747 
Q 3425 850 3040 379 
Q 2656 -91 1925 -91 
Q 1197 -91 812 379 
Q 428 850 428 1747 
Q 428 2641 812 3112 
Q 1197 3584 1925 3584 
z
" transform="scale(0.015625)"/>
      <path id="DejaVuSansMono-63" d="M 3316 178 
Q 3084 44 2839 -23 
Q 2594 -91 2338 -91 
Q 1525 -91 1067 396 
Q 609 884 609 1747 
Q 609 2609 1067 3096 
Q 1525 3584 2338 3584 
Q 2591 3584 2831 3518 
Q 3072 3453 3316 3316 
L 3316 2713 
Q 3088 2916 2858 3006 
Q 2628 3097 2338 3097 
Q 1797 3097 1506 2747 
Q 1216 2397 1216 1747 
Q 1216 1100 1508 748 
Q 1800 397 2338 397 
Q 2638 397 2875 489 
Q 3113 581 3316 775 
L 3316 178 
z
" transform="scale(0.015625)"/>
      <path id="DejaVuSansMono-33" d="M 2425 2497 
Q 2884 2375 3128 2064 
Q 3372 1753 3372 1288 
Q 3372 644 2939 276 
Q 2506 -91 1741 -91 
Q 1419 -91 1084 -31 
Q 750 28 428 141 
L 428 769 
Q 747 603 1056 522 
Q 1366 441 1672 441 
Q 2191 441 2469 675 
Q 2747 909 2747 1350 
Q 2747 1756 2469 1995 
Q 2191 2234 1716 2234 
L 1234 2234 
L 1234 2753 
L 1716 2753 
Q 2150 2753 2394 2943 
Q 2638 3134 2638 3475 
Q 2638 3834 2411 4026 
Q 2184 4219 1766 4219 
Q 1488 4219 1191 4156 
Q 894 4094 569 3969 
L 569 4550 
Q 947 4650 1242 4700 
Q 1538 4750 1766 4750 
Q 2447 4750 2855 4408 
Q 3263 4066 3263 3500 
Q 3263 3116 3048 2859 
Q 2834 2603 2425 2497 
z
" transform="scale(0.015625)"/>
      <path id="DejaVuSansMono-64" d="M 2681 3053 
L 2681 4863 
L 3256 4863 
L 3256 0 
L 2681 0 
L 2681 441 
Q 2538 181 2298 45 
Q 2059 -91 1747 -91 
Q 1113 -91 748 401 
Q 384 894 384 1759 
Q 384 2613 750 3098 
Q 1116 3584 1747 3584 
Q 2063 3584 2303 3448 
Q 2544 3313 2681 3053 
z
M 991 1747 
Q 991 1078 1203 737 
Q 1416 397 1831 397 
Q 2247 397 2464 740 
Q 2681 1084 2681 1747 
Q 2681 2413 2464 2755 
Q 2247 3097 1831 3097 
Q 1416 3097 1203 2756 
Q 991 2416 991 1747 
z
" transform="scale(0.015625)"/>
      <path id="DejaVuSansMono-67" d="M 2681 1778 
Q 2681 2425 2470 2761 
Q 2259 3097 1856 3097 
Q 1434 3097 1212 2761 
Q 991 2425 991 1778 
Q 991 1131 1214 792 
Q 1438 453 1863 453 
Q 2259 453 2470 793 
Q 2681 1134 2681 1778 
z
M 3256 225 
Q 3256 -563 2884 -969 
Q 2513 -1375 1791 -1375 
Q 1553 -1375 1293 -1331 
Q 1034 -1288 775 -1203 
L 775 -634 
Q 1081 -778 1331 -847 
Q 1581 -916 1791 -916 
Q 2256 -916 2468 -662 
Q 2681 -409 2681 141 
L 2681 166 
L 2681 556 
Q 2544 263 2306 119 
Q 2069 -25 1728 -25 
Q 1116 -25 750 465 
Q 384 956 384 1778 
Q 384 2603 750 3093 
Q 1116 3584 1728 3584 
Q 2066 3584 2300 3450 
Q 2534 3316 2681 3034 
L 2681 3488 
L 3256 3488 
L 3256 225 
z
" transform="scale(0.015625)"/>
      <path id="DejaVuSansMono-2c" d="M 1569 947 
L 2356 947 
L 2356 300 
L 1741 -897 
L 1259 -897 
L 1569 300 
L 1569 947 
z
" transform="scale(0.015625)"/>
      <path id="DejaVuSansMono-37" d="M 434 4666 
L 3372 4666 
L 3372 4397 
L 1703 0 
L 1044 0 
L 2669 4134 
L 434 4134 
L 434 4666 
z
" transform="scale(0.015625)"/>
      <path id="DejaVuSansMono-6b" d="M 738 4863 
L 1331 4863 
L 1331 2047 
L 2841 3500 
L 3541 3500 
L 2163 2181 
L 3756 0 
L 3053 0 
L 1759 1806 
L 1331 1403 
L 1331 0 
L 738 0 
L 738 4863 
z
" transform="scale(0.015625)"/>
     </defs>
     <use xlink:href="#DejaVuSansMono-32"/>
     <use xlink:href="#DejaVuSansMono-30" x="60.205078"/>
     <use xlink:href="#DejaVuSansMono-31" x="120.410156"/>
     <use xlink:href="#DejaVuSansMono-35" x="180.615234"/>
     <use xlink:href="#DejaVuSansMono-2d" x="240.820312"/>
     <use xlink:href="#DejaVuSansMono-30" x="301.025391"/>
     <use xlink:href="#DejaVuSansMono-39" x="361.230469"/>
     <use xlink:href="#DejaVuSansMono-2d" x="421.435547"/>
     <use xlink:href="#DejaVuSansMono-31" x="481.640625"/>
     <use xlink:href="#DejaVuSansMono-36" x="541.845703"/>
     <use xlink:href="#DejaVuSansMono-20" x="602.050781"/>
     <use xlink:href="#DejaVuSansMono-32" x="662.255859"/>
     <use xlink:href="#DejaVuSansMono-32" x="722.460938"/>
     <use xlink:href="#DejaVuSansMono-3a" x="782.666016"/>
     <use xlink:href="#DejaVuSansMono-35" x="842.871094"/>
     <use xlink:href="#DejaVuSansMono-35" x="903.076172"/>
     <use xlink:href="#DejaVuSansMono-3a" x="963.28125"/>
     <use xlink:href="#DejaVuSansMono-32" x="1023.486328"/>
     <use xlink:href="#DejaVuSansMono-32" x="1083.691406"/>
     <use xlink:href="#DejaVuSansMono-20" x="1143.896484"/>
     <use xlink:href="#DejaVuSansMono-20" x="1204.101562"/>
     <use xlink:href="#DejaVuSansMono-4c" x="1264.306641"/>
     <use xlink:href="#DejaVuSansMono-6f" x="1324.511719"/>
     <use xlink:href="#DejaVuSansMono-63" x="1384.716797"/>
     <use xlink:href="#DejaVuSansMono-3a" x="1444.921875"/>
     <use xlink:href="#DejaVuSansMono-20" x="1505.126953"/>
     <use xlink:href="#DejaVuSansMono-2d" x="1565.332031"/>
     <use xlink:href="#DejaVuSansMono-33" x="1625.537109"/>
     <use xlink:href="#DejaVuSansMono-31" x="1685.742188"/>
     <use xlink:href="#DejaVuSansMono-2e" x="1745.947266"/>
     <use xlink:href="#DejaVuSansMono-31" x="1806.152344"/>
     <use xlink:href="#DejaVuSansMono-33" x="1866.357422"/>
     <use xlink:href="#DejaVuSansMono-64" x="1926.5625"/>
     <use xlink:href="#DejaVuSansMono-67" x="1986.767578"/>
     <use xlink:href="#DejaVuSansMono-2c" x="2046.972656"/>
     <use xlink:href="#DejaVuSansMono-20" x="2107.177734"/>
     <use xlink:href="#DejaVuSansMono-2d" x="2167.382812"/>
     <use xlink:href="#DejaVuSansMono-37" x="2227.587891"/>
     <use xlink:href="#DejaVuSansMono-32" x="2287.792969"/>
     <use xlink:href="#DejaVuSansMono-2e" x="2347.998047"/>
     <use xlink:href="#DejaVuSansMono-30" x="2408.203125"/>
     <use xlink:href="#DejaVuSansMono-39" x="2468.408203"/>
     <use xlink:href="#DejaVuSansMono-64" x="2528.613281"/>
     <use xlink:href="#DejaVuSansMono-67" x="2588.818359"/>
     <use xlink:href="#DejaVuSansMono-2c" x="2649.023438"/>
     <use xlink:href="#DejaVuSansMono-20" x="2709.228516"/>
     <use xlink:href="#DejaVuSansMono-31" x="2769.433594"/>
     <use xlink:href="#DejaVuSansMono-37" x="2829.638672"/>
     <use xlink:href="#DejaVuSansMono-2e" x="2889.84375"/>
     <use xlink:href="#DejaVuSansMono-33" x="2950.048828"/>
     <use xlink:href="#DejaVuSansMono-35" x="3010.253906"/>
     <use xlink:href="#DejaVuSansMono-6b" x="3070.458984"/>
     <use xlink:href="#DejaVuSansMono-6d" x="3130.664062"/>
    </g>
    <!-- II.BFO  -->
    <g transform="translate(50.4 31.77804) scale(0.1 -0.1)">
     <defs>
      <path id="DejaVuSansMono-49" d="M 628 4666 
L 3219 4666 
L 3219 4134 
L 2241 4134 
L 2241 531 
L 3219 531 
L 3219 0 
L 628 0 
L 628 531 
L 1606 531 
L 1606 4134 
L 628 4134 
L 628 4666 
z
" transform="scale(0.015625)"/>
      <path id="DejaVuSansMono-42" d="M 1153 2228 
L 1153 519 
L 1900 519 
Q 2450 519 2684 711 
Q 2919 903 2919 1344 
Q 2919 1800 2672 2014 
Q 2425 2228 1900 2228 
L 1153 2228 
z
M 1153 4147 
L 1153 2741 
L 1888 2741 
Q 2344 2741 2548 2916 
Q 2753 3091 2753 3481 
Q 2753 3834 2551 3990 
Q 2350 4147 1888 4147 
L 1153 4147 
z
M 519 4666 
L 1900 4666 
Q 2616 4666 3003 4356 
Q 3391 4047 3391 3481 
Q 3391 3053 3186 2806 
Q 2981 2559 2572 2497 
Q 3031 2428 3292 2104 
Q 3553 1781 3553 1281 
Q 3553 647 3137 323 
Q 2722 0 1900 0 
L 519 0 
L 519 4666 
z
" transform="scale(0.015625)"/>
      <path id="DejaVuSansMono-46" d="M 728 4666 
L 3475 4666 
L 3475 4134 
L 1363 4134 
L 1363 2759 
L 3278 2759 
L 3278 2228 
L 1363 2228 
L 1363 0 
L 728 0 
L 728 4666 
z
" transform="scale(0.015625)"/>
      <path id="DejaVuSansMono-4f" d="M 2828 2328 
Q 2828 3356 2617 3797 
Q 2406 4238 1925 4238 
Q 1447 4238 1236 3797 
Q 1025 3356 1025 2328 
Q 1025 1303 1236 862 
Q 1447 422 1925 422 
Q 2406 422 2617 861 
Q 2828 1300 2828 2328 
z
M 3488 2328 
Q 3488 1109 3102 509 
Q 2716 -91 1925 -91 
Q 1134 -91 750 506 
Q 366 1103 366 2328 
Q 366 3550 752 4150 
Q 1138 4750 1925 4750 
Q 2716 4750 3102 4150 
Q 3488 3550 3488 2328 
z
" transform="scale(0.015625)"/>
     </defs>
     <use xlink:href="#DejaVuSansMono-49"/>
     <use xlink:href="#DejaVuSansMono-49" x="60.205078"/>
     <use xlink:href="#DejaVuSansMono-2e" x="120.410156"/>
     <use xlink:href="#DejaVuSansMono-42" x="180.615234"/>
     <use xlink:href="#DejaVuSansMono-46" x="240.820312"/>
     <use xlink:href="#DejaVuSansMono-4f" x="301.025391"/>
     <use xlink:href="#DejaVuSansMono-20" x="361.230469"/>
    </g>
   </g>
   <g id="legend_1">
    <g id="line2d_4">
     <path d="M 323.582353 52.327184 
L 330.522353 52.327184 
L 337.462353 52.327184 
" style="fill: none; stroke: #000000; stroke-width: 0.25; stroke-linecap: square"/>
    </g>
    <g id="text_5">
     <!-- Observed -->
     <g transform="translate(343.014353 54.756184) scale(0.0694 -0.0694)">
      <defs>
       <path id="DejaVuSansMono-62" d="M 2869 1747 
Q 2869 2416 2656 2756 
Q 2444 3097 2028 3097 
Q 1609 3097 1393 2755 
Q 1178 2413 1178 1747 
Q 1178 1084 1393 740 
Q 1609 397 2028 397 
Q 2444 397 2656 737 
Q 2869 1078 2869 1747 
z
M 1178 3053 
Q 1316 3309 1558 3446 
Q 1800 3584 2119 3584 
Q 2750 3584 3112 3098 
Q 3475 2613 3475 1759 
Q 3475 894 3111 401 
Q 2747 -91 2113 -91 
Q 1800 -91 1561 45 
Q 1322 181 1178 441 
L 1178 0 
L 603 0 
L 603 4863 
L 1178 4863 
L 1178 3053 
z
" transform="scale(0.015625)"/>
       <path id="DejaVuSansMono-73" d="M 3041 3378 
L 3041 2816 
Q 2794 2959 2544 3031 
Q 2294 3103 2034 3103 
Q 1644 3103 1451 2976 
Q 1259 2850 1259 2591 
Q 1259 2356 1403 2240 
Q 1547 2125 2119 2016 
L 2350 1972 
Q 2778 1891 2998 1647 
Q 3219 1403 3219 1013 
Q 3219 494 2850 201 
Q 2481 -91 1825 -91 
Q 1566 -91 1281 -36 
Q 997 19 666 128 
L 666 722 
Q 988 556 1281 473 
Q 1575 391 1838 391 
Q 2219 391 2428 545 
Q 2638 700 2638 978 
Q 2638 1378 1872 1531 
L 1847 1538 
L 1631 1581 
Q 1134 1678 906 1908 
Q 678 2138 678 2534 
Q 678 3038 1018 3311 
Q 1359 3584 1991 3584 
Q 2272 3584 2531 3532 
Q 2791 3481 3041 3378 
z
" transform="scale(0.015625)"/>
       <path id="DejaVuSansMono-72" d="M 3609 2778 
Q 3425 2922 3234 2987 
Q 3044 3053 2816 3053 
Q 2278 3053 1993 2715 
Q 1709 2378 1709 1741 
L 1709 0 
L 1131 0 
L 1131 3500 
L 1709 3500 
L 1709 2816 
Q 1853 3188 2151 3386 
Q 2450 3584 2859 3584 
Q 3072 3584 3256 3531 
Q 3441 3478 3609 3366 
L 3609 2778 
z
" transform="scale(0.015625)"/>
       <path id="DejaVuSansMono-76" d="M 313 3500 
L 909 3500 
L 1925 563 
L 2944 3500 
L 3541 3500 
L 2297 0 
L 1556 0 
L 313 3500 
z
" transform="scale(0.015625)"/>
      </defs>
      <use xlink:href="#DejaVuSansMono-4f"/>
      <use xlink:href="#DejaVuSansMono-62" x="60.205078"/>
      <use xlink:href="#DejaVuSansMono-73" x="120.410156"/>
      <use xlink:href="#DejaVuSansMono-65" x="180.615234"/>
      <use xlink:href="#DejaVuSansMono-72" x="240.820312"/>
      <use xlink:href="#DejaVuSansMono-76" x="301.025391"/>
      <use xlink:href="#DejaVuSansMono-65" x="361.230469"/>
      <use xlink:href="#DejaVuSansMono-64" x="421.435547"/>
     </g>
    </g>
    <g id="line2d_5">
     <path d="M 390.319128 52.327184 
L 397.259128 52.327184 
L 404.199128 52.327184 
" style="fill: none; stroke: #ff0000; stroke-width: 0.25; stroke-linecap: square"/>
    </g>
    <g id="text_6">
     <!-- Synthetic -->
     <g transform="translate(409.751128 54.756184) scale(0.0694 -0.0694)">
      <defs>
       <path id="DejaVuSansMono-79" d="M 2681 1125 
Q 2538 759 2316 163 
Q 2006 -663 1900 -844 
Q 1756 -1088 1540 -1209 
Q 1325 -1331 1038 -1331 
L 575 -1331 
L 575 -850 
L 916 -850 
Q 1169 -850 1312 -703 
Q 1456 -556 1678 56 
L 325 3500 
L 934 3500 
L 1972 763 
L 2994 3500 
L 3603 3500 
L 2681 1125 
z
" transform="scale(0.015625)"/>
       <path id="DejaVuSansMono-6e" d="M 3284 2169 
L 3284 0 
L 2706 0 
L 2706 2169 
Q 2706 2641 2540 2862 
Q 2375 3084 2022 3084 
Q 1619 3084 1401 2798 
Q 1184 2513 1184 1978 
L 1184 0 
L 609 0 
L 609 3500 
L 1184 3500 
L 1184 2975 
Q 1338 3275 1600 3429 
Q 1863 3584 2222 3584 
Q 2756 3584 3020 3232 
Q 3284 2881 3284 2169 
z
" transform="scale(0.015625)"/>
       <path id="DejaVuSansMono-74" d="M 1919 4494 
L 1919 3500 
L 3225 3500 
L 3225 3053 
L 1919 3053 
L 1919 1153 
Q 1919 766 2066 612 
Q 2213 459 2578 459 
L 3225 459 
L 3225 0 
L 2522 0 
Q 1875 0 1609 259 
Q 1344 519 1344 1153 
L 1344 3053 
L 409 3053 
L 409 3500 
L 1344 3500 
L 1344 4494 
L 1919 4494 
z
" transform="scale(0.015625)"/>
       <path id="DejaVuSansMono-68" d="M 3284 2169 
L 3284 0 
L 2706 0 
L 2706 2169 
Q 2706 2641 2540 2862 
Q 2375 3084 2022 3084 
Q 1619 3084 1401 2798 
Q 1184 2513 1184 1978 
L 1184 0 
L 609 0 
L 609 4863 
L 1184 4863 
L 1184 2975 
Q 1338 3275 1600 3429 
Q 1863 3584 2222 3584 
Q 2756 3584 3020 3232 
Q 3284 2881 3284 2169 
z
" transform="scale(0.015625)"/>
       <path id="DejaVuSansMono-69" d="M 800 3500 
L 2272 3500 
L 2272 447 
L 3413 447 
L 3413 0 
L 556 0 
L 556 447 
L 1697 447 
L 1697 3053 
L 800 3053 
L 800 3500 
z
M 1697 4863 
L 2272 4863 
L 2272 4134 
L 1697 4134 
L 1697 4863 
z
" transform="scale(0.015625)"/>
      </defs>
      <use xlink:href="#DejaVuSansMono-53"/>
      <use xlink:href="#DejaVuSansMono-79" x="60.205078"/>
      <use xlink:href="#DejaVuSansMono-6e" x="120.410156"/>
      <use xlink:href="#DejaVuSansMono-74" x="180.615234"/>
      <use xlink:href="#DejaVuSansMono-68" x="240.820312"/>
      <use xlink:href="#DejaVuSansMono-65" x="301.025391"/>
      <use xlink:href="#DejaVuSansMono-74" x="361.230469"/>
      <use xlink:href="#DejaVuSansMono-69" x="421.435547"/>
      <use xlink:href="#DejaVuSansMono-63" x="481.640625"/>
     </g>
    </g>
   </g>
  </g>
  <g id="axes_2">
   <g id="patch_6">
    <path d="M 50.4 168 
L 453.6 168 
L 453.6 105.6 
L 50.4 105.6 
z
" style="fill: #ffffff"/>
   </g>
   <g id="matplotlib.axis_3">
    <g id="xtick_7"/>
    <g id="xtick_8"/>
    <g id="xtick_9"/>
    <g id="xtick_10"/>
    <g id="xtick_11"/>
    <g id="xtick_12"/>
    <g id="text_7">
     <!-- 2015-Sep-16 -->
     <g transform="translate(387.376563 178.651563) scale(0.1 -0.1)">
      <use xlink:href="#DejaVuSansMono-32"/>
      <use xlink:href="#DejaVuSansMono-30" x="60.205078"/>
      <use xlink:href="#DejaVuSansMono-31" x="120.410156"/>
      <use xlink:href="#DejaVuSansMono-35" x="180.615234"/>
      <use xlink:href="#DejaVuSansMono-2d" x="240.820312"/>
      <use xlink:href="#DejaVuSansMono-53" x="301.025391"/>
      <use xlink:href="#DejaVuSansMono-65" x="361.230469"/>
      <use xlink:href="#DejaVuSansMono-70" x="421.435547"/>
      <use xlink:href="#DejaVuSansMono-2d" x="481.640625"/>
      <use xlink:href="#DejaVuSansMono-31" x="541.845703"/>
      <use xlink:href="#DejaVuSansMono-36" x="602.050781"/>
     </g>
    </g>
   </g>
   <g id="matplotlib.axis_4">
    <g id="ytick_4"/>
    <g id="ytick_5"/>
    <g id="ytick_6"/>
   </g>
   <g id="line2d_6">
    <path d="M 50.4 136.812906 
L 147.616 136.716225 
L 150.192 136.540728 
L 151.648 136.732468 
L 153.44 136.940501 
L 155.12 136.864517 
L 157.472 136.788406 
L 163.408 136.834286 
L 169.344 136.797214 
L 175.504 136.887853 
L 176.96 136.926444 
L 177.968 136.742639 
L 180.32 136.157602 
L 180.992 136.283545 
L 181.888 136.694741 
L 183.344 137.38313 
L 184.128 137.48518 
L 185.024 137.356805 
L 187.04 136.974488 
L 189.168 136.988334 
L 193.648 136.825925 
L 194.544 136.466576 
L 196.672 135.482428 
L 197.344 135.467939 
L 198.128 135.694859 
L 201.04 136.85759 
L 203.952 137.367043 
L 205.744 137.835248 
L 206.864 137.860334 
L 208.544 137.602818 
L 210.672 137.350598 
L 213.248 137.035448 
L 216.496 136.40407 
L 217.728 135.81783 
L 219.408 135.013048 
L 220.976 134.582093 
L 221.76 134.508104 
L 222.32 134.668876 
L 222.88 135.113187 
L 223.552 136.032007 
L 225.232 138.67315 
L 225.68 138.939247 
L 226.016 138.918968 
L 226.352 138.708677 
L 226.8 138.167299 
L 227.696 136.598321 
L 228.48 135.405931 
L 228.928 135.040122 
L 229.376 134.959818 
L 229.824 135.150659 
L 230.384 135.702584 
L 231.168 136.849383 
L 233.408 140.323187 
L 234.192 141.052743 
L 234.752 141.31758 
L 235.312 141.361757 
L 235.984 141.163209 
L 236.88 140.622892 
L 238.112 139.603272 
L 238.896 138.648114 
L 239.568 137.431012 
L 240.24 135.719719 
L 241.136 132.717672 
L 242.48 128.199551 
L 242.928 127.376173 
L 243.264 127.179046 
L 243.488 127.273235 
L 243.824 127.770478 
L 244.272 129.062634 
L 244.944 132.018583 
L 246.176 137.73465 
L 246.624 138.93817 
L 246.96 139.35356 
L 247.184 139.392593 
L 247.408 139.263872 
L 247.744 138.797509 
L 248.416 137.318348 
L 249.088 135.969561 
L 249.536 135.536216 
L 249.872 135.523058 
L 250.208 135.755547 
L 250.768 136.533633 
L 252.112 138.595115 
L 252.672 139.042054 
L 253.456 139.351108 
L 254.352 139.750852 
L 255.92 140.646611 
L 256.368 140.545393 
L 256.816 140.174962 
L 257.488 139.224345 
L 258.496 137.768802 
L 258.944 137.472188 
L 259.28 137.469134 
L 259.616 137.656837 
L 260.064 138.166699 
L 260.96 139.659162 
L 261.632 140.632963 
L 262.08 140.964928 
L 262.416 140.981694 
L 262.752 140.779637 
L 263.2 140.16567 
L 263.76 138.894596 
L 264.544 136.426273 
L 266.336 130.454108 
L 266.896 129.270135 
L 267.344 128.718121 
L 267.792 128.527504 
L 268.128 128.604777 
L 268.576 128.956316 
L 269.248 129.8645 
L 273.056 136.170447 
L 274.064 138.292062 
L 277.2 145.386139 
L 277.76 146.04291 
L 278.096 146.186417 
L 278.432 146.083388 
L 278.768 145.69334 
L 279.216 144.678233 
L 279.776 142.614704 
L 280.56 138.600354 
L 281.904 131.617137 
L 282.464 129.782795 
L 282.912 129.019515 
L 283.248 128.883516 
L 283.472 128.992234 
L 283.808 129.451698 
L 284.256 130.569045 
L 284.816 132.648376 
L 285.824 137.507863 
L 286.72 141.532592 
L 287.168 142.815327 
L 287.504 143.270306 
L 287.728 143.290417 
L 287.952 143.081202 
L 288.288 142.333801 
L 288.736 140.627483 
L 289.744 135.352589 
L 290.416 132.485449 
L 290.864 131.44704 
L 291.2 131.174207 
L 291.536 131.286317 
L 291.984 131.864288 
L 293.664 134.628965 
L 294.448 135.281618 
L 295.568 136.21887 
L 296.688 137.209303 
L 297.248 137.401659 
L 297.808 137.324462 
L 299.264 136.930506 
L 299.712 137.097467 
L 300.272 137.571578 
L 301.28 138.839301 
L 302.176 139.826775 
L 302.736 140.180041 
L 303.296 140.284557 
L 303.856 140.151674 
L 304.528 139.747047 
L 306.432 138.428536 
L 308 137.63933 
L 308.56 137.025291 
L 309.232 135.929186 
L 310.8 133.177397 
L 311.248 132.805659 
L 311.696 132.728696 
L 312.144 132.926209 
L 312.704 133.464049 
L 314.72 135.719435 
L 317.296 137.626777 
L 317.744 137.652791 
L 318.192 137.395069 
L 318.64 136.848103 
L 319.424 135.426493 
L 320.432 133.676406 
L 320.992 133.149785 
L 321.44 133.043901 
L 321.888 133.223878 
L 322.336 133.685616 
L 322.896 134.641838 
L 323.568 136.305726 
L 324.464 139.207535 
L 325.92 143.998388 
L 326.48 145.129029 
L 326.816 145.467122 
L 327.152 145.516254 
L 327.488 145.275354 
L 327.936 144.531507 
L 328.496 143.062432 
L 331.072 135.45797 
L 331.744 134.365228 
L 332.416 133.664316 
L 333.2 133.181859 
L 333.984 132.951214 
L 334.544 132.983402 
L 335.104 133.264203 
L 335.664 133.849285 
L 336.336 134.928816 
L 337.792 137.489936 
L 338.24 137.861487 
L 338.576 137.907981 
L 338.912 137.752142 
L 339.36 137.265658 
L 340.144 135.971339 
L 341.04 134.583596 
L 341.6 134.04852 
L 342.272 133.728527 
L 343.392 133.295502 
L 343.952 132.810169 
L 344.848 131.647678 
L 345.632 130.701615 
L 346.08 130.414875 
L 346.528 130.403671 
L 346.976 130.69418 
L 347.424 131.2827 
L 347.984 132.41003 
L 348.656 134.316964 
L 349.328 136.874804 
L 350.112 140.743061 
L 352.464 153.207568 
L 352.912 154.290182 
L 353.248 154.636939 
L 353.472 154.643567 
L 353.808 154.343397 
L 354.144 153.700425 
L 354.704 152.000034 
L 355.376 149.173985 
L 356.272 144.383653 
L 357.28 137.709339 
L 359.408 122.925782 
L 359.968 120.646925 
L 360.416 119.711237 
L 360.752 119.534449 
L 360.976 119.641056 
L 361.312 120.102153 
L 361.76 121.155673 
L 362.544 123.69779 
L 366.464 137.299961 
L 367.024 138.377477 
L 367.584 139.037685 
L 368.704 140.120613 
L 369.264 141.122155 
L 370.048 143.165696 
L 370.832 145.150164 
L 371.28 145.787133 
L 371.616 145.9055 
L 371.952 145.715543 
L 372.4 145.055641 
L 373.856 142.371684 
L 374.304 142.100157 
L 374.752 142.133849 
L 375.648 142.376104 
L 375.984 142.235049 
L 376.32 141.848107 
L 376.768 140.902859 
L 377.328 139.098015 
L 379.344 131.802775 
L 379.792 131.01374 
L 380.24 130.668121 
L 380.576 130.669941 
L 381.024 130.939508 
L 381.808 131.802915 
L 382.816 132.863292 
L 383.936 133.628426 
L 384.72 134.274825 
L 386.512 135.976981 
L 386.96 136.029899 
L 387.52 135.824785 
L 388.416 135.399566 
L 388.864 135.464263 
L 389.2 135.723735 
L 389.648 136.361077 
L 390.432 138.00282 
L 391.216 139.467644 
L 391.664 139.827875 
L 392 139.782943 
L 392.336 139.473807 
L 392.784 138.727806 
L 394.128 136.14812 
L 394.576 135.838733 
L 394.912 135.873724 
L 395.36 136.176829 
L 396.032 136.665647 
L 396.368 136.646085 
L 396.704 136.318774 
L 397.152 135.374094 
L 398.272 132.522471 
L 398.496 132.495833 
L 398.72 132.846761 
L 398.944 133.651076 
L 399.28 135.787303 
L 399.728 140.33447 
L 400.624 152.828741 
L 401.296 160.604721 
L 401.632 162.515186 
L 401.856 162.8 
L 401.968 162.652112 
L 402.192 161.716925 
L 402.528 158.844923 
L 402.976 152.75549 
L 404.768 124.75284 
L 405.216 121.257037 
L 405.664 119.390395 
L 406.112 118.56981 
L 407.12 117.387847 
L 407.792 115.901137 
L 408.352 114.737903 
L 408.688 114.440648 
L 408.912 114.514385 
L 409.136 114.841557 
L 409.472 115.849783 
L 409.92 118.150728 
L 410.48 122.316413 
L 411.6 132.815178 
L 413.168 147.088832 
L 414.064 153.376315 
L 414.624 156.005473 
L 415.072 157.237894 
L 415.408 157.672516 
L 415.744 157.747442 
L 416.08 157.550355 
L 416.64 156.86578 
L 418.432 154.111443 
L 418.88 152.951095 
L 419.44 150.737385 
L 419.888 148.24857 
L 419.888 148.24857 
" clip-path="url(#p5479281291)" style="fill: none; stroke: #000000; stroke-width: 0.25; stroke-linecap: square"/>
   </g>
   <g id="line2d_7">
    <path d="M 50.4 136.8 
L 419.888 136.8 
" clip-path="url(#p5479281291)" style="fill: none; stroke-dasharray: 0.925,0.4; stroke-dashoffset: 0; stroke: #000000; stroke-width: 0.25"/>
   </g>
   <g id="line2d_8">
    <path d="M 50.4 136.799869 
L 148.288 136.700102 
L 150.752 136.343633 
L 151.648 136.50178 
L 153.888 137.071199 
L 154.896 137.012254 
L 157.248 136.734387 
L 159.04 136.837566 
L 161.616 136.953096 
L 173.488 136.784781 
L 175.616 136.899837 
L 177.632 137.035218 
L 178.416 136.815005 
L 179.312 136.284455 
L 180.432 135.630979 
L 181.104 135.586206 
L 181.44 135.684901 
L 182.224 136.228065 
L 183.792 137.458322 
L 184.464 137.586473 
L 185.248 137.428502 
L 186.928 136.90143 
L 187.936 136.868739 
L 191.632 137.189437 
L 193.648 137.565808 
L 194.096 137.492508 
L 194.768 137.164372 
L 195.552 136.533982 
L 196.784 135.522077 
L 197.344 135.301888 
L 197.904 135.300855 
L 198.576 135.531347 
L 199.92 136.35113 
L 200.928 136.806011 
L 201.936 137.0038 
L 204.736 137.39711 
L 206.64 137.757224 
L 207.648 137.716152 
L 208.992 137.390193 
L 211.904 136.618014 
L 213.136 136.563689 
L 215.488 136.625163 
L 219.072 135.905663 
L 219.632 135.446905 
L 220.192 134.665824 
L 221.648 132.224 
L 222.208 132.215793 
L 222.432 132.343864 
L 222.88 133.337961 
L 223.328 134.940539 
L 224.112 138.601319 
L 224.896 141.993512 
L 225.344 143.124403 
L 225.568 143.357357 
L 225.904 143.257719 
L 226.24 142.956023 
L 226.688 141.71615 
L 227.36 139.180337 
L 228.368 135.515293 
L 228.928 134.291934 
L 229.376 133.836035 
L 229.824 133.915575 
L 230.16 134.140154 
L 230.72 135.03902 
L 231.616 137.101208 
L 233.184 140.772435 
L 233.856 141.690419 
L 234.304 141.983927 
L 234.976 141.901944 
L 235.424 141.548173 
L 236.096 140.787554 
L 237.44 139.233494 
L 238.112 138.813919 
L 239.008 138.613219 
L 239.568 138.404233 
L 240.016 137.929309 
L 240.464 136.930754 
L 240.912 135.209209 
L 241.36 132.703592 
L 242.032 127.721512 
L 243.152 119.424562 
L 243.6 117.754411 
L 243.712 117.700552 
L 243.936 117.933946 
L 244.272 118.736345 
L 244.496 120.043719 
L 245.056 125.209828 
L 246.736 143.633037 
L 247.072 145.081214 
L 247.408 145.672634 
L 247.52 145.72151 
L 247.632 145.615105 
L 247.968 144.481487 
L 248.304 142.85979 
L 249.536 135.782481 
L 249.872 134.875365 
L 250.208 134.413217 
L 250.432 134.484652 
L 250.88 135.158037 
L 251.44 136.75188 
L 252.336 139.18743 
L 252.896 140.092379 
L 254.576 142.344118 
L 255.472 144.456622 
L 256.032 145.500038 
L 256.256 145.718136 
L 256.592 145.653347 
L 256.928 145.419555 
L 257.264 144.649189 
L 257.824 142.753095 
L 259.168 137.830378 
L 259.504 137.173129 
L 259.84 137.159723 
L 260.176 137.281002 
L 260.4 137.662195 
L 261.072 139.714641 
L 262.192 143.503164 
L 262.528 144.024021 
L 262.864 144.268899 
L 263.088 144.133462 
L 263.536 143.274858 
L 263.984 141.537501 
L 264.544 138.513348 
L 266.784 125.319817 
L 267.344 123.596772 
L 267.792 122.840647 
L 268.352 122.666815 
L 268.576 122.753767 
L 269.136 123.404064 
L 269.92 124.878754 
L 271.488 128.46195 
L 272.944 132.160931 
L 273.84 135.074164 
L 274.624 138.389071 
L 275.856 144.874253 
L 276.864 149.77033 
L 277.424 151.555907 
L 277.76 152.128342 
L 278.208 152.408016 
L 278.432 152.330356 
L 278.88 151.742462 
L 279.328 150.620132 
L 279.776 149.026779 
L 280.336 146.234333 
L 280.896 142.297115 
L 281.568 135.775698 
L 283.584 114.126961 
L 283.808 113.790938 
L 284.032 114.179266 
L 284.368 115.445209 
L 284.704 119.144516 
L 285.152 126.191395 
L 286.832 156.974868 
L 287.056 158.64073 
L 287.392 159.609178 
L 287.616 159.766082 
L 287.84 158.682442 
L 288.288 154.476355 
L 290.08 132.542391 
L 290.416 131.012773 
L 290.752 130.346121 
L 290.976 130.336331 
L 291.312 131.035274 
L 291.76 132.447383 
L 292.544 135.064181 
L 293.104 136.175255 
L 293.552 136.564489 
L 294.224 136.547503 
L 294.784 136.297633 
L 295.68 135.719165 
L 296.464 134.919233 
L 297.92 133.25675 
L 298.48 133.186382 
L 298.704 133.228081 
L 299.152 133.62828 
L 299.824 134.555257 
L 300.72 135.7614 
L 301.28 136.128161 
L 302.064 136.025997 
L 303.52 135.198919 
L 304.192 135.29302 
L 304.752 135.732274 
L 305.984 136.867386 
L 306.32 136.953142 
L 306.88 136.850097 
L 307.552 136.32216 
L 308 136.050828 
L 308.56 136.019263 
L 308.896 136.385069 
L 309.232 136.969499 
L 309.904 138.820309 
L 310.576 140.672323 
L 311.024 141.171333 
L 311.248 141.200476 
L 311.472 140.867371 
L 311.92 139.555422 
L 312.48 136.592782 
L 313.488 130.813028 
L 313.824 129.644598 
L 314.048 129.577961 
L 314.384 129.864087 
L 314.608 130.330453 
L 315.056 132.785645 
L 315.84 138.648191 
L 316.512 142.886867 
L 316.848 143.786415 
L 317.184 144.172679 
L 317.296 144.1367 
L 317.52 143.685863 
L 317.968 142.155716 
L 319.2 136.789698 
L 319.424 136.380531 
L 319.872 136.195539 
L 320.096 136.284309 
L 320.544 137.259868 
L 321.776 140.265405 
L 322.112 140.579922 
L 322.448 140.484307 
L 322.896 140.06126 
L 324.24 137.886814 
L 324.688 137.767981 
L 325.024 137.793186 
L 325.472 138.251917 
L 326.144 139.273519 
L 327.152 140.746813 
L 327.712 141.207264 
L 328.272 141.340159 
L 328.72 141.166634 
L 329.056 140.863961 
L 329.616 139.94799 
L 330.176 138.468173 
L 330.848 135.93865 
L 333.088 126.73781 
L 333.536 126.183929 
L 333.76 126.146091 
L 334.096 126.439893 
L 334.432 126.982944 
L 335.104 128.937527 
L 336.336 132.807877 
L 336.896 133.875571 
L 337.456 134.369714 
L 338.128 134.442152 
L 339.248 134.437327 
L 339.92 134.733111 
L 340.928 135.204772 
L 341.6 135.214152 
L 342.272 134.905394 
L 343.616 134.145993 
L 344.288 134.035321 
L 345.296 134.155327 
L 347.424 134.758979 
L 347.984 135.208719 
L 348.432 135.907628 
L 348.88 137.073346 
L 349.328 138.869581 
L 349.888 142.22161 
L 350.56 147.935455 
L 351.68 159.983017 
L 352.576 168.41162 
L 353.024 170.926859 
L 353.36 171.964631 
L 353.584 171.942384 
L 353.92 171.361809 
L 354.144 170.612003 
L 354.592 167.556596 
L 355.152 161.962923 
L 355.936 151.704553 
L 359.184 106.211701 
L 359.744 101.827819 
L 360.08 100.400458 
L 360.416 99.792295 
L 360.64 99.742094 
L 360.864 100.294666 
L 361.312 102.406573 
L 361.872 107.116192 
L 362.88 118.591955 
L 363.776 128.088077 
L 364.336 131.987551 
L 364.784 133.707788 
L 365.008 133.95205 
L 365.568 133.926879 
L 365.792 133.592506 
L 366.464 132.311406 
L 366.688 132.213128 
L 367.136 132.315107 
L 367.248 132.415272 
L 367.472 133.026811 
L 367.92 134.970962 
L 368.592 139.555587 
L 369.712 147.768047 
L 370.16 149.689295 
L 370.384 150.226468 
L 370.608 150.223262 
L 370.944 149.932996 
L 371.168 149.472261 
L 371.728 147.009622 
L 372.736 142.22102 
L 373.072 141.204947 
L 373.296 141.093567 
L 373.744 141.15176 
L 373.968 141.511711 
L 374.64 143.853728 
L 375.424 146.675702 
L 375.872 147.609349 
L 376.208 147.570071 
L 376.544 147.34076 
L 376.88 146.480429 
L 377.552 143.935219 
L 378.784 139.244774 
L 379.344 137.970602 
L 379.904 137.208908 
L 380.912 136.357142 
L 382.032 135.560084 
L 382.592 135.451935 
L 383.04 135.632816 
L 383.488 136.010334 
L 384.832 137.295984 
L 385.28 137.428447 
L 385.84 137.2849 
L 386.4 136.914917 
L 387.744 136.044795 
L 388.192 135.965677 
L 388.864 136.04989 
L 389.424 136.489276 
L 389.984 137.338438 
L 390.88 139.35706 
L 391.328 140.24317 
L 391.776 140.570772 
L 391.888 140.574432 
L 392.112 140.244744 
L 392.448 139.233949 
L 392.784 137.335605 
L 393.232 133.626778 
L 394.016 124.5415 
L 394.912 114.506778 
L 395.248 112.697734 
L 395.584 111.974269 
L 395.696 111.914545 
L 395.808 112.11759 
L 396.032 113.434954 
L 396.48 117.849242 
L 397.152 129.133844 
L 398.496 154.078897 
L 398.944 159.258543 
L 399.392 161.647121 
L 399.616 161.836203 
L 399.84 161.389227 
L 400.176 160.175898 
L 400.624 156.840092 
L 401.52 148.524125 
L 403.312 132.489765 
L 405.328 115.025958 
L 405.776 113.130517 
L 406.112 112.462832 
L 406.336 112.550792 
L 406.672 112.937785 
L 406.896 113.523534 
L 407.568 116.577679 
L 408.688 123.257355 
L 409.696 130.407621 
L 410.816 140.17671 
L 412.16 151.775446 
L 412.944 156.680264 
L 413.616 159.626942 
L 414.288 161.590876 
L 414.848 162.522876 
L 415.408 162.634153 
L 415.632 162.518002 
L 416.08 161.699669 
L 416.528 160.291943 
L 417.088 157.814633 
L 417.872 153.330656 
L 419.552 142.027217 
L 419.888 139.689106 
L 419.888 139.689106 
" clip-path="url(#p5479281291)" style="fill: none; stroke: #ff0000; stroke-width: 0.25; stroke-linecap: square"/>
   </g>
   <g id="text_8">
    <g id="patch_7">
     <path d="M 30.299688 146.705469 
L 44.32 146.705469 
L 44.32 128.974219 
L 30.299688 128.974219 
L 30.299688 146.705469 
z
" style="fill: none"/>
    </g>
    <!-- E -->
    <g transform="translate(34.299688 140.625781) scale(0.1 -0.1)">
     <defs>
      <path id="DejaVuSansMono-45" d="M 616 4666 
L 3384 4666 
L 3384 4134 
L 1247 4134 
L 1247 2753 
L 3291 2753 
L 3291 2222 
L 1247 2222 
L 1247 531 
L 3444 531 
L 3444 0 
L 616 0 
L 616 4666 
z
" transform="scale(0.015625)"/>
     </defs>
     <use xlink:href="#DejaVuSansMono-45"/>
    </g>
   </g>
   <g id="text_9">
    <g id="patch_8">
     <path d="M 46.4049 115.229494 
L 103.195753 115.229494 
L 103.195753 101.6049 
L 46.4049 101.6049 
L 46.4049 115.229494 
z
" style="fill: none"/>
    </g>
    <!-- A: 0.0012334 m -->
    <g transform="translate(50.4 110.030255) scale(0.0579 -0.0579)">
     <defs>
      <path id="DejaVuSansMono-34" d="M 2297 4091 
L 825 1625 
L 2297 1625 
L 2297 4091 
z
M 2194 4666 
L 2925 4666 
L 2925 1625 
L 3547 1625 
L 3547 1113 
L 2925 1113 
L 2925 0 
L 2297 0 
L 2297 1113 
L 319 1113 
L 319 1709 
L 2194 4666 
z
" transform="scale(0.015625)"/>
     </defs>
     <use xlink:href="#DejaVuSansMono-41"/>
     <use xlink:href="#DejaVuSansMono-3a" x="60.205078"/>
     <use xlink:href="#DejaVuSansMono-20" x="120.410156"/>
     <use xlink:href="#DejaVuSansMono-30" x="180.615234"/>
     <use xlink:href="#DejaVuSansMono-2e" x="240.820312"/>
     <use xlink:href="#DejaVuSansMono-30" x="301.025391"/>
     <use xlink:href="#DejaVuSansMono-30" x="361.230469"/>
     <use xlink:href="#DejaVuSansMono-31" x="421.435547"/>
     <use xlink:href="#DejaVuSansMono-32" x="481.640625"/>
     <use xlink:href="#DejaVuSansMono-33" x="541.845703"/>
     <use xlink:href="#DejaVuSansMono-33" x="602.050781"/>
     <use xlink:href="#DejaVuSansMono-34" x="662.255859"/>
     <use xlink:href="#DejaVuSansMono-20" x="722.460938"/>
     <use xlink:href="#DejaVuSansMono-6d" x="782.666016"/>
    </g>
   </g>
  </g>
  <g id="axes_3">
   <g id="patch_9">
    <path d="M 50.4 230.4 
L 453.6 230.4 
L 453.6 168 
L 50.4 168 
z
" style="fill: #ffffff"/>
   </g>
   <g id="matplotlib.axis_5">
    <g id="xtick_13">
     <g id="line2d_9">
      <defs>
       <path id="m7dfe744cd5" d="M 0 0 
L 0 3.5 
" style="stroke: #000000; stroke-width: 0.8"/>
      </defs>
      <g>
       <use xlink:href="#m7dfe744cd5" x="87.0352" y="230.4" style="stroke: #000000; stroke-width: 0.8"/>
      </g>
     </g>
     <g id="text_10">
      <!-- 23:00 -->
      <g transform="translate(59.926638 259.077229) rotate(-30) scale(0.1 -0.1)">
       <use xlink:href="#DejaVuSansMono-32"/>
       <use xlink:href="#DejaVuSansMono-33" x="60.205078"/>
       <use xlink:href="#DejaVuSansMono-3a" x="120.410156"/>
       <use xlink:href="#DejaVuSansMono-30" x="180.615234"/>
       <use xlink:href="#DejaVuSansMono-30" x="240.820312"/>
      </g>
     </g>
    </g>
    <g id="xtick_14">
     <g id="line2d_10">
      <g>
       <use xlink:href="#m7dfe744cd5" x="154.2352" y="230.4" style="stroke: #000000; stroke-width: 0.8"/>
      </g>
     </g>
     <g id="text_11">
      <!-- 23:10 -->
      <g transform="translate(127.126638 259.077229) rotate(-30) scale(0.1 -0.1)">
       <use xlink:href="#DejaVuSansMono-32"/>
       <use xlink:href="#DejaVuSansMono-33" x="60.205078"/>
       <use xlink:href="#DejaVuSansMono-3a" x="120.410156"/>
       <use xlink:href="#DejaVuSansMono-31" x="180.615234"/>
       <use xlink:href="#DejaVuSansMono-30" x="240.820312"/>
      </g>
     </g>
    </g>
    <g id="xtick_15">
     <g id="line2d_11">
      <g>
       <use xlink:href="#m7dfe744cd5" x="221.4352" y="230.4" style="stroke: #000000; stroke-width: 0.8"/>
      </g>
     </g>
     <g id="text_12">
      <!-- 23:20 -->
      <g transform="translate(194.326638 259.077229) rotate(-30) scale(0.1 -0.1)">
       <use xlink:href="#DejaVuSansMono-32"/>
       <use xlink:href="#DejaVuSansMono-33" x="60.205078"/>
       <use xlink:href="#DejaVuSansMono-3a" x="120.410156"/>
       <use xlink:href="#DejaVuSansMono-32" x="180.615234"/>
       <use xlink:href="#DejaVuSansMono-30" x="240.820312"/>
      </g>
     </g>
    </g>
    <g id="xtick_16">
     <g id="line2d_12">
      <g>
       <use xlink:href="#m7dfe744cd5" x="288.6352" y="230.4" style="stroke: #000000; stroke-width: 0.8"/>
      </g>
     </g>
     <g id="text_13">
      <!-- 23:30 -->
      <g transform="translate(261.526638 259.077229) rotate(-30) scale(0.1 -0.1)">
       <use xlink:href="#DejaVuSansMono-32"/>
       <use xlink:href="#DejaVuSansMono-33" x="60.205078"/>
       <use xlink:href="#DejaVuSansMono-3a" x="120.410156"/>
       <use xlink:href="#DejaVuSansMono-33" x="180.615234"/>
       <use xlink:href="#DejaVuSansMono-30" x="240.820312"/>
      </g>
     </g>
    </g>
    <g id="xtick_17">
     <g id="line2d_13">
      <g>
       <use xlink:href="#m7dfe744cd5" x="355.8352" y="230.4" style="stroke: #000000; stroke-width: 0.8"/>
      </g>
     </g>
     <g id="text_14">
      <!-- 23:40 -->
      <g transform="translate(328.726638 259.077229) rotate(-30) scale(0.1 -0.1)">
       <use xlink:href="#DejaVuSansMono-32"/>
       <use xlink:href="#DejaVuSansMono-33" x="60.205078"/>
       <use xlink:href="#DejaVuSansMono-3a" x="120.410156"/>
       <use xlink:href="#DejaVuSansMono-34" x="180.615234"/>
       <use xlink:href="#DejaVuSansMono-30" x="240.820312"/>
      </g>
     </g>
    </g>
    <g id="xtick_18">
     <g id="line2d_14">
      <g>
       <use xlink:href="#m7dfe744cd5" x="423.0352" y="230.4" style="stroke: #000000; stroke-width: 0.8"/>
      </g>
     </g>
     <g id="text_15">
      <!-- 23:50 -->
      <g transform="translate(395.926638 259.077229) rotate(-30) scale(0.1 -0.1)">
       <use xlink:href="#DejaVuSansMono-32"/>
       <use xlink:href="#DejaVuSansMono-33" x="60.205078"/>
       <use xlink:href="#DejaVuSansMono-3a" x="120.410156"/>
       <use xlink:href="#DejaVuSansMono-35" x="180.615234"/>
       <use xlink:href="#DejaVuSansMono-30" x="240.820312"/>
      </g>
     </g>
    </g>
    <g id="text_16">
     <!-- Time -->
     <g transform="translate(239.959375 272.529853) scale(0.1 -0.1)">
      <defs>
       <path id="DejaVuSansMono-54" d="M 147 4666 
L 3706 4666 
L 3706 4134 
L 2247 4134 
L 2247 0 
L 1613 0 
L 1613 4134 
L 147 4134 
L 147 4666 
z
" transform="scale(0.015625)"/>
      </defs>
      <use xlink:href="#DejaVuSansMono-54"/>
      <use xlink:href="#DejaVuSansMono-69" x="60.205078"/>
      <use xlink:href="#DejaVuSansMono-6d" x="120.410156"/>
      <use xlink:href="#DejaVuSansMono-65" x="180.615234"/>
     </g>
    </g>
    <g id="text_17">
     <!-- 2015-Sep-16 -->
     <g transform="translate(387.376563 271.529853) scale(0.1 -0.1)">
      <use xlink:href="#DejaVuSansMono-32"/>
      <use xlink:href="#DejaVuSansMono-30" x="60.205078"/>
      <use xlink:href="#DejaVuSansMono-31" x="120.410156"/>
      <use xlink:href="#DejaVuSansMono-35" x="180.615234"/>
      <use xlink:href="#DejaVuSansMono-2d" x="240.820312"/>
      <use xlink:href="#DejaVuSansMono-53" x="301.025391"/>
      <use xlink:href="#DejaVuSansMono-65" x="361.230469"/>
      <use xlink:href="#DejaVuSansMono-70" x="421.435547"/>
      <use xlink:href="#DejaVuSansMono-2d" x="481.640625"/>
      <use xlink:href="#DejaVuSansMono-31" x="541.845703"/>
      <use xlink:href="#DejaVuSansMono-36" x="602.050781"/>
     </g>
    </g>
   </g>
   <g id="matplotlib.axis_6">
    <g id="ytick_7"/>
    <g id="ytick_8"/>
    <g id="ytick_9"/>
   </g>
   <g id="line2d_15">
    <path d="M 50.4 199.19912 
L 146.72 199.103232 
L 148.624 198.72143 
L 149.744 198.625362 
L 150.64 198.791261 
L 153.664 199.661467 
L 154.784 199.534995 
L 156.912 199.247395 
L 159.376 199.288603 
L 162.4 199.167937 
L 168.224 199.129841 
L 173.824 199.253834 
L 175.616 199.363241 
L 176.96 199.390214 
L 177.856 199.166392 
L 178.976 198.600104 
L 179.984 198.160201 
L 180.656 198.128688 
L 181.328 198.36486 
L 182.224 198.969595 
L 183.456 199.758064 
L 184.128 199.943784 
L 184.912 199.92902 
L 187.488 199.668863 
L 189.168 199.638084 
L 192.752 199.241735 
L 193.872 199.197196 
L 194.768 198.913975 
L 197.12 197.897464 
L 197.792 197.959258 
L 198.576 198.285849 
L 201.04 199.547094 
L 202.16 199.738167 
L 205.632 199.985665 
L 206.864 199.797236 
L 210.224 199.11196 
L 215.824 198.816366 
L 218.512 199.081393 
L 222.544 199.047509 
L 223.888 198.660585 
L 224.896 198.462856 
L 225.68 198.559283 
L 226.464 198.895453 
L 228.704 200.040397 
L 229.6 200.166009 
L 234.864 200.208769 
L 236.208 199.837643 
L 237.104 199.396907 
L 238 198.713507 
L 239.568 197.459748 
L 240.128 197.291056 
L 240.688 197.350293 
L 241.472 197.718987 
L 242.592 198.261903 
L 243.152 198.304531 
L 243.824 198.095451 
L 245.616 197.310783 
L 246.176 197.422418 
L 246.736 197.791391 
L 247.408 198.539734 
L 248.528 200.237883 
L 249.424 201.488253 
L 249.984 201.956037 
L 250.432 202.092019 
L 250.88 202.021071 
L 251.44 201.707607 
L 254.128 199.821947 
L 256.48 198.967013 
L 257.264 198.893275 
L 258.16 199.059724 
L 259.616 199.358071 
L 260.512 199.28557 
L 261.632 198.945504 
L 263.424 198.106495 
L 264.88 197.511546 
L 265.776 197.362391 
L 266.56 197.470842 
L 267.344 197.834077 
L 268.352 198.605092 
L 271.152 200.96923 
L 272.048 201.325206 
L 272.832 201.411638 
L 273.616 201.297735 
L 274.4 200.964388 
L 275.184 200.37607 
L 276.08 199.380126 
L 277.2 197.760852 
L 278.88 195.291719 
L 279.44 194.797564 
L 279.888 194.65465 
L 280.224 194.72985 
L 280.672 195.104973 
L 281.12 195.810252 
L 281.68 197.135636 
L 282.576 200.006632 
L 283.92 204.324428 
L 284.48 205.443328 
L 284.928 205.86982 
L 285.264 205.889758 
L 285.6 205.655371 
L 286.048 204.976284 
L 286.608 203.65484 
L 288.96 197.384733 
L 289.632 196.452187 
L 290.192 196.051013 
L 290.64 195.966664 
L 291.088 196.075528 
L 291.648 196.440884 
L 293.664 198.078929 
L 294.224 198.161366 
L 295.008 198.011951 
L 296.016 197.828904 
L 296.576 197.929506 
L 297.248 198.277038 
L 299.04 199.353185 
L 299.712 199.435223 
L 300.72 199.289631 
L 303.072 198.905586 
L 303.856 198.991725 
L 304.416 199.270757 
L 304.976 199.786228 
L 305.76 200.851774 
L 306.992 202.590848 
L 307.552 203.015157 
L 308 203.078728 
L 308.448 202.8875 
L 309.008 202.334737 
L 309.792 201.180414 
L 311.808 198.079762 
L 312.592 197.269507 
L 313.264 196.857358 
L 313.936 196.721365 
L 314.608 196.827363 
L 315.504 197.220096 
L 317.744 198.313889 
L 319.088 198.614636 
L 320.88 198.790172 
L 322.448 198.969079 
L 323.456 199.340268 
L 324.688 200.083782 
L 325.696 200.636974 
L 326.256 200.738759 
L 326.816 200.614001 
L 327.376 200.253948 
L 328.272 199.334539 
L 329.28 198.335072 
L 329.84 198.085554 
L 330.288 198.130807 
L 330.736 198.401421 
L 331.296 199.004288 
L 333.2 201.315845 
L 333.76 201.543972 
L 334.208 201.517512 
L 334.768 201.254451 
L 335.44 200.67743 
L 336.448 199.465833 
L 338.352 197.013434 
L 338.8 196.767014 
L 339.248 196.772617 
L 339.696 197.023964 
L 340.368 197.726491 
L 341.712 199.208331 
L 342.384 199.621061 
L 343.056 199.784094 
L 343.728 199.713776 
L 344.4 199.414215 
L 346.528 198.210203 
L 346.976 198.345244 
L 347.424 198.704323 
L 348.208 199.701903 
L 348.992 200.617219 
L 349.44 200.81945 
L 349.776 200.745696 
L 350.224 200.343251 
L 350.784 199.46452 
L 351.792 197.792618 
L 352.24 197.433378 
L 352.576 197.41025 
L 352.912 197.593309 
L 353.472 198.251151 
L 354.704 199.90273 
L 355.152 200.163956 
L 355.6 200.185787 
L 356.272 199.942194 
L 356.944 199.733616 
L 357.392 199.784082 
L 357.952 200.091509 
L 359.072 200.84115 
L 359.52 200.832456 
L 359.968 200.528191 
L 360.528 199.777725 
L 361.984 197.529673 
L 362.432 197.216989 
L 362.88 197.163994 
L 363.328 197.332713 
L 364.112 197.94102 
L 365.232 198.786797 
L 366.016 199.077233 
L 370.832 199.990689 
L 371.84 199.948061 
L 373.968 199.735855 
L 376.992 199.792861 
L 377.888 199.369153 
L 378.896 198.910589 
L 379.568 198.838003 
L 381.472 198.85794 
L 382.144 198.439529 
L 383.376 197.572803 
L 383.824 197.518677 
L 384.272 197.691873 
L 384.832 198.211066 
L 386.736 200.384967 
L 387.072 200.414942 
L 387.408 200.258525 
L 387.856 199.763493 
L 388.528 198.557812 
L 389.536 196.679429 
L 389.984 196.252063 
L 390.32 196.207108 
L 390.656 196.413112 
L 391.104 197.046925 
L 391.888 198.745271 
L 392.56 200.084293 
L 393.008 200.56838 
L 393.344 200.639839 
L 393.68 200.472954 
L 394.24 199.821686 
L 395.024 198.931627 
L 395.36 198.8503 
L 395.696 199.024433 
L 396.144 199.604724 
L 396.928 200.736282 
L 397.152 200.816811 
L 397.376 200.691381 
L 397.6 200.309964 
L 397.936 199.205522 
L 398.384 196.764006 
L 399.84 187.361082 
L 400.064 186.975994 
L 400.176 187.003527 
L 400.4 187.49515 
L 400.736 189.446358 
L 401.184 194.221764 
L 401.856 204.715779 
L 402.864 220.237729 
L 403.312 224.063803 
L 403.648 225.119758 
L 403.76 225.106332 
L 403.984 224.625814 
L 404.32 222.820927 
L 404.88 217.89811 
L 406 207.73593 
L 406.56 204.771295 
L 407.12 202.983612 
L 407.792 200.832371 
L 408.24 198.550634 
L 408.8 194.343812 
L 409.92 183.300794 
L 410.704 176.841733 
L 411.152 174.546553 
L 411.488 173.571384 
L 411.824 173.2 
L 412.048 173.261808 
L 412.384 173.758391 
L 412.832 175.081128 
L 413.392 177.62194 
L 414.176 182.472058 
L 417.088 202.071515 
L 418.88 212.569925 
L 419.888 218.308102 
L 419.888 218.308102 
" clip-path="url(#pd3cb93c4fe)" style="fill: none; stroke: #000000; stroke-width: 0.25; stroke-linecap: square"/>
   </g>
   <g id="line2d_16">
    <path d="M 50.4 199.2 
L 419.888 199.2 
" clip-path="url(#pd3cb93c4fe)" style="fill: none; stroke-dasharray: 0.925,0.4; stroke-dashoffset: 0; stroke: #000000; stroke-width: 0.25"/>
   </g>
   <g id="line2d_17">
    <path d="M 50.4 199.199749 
L 147.392 199.107756 
L 148.4 198.820419 
L 150.08 198.244477 
L 150.752 198.281305 
L 151.424 198.568897 
L 152.32 199.208612 
L 153.328 199.850074 
L 153.888 200.007534 
L 154.56 200.003272 
L 155.68 199.702046 
L 156.912 199.413596 
L 158.368 199.35904 
L 161.504 199.310312 
L 168 198.998943 
L 170.24 199.059525 
L 177.968 199.469754 
L 178.64 199.136655 
L 179.648 198.282473 
L 180.432 197.672305 
L 180.992 197.543035 
L 181.328 197.585075 
L 181.888 197.935292 
L 182.784 198.928457 
L 183.792 199.967708 
L 184.464 200.282116 
L 185.248 200.287852 
L 187.376 199.910169 
L 189.84 199.791062 
L 191.632 199.545773 
L 194.32 199.563919 
L 194.992 199.172452 
L 196.224 198.078759 
L 197.008 197.504289 
L 197.68 197.310212 
L 198.464 197.434371 
L 199.472 198.039252 
L 201.04 199.043853 
L 201.936 199.362665 
L 203.392 199.591565 
L 205.296 199.952406 
L 206.528 200.088093 
L 207.536 199.941999 
L 208.992 199.42047 
L 210.448 198.999825 
L 211.792 198.871007 
L 214.704 198.944749 
L 217.84 199.194318 
L 219.408 199.52867 
L 221.424 199.998072 
L 222.096 199.914307 
L 222.768 199.572917 
L 223.664 198.850289 
L 224.56 198.187835 
L 225.008 198.017723 
L 225.792 198.113432 
L 226.576 198.679553 
L 228.256 200.051517 
L 228.928 200.196903 
L 229.712 200.046331 
L 231.168 199.581344 
L 231.952 199.643468 
L 232.96 200.102393 
L 233.856 200.481916 
L 234.528 200.529594 
L 235.2 200.312148 
L 236.32 199.574301 
L 237.552 198.816673 
L 239.344 197.825868 
L 240.128 196.994343 
L 242.144 194.536063 
L 242.592 194.430364 
L 242.928 194.592167 
L 243.376 195.06639 
L 244.048 196.333161 
L 245.616 199.587572 
L 246.064 200.05505 
L 246.4 200.22915 
L 247.296 200.135777 
L 247.856 200.069468 
L 248.304 200.144702 
L 248.864 200.645093 
L 249.536 201.722698 
L 250.656 203.648569 
L 251.104 204.024469 
L 251.44 204.104731 
L 251.888 203.919508 
L 252.224 203.606195 
L 253.456 201.859793 
L 254.24 200.969919 
L 255.024 200.423055 
L 257.04 199.468532 
L 257.936 199.189759 
L 258.944 199.207699 
L 260.848 199.400763 
L 261.52 199.134707 
L 262.304 198.527646 
L 263.312 197.41098 
L 264.88 195.704471 
L 265.552 195.262743 
L 266.224 195.099635 
L 266.896 195.211797 
L 267.568 195.628131 
L 268.352 196.428813 
L 269.472 197.941472 
L 270.704 199.511334 
L 271.488 200.184513 
L 272.384 200.638479 
L 275.632 201.756651 
L 276.192 201.630216 
L 276.752 201.171461 
L 277.312 200.342221 
L 277.984 198.836078 
L 278.992 195.798864 
L 280 192.816728 
L 280.448 191.958305 
L 280.896 191.670752 
L 281.12 191.711462 
L 281.456 192.23176 
L 281.792 193.108583 
L 282.352 195.605797 
L 283.136 200.703699 
L 284.704 211.30041 
L 285.264 213.279971 
L 285.488 213.394817 
L 285.936 213.298895 
L 286.16 212.864276 
L 286.72 210.444073 
L 287.504 205.342925 
L 288.736 197.368064 
L 289.296 195.204377 
L 289.632 194.445365 
L 289.856 194.338529 
L 290.416 194.419034 
L 290.752 194.917718 
L 292.096 197.037683 
L 292.544 197.288653 
L 293.104 197.141666 
L 293.44 196.837391 
L 294.56 195.366964 
L 295.344 194.550527 
L 295.792 194.320222 
L 296.464 194.414002 
L 296.912 194.805225 
L 297.472 195.584825 
L 298.368 197.274319 
L 299.264 198.821477 
L 299.712 199.297838 
L 300.16 199.517668 
L 300.608 199.437364 
L 301.056 199.181951 
L 302.736 197.770623 
L 303.184 197.696735 
L 303.744 197.742719 
L 304.64 198.226974 
L 305.424 198.873682 
L 305.984 199.557429 
L 306.544 200.594667 
L 307.104 202.123871 
L 307.888 205.0337 
L 308.896 208.744145 
L 309.344 209.443723 
L 309.568 209.538498 
L 309.792 209.27978 
L 310.128 208.485062 
L 310.464 206.972853 
L 311.024 203.367856 
L 312.48 193.24926 
L 312.816 192.103598 
L 313.264 191.827067 
L 313.488 191.908691 
L 313.824 192.901588 
L 314.272 194.725652 
L 315.168 198.5634 
L 315.504 199.488358 
L 315.952 199.741159 
L 316.176 199.746929 
L 316.4 199.429808 
L 317.296 197.236352 
L 317.744 196.319815 
L 318.192 196.078629 
L 318.416 196.105371 
L 318.752 196.639852 
L 319.2 197.743476 
L 320.32 200.959422 
L 320.656 201.439085 
L 320.992 201.684064 
L 321.216 201.64724 
L 321.664 201.238209 
L 322.224 200.271839 
L 323.12 198.773164 
L 323.568 198.415137 
L 323.904 198.349208 
L 324.464 198.542593 
L 325.136 199.164787 
L 326.592 200.605115 
L 327.264 200.976298 
L 327.712 201.047754 
L 328.272 200.835418 
L 328.72 200.353557 
L 329.168 199.606666 
L 329.952 197.82191 
L 330.848 195.813596 
L 331.408 195.257921 
L 331.632 195.283631 
L 332.08 195.717169 
L 332.416 196.484361 
L 332.976 198.344997 
L 334.32 203.210247 
L 334.656 203.906528 
L 334.88 203.978084 
L 335.328 203.844491 
L 335.552 203.514548 
L 336.112 201.888497 
L 337.456 197.323561 
L 338.016 196.410184 
L 338.688 196.377657 
L 339.024 196.666705 
L 339.92 197.46001 
L 340.256 197.590322 
L 340.816 197.496429 
L 341.376 197.173958 
L 341.936 196.90567 
L 342.608 196.963551 
L 343.056 197.364832 
L 343.728 198.304589 
L 344.736 199.76439 
L 345.184 200.158841 
L 345.744 200.283738 
L 346.08 200.172727 
L 346.64 199.73847 
L 348.096 198.348959 
L 348.544 198.260038 
L 348.88 198.444592 
L 349.328 198.947313 
L 350.112 200.47144 
L 351.008 202.183325 
L 351.232 202.390247 
L 351.904 202.405215 
L 352.24 201.939474 
L 352.688 201.056195 
L 353.808 198.629804 
L 354.144 198.376881 
L 354.592 198.300162 
L 354.816 198.495582 
L 355.376 199.39488 
L 356.384 201.30251 
L 356.72 201.655412 
L 357.392 201.70677 
L 357.84 201.298112 
L 358.96 200.197666 
L 359.52 200.123548 
L 359.856 200.30522 
L 360.864 201.221266 
L 361.312 201.449539 
L 361.76 201.495539 
L 362.208 201.226001 
L 362.656 200.744215 
L 364.336 198.808426 
L 365.008 198.563304 
L 366.912 198.301153 
L 367.584 197.835689 
L 369.936 195.909865 
L 370.608 195.822632 
L 371.616 196.011018 
L 372.736 196.187462 
L 374.416 196.294878 
L 374.976 196.622463 
L 375.648 197.352295 
L 377.664 200.026492 
L 378.112 200.231587 
L 378.784 200.115233 
L 379.456 199.624057 
L 380.688 198.658514 
L 381.36 198.452149 
L 382.032 198.525228 
L 382.704 198.831927 
L 383.6 199.506603 
L 384.496 200.448431 
L 386.4 202.63427 
L 386.96 202.807456 
L 387.296 202.649461 
L 387.632 202.332731 
L 388.192 201.255922 
L 388.976 198.94623 
L 389.872 196.408545 
L 390.208 195.954257 
L 390.544 196.099529 
L 390.88 196.545263 
L 391.216 197.93753 
L 391.664 200.721389 
L 392.448 207.724487 
L 393.344 215.5948 
L 393.68 216.799996 
L 394.016 217.29844 
L 394.128 217.216198 
L 394.352 216.213366 
L 394.8 212.511083 
L 395.36 204.38603 
L 397.04 176.369387 
L 397.264 174.504372 
L 397.488 174.209963 
L 397.824 174.105566 
L 397.936 174.152742 
L 398.16 175.591588 
L 398.72 182.345635 
L 400.848 213.952069 
L 401.296 217.185265 
L 401.744 219.174141 
L 402.192 220.298567 
L 402.752 221.022961 
L 403.312 221.063082 
L 403.536 220.959422 
L 403.872 220.285219 
L 404.208 219.141598 
L 404.656 216.584359 
L 405.216 211.589297 
L 406 201.934071 
L 407.568 182.163954 
L 408.24 176.257143 
L 408.912 172.122075 
L 409.472 169.809686 
L 409.92 168.628113 
L 410.368 168.1709 
L 410.592 168.148681 
L 410.928 168.541784 
L 411.264 169.2495 
L 411.824 171.389107 
L 412.496 175.088004 
L 413.504 182.090427 
L 414.736 192.232235 
L 418.096 221.585203 
L 418.88 225.958764 
L 419.552 228.569417 
L 419.888 229.436891 
L 419.888 229.436891 
" clip-path="url(#pd3cb93c4fe)" style="fill: none; stroke: #ff0000; stroke-width: 0.25; stroke-linecap: square"/>
   </g>
   <g id="patch_10">
    <path d="M 50.4 230.4 
L 453.6 230.4 
" style="fill: none; stroke: #000000; stroke-width: 0.8; stroke-linejoin: miter; stroke-linecap: square"/>
   </g>
   <g id="text_18">
    <g id="patch_11">
     <path d="M 30.299688 209.105469 
L 44.32 209.105469 
L 44.32 191.374219 
L 30.299688 191.374219 
L 30.299688 209.105469 
z
" style="fill: none"/>
    </g>
    <!-- Z -->
    <g transform="translate(34.299688 203.025781) scale(0.1 -0.1)">
     <defs>
      <path id="DejaVuSansMono-5a" d="M 556 4666 
L 3584 4666 
L 3584 4184 
L 1147 531 
L 3653 531 
L 3653 0 
L 488 0 
L 488 481 
L 2859 4134 
L 556 4134 
L 556 4666 
z
" transform="scale(0.015625)"/>
     </defs>
     <use xlink:href="#DejaVuSansMono-5a"/>
    </g>
   </g>
   <g id="text_19">
    <g id="patch_12">
     <path d="M 46.4049 177.629494 
L 103.195753 177.629494 
L 103.195753 164.0049 
L 46.4049 164.0049 
L 46.4049 177.629494 
z
" style="fill: none"/>
    </g>
    <!-- A: 0.0015287 m -->
    <g transform="translate(50.4 172.430255) scale(0.0579 -0.0579)">
     <use xlink:href="#DejaVuSansMono-41"/>
     <use xlink:href="#DejaVuSansMono-3a" x="60.205078"/>
     <use xlink:href="#DejaVuSansMono-20" x="120.410156"/>
     <use xlink:href="#DejaVuSansMono-30" x="180.615234"/>
     <use xlink:href="#DejaVuSansMono-2e" x="240.820312"/>
     <use xlink:href="#DejaVuSansMono-30" x="301.025391"/>
     <use xlink:href="#DejaVuSansMono-30" x="361.230469"/>
     <use xlink:href="#DejaVuSansMono-31" x="421.435547"/>
     <use xlink:href="#DejaVuSansMono-35" x="481.640625"/>
     <use xlink:href="#DejaVuSansMono-32" x="541.845703"/>
     <use xlink:href="#DejaVuSansMono-38" x="602.050781"/>
     <use xlink:href="#DejaVuSansMono-37" x="662.255859"/>
     <use xlink:href="#DejaVuSansMono-20" x="722.460938"/>
     <use xlink:href="#DejaVuSansMono-6d" x="782.666016"/>
    </g>
   </g>
  </g>
 </g>
 <defs>
  <clipPath id="p08a6cc575e">
   <rect x="50.4" y="43.2" width="403.2" height="62.4"/>
  </clipPath>
  <clipPath id="p5479281291">
   <rect x="50.4" y="105.6" width="403.2" height="62.4"/>
  </clipPath>
  <clipPath id="pd3cb93c4fe">
   <rect x="50.4" y="168" width="403.2" height="62.4"/>
  </clipPath>
 </defs>
</svg>
